<?xml version="1.0" encoding="UTF-8"?>
<!DOCTYPE svg PUBLIC "-//W3C//DTD SVG 1.1//EN" "http://www.w3.org/Graphics/SVG/1.1/DTD/svg11.dtd">
<!-- Creator: CorelDRAW 2018 (64-Bit) -->
<svg xmlns="http://www.w3.org/2000/svg" xml:space="preserve" width="29px" height="24px" version="1.1" style="shape-rendering:geometricPrecision; text-rendering:geometricPrecision; image-rendering:optimizeQuality; fill-rule:evenodd; clip-rule:evenodd"
viewBox="0 0 0.446 0.363"
 xmlns:xlink="http://www.w3.org/1999/xlink">
 <defs>
  <style type="text/css">
   <![CDATA[
    .fil0 {fill:white;fill-rule:nonzero}
   ]]>
  </style>
 </defs>
 <g id="Слой_x0020_1">
  <metadata id="CorelCorpID_0Corel-Layer"/>
  <path class="fil0" d="M0.446 0.279l-0.046 0.028 0.03 0.056 -0.414 0 0.03 -0.056 -0.046 -0.028 0 -0.13 0.024 -0.019c-0.008,-0.008 -0.013,-0.019 -0.013,-0.031 0,-0.013 0.005,-0.024 0.014,-0.033 0.009,-0.009 0.02,-0.013 0.032,-0.013 0.013,0 0.023,0.004 0.032,0.013 0.009,0.009 0.014,0.02 0.014,0.033 0,0.012 -0.005,0.023 -0.013,0.031l0.024 0.019 0 0.028 0.024 -0.045 0.028 0 0 -0.035 0.024 -0.019c-0.009,-0.009 -0.013,-0.02 -0.013,-0.032 0,-0.013 0.005,-0.024 0.014,-0.033 0.009,-0.008 0.019,-0.013 0.032,-0.013 0.013,0 0.023,0.005 0.032,0.013 0.009,0.009 0.014,0.02 0.014,0.033 0,0.012 -0.005,0.023 -0.013,0.032l0.024 0.019 0 0.035 0.028 0 0.024 0.045 0 -0.028 0.024 -0.019c-0.008,-0.008 -0.013,-0.019 -0.013,-0.031 0,-0.013 0.005,-0.024 0.014,-0.033 0.009,-0.009 0.019,-0.013 0.032,-0.013 0.012,0 0.023,0.004 0.032,0.013 0.009,0.009 0.013,0.02 0.013,0.033 0,0.012 -0.004,0.023 -0.013,0.031l0.025 0.019 0 0.13zm-0.016 -0.009l0 -0.113 -0.023 -0.019 0 -0.016c0.008,-0.005 0.012,-0.013 0.012,-0.023 0,-0.009 -0.003,-0.016 -0.009,-0.021 -0.006,-0.006 -0.013,-0.009 -0.021,-0.009 -0.009,0 -0.016,0.003 -0.021,0.008 -0.006,0.006 -0.009,0.013 -0.009,0.022 0,0.01 0.004,0.018 0.011,0.023l0 0.016 -0.023 0.019 0 0.049 0.045 0.085 0.038 -0.021zm-0.166 -0.138l0 -0.028 -0.022 -0.018 0 -0.016c0.007,-0.006 0.011,-0.014 0.011,-0.024 0,-0.008 -0.003,-0.015 -0.009,-0.021 -0.006,-0.006 -0.013,-0.009 -0.021,-0.009 -0.008,0 -0.016,0.003 -0.021,0.009 -0.006,0.006 -0.009,0.013 -0.009,0.021 0,0.01 0.004,0.018 0.011,0.024l0 0.016 -0.022 0.018 0 0.028 0.082 0zm0.134 0.212l-0.102 -0.192 -0.147 0 -0.102 0.192 0.351 0zm-0.3 -0.138l0 -0.049 -0.022 -0.019 0 -0.016c0.007,-0.005 0.011,-0.013 0.011,-0.023 0,-0.009 -0.003,-0.016 -0.009,-0.022 -0.005,-0.005 -0.013,-0.008 -0.021,-0.008 -0.008,0 -0.015,0.003 -0.021,0.009 -0.006,0.005 -0.009,0.012 -0.009,0.021 0,0.01 0.004,0.018 0.012,0.023l0 0.016 -0.023 0.019 0 0.113 0.038 0.021 0.044 -0.085z"/>
 </g>
</svg>
