<?xml version="1.0" encoding="UTF-8"?>
<!DOCTYPE svg PUBLIC "-//W3C//DTD SVG 1.1//EN" "http://www.w3.org/Graphics/SVG/1.1/DTD/svg11.dtd">
<!-- Creator: CorelDRAW 2018 (64-Bit) -->
<svg xmlns="http://www.w3.org/2000/svg" xml:space="preserve" width="25px" height="25px" version="1.1" style="shape-rendering:geometricPrecision; text-rendering:geometricPrecision; image-rendering:optimizeQuality; fill-rule:evenodd; clip-rule:evenodd"
viewBox="0 0 0.33 0.33"
 xmlns:xlink="http://www.w3.org/1999/xlink">
 <defs>
  <style type="text/css">
   <![CDATA[
    .fil0 {fill:white;fill-rule:nonzero}
   ]]>
  </style>
 </defs>
 <g id="Слой_x0020_1">
  <metadata id="CorelCorpID_0Corel-Layer"/>
  <path class="fil0" d="M0.33 0.105c0,0.029 -0.01,0.054 -0.031,0.074 -0.02,0.021 -0.045,0.031 -0.074,0.031 -0.016,0 -0.032,-0.003 -0.046,-0.009l-0.013 0.039 -0.031 0 -0.028 0.06 -0.034 0 -0.013 0.03 -0.06 0 0 -0.062 0.123 -0.144c-0.001,-0.007 -0.002,-0.014 -0.002,-0.02 0,-0.034 0.012,-0.06 0.036,-0.08 0.02,-0.016 0.042,-0.024 0.068,-0.024 0.03,0 0.054,0.009 0.074,0.027 0.021,0.019 0.031,0.045 0.031,0.078zm-0.02 0c0,-0.027 -0.008,-0.048 -0.026,-0.064 -0.016,-0.015 -0.036,-0.022 -0.059,-0.022 -0.025,0 -0.045,0.008 -0.061,0.024 -0.016,0.016 -0.023,0.036 -0.023,0.061 0,0.008 0,0.016 0.002,0.023l-0.123 0.145 0 0.038 0.027 0 0.013 -0.029 0.033 0 0.029 -0.06 0.03 0 0.013 -0.047c0.004,0.005 0.013,0.009 0.027,0.013 0.012,0.003 0.023,0.005 0.033,0.005 0.024,0 0.044,-0.009 0.06,-0.026 0.017,-0.017 0.025,-0.037 0.025,-0.061zm-0.04 -0.014c0,0.009 -0.003,0.016 -0.009,0.022 -0.006,0.006 -0.013,0.009 -0.022,0.009 -0.008,0 -0.015,-0.003 -0.021,-0.009 -0.007,-0.006 -0.01,-0.013 -0.01,-0.022 0,-0.008 0.003,-0.016 0.01,-0.022 0.006,-0.006 0.013,-0.009 0.021,-0.009 0.009,0 0.016,0.003 0.022,0.009 0.006,0.006 0.009,0.014 0.009,0.022zm-0.015 0c0,-0.004 -0.001,-0.007 -0.004,-0.01 -0.003,-0.003 -0.007,-0.004 -0.011,-0.004 -0.004,0 -0.007,0.001 -0.01,0.004 -0.003,0.003 -0.004,0.006 -0.004,0.01 0,0.004 0.001,0.008 0.004,0.011 0.003,0.002 0.006,0.004 0.01,0.004 0.004,0 0.008,-0.002 0.011,-0.004 0.003,-0.003 0.004,-0.007 0.004,-0.011z"/>
 </g>
</svg>
