<?xml version="1.0" encoding="UTF-8"?>
<!DOCTYPE svg PUBLIC "-//W3C//DTD SVG 1.1//EN" "http://www.w3.org/Graphics/SVG/1.1/DTD/svg11.dtd">
<!-- Creator: CorelDRAW 2018 (64-Bit) -->
<svg xmlns="http://www.w3.org/2000/svg" xml:space="preserve" width="17px" height="25px" version="1.1" style="shape-rendering:geometricPrecision; text-rendering:geometricPrecision; image-rendering:optimizeQuality; fill-rule:evenodd; clip-rule:evenodd"
viewBox="0 0 0.155 0.225"
 xmlns:xlink="http://www.w3.org/1999/xlink">
 <defs>
  <style type="text/css">
   <![CDATA[
    .fil0 {fill:white;fill-rule:nonzero}
   ]]>
  </style>
 </defs>
 <g id="Слой_x0020_1">
  <metadata id="CorelCorpID_0Corel-Layer"/>
  <path class="fil0" d="M0.049 0.169c-0.003,0 -0.005,-0.001 -0.008,-0.002 -0.003,-0.001 -0.005,-0.002 -0.007,-0.004 -0.002,-0.002 -0.003,-0.004 -0.004,-0.007 -0.001,-0.003 -0.002,-0.005 -0.002,-0.008l0 -0.127c0,-0.003 0.001,-0.006 0.002,-0.008 0.001,-0.003 0.002,-0.005 0.004,-0.007 0.002,-0.002 0.004,-0.003 0.007,-0.004 0.003,-0.001 0.005,-0.002 0.008,-0.002l0.057 0c0.003,0 0.005,0.001 0.008,0.002 0.002,0.001 0.005,0.002 0.007,0.004 0.001,0.002 0.003,0.004 0.004,0.007 0.001,0.002 0.002,0.005 0.002,0.008l0 0.127c0,0.003 -0.001,0.005 -0.002,0.008 -0.001,0.003 -0.003,0.005 -0.004,0.007 -0.002,0.002 -0.005,0.003 -0.007,0.004 -0.003,0.001 -0.005,0.002 -0.008,0.002l-0.057 0zm-0.007 -0.021c0,0.002 0.001,0.003 0.002,0.005 0.002,0.001 0.003,0.002 0.005,0.002l0.057 0c0.001,0 0.003,-0.001 0.004,-0.002 0.002,-0.002 0.003,-0.003 0.003,-0.005l0 -0.127c0,-0.002 -0.001,-0.003 -0.003,-0.005 -0.001,-0.001 -0.003,-0.002 -0.004,-0.002l-0.057 0c-0.002,0 -0.003,0.001 -0.005,0.002 -0.001,0.002 -0.002,0.003 -0.002,0.005l0 0.127zm0.113 -0.035l0 0.039c0,0.007 -0.001,0.012 -0.004,0.018 -0.002,0.005 -0.005,0.01 -0.009,0.014 -0.004,0.004 -0.009,0.007 -0.014,0.01 -0.006,0.002 -0.012,0.003 -0.018,0.003l-0.026 0 0 0.014 0.029 0 0 0.014 -0.071 0 0 -0.014 0.028 0 0 -0.014 -0.025 0c-0.007,0 -0.012,-0.001 -0.018,-0.003 -0.005,-0.003 -0.01,-0.006 -0.014,-0.01 -0.004,-0.004 -0.007,-0.009 -0.009,-0.014 -0.003,-0.006 -0.004,-0.011 -0.004,-0.018l0 -0.039 0.014 0c0,0.004 0,0.008 0,0.013 -0.001,0.005 -0.001,0.01 0,0.016 0,0.005 0,0.01 0.001,0.015 0.001,0.005 0.002,0.009 0.005,0.013 0.002,0.004 0.005,0.007 0.009,0.009 0.004,0.003 0.009,0.004 0.016,0.004l0.065 0c0.007,0 0.012,-0.001 0.016,-0.004 0.004,-0.002 0.007,-0.005 0.009,-0.009 0.002,-0.004 0.004,-0.008 0.005,-0.013 0.001,-0.005 0.001,-0.01 0.001,-0.015 0,-0.006 0,-0.011 0,-0.016 0,-0.005 0,-0.009 0,-0.013l0.014 0z"/>
 </g>
</svg>
