<?xml version="1.0" encoding="UTF-8"?>
<!DOCTYPE svg PUBLIC "-//W3C//DTD SVG 1.1//EN" "http://www.w3.org/Graphics/SVG/1.1/DTD/svg11.dtd">
<!-- Creator: CorelDRAW 2018 (64-Bit) -->
<svg xmlns="http://www.w3.org/2000/svg" xml:space="preserve" width="25px" height="19px" version="1.1" style="shape-rendering:geometricPrecision; text-rendering:geometricPrecision; image-rendering:optimizeQuality; fill-rule:evenodd; clip-rule:evenodd"
viewBox="0 0 0.33 0.247"
 xmlns:xlink="http://www.w3.org/1999/xlink">
 <defs>
  <style type="text/css">
   <![CDATA[
    .fil0 {fill:white;fill-rule:nonzero}
   ]]>
  </style>
 </defs>
 <g id="Слой_x0020_1">
  <metadata id="CorelCorpID_0Corel-Layer"/>
  <path class="fil0" d="M0.33 0.041l0 0.206 -0.33 0 0 -0.206 0.103 0 0 -0.02c0,-0.003 0.001,-0.006 0.002,-0.008 0.001,-0.003 0.002,-0.005 0.004,-0.007 0.002,-0.002 0.004,-0.003 0.007,-0.004 0.002,-0.001 0.005,-0.002 0.008,-0.002l0.082 0c0.003,0 0.006,0.001 0.008,0.002 0.003,0.001 0.005,0.002 0.007,0.004 0.002,0.002 0.003,0.004 0.004,0.007 0.001,0.002 0.002,0.005 0.002,0.008l0 0.02 0.103 0zm-0.206 0l0.082 0 0 -0.02 -0.082 0 0 0.02zm-0.103 0.021l0 0.03 0.103 0.051 0 -0.019 0.082 0 0 0.019 0.103 -0.051 0 -0.03 -0.288 0zm0.123 0.082l0 0.021 0.042 0 0 -0.021 -0.042 0zm0.165 0.083l0 -0.112 -0.103 0.051 0 0.02 -0.082 0 0 -0.02 -0.103 -0.051 0 0.112 0.288 0z"/>
 </g>
</svg>
