<?xml version="1.0" encoding="UTF-8"?>
<!DOCTYPE svg PUBLIC "-//W3C//DTD SVG 1.1//EN" "http://www.w3.org/Graphics/SVG/1.1/DTD/svg11.dtd">
<!-- Creator: CorelDRAW 2018 (64-Bit) -->
<svg xmlns="http://www.w3.org/2000/svg" xml:space="preserve" width="47px" height="47px" version="1.1" style="shape-rendering:geometricPrecision; text-rendering:geometricPrecision; image-rendering:optimizeQuality; fill-rule:evenodd; clip-rule:evenodd"
viewBox="0 0 2.456 2.455"
 xmlns:xlink="http://www.w3.org/1999/xlink">
 <defs>
  <style type="text/css">
   <![CDATA[
    .fil0 {fill:#25AAE1;fill-rule:nonzero}
   ]]>
  </style>
 </defs>
 <g id="Слой_x0020_1">
  <metadata id="CorelCorpID_0Corel-Layer"/>
  <g id="_2545097593344">
   <path class="fil0" d="M1.229 0c-0.677,0 -1.229,0.551 -1.229,1.227 0,0.569 0.405,1.074 0.963,1.2 0.085,0.018 0.174,0.028 0.266,0.028 0.037,0 0.074,0 0.11,-0.006 0.623,-0.051 1.117,-0.587 1.117,-1.222 0,-0.676 -0.551,-1.227 -1.227,-1.227l0 0zm0 0.06c0.645,0 1.166,0.521 1.166,1.167 0,0.611 -0.469,1.114 -1.066,1.162 -0.033,0.006 -0.067,0.006 -0.1,0.006 -0.087,0 -0.171,-0.008 -0.253,-0.027 -0.524,-0.117 -0.916,-0.585 -0.916,-1.141 0,-0.646 0.525,-1.167 1.169,-1.167z"/>
   <path class="fil0" d="M1.362 0.982c0.018,-0.021 0.054,-0.037 0.106,-0.037 0.048,0 0.105,0.007 0.159,0.023l0.046 -0.245c-0.094,-0.033 -0.19,-0.042 -0.29,-0.042 -0.099,0 -0.178,0.015 -0.241,0.052 -0.063,0.034 -0.106,0.074 -0.129,0.132 -0.025,0.052 -0.037,0.138 -0.037,0.247l0 0.096 -0.193 0 0 0.28 0.193 0 0 0.88c0.082,0.019 0.166,0.027 0.253,0.027 0.033,0 0.067,0 0.1,-0.006l0 -0.901 0.256 0 0 -0.28 -0.256 0 0 -0.09c0,-0.069 0.009,-0.112 0.033,-0.136z"/>
  </g>
 </g>
</svg>
