<?xml version="1.0" encoding="UTF-8"?>
<!DOCTYPE svg PUBLIC "-//W3C//DTD SVG 1.1//EN" "http://www.w3.org/Graphics/SVG/1.1/DTD/svg11.dtd">
<!-- Creator: CorelDRAW 2018 (64-Bit) -->
<svg xmlns="http://www.w3.org/2000/svg" xml:space="preserve" width="47px" height="47px" version="1.1" style="shape-rendering:geometricPrecision; text-rendering:geometricPrecision; image-rendering:optimizeQuality; fill-rule:evenodd; clip-rule:evenodd"
viewBox="0 0 2.455 2.455"
 xmlns:xlink="http://www.w3.org/1999/xlink">
 <defs>
  <style type="text/css">
   <![CDATA[
    .fil1 {fill:#25AAE1}
    .fil0 {fill:#25AAE1;fill-rule:nonzero}
   ]]>
  </style>
 </defs>
 <g id="Слой_x0020_1">
  <metadata id="CorelCorpID_0Corel-Layer"/>
  <g id="_2545099960384">
   <path class="fil0" d="M1.228 0c-0.677,0 -1.228,0.551 -1.228,1.228 0,0.677 0.551,1.227 1.228,1.227 0.676,0 1.227,-0.55 1.227,-1.227 0,-0.677 -0.551,-1.228 -1.227,-1.228l0 0zm0 0.06c0.644,0 1.167,0.522 1.167,1.168 0,0.644 -0.523,1.168 -1.167,1.168 -0.645,0 -1.168,-0.524 -1.168,-1.168 0,-0.646 0.523,-1.168 1.168,-1.168z"/>
   <path class="fil1" d="M0.521 1.703c0.111,0.007 0.219,-0.009 0.32,-0.054 0.046,-0.021 0.087,-0.045 0.128,-0.078 -0.048,-0.001 -0.092,-0.013 -0.132,-0.033 -0.069,-0.035 -0.117,-0.09 -0.147,-0.164 -0.006,-0.016 -0.006,-0.016 0.012,-0.015 0.049,0.005 0.085,0.004 0.112,-0.007 -0.026,-0.009 -0.051,-0.014 -0.072,-0.028 -0.102,-0.056 -0.157,-0.144 -0.166,-0.262 -0.001,-0.013 0.003,-0.015 0.015,-0.009 0.036,0.02 0.075,0.028 0.12,0.033 -0.019,-0.018 -0.036,-0.032 -0.051,-0.047 -0.085,-0.091 -0.105,-0.236 -0.049,-0.348 0.008,-0.015 0.011,-0.015 0.021,-0.003 0.143,0.165 0.321,0.264 0.536,0.299 0.021,0.004 0.045,0.004 0.068,0.009 0.015,0.002 0.017,-0.005 0.014,-0.016 -0.022,-0.129 0.038,-0.257 0.153,-0.322 0.116,-0.068 0.268,-0.046 0.361,0.045 0.011,0.009 0.021,0.012 0.034,0.008 0.058,-0.013 0.111,-0.034 0.162,-0.063 0.004,-0.001 0.008,-0.004 0.013,-0.009 -0.022,0.073 -0.065,0.127 -0.129,0.17 0.059,-0.005 0.112,-0.023 0.165,-0.043 0.001,0.007 -0.004,0.012 -0.008,0.018 -0.036,0.049 -0.078,0.092 -0.127,0.13 -0.009,0.007 -0.011,0.013 -0.011,0.024 0.003,0.226 -0.068,0.426 -0.212,0.6 -0.135,0.158 -0.308,0.255 -0.513,0.287 -0.218,0.034 -0.422,-0.002 -0.61,-0.118 -0.003,-0.003 -0.005,-0.004 -0.007,-0.004z"/>
  </g>
 </g>
</svg>
