<?xml version="1.0" encoding="UTF-8"?>
<!DOCTYPE svg PUBLIC "-//W3C//DTD SVG 1.1//EN" "http://www.w3.org/Graphics/SVG/1.1/DTD/svg11.dtd">
<!-- Creator: CorelDRAW 2018 (64-Bit) -->
<svg xmlns="http://www.w3.org/2000/svg" xml:space="preserve" width="47px" height="47px" version="1.1" style="shape-rendering:geometricPrecision; text-rendering:geometricPrecision; image-rendering:optimizeQuality; fill-rule:evenodd; clip-rule:evenodd"
viewBox="0 0 2.455 2.455"
 xmlns:xlink="http://www.w3.org/1999/xlink">
 <defs>
  <style type="text/css">
   <![CDATA[
    .fil1 {fill:#25AAE1}
    .fil0 {fill:#25AAE1;fill-rule:nonzero}
   ]]>
  </style>
 </defs>
 <g id="Слой_x0020_1">
  <metadata id="CorelCorpID_0Corel-Layer"/>
  <g id="_2545103191792">
   <path class="fil0" d="M1.227 0c-0.677,0 -1.227,0.551 -1.227,1.228 0,0.677 0.55,1.227 1.227,1.227 0.677,0 1.228,-0.55 1.228,-1.227 0,-0.677 -0.551,-1.228 -1.228,-1.228l0 0zm0 0.06c0.645,0 1.168,0.523 1.168,1.168 0,0.645 -0.523,1.167 -1.168,1.167 -0.644,0 -1.167,-0.522 -1.167,-1.167 0,-0.645 0.523,-1.168 1.167,-1.168z"/>
   <path class="fil1" d="M1.715 1.64c-0.001,0.059 -0.017,0.075 -0.075,0.075 -0.138,0 -0.276,0 -0.414,0 -0.136,0 -0.274,0 -0.412,0 -0.057,0 -0.073,-0.016 -0.073,-0.075 0,-0.152 0,-0.307 -0.003,-0.46 0,-0.044 0.012,-0.053 0.053,-0.052 0.057,0.005 0.058,0.002 0.052,0.059 -0.023,0.194 0.112,0.384 0.304,0.421 0.199,0.038 0.397,-0.08 0.451,-0.27 0.016,-0.06 0.021,-0.123 0.009,-0.182 -0.004,-0.022 0.001,-0.026 0.021,-0.026 0.087,-0.007 0.087,-0.008 0.087,0.083 0,0.14 0,0.284 0,0.427zm-0.487 -0.657c0.132,0 0.245,0.113 0.243,0.245 -0.001,0.135 -0.113,0.246 -0.247,0.243 -0.133,-0.002 -0.245,-0.114 -0.242,-0.246 0.003,-0.132 0.114,-0.242 0.246,-0.242zm0.361 -0.242c0.126,0 0.126,0 0.126,0.125 0,0.122 0,0.122 -0.123,0.122 -0.124,0 -0.124,0 -0.124,-0.124 0,-0.123 0,-0.123 0.121,-0.123zm0.103 -0.144c-0.309,0 -0.62,0 -0.929,0 -0.11,0 -0.167,0.059 -0.167,0.169 0,0.154 0,0.307 0,0.462 0,0.153 0,0.31 0,0.465 0,0.107 0.058,0.165 0.162,0.165 0.312,0 0.622,0 0.934,0 0.108,0 0.167,-0.058 0.167,-0.166 0,-0.311 0,-0.619 0,-0.93 0,-0.106 -0.059,-0.165 -0.167,-0.165z"/>
  </g>
 </g>
</svg>
