<?xml version="1.0" encoding="utf-8"?>
<!-- Generator: Adobe Illustrator 24.3.0, SVG Export Plug-In . SVG Version: 6.00 Build 0)  -->
<svg version="1.1" id="Слой_1" xmlns="http://www.w3.org/2000/svg" xmlns:xlink="http://www.w3.org/1999/xlink" x="0px" y="0px"
	 viewBox="0 0 63 63" style="enable-background:new 0 0 63 63;" xml:space="preserve">
<style type="text/css">
	.st0{fill:#EB5B2C;}
	.st1{fill:#F9B654;}
	.st2{fill:#736759;}
	.st3{fill:#5B4A43;}
	.st4{opacity:0.5;fill:#736759;enable-background:new    ;}
</style>
<g>
	<g id="Слой_2_1_">
		<g id="Слой_1-2">
			<path class="st0" d="M23.4,59C18,64.3,9.3,64.3,4,59s-5.3-14,0-19.4C9.4,34.3,53.4,10,53.4,10S28.7,53.6,23.4,59z"/>
			<path class="st1" d="M21.5,55.7c-3.9,3.9-10.3,3.9-14.2,0s-3.9-10.3,0-14.2c3.9-3.9,33.1-18.9,33.1-18.9S25.4,51.8,21.5,55.7z"/>
			<path class="st2" d="M15.7,55.3L15.7,55.3c0.1-0.1,0.2-0.3,0.4-0.3c0.6-0.2,1.2-0.4,1.7-0.7c0.1-0.1,0.3-0.1,0.5-0.1l0,0
				c0.8,0.2,1.6-0.3,1.8-1c0.1-0.2,0.1-0.5,0-0.8l0,0c0-0.2,0-0.3,0.1-0.5c0.3-0.5,0.5-1.1,0.7-1.7c0-0.2,0.1-0.3,0.3-0.4l0,0
				c0.7-0.4,0.9-1.3,0.5-2c-0.1-0.2-0.3-0.4-0.5-0.5l0,0c-0.1-0.1-0.2-0.2-0.3-0.4c-0.2-0.6-0.4-1.2-0.7-1.7
				C20,45.1,20,44.9,20,44.7l0,0c0.2-0.8-0.3-1.6-1-1.8c-0.2-0.1-0.5-0.1-0.8,0l0,0c-0.2,0-0.3,0-0.5-0.1c-0.5-0.3-1.1-0.5-1.7-0.7
				c-0.2,0-0.3-0.1-0.4-0.3l0,0c-0.4-0.7-1.3-0.9-2-0.5c-0.2,0.1-0.4,0.3-0.5,0.5l0,0c-0.1,0.1-0.2,0.2-0.4,0.3
				c-0.6,0.1-1.2,0.4-1.7,0.7c-0.1,0.1-0.3,0.1-0.5,0.1l0,0c-0.8-0.2-1.6,0.2-1.8,1c-0.1,0.3-0.1,0.5,0,0.8l0,0c0,0.2,0,0.3-0.1,0.5
				c-0.3,0.5-0.6,1.1-0.7,1.7c0,0.2-0.2,0.3-0.3,0.4l0,0c-0.7,0.4-0.9,1.3-0.5,2c0.1,0.2,0.3,0.4,0.5,0.5l0,0
				C7.9,49.9,8,50.1,8,50.2c0.2,0.6,0.4,1.2,0.7,1.7c0.1,0.1,0.1,0.3,0.1,0.5l0,0C8.6,53.2,9,54,9.8,54.2c0.2,0.1,0.5,0.1,0.7,0l0,0
				c0.2,0,0.3,0,0.5,0.1c0.5,0.3,1.1,0.5,1.7,0.7c0.2,0,0.3,0.1,0.4,0.3l0,0c0.4,0.7,1.3,1,2,0.6C15.4,55.7,15.6,55.5,15.7,55.3z"/>
			<circle class="st3" cx="15" cy="47.5" r="1.5"/>
			<circle class="st3" cx="14.3" cy="53" r="1.5"/>
			<circle class="st3" cx="17.7" cy="44.6" r="0.8"/>
			<path class="st3" d="M11.8,46c-0.3,0.3-0.9,0.3-1.2,0c-0.3-0.3-0.3-0.9,0-1.2s0.9-0.3,1.2,0l0,0C12.1,45.1,12.1,45.7,11.8,46z"/>
			<path class="st3" d="M11.7,50.7c-0.6,0.6-1.5,0.6-2.1,0c-0.6-0.6-0.6-1.5,0-2.1c0.6-0.6,1.5-0.6,2.1,0
				C12.2,49.2,12.2,50.2,11.7,50.7z"/>
			<circle class="st3" cx="19.1" cy="49.4" r="0.8"/>
			<path class="st4" d="M20,52.4L20,52.4c0-0.2,0-0.3,0.1-0.5c0.3-0.5,0.5-1.1,0.7-1.7l0,0c-0.8,1-3.3,3.5-6.8,2.6
				c-2.9-0.8-5.1-3-6-5.9c0,0.2-0.2,0.3-0.3,0.4l0,0c-0.7,0.4-0.9,1.3-0.5,2c0.1,0.2,0.3,0.4,0.5,0.5l0,0C7.9,50,8,50.1,8,50.3
				c0.2,0.6,0.4,1.2,0.7,1.7c0.1,0.1,0.1,0.3,0.1,0.5l0,0c-0.2,0.8,0.3,1.6,1.1,1.8c0.2,0.1,0.5,0.1,0.7,0c0.2,0,0.3,0,0.5,0.1
				c0.5,0.3,1.1,0.5,1.7,0.7c0.2,0,0.3,0.1,0.4,0.3l0,0c0.4,0.7,1.3,0.9,2,0.5c0.2-0.1,0.4-0.3,0.5-0.5l0,0c0.1-0.1,0.2-0.3,0.4-0.3
				c0.6-0.2,1.2-0.4,1.7-0.7c0.1-0.1,0.3-0.1,0.5-0.1l0,0c0.8,0.2,1.6-0.2,1.8-1C20.1,53,20.1,52.7,20,52.4z"/>
		</g>
	</g>
</g>
</svg>
