<svg id="Слой_1" data-name="Слой 1" xmlns="http://www.w3.org/2000/svg" viewBox="0 0 53.37 53.05"><defs><style>.cls-1{fill:#eb5b2c;}.cls-2{fill:#f9b654;}.cls-3,.cls-5{fill:#736759;}.cls-4{fill:#5b4a43;}.cls-5{opacity:0.5;isolation:isolate;}</style></defs><g id="Слой_2" data-name="Слой 2"><g id="Слой_1-2" data-name="Слой 1-2"><path class="cls-1" d="M23.36,59A13.69,13.69,0,0,1,4,39.63C9.35,34.28,53.36,10,53.36,10S28.7,53.63,23.36,59Z" transform="translate(0.01 -9.96)"/><path class="cls-2" d="M21.49,55.74A10.07,10.07,0,1,1,7.24,41.5c3.94-3.94,33.09-18.85,33.09-18.85S25.42,51.81,21.49,55.74Z" transform="translate(0.01 -9.96)"/><path class="cls-3" d="M15.69,55.27h0a.55.55,0,0,1,.39-.29,6.93,6.93,0,0,0,1.69-.7.62.62,0,0,1,.48-.07h0a1.48,1.48,0,0,0,1.8-1,1.4,1.4,0,0,0,0-.76h0a.58.58,0,0,1,.07-.48,7.35,7.35,0,0,0,.7-1.69.55.55,0,0,1,.29-.39h0a1.47,1.47,0,0,0,0-2.55h0a.67.67,0,0,1-.29-.39,6.93,6.93,0,0,0-.7-1.69.58.58,0,0,1-.07-.48h0a1.48,1.48,0,0,0-1-1.8,1.4,1.4,0,0,0-.76,0h0a.68.68,0,0,1-.48-.07,6.56,6.56,0,0,0-1.69-.7.6.6,0,0,1-.39-.29h0a1.47,1.47,0,0,0-2.55,0h0a.62.62,0,0,1-.38.29,6.23,6.23,0,0,0-1.69.7.68.68,0,0,1-.48.07h0a1.47,1.47,0,0,0-1.81,1,1.44,1.44,0,0,0,0,.77h0a.58.58,0,0,1-.07.48A7,7,0,0,0,8,46.91a.71.71,0,0,1-.29.39h0a1.47,1.47,0,0,0,0,2.55h0a.67.67,0,0,1,.29.39,6.91,6.91,0,0,0,.69,1.69.58.58,0,0,1,.07.48h0a1.48,1.48,0,0,0,1.06,1.8,1.58,1.58,0,0,0,.75,0h0a.62.62,0,0,1,.48.07,6.56,6.56,0,0,0,1.69.7.59.59,0,0,1,.38.29h0a1.46,1.46,0,0,0,2,.57A1.42,1.42,0,0,0,15.69,55.27Z" transform="translate(0.01 -9.96)"/><circle class="cls-4" cx="15.02" cy="37.58" r="1.55"/><circle class="cls-4" cx="14.35" cy="43.01" r="1.55"/><circle class="cls-4" cx="17.71" cy="34.61" r="0.83"/><path class="cls-4" d="M11.82,46a.85.85,0,0,1-1.18,0,.83.83,0,1,1,1.18-1.18h0A.85.85,0,0,1,11.82,46Z" transform="translate(0.01 -9.96)"/><path class="cls-4" d="M11.66,50.74a1.47,1.47,0,1,1,0-2.08A1.48,1.48,0,0,1,11.66,50.74Z" transform="translate(0.01 -9.96)"/><circle class="cls-4" cx="19.09" cy="39.45" r="0.83"/><path class="cls-5" d="M20.05,52.41h0a.58.58,0,0,1,.07-.48,7.35,7.35,0,0,0,.7-1.69h0c-.8.95-3.31,3.47-6.8,2.6A8.71,8.71,0,0,1,8,47a.71.71,0,0,1-.29.39h0a1.47,1.47,0,0,0,0,2.55h0a.67.67,0,0,1,.29.39A6.91,6.91,0,0,0,8.71,52a.58.58,0,0,1,.07.48h0a1.48,1.48,0,0,0,1.06,1.8,1.58,1.58,0,0,0,.75,0,.62.62,0,0,1,.48.07,6.56,6.56,0,0,0,1.69.7.59.59,0,0,1,.38.29h0a1.47,1.47,0,0,0,2.55,0h0a.55.55,0,0,1,.39-.29,6.93,6.93,0,0,0,1.69-.7.62.62,0,0,1,.48-.07h0a1.47,1.47,0,0,0,1.81-1A1.52,1.52,0,0,0,20.05,52.41Z" transform="translate(0.01 -9.96)"/></g></g></svg>