<svg id="Слой_1" data-name="Слой 1" xmlns="http://www.w3.org/2000/svg" xmlns:xlink="http://www.w3.org/1999/xlink" viewBox="0 0 97 65.4"><defs><style>.cls-1{fill:url(#Безымянный_градиент);}.cls-2{fill:url(#Безымянный_градиент_2);}.cls-3{fill:url(#Безымянный_градиент_3);}.cls-4{fill:url(#Безымянный_градиент_3-2);}</style><linearGradient id="Безымянный_градиент" x1="19.59" y1="43.32" x2="117.47" y2="43.32" gradientTransform="matrix(1, 0, 0, -1, 0, 87.89)" gradientUnits="userSpaceOnUse"><stop offset="0" stop-color="#fee627"/><stop offset="0.14" stop-color="#fcd828"/><stop offset="0.4" stop-color="#f7b42b"/><stop offset="0.75" stop-color="#ef7b30"/><stop offset="0.99" stop-color="#e94f33"/></linearGradient><linearGradient id="Безымянный_градиент_2" x1="43.8" y1="43.17" x2="117.25" y2="43.17" gradientTransform="matrix(1, 0, 0, -1, 0, 87.89)" gradientUnits="userSpaceOnUse"><stop offset="0" stop-color="#f5e55c"/><stop offset="1" stop-color="#da9231"/></linearGradient><linearGradient id="Безымянный_градиент_3" x1="63.65" y1="43.19" x2="117.07" y2="43.19" gradientTransform="matrix(1, 0, 0, -1, 0, 87.89)" gradientUnits="userSpaceOnUse"><stop offset="0" stop-color="#f5ea91"/><stop offset="1" stop-color="#da9231"/></linearGradient><linearGradient id="Безымянный_градиент_3-2" x1="0" y1="87.89" x2="0" y2="87.89" xlink:href="#Безымянный_градиент_3"/></defs><g id="Слой_2" data-name="Слой 2"><g id="Слой_1-2" data-name="Слой 1-2"><path class="cls-1" d="M116.59,30.54C94.45,27.4,67.53-3.53,40.81,21.71,51.75,22,52.15,19.65,63,27c-6.4-.3-5.6-4.59-43.41,18.11C57.4,67.84,56.6,62.7,63,62.42c-10.85,7.33-12.56,6-22.17,5.28,28.62,24.64,53.62-5.7,75.76-8.84Z" transform="translate(-19.59 -11.87)"/><path class="cls-2" d="M43.8,44s28.67-20,72.79-13.42V58.86S76.64,66.79,43.8,44Z" transform="translate(-19.59 -11.87)"/><path class="cls-3" d="M63.65,44.22s20.85-13.17,52.94-8.85V54S87.54,59.27,63.65,44.22Z" transform="translate(-19.59 -11.87)"/><path class="cls-4" d="M0,0" transform="translate(-19.59 -11.87)"/><path class="cls-4" d="M0,0" transform="translate(-19.59 -11.87)"/><path class="cls-4" d="M0,0" transform="translate(-19.59 -11.87)"/><path class="cls-4" d="M0,0" transform="translate(-19.59 -11.87)"/><path class="cls-4" d="M0,0" transform="translate(-19.59 -11.87)"/><path class="cls-4" d="M0,0" transform="translate(-19.59 -11.87)"/><path class="cls-4" d="M0,0" transform="translate(-19.59 -11.87)"/><path class="cls-4" d="M0,0" transform="translate(-19.59 -11.87)"/><path class="cls-4" d="M0,0" transform="translate(-19.59 -11.87)"/><path class="cls-4" d="M0,0" transform="translate(-19.59 -11.87)"/><path class="cls-4" d="M0,0" transform="translate(-19.59 -11.87)"/><path class="cls-4" d="M0,0" transform="translate(-19.59 -11.87)"/><path class="cls-4" d="M0,0" transform="translate(-19.59 -11.87)"/><path class="cls-4" d="M0,0" transform="translate(-19.59 -11.87)"/><path class="cls-4" d="M0,0" transform="translate(-19.59 -11.87)"/><path class="cls-4" d="M0,0" transform="translate(-19.59 -11.87)"/><path class="cls-4" d="M0,0" transform="translate(-19.59 -11.87)"/><path class="cls-4" d="M0,0" transform="translate(-19.59 -11.87)"/></g></g></svg>