<svg xmlns="http://www.w3.org/2000/svg" viewBox="0 0 484.81 225.42"><defs><style>.cls-1{fill:none;stroke:#1d1d1b;stroke-miterlimit:10;}</style></defs><g id="Слой_2" data-name="Слой 2"><g id="Слой_1-2" data-name="Слой 1"><path class="cls-1" d="M484.71.49c-19,4.22-38.58,5.65-58.06,6.42-66.73,2.66-133.53-2.25-200.3-1S91.79,14.65,30.42,41c-6.92,3-14,6.37-18.64,12.3s-6,15.09-1.11,20.81c3.3,3.86,8.56,5.34,13.55,6.34C60,87.6,97,80.4,133.33,83.32c30.35,2.43,59.74,11.88,90,15.48,27.49,3.28,55.3,1.67,83,1.82,32.15.16,64.24,2.69,96.3,5.21,18.33,1.45,37.74,3.28,52.49,14.25,9.15,6.81,15.62,16.54,21.91,26.06,1.52,2.32,3.12,5,2.53,7.69-.91,4.12-6,5.49-10.21,6-32.27,3.66-64.87,1.28-97.3-.42-98.23-5.15-196.66-4-295-2.92-16.13.18-32.36.37-48.22,3.32C19,161.59,8.4,165.21,3.56,173.92.19,180,.32,187.33.68,194.26c.41,8.05,1.34,16.82,7,22.57,6.36,6.47,16.47,6.93,25.55,7l237.15,1.12"/></g></g></svg>