<svg xmlns="http://www.w3.org/2000/svg" xmlns:xlink="http://www.w3.org/1999/xlink" viewBox="0 0 137.87 137.87"><defs><radialGradient id="radial-gradient" cx="70.25" cy="69.9" r="67.58" gradientUnits="userSpaceOnUse"><stop offset="0" stop-color="#e72d77"/><stop offset=".38" stop-color="#e62d77" stop-opacity=".99"/><stop offset=".52" stop-color="#e32e78" stop-opacity=".96"/><stop offset=".61" stop-color="#dd2f7a" stop-opacity=".91"/><stop offset=".69" stop-color="#d4327c" stop-opacity=".84"/><stop offset=".76" stop-color="#c9347f" stop-opacity=".74"/><stop offset=".82" stop-color="#bc3783" stop-opacity=".63"/><stop offset=".88" stop-color="#ab3b87" stop-opacity=".48"/><stop offset=".93" stop-color="#98408d" stop-opacity=".32"/><stop offset=".97" stop-color="#844592" stop-opacity=".14"/><stop offset="1" stop-color="#734997" stop-opacity="0"/></radialGradient><radialGradient id="radial-gradient-2" cx="59.8" cy="12.21" r="172.84" gradientUnits="userSpaceOnUse"><stop offset="0" stop-color="#4e348b"/><stop offset=".96" stop-color="#0f1123"/></radialGradient><radialGradient id="radial-gradient-4" cx="45.4" cy="28.52" r="90.88" gradientUnits="userSpaceOnUse"><stop offset="0" stop-color="#e72d77"/><stop offset=".15" stop-color="#e22e78"/><stop offset=".32" stop-color="#d4327c"/><stop offset=".51" stop-color="#bc3783"/><stop offset=".71" stop-color="#9b3f8c"/><stop offset=".9" stop-color="#734997"/></radialGradient><radialGradient id="radial-gradient-5" cx="45.4" cy="28.52" r="90.95" xlink:href="#radial-gradient-4"/><radialGradient id="radial-gradient-6" cx="45.4" cy="28.52" r="90.88" xlink:href="#radial-gradient-4"/><radialGradient id="radial-gradient-7" cx="45.4" cy="28.52" r="90.88" xlink:href="#radial-gradient-4"/><radialGradient id="radial-gradient-8" cx="60.81" cy="26.28" r="156.77" xlink:href="#radial-gradient-2"/><radialGradient id="radial-gradient-9" cx="62.27" cy="45.76" r="128.5" xlink:href="#radial-gradient-4"/><radialGradient id="radial-gradient-10" cx="56.4" cy="19.37" r="110.64" xlink:href="#radial-gradient-2"/><style>.cls-11{mix-blend-mode:screen;fill:#f5a605;opacity:.45}</style></defs><g style="isolation:isolate"><g id="Слой_2" data-name="Слой 2"><g id="Слой_1-2" data-name="Слой 1"><circle cx="68.94" cy="68.94" r="68.94" style="mix-blend-mode:screen" fill="url(#radial-gradient)"/><circle cx="68.94" cy="68.94" r="58.94" fill="url(#radial-gradient-2)"/><circle cx="68.94" cy="68.94" r="58.94" style="mix-blend-mode:screen" fill="url(#radial-gradient-2)"/><path d="M93.88 91.58a4.29 4.29 0 00.81-2.64c-.24-1.82-2.42-2.66-4.25-2.69-4.35 0-8.34 2.33-11.81 4.94s-6.81 5.59-10.9 7.07-9.28 1-12-2.43C53 92.23 53.92 87 52 82.81a3.16 3.16 0 00-1.1-1.44c-1.26-.79-2.87.1-4.1.94-7 4.78-14.79 8.75-23.2 9.69a30.68 30.68 0 01-9.07-.35A59.13 59.13 0 0037 118.47a10 10 0 01.66-2c3.13-6.67 12-7.78 19.31-8.34 7-.52 14.06-1.39 20.63-3.87s12.68-6.66 16.28-12.68z" style="mix-blend-mode:screen" fill="url(#radial-gradient-4)"/><path d="M127.44 76c-4 .1-7.88.39-11.15 2.5-5.44 3.52-7 10.94-6.12 17.37.22 1.68.56 3.47-.15 5a7.19 7.19 0 01-2 2.36C100.55 109.68 91 113 82.5 118c-3.73 2.15-7.67 5.4-7.69 9.61A59 59 0 00127.44 76z" style="mix-blend-mode:screen" fill="url(#radial-gradient-5)"/><path d="M10 68.94v1a11.37 11.37 0 003.17 1.69c2.59.89 5.58.95 7.69 2.7 1.15 1 1.9 2.32 3 3.29 2.84 2.41 7.37 1.63 10.27-.71s4.57-5.83 6.2-9.18 3.44-6.8 6.49-8.94A11.57 11.57 0 0155.68 57c2.67.54 5.24 2 7.94 1.69 3.53-.46 6-4.11 6.1-7.67s-1.57-6.91-3.61-9.83a19.42 19.42 0 01-2.7-4.49c-1.59-4.46 1.08-9.33 4.36-12.75s7.35-6.22 9.59-10.39a8.26 8.26 0 001-2.79A58.95 58.95 0 0010 68.94z" style="mix-blend-mode:screen" fill="url(#radial-gradient-6)"/><path d="M93.25 24.69c1.06 3.54 3.27 6.61 4.86 9.94s2.53 7.34 1 10.68c-1.92 4.1-6.75 5.72-10.86 7.6A43.29 43.29 0 0078 59.47c-3.44 2.93-6.6 7.07-5.84 11.53.8 4.64 5.57 7.52 10.12 8.72 2.87.76 6 1.09 8.71-.2 5.07-2.43 6.48-9.56 11.54-12 4.06-2 8.83-.18 13.33.18a22 22 0 0011.88-2.55 59 59 0 00-34.39-49.86 16.35 16.35 0 00-.1 9.4z" style="mix-blend-mode:screen" fill="url(#radial-gradient-7)"/><path d="M107.45 24.34a59 59 0 01-57.19 73.22 58.72 58.72 0 01-38.51-14.34 58.94 58.94 0 1095.7-58.88z" style="mix-blend-mode:multiply" opacity=".25" fill="url(#radial-gradient-8)"/><path d="M117.71 44.26A54.84 54.84 0 0117.23 87.55a54.84 54.84 0 10100.48-43.29z" style="mix-blend-mode:screen" opacity=".34" fill="url(#radial-gradient-9)"/><path class="cls-11" d="M13.66 74.17A58.93 58.93 0 01119 37.89a58.93 58.93 0 10-96.5 67.32 58.65 58.65 0 01-8.84-31.04z"/><path d="M18.7 80.8c-1.76-7 1-17.59 2.41-22.68a56.08 56.08 0 0120.23-30.25c26.22-19.55 56.41-5.29 64.43 3.45s-1.41 18.17-15.9 17.94-28.75-.46-37 6.9-7.59 26-18.63 29.9c-3.66 1.3-8.94 2.54-12.38 0a9 9 0 01-3.16-5.26z" style="mix-blend-mode:screen" fill="url(#radial-gradient-10)"/><path class="cls-11" d="M44.88 35.62c3.19 2.81 1.74 9.68-3.25 15.34S30 59 26.82 56.14s-1.73-9.68 3.25-15.35 11.62-7.98 14.81-5.17zm16.98-10.95c1.17 2.21-1.07 5.68-5 7.76s-8.06 2-9.22-.25 1.06-5.69 5-7.76 8.05-1.96 9.22.25z"/></g></g></g></svg>