<?xml version="1.0" encoding="utf-8"?>
<!-- Generator: Adobe Illustrator 24.3.0, SVG Export Plug-In . SVG Version: 6.00 Build 0)  -->
<svg version="1.1" id="Слой_1" xmlns="http://www.w3.org/2000/svg" xmlns:xlink="http://www.w3.org/1999/xlink" x="0px" y="0px"
	 viewBox="0 0 100 100" style="enable-background:new 0 0 100 100;" xml:space="preserve">
<style type="text/css">
	.st0{fill:#7BCDF4;}
</style>
<path class="st0" d="M59.7,6c-0.2,0-0.4,0.1-0.6,0.2c-1.7,0.9-3.7,3.4-4,3.9c0,0,0,0.1-0.1,0.1c-1.9,2.9-3,6.3-3,9.8
	c0,2.6,0.5,5.3,1.5,7.8c2.4,5.9,7.5,10.7,13.5,13c0.2,0.1,0.4,0.1,0.8,0.3c0,0,0.3,0.1,0.4,0.1l0.2,0.1c0.3,0.1,0.6,0.2,0.9,0.3
	c1.6,0.3,3.1,0.5,4.6,0.5c0.3,0,0.5,0,0.8,0c11,0,15.2-7.7,16.6-10.3c0.1-0.3,0.2-0.5,0.3-0.6c0,0,0,0,0,0c0.6-0.9,0.4-2.2-0.5-2.8
	c-0.9-0.6-2.1-0.4-2.8,0.5h0c-2.9,4.3-7.9,5.6-14.9,3.9c-0.5-0.1-1.1-0.3-1.6-0.5c-0.7-0.2-1.3-0.5-1.9-0.8
	c-1.2-0.6-2.4-1.3-3.4-2.1c-6.1-4.7-8.5-14.6-4.9-20.2c0.5-0.8,0.4-1.7-0.2-2.4C61,6.2,60.4,5.9,59.7,6z M42,10
	c-0.5,0-0.9,0.1-1.3,0.5c-3,2.5-6.1,6.5-6.3,6.7c0,0,0,0.1-0.1,0.1c-5.5,8-5.9,19.3-1,28.9c0.8,1.5,1.6,3,2.5,4.3l0.3,0.4
	c0.8,1.1,1.6,2.4,2.8,3.4c0.4,0.4,0.8,0.9,1.2,1.3l0.2,0.2l0.2,0.2c0.4,0.4,0.8,0.8,1.3,1.2h0c0,0,0.1,0.1,0.1,0.1
	c0.5,0.4,1,0.9,1.7,1.4l0.2,0.1c0.5,0.4,1,0.8,1.6,1.2c0.1,0,0.1,0.1,0.2,0.1c0.2,0.1,0.4,0.2,0.6,0.4l0.2,0.1l0.2,0.1
	c0.4,0.3,0.8,0.5,1.3,0.8c0.4,0.2,0.7,0.4,1,0.6c0.1,0.1,0.2,0.1,0.5,0.3l0.6,0.3c0,0,0.2,0.1,0.2,0.1c0.4,0.2,0.8,0.4,1.2,0.6
	l0.6,0.3c0.4,0.2,0.8,0.4,1.4,0.5l0.2,0.1c0,0,0.2,0.1,0.2,0.1c0.4,0.1,0.8,0.3,1.1,0.4l0.9,0.3c0.4,0.1,0.9,0.3,1.5,0.4
	c2.7,0.5,5.4,0.7,7.9,0.7c0.3,0,0.6,0,0.9,0c22.1-0.5,27.8-19.2,27.9-19.4c0.3-0.9-0.2-2-1.1-2.4s-2-0.1-2.5,0.7
	c-5.6,8.2-16.2,11.6-26.9,8.8c-0.5-0.1-1-0.3-1.6-0.5c-0.1,0-0.2-0.1-0.4-0.1c-0.4-0.1-0.7-0.2-1.1-0.4l-0.6-0.2
	c-0.3-0.1-0.6-0.3-1-0.4l-0.3-0.1c-0.5-0.2-0.9-0.4-1.4-0.6L56,50.7c-0.3-0.1-0.5-0.3-0.8-0.5L55,50.1L54.8,50
	c-0.3-0.2-0.6-0.4-0.8-0.5l-0.2-0.1c0,0-0.2-0.1-0.2-0.1c-0.2-0.1-0.5-0.3-0.7-0.4c-0.5-0.3-1-0.7-1.5-1.1l-0.2-0.2
	c-5.2-4.1-9-9.6-10.8-15.5c-1.7-5.4-0.4-12.5,3.3-19c0.5-0.8,0.3-1.9-0.4-2.5C42.9,10.2,42.5,10,42,10z M20,16c-0.5,0-1,0.2-1.3,0.5
	c-3.8,3.4-6.7,7.9-7,8.4c-8.2,11.9-6.6,30.4-1,41.7c0.1,0.2,0.2,0.5,0.3,0.7l0.1,0.1c0.1,0.2,0.2,0.5,0.3,0.5
	c0.1,0.1,0.2,0.3,0.2,0.4c0.1,0.2,0.2,0.4,0.4,0.7l0.6,1.1c0.1,0.1,0.2,0.3,0.2,0.4c0.1,0.2,0.3,0.4,0.4,0.6l0.3,0.5
	c0.1,0.1,0.2,0.3,0.3,0.4c0.3,0.5,0.6,1,1,1.4c0,0,0,0,0,0.1l0.1,0.2c0.3,0.4,0.6,0.8,0.8,1.1l1.1,1.4c0,0,0.1,0.2,0.1,0.2l0.2,0.2
	c0.3,0.4,0.7,0.8,1.1,1.3c0.1,0.1,0.1,0.1,0.2,0.2c0.4,0.4,0.7,0.8,1.1,1.2l0.4,0.3c0.3,0.3,0.6,0.6,0.9,0.9c0,0,0.1,0.1,0.1,0.1
	l0.3,0.3c0.4,0.4,0.8,0.7,1.1,1c0,0,0.3,0.3,0.3,0.3c0.4,0.3,0.7,0.6,1.1,0.9l1.9,1.5c0.3,0.2,0.6,0.5,1,0.7
	c0.1,0.1,0.3,0.2,0.4,0.3c0.1,0,0.1,0.1,0.2,0.1l1.4,1c0.5,0.3,1,0.7,1.7,1l0.3,0.2c0.4,0.2,0.8,0.5,1.2,0.7
	c0.2,0.1,0.5,0.2,0.6,0.3c0.3,0.1,0.6,0.3,1,0.5c0,0,0.4,0.2,0.4,0.2c0.5,0.2,0.9,0.4,1.5,0.7c0,0,0.2,0.1,0.2,0.1
	c0.5,0.2,1,0.4,1.7,0.7c0.1,0,0.2,0.1,0.2,0.1c0.5,0.2,1,0.4,1.4,0.5c0,0,0.3,0.1,0.3,0.1c0.6,0.2,1.1,0.4,1.8,0.6
	c0.1,0,0.2,0.1,0.3,0.1l0.4,0.1c0.5,0.1,1,0.3,1.5,0.4c3.7,0.7,7.4,1,10.8,1h0c28.6,0,37.8-23.1,37.9-23.3c0.4-0.9,0-2-0.9-2.5
	c-0.9-0.5-2-0.3-2.6,0.5c-7.4,9.7-21.2,13.3-37.1,9.6c-0.4-0.1-0.8-0.2-1.2-0.3l-0.8-0.2c-0.5-0.2-1-0.3-1.5-0.5
	c0,0-0.2-0.1-0.2-0.1c-0.4-0.1-0.9-0.3-1.3-0.5L46,76.6c-0.5-0.2-1-0.4-1.4-0.6l-0.3-0.1c-0.4-0.2-0.8-0.4-1.2-0.6
	c0,0-0.4-0.2-0.4-0.2c-0.3-0.1-0.6-0.3-0.9-0.5l-1.6-0.9c-0.2-0.1-0.3-0.2-0.5-0.3c-0.5-0.3-1-0.6-1.5-0.9c-0.1-0.1-0.2-0.1-0.4-0.3
	c-0.3-0.2-0.7-0.4-1.2-0.8l-0.2-0.1c-0.3-0.2-0.7-0.5-0.9-0.7c-0.2-0.1-0.3-0.3-0.6-0.5c-0.3-0.2-0.5-0.4-0.7-0.6l-0.4-0.4
	c-0.4-0.3-0.7-0.6-1.1-0.9c0,0-0.1-0.1-0.1-0.1c-0.4-0.4-0.8-0.7-1.3-1.2l-1.4-1.4c-0.3-0.4-0.7-0.7-1.1-1.1
	c-0.4-0.4-0.7-0.8-1.2-1.3l-0.8-1c-0.1-0.1-0.2-0.3-0.3-0.5c-0.3-0.4-0.6-0.8-0.9-1.2c-7.8-10.7-9.8-33.1-3.8-41.3
	c0.6-0.8,0.5-2-0.3-2.7C21,16.2,20.5,16,20,16z"/>
</svg>
