<svg xmlns="http://www.w3.org/2000/svg" viewBox="0 0 45.43 9.17"><defs><style>.cls-1{fill:#487b80;}</style></defs><g id="Слой_2" data-name="Слой 2"><g id="OBJECTS"><path class="cls-1" d="M7.67,0V9.17h-1V4.94H1V9.17H0V0H1V4.09H6.71V0Z"/><path class="cls-1" d="M16.41,6.72H11.3L10.2,9.17h-1L13.38,0h1l4.19,9.17h-1Zm-.35-.78L13.85,1l-2.2,4.93Z"/><path class="cls-1" d="M26.24.84a2.88,2.88,0,0,1,1,2.31,2.87,2.87,0,0,1-1,2.3,4.18,4.18,0,0,1-2.75.83H21V9.17h-1V0h3.44A4.13,4.13,0,0,1,26.24.84Zm-.69,4a2.07,2.07,0,0,0,.72-1.68,2.07,2.07,0,0,0-.72-1.71,3.19,3.19,0,0,0-2.09-.6H21V5.43h2.44A3.19,3.19,0,0,0,25.55,4.83Z"/><path class="cls-1" d="M35.52.84a2.88,2.88,0,0,1,1,2.31,2.87,2.87,0,0,1-1,2.3,4.18,4.18,0,0,1-2.75.83H30.3V9.17h-1V0h3.44A4.13,4.13,0,0,1,35.52.84Zm-.69,4a2.07,2.07,0,0,0,.72-1.68,2.07,2.07,0,0,0-.72-1.71,3.21,3.21,0,0,0-2.09-.6H30.3V5.43h2.44A3.21,3.21,0,0,0,34.83,4.83Z"/><path class="cls-1" d="M41.76,6V9.17h-1V6L37.13,0h1l3.14,5.15L44.46,0h1Z"/></g></g></svg>