<svg xmlns="http://www.w3.org/2000/svg" viewBox="0 0 23.63 26.36"><defs><style>.cls-1{fill:#eae9cf;}.cls-2{fill:#eaebd6;}.cls-3{fill:#ececd9;}.cls-4{fill:#d0caa3;}.cls-5{fill:#d0c89a;}.cls-6{fill:#eaead9;}.cls-7{fill:#cfc8a3;}.cls-8{fill:#e2e2c8;}.cls-9{fill:#ccc296;}.cls-10{fill:#dad3a5;}.cls-11{fill:#e5e5cb;}.cls-12{fill:#cec698;}.cls-13{fill:#ccc494;}.cls-14{fill:#cdc89d;}.cls-15{fill:#d9d4b4;}.cls-16{fill:#e1dbb1;}.cls-17{fill:#f1f1d8;}.cls-18{fill:#c4ba8b;}.cls-19{fill:#c3b988;}.cls-20{fill:#dbd5ad;}.cls-21{fill:#d1cba3;}.cls-22{fill:#d1c798;}.cls-23{fill:#e3e5d8;}.cls-24{fill:#d7cea1;}.cls-25{fill:#dcd7b5;}.cls-26{fill:#a19c75;}.cls-27{fill:#c5bc8e;}.cls-28{fill:#e1d8ad;}.cls-29{fill:#f6f6e7;}.cls-30{fill:#d8d4b3;}.cls-31{fill:#f0f0e3;}.cls-32{fill:#dcd6af;}.cls-33{fill:#aba67e;}.cls-34{fill:#ded8b7;}.cls-35{fill:#d7d7ba;}.cls-36{fill:#aba376;}.cls-37{fill:#aea984;}.cls-38{fill:#ada57d;}.cls-39{fill:#cec79d;}.cls-40{fill:#c2c4ad;}.cls-41{fill:#b7b391;}.cls-42{fill:#c0ba91;}.cls-43{fill:#c0c2b4;}.cls-44{fill:#b0b2a0;}.cls-45{fill:#a8a277;}.cls-46{fill:#b2ae8a;}.cls-47{fill:#bbb593;}.cls-48{fill:#d2ceac;}.cls-49{fill:#d4d3b7;}.cls-50{fill:#9c9b7e;}.cls-51{fill:#babca8;}.cls-52{fill:#bdb586;}.cls-53{fill:#cbcec6;}.cls-54{fill:#bcb280;}.cls-55{fill:#868363;}.cls-56{fill:#9da18e;}.cls-57{fill:#bfb98c;}.cls-58{fill:#d6cea5;}.cls-59{fill:#8d8a6d;}.cls-60{fill:#a29974;}.cls-61{fill:#cac9ac;}.cls-62{fill:#b9b9a2;}.cls-63{fill:#cdcdb4;}.cls-64{fill:#9b9673;}.cls-65{fill:#b2ad85;}.cls-66{fill:#9c9772;}.cls-67{fill:#c5c5b0;}.cls-68{fill:#beb385;}.cls-69{fill:#918b61;}.cls-70{fill:#e6e4cb;}.cls-71{fill:#c7bd90;}.cls-72{fill:#d3cda3;}.cls-73{fill:#e4e1bc;}.cls-74{fill:#dfdbb9;}.cls-75{fill:#fdfdfd;}.cls-76{fill:#ebead2;}.cls-77{fill:#e4dfb5;}.cls-78{fill:#ece7c5;}.cls-79{fill:#e9e8d0;}.cls-80{fill:#faf9e7;}.cls-81{fill:#e6e3ca;}.cls-82{fill:#d3d2b5;}.cls-83{fill:#d7d6bb;}.cls-84{fill:#837b53;}</style></defs><g id="Слой_2" data-name="Слой 2"><g id="OBJECTS"><path class="cls-1" d="M11.85,10.85c0,.06.07.12.14,0,.22-.3.46-.59.68-.88L14.4,7.61a.08.08,0,0,1,.11.07c0,.3.08.58,0,.87,0,0,0,.1,0,.12.32.18,0,.32,0,.48.06,0,.13-.15.2,0a2.05,2.05,0,0,1,.27.75.22.22,0,0,1-.11.26c-.16.07-.07.21-.09.32s-.07.14-.16.09a1.55,1.55,0,0,1,0-.71,1.55,1.55,0,0,0,0,.74.08.08,0,0,1,0,.07,3.94,3.94,0,0,0-.5.5.11.11,0,0,1-.13,0,.48.48,0,0,1-.42-.57s-.05,0,0,0,0,0,0,0c0,.28-.09.45-.4.42a.33.33,0,0,0-.29.15c-.17.23-.46.37-.57.66s-.13.1-.19,0a1.89,1.89,0,0,1-.14-.44c-.17.08-.32.18-.32.39s-.24.14-.23.35a.51.51,0,0,0,.34.53c.18.08.24.27.32.43a.69.69,0,0,1,0,.47.46.46,0,0,1-.17.24c-.37.19-.29.48-.2.78a1.07,1.07,0,0,1,.14.63,1.49,1.49,0,0,0-.09.48,2.31,2.31,0,0,1,0-.32c0-.11.09-.12.18-.05a.48.48,0,0,1,.13.23c0,.15.11,0,.17,0,.32.08.24.31.2.51.05-.12,0-.31.18-.38a.09.09,0,0,1,.08,0,.52.52,0,0,1,0,.44.73.73,0,0,0,.12.82c.09.12.19.23,0,.4s0,.2.1.24.26,0,.29.15.08.38-.1.54a.08.08,0,0,0,0,.08c.2-.13.26-.09.37.24,0,.18-.08.34.12.52s.1.62.2.93a.49.49,0,0,1,.07.48c-.06.16,0,.23.15.26a.1.1,0,0,1,0,.07.59.59,0,0,0,0,.43c.14-.07-.16-.28.11-.31s.2.33.15.54a.48.48,0,0,0,0,.42c.08-.07,0-.34.26-.16a.62.62,0,0,1,.06.76,1.46,1.46,0,0,0-.12.5c0,.12.1.08.11.15s0,0,0,0-.15-.3,0-.43.15.16.27.08a.4.4,0,0,1,.14.23,6,6,0,0,0,.78,1.73c.06.1.08.21.25.21s.29.07.24.27a9.72,9.72,0,0,1-1.33.23c-.17,0-.32.22-.49.12s-.17-.33-.24-.51c-.3-.71-.66-1.4-.89-2.14,0-.34,0-.67-.37-.86l-.05-.07a.6.6,0,0,0,0-.35.57.57,0,0,1,.06-.55.34.34,0,0,1-.45-.28c0-.17,0-.33-.2-.44l0,0c0-.34-.16-.67-.12-1a1.4,1.4,0,0,0,0-.74v0c0,.09.08.17,0,.26s-.1.11-.19,0c.06.17.14.3.09.45s0,.13-.11.13-.07-.06-.1-.1a1,1,0,0,1-.17-.54c0-.22-.11-.27-.22-.37,0-.37-.29-.7-.22-1.09a.67.67,0,0,1,.07-.18.79.79,0,0,1,.25-.33,1.34,1.34,0,0,0,.06-.87A4.11,4.11,0,0,1,11.27,15c0,.2.11.39.16.59s.05.26-.16.2a.32.32,0,0,1-.24-.34c0-.13,0-.3-.15-.32s-.23.11-.3.22a1.14,1.14,0,0,0-.1.19.1.1,0,0,1-.11.07c-.29-.07-.29-.06-.35.17a.2.2,0,0,1,0,.08L9.91,16a2.62,2.62,0,0,1-.71,1.14c0,.07-.1.14-.19.12s-.11-.12-.1-.2a.22.22,0,0,0-.09-.19.75.75,0,0,1-.11.94c-.24.25-.35.61-.6.84s-.26.48-.54.56c-.12-.09.11-.34-.17-.37,0,0,0-.09,0-.19-.1.2-.17.22-.3,0s-.28-.37-.54-.15c-.1,0-.07-.14-.14-.19.4-.64.78-1.3,1.21-1.91.1,0,.23.06.25-.09s.24-.48.25-.76c0-.06.05-.14.1-.19a.3.3,0,0,0,0-.49c0-.1,0-.2,0-.3s-.06,0,0,0,0,0,0,0,0,.13-.07.15-.09,0-.11-.09a.65.65,0,0,1,0-.51.54.54,0,0,0-.14-.63c-.1-.11-.23-.23-.09-.4s0-.1-.07-.11-.12,0-.11-.08.16.27-.13.27c-.1,0-.12.11-.17.17a.14.14,0,0,1-.18.07A.16.16,0,0,1,7,13.28a.6.6,0,0,1,.16-.39c-.19,0-.33,0-.3-.26s-.08-.21-.1-.32.08-.37.17-.54a.34.34,0,0,1,.24-.21.11.11,0,0,1,.08,0,.71.71,0,0,0,.4.4c.1,0,.21.18.13.26s0,.24.09.29a.73.73,0,0,1,.38.41.16.16,0,0,0,.12.09c-.07-.37-.06-.38.26-.43a1.26,1.26,0,0,0,1.06.24.26.26,0,0,0,.21-.15.53.53,0,0,0,.12-.42c0-.11,0-.19.15-.22s.14,0,.15.1c-.11-.28-.48-.26-.61-.51s.2-.41.24-.64c0,0-.06,0,0,0v0c0,.07,0,.17-.13.17S9.74,11,9.72,11s0,.16-.05.21c-.14-.18-.3-.35-.26-.6.28.06.33-.19.47-.33A.54.54,0,0,0,10,9.73a1.16,1.16,0,0,0,0,.13c0,.1,0,.22-.08.27s-.18,0-.23-.14,0-.08-.07,0c-.24.18-.24,0-.23-.16a2,2,0,0,0-.06-.54c0-.08,0-.18.06-.22s.14.08.2.17a2.77,2.77,0,0,0,.07-.8c0-.18.05-.25.23-.18a.46.46,0,0,1,.1.25.83.83,0,0,1-.06.36c-.09.17.16.14.14.28s.08.22.13.34.14.54.22.82.15.27.33.18.27,0,.38.1A.83.83,0,0,0,11.85,10.85Z"/><path class="cls-2" d="M9.86,8.22c-.07,0-.15,0-.13.19a1.56,1.56,0,0,1-.16,1c-.13-.08,0-.26-.19-.38a2.08,2.08,0,0,1,0,1c.18-.06.1-.23.22-.26s.09.17.11.26.05.1.11.09.06-.07.06-.12,0-.33,0-.53a.74.74,0,0,1,0,.93c0,.08-.1.14-.15.22-.14.26-.21.07-.3,0s-.19-.12-.23-.23a.93.93,0,0,0-.05-.24c-.34-.55-.46-1.2-.83-1.73l-.05-.08c.06-.22-.12-.3-.25-.4s-.25-.18-.28-.34a.62.62,0,0,1,0,.38c-.63-.26-.63-.26-.55-.91a.79.79,0,0,0-.09-.58C7,6.73,6.82,7,7,7.38c0,.06.06.14,0,.19s-.11,0-.14-.07-.09-.11-.21-.06-.38-.11-.44-.4c0,.24-.12.27-.27.17s-.68-.2-1-.4H5c-.17-.07-.28-.28-.52-.23-.09,0-.17-.05-.19-.16s0-.11-.12-.1c-.35,0-.35,0-.39-.31-.06.18-.1.45-.29.1C3.17,6.19,3,6,2.73,5.93l-.09,0c-.11-.18.14-.23.14-.39,0-.36.06-.71.09-1.06,0-.11,0-.23.08-.31l2.28.61a6.78,6.78,0,0,1,1,.3,2.73,2.73,0,0,0,.45.23c.13.06.26.12.26.29.09-.11.17-.1.27,0s.07,0,.08.08c.2-.17-.07-.22-.09-.33s0-.28-.06-.42S7,4.59,7,4.44a.69.69,0,0,0-.13-.71c-.13-.15-.12-.43-.23-.62s-.1-.48-.31-.64a.59.59,0,0,1-.11-.32.6.6,0,0,0-.14-.41c-.06-.07,0-.1,0-.13a.43.43,0,0,0,.23-.4A.51.51,0,0,1,6.76.64c.18.11.13.28.1.44s-.07.21,0,.32a.67.67,0,0,1,.1.69C7,2,7,1.75,7.27,1.82c.08,0,.13,0,.15.1a.52.52,0,0,1,0,.18,3.2,3.2,0,0,0,.25,1.08c.12.26.08.59.28.84.2-.08.3-.3.49-.44a.2.2,0,0,0,0-.25.62.62,0,0,1-.07-.23c0-.05,0-.11.05-.14s.12,0,.15.07.11.4.27.54A.12.12,0,0,1,9,3.7a6.18,6.18,0,0,1,0,.86c0,.21.18.28.25.42s0,.06.07,0c.29-.12.29-.12.34.18a1.11,1.11,0,0,1,0,.48c0,.22.12.43.12.65.33,0,.23.25.25.43a3.24,3.24,0,0,0,0,1.12A.28.28,0,0,1,9.86,8.22Z"/><path class="cls-3" d="M6.82,12.33c.14.13.16.29.08.59.17-.3.24-.18.3-.06s0,.05,0,.13a.39.39,0,0,0-.08.38c0,.11.13,0,.15-.06a.22.22,0,0,1,.34-.16c0-.17-.09-.34,0-.5.1.08,0,.14,0,.21s0,.15.1.08A.12.12,0,0,1,7.9,13c0,.07,0,.17-.05.19s-.07.16,0,.2a.64.64,0,0,1,.22.84.53.53,0,0,0,.07.48c.09-.07,0-.18.07-.26.06.15.17.28,0,.44-.09-.07-.13,0-.18.06-.11-.19-.2-.39-.3-.58a.4.4,0,0,1-.13.4c-.38-.07-.38-.07-.25-.43.06,0,0,.09.08.13a.66.66,0,0,1,.09-.19c-.06,0-.09.11-.17.06s0-.15-.08-.21c0,.11-.13.19-.07.32s0,.16-.08.16-.06-.08-.07-.13A2.76,2.76,0,0,0,7,14.22l0,0c0,.32,0,.3-.4.19-.93-.26-1.82-.65-2.76-.9-.11,0-.25,0-.29-.19s0-.07-.08-.06c-.53,0-.61,0-.71-.5a.21.21,0,0,0,0-.07l-.06,0c0,.36,0,.36-.36.26-.15,0-.32,0-.42-.16a.45.45,0,0,1-.06-.63.27.27,0,0,0,0-.26c0-.06-.09,0-.13,0s-.18.1-.13.23a.36.36,0,0,1,0,.15c0,.34,0,.32-.37.28s-.63-.27-1-.31S0,12.2.06,12.05c.21-.37.41-.75.6-1.13.06-.13.16-.13.28-.12a.73.73,0,0,0,.48.43.39.39,0,0,1,.23.19c.14.16.24.3.52.27s.33,0,.48-.08.15,0,.19.08S3,11.91,3,12c-.13-.22.07-.38.21-.53s.16,0,.18.09,0,.26.05.39a1.13,1.13,0,0,0,.14-.88c.1,0,.22-.05.3,0a.14.14,0,0,0,0,.11s0-.08,0-.11h.19c.24.26.07.51,0,.74a1.32,1.32,0,0,0-.13.48c.06-.18,0-.4.23-.48s.15.14.24.22.07-.18.22-.23c.09.28.34.31.6.37s.34.29.23.56a.75.75,0,0,0-.09.54c-.07-.4.21-.62.39-.86A.93.93,0,0,0,6,12.06s0-.1.09-.1.09,0,.11.1,0,.34.06.52c0,0,0,0,0,0s0,0,0,0c0-.21.11-.23.25-.13S6.72,12.46,6.82,12.33Z"/><path class="cls-4" d="M12.08,13.12c-.06-.14-.2-.22-.22-.38-.13,0,0,.15-.13.15s-.09-.07-.13-.12a1.53,1.53,0,0,1-.19-.86s0-.09.05-.1,0,.14.17.11c-.05-.27.13-.41.33-.55s.17-.06.17.07a1.36,1.36,0,0,0,.15.47c0-.33.33-.38.46-.6a.6.6,0,0,1,.62-.33c.27,0,.19-.22.21-.35s-.06-.19.08-.29a2.66,2.66,0,0,0,0,.3c0,.14-.11.39.23.31a.75.75,0,0,0,.47-.2c.07-.11.26.05.29-.14s.15,0,.22,0l.07,0c.05,0,.07,0,.08-.05s.07-.14.15-.12.11.1.09.19a3,3,0,0,1-.49.73c-.07.07-.29-.14-.25.16,0,.09-.14,0-.18-.06,0,.15.1.26.13.4-.19.29-.36.59-.55.88s-.12.23.07.31c.5.23,1,.46,1.48.72,1,.52,2,.91,2.91,1.5a.17.17,0,0,1-.06.26c-.23.15-.24.38-.26.62s.05.25-.06.34-.11,0-.15-.05a.47.47,0,0,1-.12-.45c0-.09,0-.09-.08-.07-.37-.09-.4-.42-.48-.61.11.19-.19.27-.29.42s-.23,0-.32-.06a2.79,2.79,0,0,0-.53-.24s-.07-.08-.11,0-.17.15-.24,0,0-.05,0,0,0,.05-.05.07a.2.2,0,0,1-.25,0,.2.2,0,0,1-.09-.2c0-.16-.23-.38-.39-.42s-.26-.19-.4-.27-.09-.13-.13-.12c-.29.1-.41-.07-.57-.27a.9.9,0,0,1-.2-.28c-.14,0,0,.44-.31.25a.23.23,0,0,1,0-.21c.21-.45.1-1,.28-1.42.08-.21.23-.37.31-.54-.24.19-.57.25-.81.48-.06.05-.14.08-.16.17a.65.65,0,0,1-.4.49C12.29,13.28,12.17,13.3,12.08,13.12Z"/><path class="cls-5" d="M9.14,5C8.65,4.65,8.88,4.16,9,3.7c0,.07,0,.12.12.11a.18.18,0,0,1,.08.09c0,.08.06.18.18.19s.15-.12.19-.21a4.52,4.52,0,0,1,.44-1,1.18,1.18,0,0,0,.23-.71l.23-.32a.32.32,0,0,1,.43.07c.16.1.21.29.32.46a.44.44,0,0,0,0-.47c-.09-.17-.19.11-.31,0s-.12-.41-.07-.63l.8-1.17c.07-.1.13-.16.27-.12a5.69,5.69,0,0,1,.83.25c0,.26,0,.52-.29.67-.15.07-.09.33.08.44s.14.09.08.21-.32.42-.3.7a.1.1,0,0,1,0,.08c-.29.14-.28.42-.31.68s-.19.54-.21.83l-.11.25c0,.06-.11-.13-.14,0s-.2.44-.17.69a1,1,0,0,1-.17.37A.21.21,0,0,1,11,5a3,3,0,0,1-.17.58c0,.08-.07.15,0,.22a.43.43,0,0,1-.1.25.4.4,0,0,0-.35.43c0,.07,0,.14,0,.19a.1.1,0,0,1-.09,0A1,1,0,0,0,10,6.46.39.39,0,0,1,9.83,6a.34.34,0,0,0,0-.26.65.65,0,0,1,0-.72c.12-.17.06-.42.25-.56.2,0,.15-.15.13-.23s-.07-.34-.1-.52a4.18,4.18,0,0,0-.09.71L10,4.68c0,.08-.06.16-.16.14a.14.14,0,0,1-.12-.18s0-.08,0-.12,0-.14-.13-.14a.1.1,0,0,0-.09.13C9.53,4.79,9.28,4.88,9.14,5Z"/><path class="cls-6" d="M15,6.88a6.63,6.63,0,0,1,.74-1,10.35,10.35,0,0,0,.64-.94c.05-.07.08-.18.2-.23l0,.36c.16-.07.22-.19.14-.31s-.05-.27.05-.38c.36-.4.57-.91,1-1.3a2.16,2.16,0,0,1,.4.82c0-.09,0-.09.34-.11a.28.28,0,0,1,.09.35,2.62,2.62,0,0,1-.41.68.13.13,0,0,1-.16,0s0,0,0,0a.47.47,0,0,1-.11.43,2.51,2.51,0,0,0-.38.65.13.13,0,0,1-.14.1c-.07,0-.09-.08-.1-.14a.26.26,0,0,1,0-.15c.05-.11-.07-.13-.09-.2s0,.1.05.15a.82.82,0,0,1-.08.41c-.14.37-.33.71-.44,1.08-.05.14-.12.32-.33.07a1.45,1.45,0,0,1-.36,1,5.22,5.22,0,0,0-.55,1.11c-.05.12-.08.27-.27.19a1.54,1.54,0,0,1,0-1c0-.08,0-.18,0-.27s.09-.18.21-.07A1.23,1.23,0,0,1,15,6.88Z"/><path class="cls-7" d="M15.87,8.23A1.49,1.49,0,0,0,16.24,7c.17.09.14.24.26.37.12-.76.79-1.33.54-2.16a1,1,0,0,1,.27.79c.05-.52.71-.74.58-1.29.09-.1.06.35.21,0,.08-.18.25-.33.35-.53a.33.33,0,0,0,0-.37.66.66,0,0,1,0-.61c0-.07.08-.13.16-.12s.1.09.11.15a1.15,1.15,0,0,1,0,.45,1.07,1.07,0,0,1,.53-1,.19.19,0,0,1,.26-.09c.21.09.44.12.66.19s.17.12.07.22-.24.56-.55.69a5,5,0,0,1-.83,1.45c-.38.61-.83,1.19-1.21,1.79S16.76,8.3,16.35,9c-.22.06-.22.26-.29.43h0c-.25,0-.22-.17-.19-.27s.05-.47.12-.7a1.59,1.59,0,0,0-.06.38c0,.11,0,.2-.18.18s-.1-.12-.1-.21C15.65,8.59,15.88,8.45,15.87,8.23Z"/><path class="cls-8" d="M17.65,15.94c.08-.06.15-.22.25,0s.08.18,0,.16c-.24-.07-.12.1-.1.16a.55.55,0,0,0,.17.28c.11-.11,0-.21,0-.31.06-.26,0-.56.33-.69.09,0,.07-.12.08-.19.21,0,.43.19.62-.05a.2.2,0,0,1,.17.24c0-.14.14-.28.26-.19a.22.22,0,0,0,.32,0,.24.24,0,0,1,.34,0c0-.25,0-.51.4-.43s.36-.15.57-.15.05-.15.09-.22.19,0,.32-.07a.19.19,0,0,1,.06-.33c.16-.1.22,0,.3.11a.75.75,0,0,1,.07.12.53.53,0,0,1-.14.55,3,3,0,0,0-.34.37c-.1.19-.2,0-.27-.09a.82.82,0,0,1,.1.65l0,0c-.16.07-.35.11-.43.3,0,0-.06.05-.1.07a.63.63,0,0,0-.47.82c0,.18-.06.21-.2.2s-.23-.05-.23-.2c0-.34.08-.66.12-1-.17.1-.1.3-.24.37s-.19-.13-.28-.2a.36.36,0,0,0-.18.32,3.09,3.09,0,0,0-.07.66c.08.42,0,.83.06,1.25a.18.18,0,0,0,.08.12c.18.18-.13.22-.11.36a.29.29,0,0,1,0,.16c-.17.13-.21,0-.21-.12s-.14-.31-.26-.41-.25,0-.38,0-.06.05-.07,0a.67.67,0,0,0-.43-.42c.08-.21-.1-.18-.2-.24a.5.5,0,0,1-.21-.26,4,4,0,0,1,.05-.78C17.51,16.52,17.57,16.22,17.65,15.94Z"/><path class="cls-9" d="M20,17.1c.05,0,.2.15.11-.05-.16-.38.11-.62.23-.92.37.14.47-.44.84-.31a4.23,4.23,0,0,1-.56.56c-.21,0-.31.1-.31.31s-.17.16,0,.24.67.29,1,.43a1,1,0,0,1,.31.19c0,.21,0,.21-.2.21,0,0,0,0,0,0s-.05.11.05.1.16.08.12.2-.14.32-.37.29c.17.19.21,0,.27-.09s0-.16.11-.21.27,0,.28.17a5.77,5.77,0,0,0,0,1,.06.06,0,0,1-.1.06,9.15,9.15,0,0,1-1-.22c0,.09.05.14.06.22-.15.21-.26-.11-.39,0s0,.12.09.15.19.16.21.34a2,2,0,0,0,.36.67,1.06,1.06,0,0,0,.27.29s0-.1.07-.13l.68,1.33c.05.1,0,.16-.08.21a8.21,8.21,0,0,0-.83.44c-.25.16-.4.14-.5-.15a3.43,3.43,0,0,0,.07-1.15.7.7,0,0,1,.08-.23c0-.1.12-.22-.1-.24-.06,0-.05-.12-.05-.19s0-.18,0-.26-.13.18-.23.09-.05-.24,0-.36c-.05.14,0,.32-.1.46-.18-.17-.12-.4-.16-.58a.26.26,0,0,0-.25-.23c-.08-.16,0-.32,0-.48a.94.94,0,0,1,.21-.61.66.66,0,0,1,.6-.36c-.23-.1-.35-.37-.64-.19-.08,0-.13-.09-.11-.17C20,17.66,20,17.38,20,17.1Z"/><path class="cls-10" d="M14.34,21.63c0-.19.11-.41-.12-.55-.05,0,0-.09-.06-.12V20.9c0-.11.06-.21-.07-.33a.34.34,0,0,1,0-.42,1.9,1.9,0,0,0,.14-1.24c0-.06-.14,0-.13-.13a.28.28,0,0,0,0,.27,1.68,1.68,0,0,1,.06.86c0,.15-.07.3-.28.26-.1-.34,0-.72-.21-1.05-.07,0,0,.18-.19.15,0-.19.07-.38.1-.57a.72.72,0,0,0,.17-1.06c-.07-.13-.09-.22,0-.33a.25.25,0,0,1,.4.21c0,.4.29.66.45,1s0,.52.13.76c0,.05-.1.13,0,.18s.16,0,.23-.08l0,0c.27.55.42,1.15.65,1.72.12.28.21.57.31.86a4.35,4.35,0,0,0-.24,1.6c0,.13-.07.16-.19.17s-.24-.08-.22-.19a.87.87,0,0,0-.26-.75.26.26,0,0,1,0-.08c.06-.42-.22-.86.12-1.24,0,0-.08,0,0,0s0,0,0,0A1.43,1.43,0,0,0,15,22.59a.3.3,0,0,1-.06.34s-.08.13-.1.13-.06-.14-.11-.23c-.09.23.06.41,0,.6-.3-.38-.3-.39-.08-.86a.71.71,0,0,0-.05-.69c0-.07-.07-.15-.17-.13S14.3,21.72,14.34,21.63Z"/><path class="cls-11" d="M2.78,23.23c.39-.67.82-1.32,1.26-2a5.7,5.7,0,0,0,.63-1.1.83.83,0,0,1,0-.27c0-.07,0-.15.09-.12s.3-.05.35.2c0-.3-.25-.5-.09-.76l0-.07c.2-.11.18.11.26.18a.31.31,0,0,1,0,.08s0,.08,0,.08c.24-.06.3.13.31.28s-.06.44.17.58c-.06.33.2.53.3.79s.11.28-.09.35a.13.13,0,0,1-.12,0c-.05,0,0-.11,0-.16a.23.23,0,0,0,0,.25c0,.17.15.39-.18.39-.18-.46-.48-.89-.38-1.35,0,.11-.08.29-.13.48s-.15.19-.28.13-.17-.13-.09-.26.06,0,0,0H4.79a.21.21,0,0,0,0,.27c.35.4.35.5.07.94a.21.21,0,0,1-.27.09c-.09,0-.12-.1-.11-.19a1.94,1.94,0,0,1,.07-.33.38.38,0,0,0-.16-.47c-.1.21-.21.41-.08.65,0,.09,0,.21-.09.25s-.18-.06-.2-.17S4,21.83,4,21.77c.07.13.08.31.17.47s0,.22.23.19,0,.18,0,.29c.14,0,.23.1.33.19A1.69,1.69,0,0,0,4.24,24a.13.13,0,0,1-.12.12C4,24.16,4,24.09,4,24s0-.26.06-.39a.41.41,0,0,0-.31.17c0,.47-.53.59-.75.91,0,0-.08,0-.12,0-.09-.17,0-.34,0-.51s0-.06-.08,0c-.27-.16-.3-.3-.14-.55A.68.68,0,0,0,2.78,23.23Z"/><path class="cls-12" d="M7.55,19.19s.07,0,.08,0c.21-.43.64-.7.81-1.17,0-.1.15-.18.24-.27.3-.29.19-.63.05-1,.27.19.27.19.26.47a.1.1,0,0,0,.13,0c.24-.39.66-.67.7-1.18l0,0c.12.05.13.14.07.24a1.53,1.53,0,0,0-.17.55v.13a4.14,4.14,0,0,1-.27.77c-.05.12-.17.23,0,.4s-.15.2-.2.33a2.39,2.39,0,0,0-.52.9A18.57,18.57,0,0,1,7.61,21a.5.5,0,0,0-.26.41l0,.13c-.08.06-.14,0-.17-.05s-.29-.4-.12-.67c.05-.09,0-.21,0-.32a2.29,2.29,0,0,0,0-.37A.5.5,0,0,1,7,20a.7.7,0,0,1,.37-.61c.08,0,.09-.11.14-.17Z"/><path class="cls-13" d="M14.89,22.93a.9.9,0,0,0-.09-.53c-.08-.14,0-.28.06-.43a5.73,5.73,0,0,1,.26-.67c.06.26-.16.45-.13.68a.6.6,0,0,0,0,.23c.05.12.23.22,0,.38,0,0,.07.19.15.28s.28.3.16.55c0,.08-.06.29.17.16,0,0,.05.09.11.07a2.71,2.71,0,0,1,.31-1.7c.36,1,.72,2,1.09,3,.08.23.06.32-.2.34a4.59,4.59,0,0,0-.51.1s0-.09,0-.1c-.54-.17-.65-.67-.9-1.09A7.75,7.75,0,0,1,14.89,22.93Z"/><path class="cls-14" d="M8.89,3.57c-.15.07-.16-.07-.17-.13S8.57,3.16,8.55,3c-.07,0-.09,0-.08.06.43.5-.22.65-.32,1C8.07,4,8,4.16,7.86,4s-.13-.67-.31-1-.11-.79-.21-1.19c-.08-.05,0,.21-.1.09C7,1.66,7.06,2,7,2s.1.18,0,.29c-.1-.09-.06-.21-.06-.31s0-.12,0-.15c-.27-.38-.16-.82-.21-1.23L7.31.41A3,3,0,0,1,7.7,1.5s0,0,0,0a0,0,0,0,0,0,0,2,2,0,0,0-.08-.35c0-.07-.07-.14,0-.2s.13,0,.19,0S7.91,1,8,1a.78.78,0,0,1,.1.15C8.35,2,8.62,2.76,8.89,3.57Z"/><path class="cls-15" d="M6.82,12.33c0,.16-.14.19-.22.28s-.09.06-.09,0-.09-.19-.18-.17,0,.18-.09.26c-.19-.18,0-.46-.18-.67-.12.53-.73.78-.71,1.45a.61.61,0,0,1,0-.65c.17-.34,0-.62-.36-.59s-.33-.13-.39-.32c-.09.09-.09.21-.13.31-.21,0-.19-.22-.3-.36a.91.91,0,0,0-.16.53c0,.06,0,.14-.09.15s-.09-.09-.09-.16a1.43,1.43,0,0,1,.2-.71c.11-.21,0-.37,0-.56l2.88.26c.06.13.29,0,.3.23A.31.31,0,0,0,7,11.8,3.75,3.75,0,0,1,6.82,12.33Z"/><path class="cls-16" d="M13.73,17.35c0,.08-.05.15,0,.24a.91.91,0,0,1,.06,1c-.07.09-.19.05-.28.09,0-.13-.11-.19-.16-.29s-.06,0-.06,0,.07.16,0,.21a.08.08,0,0,1-.08,0c0-.09-.13-.2,0-.27s.14-.27.12-.45-.05-.19-.19-.12-.18.07-.16,0-.26-.32-.07-.39.12-.11,0-.19a.8.8,0,0,1-.19-1,.84.84,0,0,0,.08-.45c0-.11,0-.22.11-.25.13.14.06.31.07.46a.87.87,0,0,1,.58-.12c.23,0,.27-.06.27-.24a.5.5,0,0,1,.06-.24.2.2,0,0,1,.19-.12.36.36,0,0,1,.27.19c0,.09,0,.14-.1.19s-.1.23-.06.36.17.11.28.08.3,0,.33.23a1,1,0,0,0,.1.7.37.37,0,0,1,0,.43.66.66,0,0,1-.36-.13c0-.06,0-.12,0-.18a.39.39,0,0,1-.44-.07c-.15-.09-.08-.33-.19-.45s-.06,0,0,0,0,0,0,0,.12.27-.11.31-.12.12-.1.21S13.85,17.29,13.73,17.35Z"/><path class="cls-17" d="M6,21.45c.18-.17,0-.31-.06-.44s-.17-.15-.14-.31-.17,0-.2-.1.34-.17,0-.3A.2.2,0,0,1,5.56,20a.24.24,0,0,0,0-.29c0-.05,0-.15-.14-.14s0,.13-.1.16,0-.21,0-.32a2,2,0,0,0,0-.54.42.42,0,0,1,.08-.31h.31a.45.45,0,0,0-.17.56c0-.45,0-.45.43-.46.16.1.1.3.19.44a.84.84,0,0,1,.17.37c.09.5.12,1,.18,1.5a4.71,4.71,0,0,0-.11-1.06A.88.88,0,0,1,6.57,19c.19-.22.16-.29-.06-.42a.06.06,0,0,1,0-.08A.26.26,0,0,1,7,18.45c.09.1.23.15.24.33.07-.11.1-.23.21-.29.17.1-.07.29.11.4l.05-.23c.14.2,0,.36,0,.53h0s-.22-.07-.16.13-.08.11-.15,0a.76.76,0,0,0,0-.26c0,.08,0,.15,0,.21s0,.09,0,.12,0,.19-.14.18-.1-.12-.08-.2-.09-.35,0-.56a.56.56,0,0,0,0,.32.45.45,0,0,1,0,.41.42.42,0,0,0,0,.57c.12.21-.12.37-.08.57a.58.58,0,0,1-.14.47.39.39,0,0,0,0,.54.14.14,0,0,1-.18.12c-.15,0-.22.06-.31.14a.21.21,0,0,1-.13.05C5.88,21.86,6,21.65,6,21.45Z"/><path class="cls-18" d="M10.3,6.69h.06c.1,0,.22,0,.31.06.2.65.41,1.3.55,2-.17,0-.21-.15-.25-.27a2.48,2.48,0,0,1-.15-.4,3.55,3.55,0,0,0-.45-1s0,0,0,0,0,0,0,0a7,7,0,0,1,.16.77,12.79,12.79,0,0,0,.59,1.94,1.08,1.08,0,0,1,0,.83c-.12,0-.19-.24-.38,0a.22.22,0,0,1-.35-.17c-.08-.47-.28-.9-.4-1.36-.27,0-.1-.24-.08-.33a1.11,1.11,0,0,0,0-.48,1.3,1.3,0,0,0,0-.62c-.11-.31.09-.6.06-.9C10,6.76,10.16,6.64,10.3,6.69Z"/><path class="cls-19" d="M7.56,22.35c.16.5.32,1,.49,1.5a.61.61,0,0,1,0,.3c0,.09-.07.18,0,.28s0,0,0,0,0-.19.14-.05l.07.31c-.12.18.19.3.06.48l-.12.07c-.36,0-.36,0-.35-.36,0-.1,0-.2,0-.3s0-.12-.14-.09-.22-.07-.21-.21,0-.33.06-.48-.15-.13-.1-.22c0,.07.07.19,0,.25s-.15-.05-.23-.12c0,.18,0,.33.05.49s0,.18-.1.2S7,24.33,7,24.26a1.2,1.2,0,0,1,.09-.91.3.3,0,0,1-.34.17c-.06,0-.13,0-.12-.12a.4.4,0,0,0,0-.32.59.59,0,0,1,0,.45c-.12.23,0,.35.11.49a.56.56,0,0,1,.11.35c0,.09,0,.2-.06.25s-.13-.1-.22-.11c-.14-.39-.28-.78-.43-1.17a2.84,2.84,0,0,0,.07-1.05c-.06-.2.19-.39.39-.32s.23,0,.35,0,.38.11.45.34S7.49,22.4,7.56,22.35Z"/><path class="cls-20" d="M17.41,17.59c.15.06.22.28.43.23,0,0,0,0,.05,0s-.23.22,0,.24.21,0,.27.09a1.07,1.07,0,0,1,.06.27c.09,0,0-.18.1-.2s.09.14.17.23c0-.09,0-.16.06-.31.13.34.53.42.45.82,0,.07.08,0,.12,0s.17,0,.14.06a7.3,7.3,0,0,0-.08.93c-.23-.13-.23-.4-.36-.6a2,2,0,0,0-.94-.63l-1.21-.57a.6.6,0,0,1-.09-.43.56.56,0,0,0-.1-.4c-.14.18-.15.45-.36.59-.12-.06-.27-.06-.38-.16a.53.53,0,0,1,0-.33c0-.08,0-.17-.06-.2-.28-.1-.11-.22,0-.33a.23.23,0,0,0,.07-.1c0-.1.1-.24.23-.21s0,.16,0,.25.12.21,0,.37c.11-.09.13-.15.09-.24s-.13-.14,0-.21a.24.24,0,0,1,.29,0c.11.1.19.23.38.12,0,0,.08.07.08.14s0,.18.08.23.16,0,.16-.11-.06-.26,0-.38.09-.18.21-.14.08.13.07.21l-.06.39C17.31,17.38,17.29,17.5,17.41,17.59Z"/><path class="cls-19" d="M3.7,23.77c0-.06,0-.17.08-.15s.22-.11.34-.18c.15.24-.17.45,0,.71.12-.46,0-1,.54-1.23,0-.22-.08-.37.25-.34s.39-.15.54-.3.15-.14.26-.09l.07,0a.46.46,0,0,1,0,.38.22.22,0,0,0,0,.08L3.27,25.75a1.7,1.7,0,0,1-.19.19c-.12-.14,0-.25.06-.36a.64.64,0,0,0,.15-.5A1.31,1.31,0,0,1,3,25.6s-.09.1-.16.07a.12.12,0,0,1-.07-.12A1.22,1.22,0,0,1,2.86,25,.17.17,0,0,1,3,24.86c.1,0,.06.11.11.16s0,0,0,0,0,0,0,0,0-.29.14-.35c.35-.13.4-.41.42-.73C3.67,23.87,3.73,23.83,3.7,23.77Z"/><path class="cls-21" d="M21.26,15.78A4.12,4.12,0,0,0,21,15l.17.14c.06,0,0,.17.13.15s.09-.1.08-.19.19-.19.25-.23c.24-.15.19-.34.2-.54.38-.06.56-.24.51-.5,0-.07,0-.15-.1-.17s-.09.07-.13.11-.22.35-.34.51c-.09,0-.13-.24-.28-.08s-.11.07-.07.14.1-.07.15,0c-.06.24-.22.23-.41.18a.15.15,0,0,1-.17,0s0-.06,0-.08a2.89,2.89,0,0,1,.91-.93c.15-.1.24-.19.14-.37v0c.23-.15.46-.48.68-.42a2.91,2.91,0,0,1,.82.62c.15.12,0,.19-.09.26l-1.91,1.92Z"/><path class="cls-22" d="M6.52,24.51c.11-.08.12.07.22.1A1.21,1.21,0,0,0,6.59,24c-.06-.11-.23,0-.21-.17s.16-.17.16-.27a4.55,4.55,0,0,0,0-.61c.2.14.27.28.16.48.25.09.37,0,.36-.3.1.09.19.17.1.28-.24.32-.11.64,0,1h.09l-.08-.77c.17,0,.2.15.28.26.13-.16,0-.27,0-.37.22-.14.15.14.31.18s0,.16-.06.25a5.19,5.19,0,0,0,0,.56c.33-.13.34-.13.35.22,0,.12.18.28,0,.39.08.11.23.1.34.18l-1.09.37c-.16.06-.22,0-.27-.14Z"/><path class="cls-23" d="M2.66,20.16H1.3c-.13-.16,0-.33,0-.5a4,4,0,0,1,.2-1c.05,0,.12,0,.12-.08,0-.33.25-.25.41-.22s0,.24.11.36c-.16,0-.1-.18-.2-.22s0,.35.09.35.18-.09.17-.2.11-.25.28-.24.31.08.2.28.06.44.14.64.09-.06.15-.06.07-.11.14-.06a.37.37,0,0,1,0,.31c0,.07,0,.1,0,.13s0,.16-.05.16C2.78,19.77,2.77,20,2.66,20.16Z"/><path class="cls-11" d="M3.08,19.19,3,19.25c0-.21-.15-.36-.15-.59s.26-.3.36-.25.35,0,.52,0l1.72.07c0,.2,0,.41,0,.62s0,.21-.12.23h0c-.08-.13-.09-.3-.23-.41,0,.07.06.15,0,.22H5c-.07.11-.07.34-.24.28a.39.39,0,0,1-.29-.41s0,0,0-.07c0,.31-.24.56-.21.87l-.06.06c-.13,0-.16-.09-.15-.17A.62.62,0,0,0,4,19.37c-.28.44-.68.53-.9.19C3,19.43,3.16,19.32,3.08,19.19Z"/><path class="cls-24" d="M21.81,19.31s.08-.09.06-.12c-.22-.27,0-.54,0-.81s0-.3-.24-.3h0c0-.4-.19,0-.29,0a.43.43,0,0,0,.05-.46c.15,0,.09.17.21.23l.09-.25a2.36,2.36,0,0,1,.8.34.29.29,0,0,1,.07.22,1.64,1.64,0,0,0,.34,1c0-.13,0-.13-.06-.26a.54.54,0,0,1,.07-.74l.18,0c.41.16.42.17.31.6s-.06.73-.28.87-.6-.1-.91-.16A1.87,1.87,0,0,1,21.81,19.31Z"/><path class="cls-25" d="M3.57,11.05c.13.21.28.41,0,.67-.1.09-.08.3-.13.49a1.3,1.3,0,0,1-.16-.75c-.31.18-.3.46-.29.76-.09-.19-.19-.38-.29-.58,0,.12-.27,0-.19.23s-.15,0-.2,0-.19-.23-.31,0-.12,0-.16,0a1.4,1.4,0,0,0-.7-.59.33.33,0,0,1-.23-.41Z"/><path class="cls-26" d="M11.1,10.61a.77.77,0,0,1,0-.37,1.79,1.79,0,0,0-.23-.89s-.07-.06-.07-.09a12.56,12.56,0,0,1-.47-2.19A.41.41,0,0,1,10.39,7c.06.19.07.37.3.41s.09.16.11.26a2.69,2.69,0,0,0,.42,1.09l.63,2.13c-.15.24-.33-.1-.48,0C11.33,10.73,11.13,10.75,11.1,10.61Z"/><path class="cls-27" d="M9.69,16.86v-.13a2.93,2.93,0,0,1,.29-.59c.07-.08.11-.21-.05-.27A.48.48,0,0,0,10,15.7c0-.31.18-.31.39-.15s.05,0,.05,0,.09-.18.14-.27.24-.25.33-.22a.36.36,0,0,1,.22.42c0,.19.05.25.18.31.09.21-.22.17-.19.31s.16.21.1.36-.11.15-.13.24,0,0,0,0,0-.07.05-.05c.37.16.37.16.3.58a.15.15,0,0,1,0,.09l-.06.12c-.08.1-.16.21-.31.12-.2-.31-.24-.7-.49-1s-.17-.18-.05-.44a3.71,3.71,0,0,0-.48.53C9.94,16.75,9.87,16.89,9.69,16.86Z"/><path class="cls-28" d="M19.91,19.74c.14,0,.18-.11.29-.2,0,.35.14.62.1.93a3.29,3.29,0,0,0,.08-.62c.13.17.06.37.1.55s0-.28.17-.2a.26.26,0,0,1,.14.38,1.06,1.06,0,0,0,0,.21c.09,0,.07-.16.18-.16,0,.17.09.34-.05.51a.69.69,0,0,0,0,.64c0,.19.1.3-.09.42s-.05.15-.08.23a5.24,5.24,0,0,1-.55-.91.21.21,0,0,1,0-.23.38.38,0,0,0,0-.34c-.07-.14-.11,0-.16,0s-.37-.42-.27-.6a.93.93,0,0,0,.12-.53.14.14,0,0,1,0-.06Z"/><path class="cls-29" d="M15,6.88c-.16.63.32,1.07.6,1.63-.22,0-.11-.22-.27-.23a4.64,4.64,0,0,0-.14,1.29v0a1.23,1.23,0,0,1-.14.25l0,0c-.07-.19-.19-.36-.14-.57-.12,0-.1.14-.2.16-.07-.13.08-.21.07-.34-.16,0-.13.19-.23.23s0-.17,0-.24a.39.39,0,0,0,0-.39.17.17,0,0,1,0-.17.39.39,0,0,0,.08-.21c0-.16-.12,0-.15,0s0-.08,0-.13a.61.61,0,0,0,0-.56A4,4,0,0,1,15,6.88Z"/><path class="cls-30" d="M19.24,2.64a1.73,1.73,0,0,0-.49,1.26h-.08c0-.26,0-.51-.06-.8-.25.22-.13.49-.17.72-.28-.06-.05.23-.19.27s0-.19-.08-.31c0,.12,0,.2-.06.37-.05-.45-.34-.71-.4-1.07h0c.08-.06.25-.07.18-.25.36-.6.59-.67,1.23-.4C19.24,2.48,19.14,2.61,19.24,2.64Z"/><path class="cls-31" d="M2.83,24.15s0-.12.07,0,0,.39,0,.58a.74.74,0,0,1-.2.57,2.55,2.55,0,0,0-.27.4c-.09.2-.18.15-.27,0a.39.39,0,0,0-.08-.31c-.24.15,0,.29,0,.46-.28-.08-.41-.33-.62-.47-.05,0,0-.09,0-.14s.23-.47.45-.64a.42.42,0,0,0,.25-.31c0-.09.09-.19.21-.18s.18.11.21.22a.56.56,0,0,0,.08.27C2.77,24.44,2.72,24.26,2.83,24.15Z"/><path class="cls-32" d="M2.16,25.67c.06,0,.15.22.19,0a.59.59,0,0,1,.2-.3,1.35,1.35,0,0,0,.35-.64c.11,0,.13-.11.18-.18s.11-.21.28-.22A.33.33,0,0,0,3.61,24c0-.1.06-.12.09-.18.12.29,0,.53-.12.78,0,0-.07.11-.1.11-.36,0-.29.27-.37.47C3,25.07,3.12,25,3,24.9c-.19.21-.14.47-.18.79a1.56,1.56,0,0,0,.45-.76.46.46,0,0,1,0,.63c-.08.12-.2.22-.17.38v0c-.12.16-.22.37-.42.39S2.17,25.88,2.16,25.67Z"/><path class="cls-33" d="M11.7,3.87c-.18-.28.15-.48.11-.75a2,2,0,0,1,.06-.4c0-.13,0-.31.22-.34s.24-.15,0-.27c0,0-.09-.16.07-.14s.23-.06.19-.19.1-.19.21-.3c-.41-.05-.44-.25-.27-.55,0-.07,0-.15.13-.08.08-.12.22-.22.16-.39s0-.18.09-.2.15.11.28.1.13.2.08.32c-.22.54-.45,1.09-.68,1.63Z"/><path class="cls-34" d="M15.87,8.23c.05.2-.12.33-.15.5s-.11.22,0,.25.09-.11.1-.19.06-.25.1-.37a1.73,1.73,0,0,1,0,.64c0,.13-.13.31.1.39a2.25,2.25,0,0,1-.37.54.42.42,0,0,0-.36.57l-.06.12s0-.16-.13-.14,0,.18-.13.32l-.11-.19c.07-.09,0-.21.11-.33-.07.12,0,.24-.11.33l-.24-.06h0a.06.06,0,0,1,0,0l0,0a.18.18,0,0,0,.12-.12c0-.11,0-.22.07-.3A.26.26,0,0,0,15,9.88h0c.09-.08.11-.21.18-.31h0a.16.16,0,0,0,.17-.11A4.89,4.89,0,0,1,15.87,8.23Z"/><path class="cls-35" d="M11.53,18.57c.06,0,.14,0,.18,0s.15,0,.11.1c-.12.3.06.54.13.83.21-.23-.07-.43,0-.64.08,0,.06.11.15.13,0-.18-.12-.34-.1-.52a1,1,0,0,1,.25.92.4.4,0,0,0,0,.37c.09.17.2.33.05.52,0,0,0,.08,0,.09.34.12.19.51.39.72s.19.2.27-.06a1.94,1.94,0,0,0,0,.87c0,.07,0,.15-.09.2-.49-1.16-1-2.33-1.46-3.49C11.49,18.6,11.5,18.58,11.53,18.57Z"/><path class="cls-36" d="M7.56,22.35c0,.08,0,.21-.08.23s-.14-.07-.17-.15a.47.47,0,0,0-.7-.3s-.05,0-.05,0c-.1-.25-.18-.17-.28,0s-.11.18.13.38c-.06,0-.13,0-.15.18s0,.47-.17.65l0-.11c0-.08,0-.16,0-.24S6,23,6,23l0-.1c0-.15,0-.3,0-.45a.17.17,0,0,1,0-.12c.08-.13.21-.22.27-.36s.34-.1.49-.18a.2.2,0,0,0,.14-.29c-.17-.34.07-.61.14-.91l0,0a.3.3,0,0,1,.1.36c-.2.32.1.46.21.67A4.42,4.42,0,0,1,7.56,22.35Z"/><path class="cls-37" d="M7.24,11.59c0-.15-.32,0-.3-.23l1.77.17c.16.17.4.17.58.29s.11.16.11.27-.22.31-.23.54-.15,0-.19,0-.13-.27-.23-.42c-.12.12,0,.29-.08.4s-.17,0-.22-.09-.28-.3-.32-.51-.08-.09-.14-.09c-.3,0-.5-.19-.75-.3Z"/><path class="cls-38" d="M9.69,16.86c.29-.2.43-.53.69-.76,0,0,.07-.11.14-.05s.11.17.07.18c-.24.08,0,.21,0,.32a6.08,6.08,0,0,1-.85,1.32,2.55,2.55,0,0,1-.31.47s-.09,0-.13,0,.17-.14.21-.28c-.15,0-.26,0-.17-.18A4.14,4.14,0,0,0,9.69,16.86Z"/><path class="cls-39" d="M15.69,17c-.07.11,0,.09,0,.18s.19.15.13.25,0,.26-.12.38a3.17,3.17,0,0,1-.79-.37,1.48,1.48,0,0,0-.2-.59c-.12-.16,0-.39,0-.58l0,0c.24.08.06.26.11.39.12-.13.23-.12.3.09.12-.17,0-.54.39-.42A.54.54,0,0,1,15.69,17Z"/><path class="cls-40" d="M3.08,19.55a.5.5,0,0,0,.8-.17c0-.07.06-.17.14-.22.12.25.08.53.22.76s0,.26-.17.25H3.29c-.06,0-.16,0-.17,0s-.12-.11-.21,0-.17,0-.25,0c0-.22,0-.42.31-.39.08,0,.1-.08.1-.16S3.06,19.57,3.08,19.55Z"/><path class="cls-41" d="M20.52,14.9c-.09.11-.18.17-.27-.07,0,.17-.06.29-.07.4s.05.15,0,.19-.08-.08-.13-.12-.13-.07-.13,0c0,.27-.41.05-.34.33-.21,0,0-.26-.15-.23s-.11.23-.12.4c-.18-.14-.1-.38-.26-.49l1.09-.75s.07,0,.11,0,.2-.17.31,0A.3.3,0,0,1,20.52,14.9Z"/><path class="cls-42" d="M13.73,17.35c0-.08,0-.13,0-.2s0-.26.06-.37.21.2.23,0c0-.08-.09-.17-.12-.27s0-.1.08-.12a1.4,1.4,0,0,1,.2.48c0,.3.33.06.34.27.08,0,0-.17.16-.21,0,.15.17.29-.06.4l-.39-.14c.16.49.31.92.45,1.36a0,0,0,0,1-.06,0c-.22-.26-.52-.46-.5-.87C14.11,17.41,14,17.29,13.73,17.35Z"/><path class="cls-40" d="M4.3,19.86c0-.2-.2-.42.11-.58.08-.05.07-.27.1-.44.16.12,0,.28.09.37s.22.09.21.29L5,19.19c0,.15-.07.31.07.46s0,.3,0,.47c-.15,0-.1-.17-.18-.22s-.06-.09-.12,0-.1,0-.14-.06c-.07.12.1.27,0,.36S4.32,20.09,4.3,19.86Z"/><path class="cls-43" d="M3,4.13c0,.53-.09,1-.11,1.58,0,.15-.27,0-.2.18-.1,0-.11-.13-.11-.22V4.05A.93.93,0,0,1,3,4.13Z"/><path class="cls-44" d="M8.34,8.35c.31.12.33.44.44.68a2.48,2.48,0,0,0,.26.6c.23.27.16.66.41.92,0,.24.22.38.24.61a.06.06,0,0,1,0,.08c-.1,0-.17,0-.24-.07a11,11,0,0,1-.67-1.63A7.41,7.41,0,0,1,8.34,8.35Z"/><path class="cls-45" d="M21.44,20.6c0,.09.11.22,0,.26s-.12-.13-.2-.18a1.59,1.59,0,0,1-.51-.79,1.6,1.6,0,0,0-.36-.54.1.1,0,0,1,0-.16.17.17,0,0,1,.22,0c.07.07.12.21.27.13l.37.79c0,.11,0,.23.12.31Z"/><path class="cls-20" d="M19.92,19.24c.12.17,0,.33,0,.5h0c-.08.3-.32.54-.38.86l-.24-.37a9.82,9.82,0,0,0,0-1.33c.06-.12.14-.11.23,0a.69.69,0,0,1,.36.49A.11.11,0,0,1,19.92,19.24Z"/><path class="cls-46" d="M10.19,2.17c0,.24.19.49-.14.69-.08,0-.31.27-.09.47,0,0,0,.06,0,.09-.35,0-.21.35-.39.46-.08-.07-.07-.16-.06-.27a.56.56,0,0,1-.23.25c-.12.06-.16,0-.14-.12Z"/><path class="cls-47" d="M22.06,13.12c.07,0,.19,0,.17.11a.4.4,0,0,1-.26.33c-.19,0-.39,0-.31.34,0,0,0,.06,0,.06-.33,0-.41.33-.6.51s-.15.08-.18,0A.48.48,0,0,1,21,14l.18-.19A7.55,7.55,0,0,1,22.06,13.12Z"/><path class="cls-9" d="M19.54,20.6c-.07-.38.2-.6.38-.86.09.26-.08.53.1.79-.21,0-.13-.14-.2-.18-.1.24.05.39.18.56.07-.05,0-.17.11-.21.22.16.18.4.15.62,0,0-.1.11-.1.2A9.26,9.26,0,0,1,19.54,20.6Z"/><path class="cls-48" d="M21.13,13.79c-.06.06.05.19-.13.24s-.12.25-.1.4.06.1.12,0h.18c0,.17.19.44-.23.29,0,0-.27.15-.45.14a1.2,1.2,0,0,0,0-.27c0-.08-.07-.22-.19-.06s-.18.13-.22-.05Z"/><path class="cls-49" d="M2.83,24.15a1,1,0,0,1-.05.39c0,.06,0,.19-.09.18s-.11-.1-.14-.18a.25.25,0,0,1,0-.12c0-.13,0-.28-.15-.29s-.13.14-.17.24-.1.28-.29.2a14.51,14.51,0,0,1,.86-1.34.3.3,0,0,1,0,.42C2.46,23.89,2.68,24,2.83,24.15Z"/><path class="cls-50" d="M8,1c-.15.35-.2-.1-.33,0a1.45,1.45,0,0,1,.1.72A10.13,10.13,0,0,1,7.31.41.61.61,0,0,0,7.47.32c.19-.12.29-.06.34.14A5.52,5.52,0,0,0,8,1Z"/><path class="cls-51" d="M6.32,2.47c0-.07.07-.17.11,0a6.2,6.2,0,0,1,.44,1.18c0,.07,0,.08.14.08s.07,0,.06,0c-.1.23.28.51-.08.71C6.77,3.79,6.54,3.13,6.32,2.47Z"/><path class="cls-52" d="M22.91,18.09a.56.56,0,0,0,.1.76c.06,0,0,.23,0,.35s0,.1-.1.08-.1-.13-.15-.2a1.94,1.94,0,0,1-.29-1.19A1,1,0,0,1,22.91,18.09Z"/><path class="cls-53" d="M1.48,18.64c0,.52-.17,1-.18,1.52-.09,0-.19,0-.17-.13a9.2,9.2,0,0,0,.12-1.39.73.73,0,0,1,.05-.2c0-.07,0-.12.12-.1s.07.09.05.15S1.34,18.61,1.48,18.64Z"/><path class="cls-39" d="M16.12,18c.1-.15.08-.36.22-.48s0-.21.15-.16a.26.26,0,0,1,.18.28c0,.2,0,.4,0,.6A1.92,1.92,0,0,1,16.12,18Z"/><path class="cls-54" d="M19.31,18.88a5.47,5.47,0,0,1,.1,1.15.21.21,0,0,1-.11.2L19.18,20a1.07,1.07,0,0,1,0-.91s0-.07-.1-.08v-.18c.07-.06.12,0,.17,0Z"/><path class="cls-55" d="M9.45,11.17l.23.06a.12.12,0,0,1,.05.07c0,.12,0,.25,0,.37s-.12.13,0,.16.27,0,.27.09a.15.15,0,0,1-.08.18c-.1.06-.21.18-.32.07s-.15,0-.2-.05v0c-.07-.07-.15-.13-.13-.24a.23.23,0,0,1,.06-.25c.18,0,.26,0,.17-.22A.65.65,0,0,1,9.45,11.17Z"/><path class="cls-56" d="M7.17,5.3c.12,0,.25,0,.29.19s-.11.08-.14.15-.07,0-.1,0-.28-.21-.31.11c0-.23-.09-.37-.33-.41A.64.64,0,0,1,6.2,5Z"/><path class="cls-57" d="M14.59,18.51h.06a4.22,4.22,0,0,1,.32.86c0,.21-.23.09-.32.19s-.07-.08-.06-.14C14.68,19.12,14.51,18.81,14.59,18.51Z"/><path class="cls-58" d="M11.53,18.57l0,.06L11,17.53l.31-.12a1.49,1.49,0,0,0,.17.8A1.08,1.08,0,0,1,11.53,18.57Z"/><path class="cls-59" d="M9.14,3.74s0,.16.12.06l.31-.34v.42c0,.15,0,.31-.22.31S9.11,4,9.07,3.81Z"/><path class="cls-60" d="M10.67,6.75c-.1,0-.24.15-.31-.06a.54.54,0,0,1,.18-.63c.08-.08.16-.14.21,0A.74.74,0,0,0,10.67,6.75Z"/><path class="cls-61" d="M8.1,15.58c.07,0,.06.1,0,.16a6.26,6.26,0,0,0-.21.61c-.07.25-.17.27-.33.08A5.93,5.93,0,0,1,8.1,15.58Z"/><path class="cls-62" d="M7.74,7.91l-.08-.55A1.81,1.81,0,0,0,8.27,8a.22.22,0,0,1,0,.32C8.21,8,7.93,8,7.74,7.91Z"/><path class="cls-63" d="M13,22.19c.33-.12.31.22.39.35a2.51,2.51,0,0,1,.1.45c0,.11-.07.06-.12.06A4.65,4.65,0,0,1,13,22.19Z"/><path class="cls-64" d="M10.85,5.84c-.14.06-.22,0-.16-.13A5.4,5.4,0,0,0,11,4.83c.17.11,0,.29.11.4Z"/><path class="cls-65" d="M14.48,11.91c-.26-.13-.2-.35-.18-.57.16,0,0,.19.17.23s0-.19,0-.28a.66.66,0,0,1,.3.12A2.29,2.29,0,0,1,14.48,11.91Z"/><path class="cls-66" d="M9.26,18.33c.05,0,.1-.07.13,0a5.7,5.7,0,0,1-.62.92A1.19,1.19,0,0,1,9.26,18.33Z"/><path class="cls-67" d="M6.51,18.51s0,0,0,.06,0,.23,0,.24-.24.23-.38.31c-.06-.16,0-.34-.13-.48s0,0,0-.05,0,0,0,0c.19,0,.38,0,.43-.25C6.52,18.33,6.5,18.43,6.51,18.51Z"/><path class="cls-1" d="M7.61,14.78c0-.15.07-.29.12-.47A.93.93,0,0,1,8,15,1.5,1.5,0,0,1,7.61,14.78Z"/><path class="cls-4" d="M15.33,10.56a1.28,1.28,0,0,1-.11-.24c0-.1-.07-.25.13-.21s.16-.28.34-.12A2,2,0,0,1,15.33,10.56Z"/><path class="cls-11" d="M6,18.58s0,0,0,.06a1.24,1.24,0,0,1-.4.11l.1.55c-.27-.12-.15-.33-.19-.48s.13-.24.25-.3A.33.33,0,0,1,6,18.58Z"/><path class="cls-68" d="M10.85,1.92l-.43-.07.37-.55c.06.21,0,.42.06.62Z"/><path class="cls-33" d="M11.28,4.86c-.2-.32.09-.54.15-.81l.16.07C11.48,4.37,11.38,4.61,11.28,4.86Z"/><path class="cls-44" d="M9.32,11.59a.37.37,0,0,1-.06.25c-.22,0-.46,0-.55-.31A2.48,2.48,0,0,1,9.32,11.59Z"/><path class="cls-69" d="M20.35,16.69a.18.18,0,0,1,0-.31c.07,0,.19-.18.28,0A1.3,1.3,0,0,1,20.35,16.69Z"/><path class="cls-2" d="M6,1.4c-.32-.32.19-.25.17-.43C6.23,1.16,6,1.24,6,1.4Z"/><path class="cls-34" d="M16.06,9.45c0-.21-.08-.48.29-.43C16.25,9.16,16.15,9.3,16.06,9.45Z"/><path class="cls-22" d="M8.21,24.39c-.25,0,0,.17-.11.2-.09-.14-.23-.28,0-.44A.29.29,0,0,1,8.21,24.39Z"/><path class="cls-22" d="M8.34,25.18c0-.16-.3-.29-.06-.48a3.68,3.68,0,0,0,.15.35C8.47,25.14,8.44,25.19,8.34,25.18Z"/><path class="cls-36" d="M7.35,21.44A.29.29,0,0,1,7.61,21C7.53,21.17,7.44,21.31,7.35,21.44Z"/><path class="cls-19" d="M6,22.43c.15.15,0,.3,0,.44-.07-.05-.06-.17-.17-.18v0C5.78,22.55,5.87,22.49,6,22.43Z"/><path class="cls-19" d="M6,23l.14-.19c-.07.15.09.31,0,.45C6,23.16,6,23.06,6,23Z"/><path class="cls-51" d="M6.07,1.74a.33.33,0,0,1,.14.41Z"/><path class="cls-9" d="M21.32,20.41c-.22,0-.2-.16-.12-.31A.37.37,0,0,1,21.32,20.41Z"/><path class="cls-6" d="M17.89,2.83c.2.27-.05.22-.18.25A.56.56,0,0,1,17.89,2.83Z"/><path class="cls-70" d="M12.08,13.12c.15.12.24.05.41,0s.21-.42.35-.53a2,2,0,0,1,.51-.33c.21-.09.52-.1.56-.45a.48.48,0,0,1-.1.47,1.79,1.79,0,0,0-.33,1.26c0,.26-.24.46-.18.73a.13.13,0,0,1-.14-.05c-.05-.07-.05-.17-.14-.22l-.25-.19c-.08-.07-.15,0-.23,0a.29.29,0,0,1-.4-.16A1.35,1.35,0,0,0,12.08,13.12Z"/><path class="cls-71" d="M13.06,13.92c.17,0,.11.16.13.25a.77.77,0,0,0,.14.65c.17.22-.1.66-.4.69-.09.05,0,.19-.11.24h0c-.42-.14-.47-.2-.44-.67s-.14-.64-.13-.92c.06.13,0,.34.06.53s0,.14-.05.13c-.28,0-.15.18-.18.3s0,.23-.18.14a1,1,0,0,0-.16-.62,2.47,2.47,0,0,1-.09-.52.17.17,0,0,1,.13-.21,1,1,0,0,0,.36-.3c.17.09.33.21.53,0s.1.07.14.12a.14.14,0,0,1,0,.19c-.22.13-.13.31-.08.47a.55.55,0,0,1,0,.38.25.25,0,0,0,0,.29c.07-.28-.15-.62.19-.87.06,0,0-.13,0-.2S13,13.87,13.06,13.92Z"/><path class="cls-58" d="M11.41,17.29v-.55c-.11,0,0,.13-.09.18l-.18-.26c-.08.06,0,.2-.14.21s0-.21.05-.31.24-.27-.05-.39a.17.17,0,0,1,.11-.29c.09,0,.16,0,.18-.13.22.05.1-.1.09-.17-.06-.22-.13-.43-.19-.64,0,0,0-.11.05-.12s.07,0,.07.1a1.9,1.9,0,0,0,.37,1c.22.36,0,.65,0,1C11.72,17.08,11.41,17.08,11.41,17.29Z"/><path class="cls-15" d="M7.24,11.59c.33-.05.54.33.88.23a3.6,3.6,0,0,0,.39.62c0,.06.05.13.14.14a.06.06,0,0,1,0,.06c-.07,0-.08.32-.22,0-.1.19.12.34.06.55-.17-.15-.38-.21-.4-.47s-.05,0-.07,0l-.46-.41s0-.06.05,0,.16,0,.14-.1A.22.22,0,0,0,7.57,12,.38.38,0,0,1,7.24,11.59Z"/><path class="cls-72" d="M8.65,12.64v-.06c.06-.14-.17-.31,0-.44,0,0,0-.1.05-.11a.09.09,0,0,1,.09.1c0,.11.11.16.14.26s0,.2.16.27a.61.61,0,0,1,.26-.58h0c.07.1.1.23.29.17s.21.09.24.22,0,.2.07.28A1,1,0,0,1,8.65,12.64Z"/><path class="cls-16" d="M11.9,15.26c.17,0,.11-.16.11-.26s-.09-.18,0-.3l.27.12a3,3,0,0,1,0-.84,2.58,2.58,0,0,1,.23,1.19.82.82,0,0,0,.06.38c0,.06,0,.14.12.07.24-.21.17,0,.19.13-.18.09-.14.3-.25.47,0-.24.06-.47-.18-.59s-.13-.29-.2-.43c-.06.05,0,.16-.12.19s-.16.27-.13.44a.9.9,0,0,0,.07.11C11.8,15.86,11.78,15.7,11.9,15.26Z"/><path class="cls-73" d="M13.85,20.17c.13-.08.27-.16.19-.35a.25.25,0,0,1,0-.15.56.56,0,0,0,0-.55c-.1-.21,0-.33.05-.49s-.09.35.18.12c0,0,.06,0,.06.07-.05.48.1,1-.22,1.41-.1.14,0,.27.09.36s.15.12,0,.31-.36,0-.24-.26A.39.39,0,0,0,13.85,20.17Z"/><path class="cls-37" d="M10,12.75c-.16,0-.14-.14-.13-.25s-.11-.24-.15-.2c-.36.28-.24-.12-.32-.22.14-.1.27.14.43,0s.16-.07.11-.17-.07-.19-.19,0-.13-.07-.16-.11.11,0,.11-.12,0,0,.07,0a.8.8,0,0,0,.38.21c.31.11.26.28.19.51-.14-.06-.06-.18-.07-.32C10,12.26,10.19,12.58,10,12.75Z"/><path class="cls-71" d="M12.07,15.39a.78.78,0,0,1,.15-.46c.06.27.11.49.17.7l-.14.24C12.18,15.69,12.13,15.54,12.07,15.39Z"/><path class="cls-44" d="M9.76,11.65H9.69c0-.12-.11-.24,0-.37s.06-.1.12-.12,0-.27.15-.44c0,.2.17.32,0,.5A1.52,1.52,0,0,0,9.76,11.65Z"/><path class="cls-38" d="M9.93,15.87a1.55,1.55,0,0,1,.23.05c.05,0,.09.08,0,.11-.3.14-.3.49-.5.7a1.11,1.11,0,0,1,.21-.58c.08-.08,0-.14,0-.21Z"/><path class="cls-29" d="M14.65,10.55a.13.13,0,0,1,0,.06c-.22-.37-.19-.85.1-1A2.19,2.19,0,0,0,14.65,10.55Z"/><path class="cls-73" d="M14.34,21.63c0,.13.31,0,.25.25-.19-.07-.11.08-.12.15s0,.18-.11.18-.06-.1-.08-.16S14.19,21.75,14.34,21.63Z"/><path class="cls-73" d="M14.16,21a.12.12,0,0,1,.06.12c-.13.13.23.27,0,.39a.23.23,0,0,1-.15.05C14.09,21.33,14,21.12,14.16,21Z"/><path class="cls-58" d="M11.15,14.14a1.05,1.05,0,0,1,.06.53A.54.54,0,0,1,11.15,14.14Z"/><path class="cls-71" d="M11.49,14.12c0,.05,0,.08,0,.11s.09.19,0,.28-.08,0-.1,0A.35.35,0,0,1,11.49,14.12Z"/><path class="cls-29" d="M14.84,10.13a.53.53,0,0,1-.07.3C14.67,10.19,14.68,10.13,14.84,10.13Z"/><path class="cls-2" d="M9.81,11.16l-.12.12a.09.09,0,0,0,0,0v-.3l0,0Z"/><path class="cls-74" d="M10.3,6.69c-.14,0-.27.28-.42,0a.33.33,0,0,0-.07-.33c-.11,0,0,.17-.14.18a7.14,7.14,0,0,1-.19-1.63c-.12.14-.18.34-.34.12.11-.09,0-.32.25-.33.07,0,0-.11,0-.17s-.11-.16,0-.21.2-.11.31,0a.24.24,0,0,1,.12.23c0,.08-.2.19,0,.23s.15-.14.16-.26V4.43c.08,0,.16-.08.18.06a2.23,2.23,0,0,0-.33,1c0,.22.16.44.11.7,0,.07.08.14.16.16S10.27,6.55,10.3,6.69Z"/><path class="cls-1" d="M7.36,14.35c.14,0,.1-.19.22-.28a.54.54,0,0,1-.18.54c-.07-.09,0-.18,0-.26Z"/><path class="cls-75" d="M4.13,13.4c-.09-.09-.12-.22-.24-.28C4.11,13.18,4.11,13.18,4.13,13.4Z"/><path class="cls-25" d="M3.87,11.1c0,.09.1.16,0,.29-.06-.11-.25-.17,0-.29Z"/><path class="cls-76" d="M12.93,15.51c.26-.07.25-.35.4-.5s0-.15-.09-.2a.45.45,0,0,1-.05-.64l.11.06c.14.06.12-.05.13-.12s.05-.22.08-.33a.13.13,0,0,1,.14.13c0,.16,0,.27.26.27s0,.24.08.36a.29.29,0,0,1,.5,0c.09.12.27.13.34.28s.09.05.11,0,0-.17.12-.13,0,.12,0,.19.05.21.21.19.16.06.09.17-.11.2,0,.25.22,0,.18-.17,0-.09.05-.09a.13.13,0,0,1,.09.07,1.31,1.31,0,0,1,.06.25c.14-.07.06-.21.12-.29.24.24.61.27.87.49.06.06.08,0,.1-.05s.3-.21.19-.44c0,0,0-.16.14-.2a1.07,1.07,0,0,0,.45.88c0,.15,0,.32.08.46a.06.06,0,0,1,0,.1c-.41.13-.15.47-.21.7s-.05.26-.09.39c-.32.06-.18-.18-.18-.28a5.58,5.58,0,0,1,.11-.63c-.27.15-.18.36-.18.55,0,0-.08.1-.11.05-.18-.22-.06.12-.14.07-.35,0-.08-.26-.14-.4-.15.12-.3.3-.37-.05,0-.14-.2,0-.31-.08.25.17.18.34,0,.51s-.18,0-.15,0c.1-.21-.21-.42.05-.62-.26,0-.12.3-.32.3a.88.88,0,0,0-.12-.67c-.08-.11-.3-.07-.28-.23a.2.2,0,0,1-.1.24c-.1.05-.14-.05-.19-.11s-.15,0-.23,0h0c-.07-.16-.16-.19-.32-.1s-.32.05-.32-.13-.21-.4.12-.47c.05,0,.1,0,.08-.06a1,1,0,0,0-.21-.19c-.08-.05-.14,0-.16.09a2.09,2.09,0,0,0,0,.36c0,.18-.05.31-.28.17-.07,0-.22-.1-.28.06L13.3,16c-.23-.28-.25.09-.37.11Z"/><path class="cls-70" d="M13.45,12.09a.41.41,0,0,1-.11-.49A.67.67,0,0,1,13.45,12.09Z"/><path class="cls-77" d="M10.43,2.53c.1.12.08.27.1.43.19-.24.08-.52.21-.75a.91.91,0,0,1,.18.74c0,.08,0,.19-.14.17s-.08,0-.07.1.06.18-.05.2-.08-.13-.13-.18C10.29,3,10.46,2.77,10.43,2.53Z"/><path class="cls-78" d="M10.12,4.49c0-.07-.12-.06-.18-.06L10,3.65s0-.1.09-.1a.11.11,0,0,1,.08.08c0,.3.22.6.06.92,0,0,0,.11-.1.06S10.12,4.53,10.12,4.49Z"/><path class="cls-68" d="M10.85,1.92c.09,0,.11-.07.14-.14s.06-.08.14-.05.22.51.13.66-.15.09-.2,0l-.21-.46Z"/><path class="cls-79" d="M19.92,19.24l0,.34a1.32,1.32,0,0,0-.43-.69.14.14,0,0,0-.16,0h0c-.12-.14.12-.3,0-.43a7.82,7.82,0,0,1,.08-1.07.48.48,0,0,1,.49-.4c0,.14,0,.21.19.12.12.32,0,.63-.06.94.18,0,.09-.27.22-.16s.47.22.58.47c0,.07-.05.1-.11.07-.29-.11-.38.06-.54.28A1,1,0,0,0,19.92,19.24Z"/><path class="cls-80" d="M19.85,17a.65.65,0,0,0-.43.56c-.05.3.11.64-.12.91,0,0,0,0-.06.06s-.15-.14-.14-.17c.07-.24-.17-.49,0-.71,0,0,0-.09,0-.14-.28-.41.11-.82,0-1.24,0,0,.18-.11.25-.23l.19.31c.11,0,.12-.12.11-.24a.22.22,0,0,1,.2-.22c.08,0,.15.14.11.21A5.47,5.47,0,0,0,19.85,17Z"/><path class="cls-81" d="M21.81,14.23c0-.31.28-.45.36-.72,0-.06.12-.07.18,0a.47.47,0,0,1,0,.59c-.12.16-.29.33-.53.18Z"/><path class="cls-20" d="M19.24,18.51l.06-.06c.14.14,0,.28,0,.43l-.19-.06C19.08,18.68,19.4,18.69,19.24,18.51Z"/><path class="cls-24" d="M21.63,18.08c.05.21-.17.35-.14.56-.07-.13-.12-.29-.34-.21.16-.14.37-.17.48-.35Z"/><path class="cls-17" d="M5.7,22.24s-.12,0-.15,0c-.13.3-.49.27-.69.47s0-.12-.1-.14,0,.24-.09.32-.23-.25-.46-.09l.18-.37c-.14,0-.13.11-.21.23A4,4,0,0,1,4,21.56a4.34,4.34,0,0,0,.16.47c0,.06.07.06.12.06A.08.08,0,0,0,4.3,22c-.25-.3,0-.56,0-.85.37.14.45.3.32.63v0c0,.13-.14.32,0,.37s.2-.13.22-.27,0-.09,0-.1c.23-.1.16-.27,0-.37a.68.68,0,0,1-.27-.58c.1,0,.16.1.27.06,0,.11-.19.05-.14.18s.11.07.18.09.1-.05.11-.12.16-.34.13-.53.1-.07.16-.12c-.12.34,0,.64.08,1,0,0,0,.1.06.1.21,0,.21.14.11.3s.06.11.07.18A.2.2,0,0,1,5.7,22.24Z"/><path class="cls-82" d="M5.7,22.24v-.3c.24-.06,0-.26.12-.37a.15.15,0,0,1,.07-.12H6c.09.17,0,.4.12.55,0,.15-.14.14-.21.21a.23.23,0,0,1-.16,0Z"/><path class="cls-17" d="M5,19.18c0-.13-.19-.26,0-.38a1.09,1.09,0,0,1,.22.57C5.15,19.38,5.22,19.11,5,19.18Z"/><path class="cls-17" d="M5.9,21.45c0,.05,0,.1-.07.12-.24-.16.1-.28,0-.44C6,21.23,5.94,21.34,5.9,21.45Z"/><path class="cls-1" d="M6.94,20.16c-.19-.14-.3-.31-.12-.52a.54.54,0,0,0,.08-.59.5.5,0,0,1,0-.12c0-.09,0-.18,0-.26s.06,0,.08,0,0,.16,0,.25.08.4,0,.63c.16-.06.11-.21.2-.26h0c.06.06.12.05.12,0,0-.23.1-.11.19-.09s0,.22-.19.28-.28.3-.3.51c-.06,0-.06,0-.09.15Z"/><path class="cls-1" d="M6.82,20.72c-.11-.22.2-.34.12-.56h0a.08.08,0,0,1,.12,0c0,.12.1.26-.06.37H7C6.94,20.59,7,20.75,6.82,20.72Z"/><path class="cls-17" d="M7.06,20.17H6.94c0-.12-.1-.24-.05-.37s.15.1.17.19Z"/><path class="cls-1" d="M6.08,19.12c.12-.1,0-.26.1-.39.25.26.26,0,.33-.16.09,0,.21-.11.27,0a.39.39,0,0,1-.09.42.77.77,0,0,0-.16,1c0,.13-.13.35.15.39,0,0,0,.07,0,.08-.19.09-.1.23-.09.37a.4.4,0,0,1-.16.37,9.46,9.46,0,0,0-.17-1.86C6.23,19.17,6.05,19.25,6.08,19.12Z"/><path class="cls-83" d="M6.82,20.72,7,20.53a.65.65,0,0,1-.1.41c-.1.15-.15.28,0,.44s-.07.36-.23.38a1.33,1.33,0,0,1-.14-.19c-.08-.1-.11-.16,0-.27A.76.76,0,0,0,6.82,20.72Z"/><path class="cls-19" d="M5.89,22.18c0-.13.19-.09.25-.18l.06-.06a.37.37,0,0,1-.25.37C5.86,22.3,5.85,22.25,5.89,22.18Z"/><path class="cls-1" d="M7.24,19.31c0-.13-.21-.27,0-.4,0,.15.06.28,0,.4Z"/><path class="cls-8" d="M16.91,17.35c0-.11-.1-.24,0-.32s0,.28.21.2C17.16,17.43,17.07,17.46,16.91,17.35Z"/><path class="cls-84" d="M5.89,22.18a.14.14,0,0,0,.06.13v.12c0,.14-.12.17-.19.24-.1-.14.06-.29,0-.43Z"/><path class="cls-75" d="M3.08,19.55s0,0,0,.06-.11.07-.09,0,.07-.26.1-.39C3.23,19.31,3,19.43,3.08,19.55Z"/><path class="cls-6" d="M14.94,8.89a.69.69,0,0,1-.06-.61C15,8.49,15.08,8.65,14.94,8.89Z"/><path class="cls-6" d="M15.14,9.57a.26.26,0,0,1-.18.31C15,9.77,15,9.61,15.14,9.57Z"/><path class="cls-1" d="M14.9,10.67c0-.17-.06-.38.22-.51-.06.21,0,.4-.22.51Z"/><path class="cls-16" d="M14.77,16.25c.05-.07.05-.21.15-.2a.21.21,0,0,1,.18.25c.18-.1.15-.25.2-.38-.08.26.28.18.27.39-.09,0-.23,0-.2.11s-.1.31-.14.47c-.18-.05,0-.29-.17-.31s-.08.17-.2.25a.73.73,0,0,1,0-.44C14.88,16.3,14.87,16.26,14.77,16.25Z"/><path class="cls-4" d="M13.06,13.92c-.08,0-.1,0-.05.11s.07.28-.13.32-.08.09-.07.15a2.48,2.48,0,0,0,0,.77c-.18-.17-.44-.31-.18-.61a.14.14,0,0,0,0-.09.64.64,0,0,1,.14-.83Z"/></g></g></svg>