<svg xmlns="http://www.w3.org/2000/svg" xmlns:xlink="http://www.w3.org/1999/xlink" viewBox="0 0 262.94 484.18"><defs><style>.cls-1{fill:none;}.cls-2{clip-path:url(#clip-path);}.cls-3{fill:#f0cb50;}.cls-4{fill:#e54337;}.cls-5{fill:#fff;}.cls-6{fill:#cccccb;}.cls-7{fill:#6db6c8;}.cls-8{fill:#092028;}</style><clipPath id="clip-path" transform="translate(-16.67 -94.79)"><rect class="cls-1" width="294.5" height="499.55"/></clipPath></defs><g id="Слой_2" data-name="Слой 2"><g id="Слой_1-2" data-name="Слой 1"><g class="cls-2"><path class="cls-3" d="M216.65,344.77,69.1,392.65a14.53,14.53,0,0,1-18.31-9.34l-12-36.94a14.54,14.54,0,0,1,9.34-18.32l147.55-47.88A14.54,14.54,0,0,1,214,289.51l12,36.94A14.54,14.54,0,0,1,216.65,344.77Z" transform="translate(-16.67 -94.79)"/><path class="cls-4" d="M195.6,285.69,51.45,332.47A16.33,16.33,0,0,0,41,353l9.28,28.57A16.32,16.32,0,0,0,70.8,392.1L215,345.32a16.32,16.32,0,0,0,10.48-20.57l-9.27-28.57A16.33,16.33,0,0,0,195.6,285.69Z" transform="translate(-16.67 -94.79)"/><path class="cls-4" d="M39.42,348.3s-42.66,9.08-11.15,68.85l9-15.39S26.77,379,34.5,371.46s10.29-6.62,10.29-6.62Z" transform="translate(-16.67 -94.79)"/><polygon class="cls-5" points="229.62 294.2 262.94 440.31 111.9 484.18 72.53 387.92 42.82 291.89 198.67 237.39 229.62 294.2"/><path class="cls-6" d="M214.63,291.44s39.87-17.71,49.46,49.18l-16.31-7.19s-4.91-24.62-15.56-26.13S220,308,220,308Z" transform="translate(-16.67 -94.79)"/><path class="cls-5" d="M55,335.16c-4.63-14.26-5.2-29.53-1.11-43.13,5.25-17.53,18.06-38.2,48.63-48.12,27.17-8.82,48.65.5,62.89,11.28,11.4,8.64,20,21.39,24.68,35.77l1,3.21c4.84,14.91,5.2,30.88.58,44.93-5.4,16.45-17.45,35.16-44.09,43.81s-48.75.83-63.89-9C70.47,365.21,60.26,351.3,55,335.2Z" transform="translate(-16.67 -94.79)"/><path class="cls-7" d="M146.11,383.38a34.27,34.27,0,0,0,6-11.14c1.21-4.52,1.22-11.49-2.45-14.08-5-3.55-12.41,4.39-23.7,6.85-18.51,4-39.53-8.45-50.82-23C62.9,326.1,62.77,308.49,62.73,302.25c-.16-20.5,8.84-35.4,7.44-36S61.9,278,56.42,292c-2.15,5.46-3.81,10.57-5.13,15.17a77,77,0,0,0,3.73,28v0c5.23,16.1,15.44,30,28.72,38.67C98.6,383.55,120,391.29,146.11,383.38Z" transform="translate(-16.67 -94.79)"/><path class="cls-8" d="M69,326.33a42.46,42.46,0,0,1,.51-28.23c4.44-11.65,14.57-25.59,37.53-33,20.4-6.63,36-1.19,46.25,5.44a42.54,42.54,0,0,1,17.17,22.67l.67,2.08a42.71,42.71,0,0,1-1,29.42c-4.52,10.95-14,23.59-34,30.08S100,356.81,89,350.81A43,43,0,0,1,69,326.36Z" transform="translate(-16.67 -94.79)"/><path class="cls-5" d="M213,329.79s-9.4-9.05-14.26-19.29L204,333.37Z" transform="translate(-16.67 -94.79)"/><path class="cls-7" d="M189.67,308.59a30.3,30.3,0,0,1,1.56,8.56,35.76,35.76,0,0,1-.64,8.75,28.13,28.13,0,0,1-3.13,8.26,21.15,21.15,0,0,1-5.84,6.49,39.84,39.84,0,0,0,4.33-7.27,6.26,6.26,0,0,0,.4-1l.37-1a14.77,14.77,0,0,0,.68-2c.18-.67.43-1.32.59-2l.46-2a60.69,60.69,0,0,0,1.09-8.32C189.71,314.33,189.75,311.49,189.67,308.59Z" transform="translate(-16.67 -94.79)"/><path class="cls-8" d="M66.89,348.44c1.64,2.39,3.34,4.66,5.13,6.84a61.56,61.56,0,0,0,5.76,6.09l1.57,1.38c.53.45,1.11.83,1.65,1.26a14.46,14.46,0,0,0,1.7,1.2l.87.56a5.94,5.94,0,0,0,.89.55,39.83,39.83,0,0,0,7.78,3.34,21.39,21.39,0,0,1-8.55-1.82A28.52,28.52,0,0,1,76.32,363a35.89,35.89,0,0,1-5.67-6.71A30.61,30.61,0,0,1,66.89,348.44Z" transform="translate(-16.67 -94.79)"/><path class="cls-5" d="M216.77,407.77S279,383.24,265,319.56c0,0-56.59-11-69.9-3.54C195.07,316,175.47,386,216.77,407.77Z" transform="translate(-16.67 -94.79)"/><path class="cls-5" d="M265,319.56s12.11-72.52,1.94-84.12l-55.57-1.57S193.62,298.28,195.07,316C195.07,316,217.91,309.49,265,319.56Z" transform="translate(-16.67 -94.79)"/><path class="cls-7" d="M266.91,235.44l-31.72-.9a51.85,51.85,0,0,0-19.9,16.74c-7.45,10.85-12.55,29-5.07,38.48,5.22,6.61,14.52,6.37,14.57,10,.08,5.49-21.11,8.3-20.89,12.45.26,4.72,28,6.73,27.88,9.08-.1,2-21.14-1.81-31.09,9-7.54,8.17-5.19,20.95-4.65,27.57,4.21,51.06-69.47,93.27-59.33,110.48,6.74,11.46,40-6.25,54.8,10,13.87,15.23-6.5,40.64,4.15,56.45,5.51,8.19,18.89,13.1,35.69,14.38l48.26-14L246.29,389l-.56-1c14-14.08,26.34-36.25,19.24-68.4C265,319.56,277.08,247,266.91,235.44Zm-2.28,84.05.22,0Zm-5.9-1.26.68.14Zm1,.21.61.13Zm1.35.29.17,0Zm1.17.25,2.36.5Z" transform="translate(-16.67 -94.79)"/><path class="cls-5" d="M64.16,376.63s61.48,39.88,32.54,105.16c0,0-63.12-.52-75.79-11.41C20.91,470.38,15.09,391.06,64.16,376.63Z" transform="translate(-16.67 -94.79)"/><path class="cls-8" d="M200.15,425.18h0a225,225,0,0,1-73,23.69h0l-12.89-39.72,8.28-4a225.78,225.78,0,0,1,58.24-18.6l6.46-1.13Z" transform="translate(-16.67 -94.79)"/><path class="cls-5" d="M35.68,570.58s-22.14-68.19-8.9-97L93,482.43s9.6,60.67,5,79.61C98.05,562,88.29,567.61,35.68,570.58Z" transform="translate(-16.67 -94.79)"/><path class="cls-5" d="M107,265.06c-44.06,14.29-40.88,52.52-40.88,52.52l1.19,3.68S64.12,283,108.18,268.73C146.9,256.16,168.41,287,168.41,287l-1.19-3.67S145.71,252.49,107,265.06Z" transform="translate(-16.67 -94.79)"/><path class="cls-8" d="M66.11,317.58a52.44,52.44,0,0,1,10.63-33A55.13,55.13,0,0,1,89.6,272.41a68.91,68.91,0,0,1,15.85-7.92,56.94,56.94,0,0,1,17.39-3.5,48.18,48.18,0,0,1,17.55,2.64,55.79,55.79,0,0,1,15.47,8.49,77,77,0,0,1,12.53,12.27A85.25,85.25,0,0,0,155.23,273a58.2,58.2,0,0,0-15.39-7.73,47.8,47.8,0,0,0-16.91-2.2,55.92,55.92,0,0,0-16.76,3.48,69.51,69.51,0,0,0-15.43,7.57,55.42,55.42,0,0,0-12.68,11.52,54.51,54.51,0,0,0-8.47,15A53.65,53.65,0,0,0,66.11,317.58Z" transform="translate(-16.67 -94.79)"/><path class="cls-8" d="M175.78,307.16a47,47,0,0,1-10.22,32.64,46.37,46.37,0,0,1-6.08,6.37c-.53.51-1.1,1-1.68,1.43s-1.14.92-1.73,1.37c-1.21.83-2.37,1.74-3.63,2.49a73,73,0,0,1-15.89,7.42,63.42,63.42,0,0,1-17.27,3.21,53.12,53.12,0,0,1-17.41-2.21,54.9,54.9,0,0,1-15.69-7.68A64.27,64.27,0,0,1,73.5,340.35c7.93,8.37,17.83,14.93,28.84,17.91s22.77,2.2,33.52-1.45a72.09,72.09,0,0,0,15.48-7.1,53.06,53.06,0,0,0,12.9-11,48.35,48.35,0,0,0,8.52-14.7A47.36,47.36,0,0,0,175.78,307.16Z" transform="translate(-16.67 -94.79)"/><ellipse class="cls-5" cx="134.87" cy="280.34" rx="14.22" ry="20.14" transform="translate(-184.08 259.09) rotate(-77.98)"/><path class="cls-7" d="M71.27,270.45c-.78-.5-.37-2.53.91-4.55s2.95-3.25,3.73-2.75.37,2.53-.91,4.55S72.05,271,71.27,270.45Z" transform="translate(-16.67 -94.79)"/><path class="cls-7" d="M93.71,250.29a52.74,52.74,0,0,1,13.54-6.08A60.23,60.23,0,0,1,122,241.73a58.84,58.84,0,0,1,7.51.24,49.87,49.87,0,0,1,7.38,1.34,44.92,44.92,0,0,1,13.58,6,68.91,68.91,0,0,0-14-4.36,63.61,63.61,0,0,0-14.44-1.06,77,77,0,0,0-14.38,1.94A90,90,0,0,0,93.71,250.29Z" transform="translate(-16.67 -94.79)"/><path class="cls-7" d="M187.63,296.48a4.86,4.86,0,0,1,1.21,1.52,6.91,6.91,0,0,1,.61,1.68,6.67,6.67,0,0,1,.16,1.79,4.89,4.89,0,0,1-.46,1.89,5.2,5.2,0,0,1-1.22-1.56,6.69,6.69,0,0,1-.75-3.4A5.38,5.38,0,0,1,187.63,296.48Z" transform="translate(-16.67 -94.79)"/><path class="cls-7" d="M158.53,254a44.66,44.66,0,0,1,9.11,6.66,61.79,61.79,0,0,1,7.62,8.38c.58.74,1.12,1.53,1.65,2.31s1.1,1.54,1.57,2.36c1,1.63,2,3.23,2.77,4.95a52.16,52.16,0,0,1,4,10.54c-1.83-3.3-3.52-6.59-5.51-9.71a103.55,103.55,0,0,0-6.24-9.13,106.27,106.27,0,0,0-7.08-8.5A110.72,110.72,0,0,0,158.53,254Z" transform="translate(-16.67 -94.79)"/><path class="cls-7" d="M48,480.08a4.22,4.22,0,0,1-1.68.5,5.33,5.33,0,0,1-3-.69,4,4,0,0,1-1.3-1.17,4.25,4.25,0,0,1,1.7-.49,4.7,4.7,0,0,1,1.55.11,5.25,5.25,0,0,1,1.43.56A4.64,4.64,0,0,1,48,480.08Z" transform="translate(-16.67 -94.79)"/><path class="cls-7" d="M98.71,480.73a69.1,69.1,0,0,1-10.85,2.11,99.17,99.17,0,0,1-11,.74c-1.84,0-3.68,0-5.53-.07s-3.68-.17-5.51-.4a71.67,71.67,0,0,1-10.89-1.88c3.69,0,7.33.16,11,.18s7.29.07,10.92,0,7.28-.14,10.93-.26Z" transform="translate(-16.67 -94.79)"/><path class="cls-8" d="M215.11,319.21a4,4,0,0,1-1.68.49,5.22,5.22,0,0,1-3-.68,4.19,4.19,0,0,1-1.3-1.18,4.47,4.47,0,0,1,1.71-.49,5.26,5.26,0,0,1,1.54.11,5.47,5.47,0,0,1,1.44.57A4.35,4.35,0,0,1,215.11,319.21Z" transform="translate(-16.67 -94.79)"/><path class="cls-8" d="M265.79,319.85A67.87,67.87,0,0,1,255,322a101.8,101.8,0,0,1-11,.74c-1.85,0-3.69,0-5.53-.07s-3.69-.17-5.52-.41A70.45,70.45,0,0,1,222,320.35c3.7,0,7.34.17,11,.19s7.28.06,10.92,0,7.28-.14,10.92-.25Z" transform="translate(-16.67 -94.79)"/><path class="cls-8" d="M223.38,453.65a4.11,4.11,0,0,1-1.37,1.08,5.58,5.58,0,0,1-1.5.48,5.16,5.16,0,0,1-1.57,0,4.09,4.09,0,0,1-1.64-.61,4.41,4.41,0,0,1,1.4-1.09,5,5,0,0,1,3-.47A4.3,4.3,0,0,1,223.38,453.65Z" transform="translate(-16.67 -94.79)"/><path class="cls-8" d="M250.6,444.2c-3.36,1.41-6.74,2.74-10.14,4.05s-6.84,2.54-10.27,3.91A71.43,71.43,0,0,0,241,449.87c1.79-.47,3.51-1.11,5.27-1.67s3.46-1.28,5.16-2c2.43-1,4.82-2.11,7.16-3.3l-.44-1.92C255.64,442.09,253.13,443.17,250.6,444.2Z" transform="translate(-16.67 -94.79)"/><path class="cls-7" d="M140.18,441.54a3.93,3.93,0,0,1-1.41,1,5.12,5.12,0,0,1-1.51.44,5.19,5.19,0,0,1-1.57,0,3.92,3.92,0,0,1-1.62-.65,4.34,4.34,0,0,1,1.43-1.05,5.32,5.32,0,0,1,1.48-.43,5.39,5.39,0,0,1,1.55,0A4.53,4.53,0,0,1,140.18,441.54Z" transform="translate(-16.67 -94.79)"/><path class="cls-7" d="M188,424.7a67.3,67.3,0,0,1-9.45,5.72,101.18,101.18,0,0,1-10.1,4.5c-1.72.66-3.47,1.24-5.22,1.83s-3.52,1.11-5.32,1.52a70.21,70.21,0,0,1-10.87,2c3.47-1.27,6.95-2.37,10.38-3.61s6.86-2.44,10.25-3.76,6.79-2.64,10.17-4Z" transform="translate(-16.67 -94.79)"/><path class="cls-7" d="M176.4,392.61a5,5,0,0,1,1.59-1.17,6.81,6.81,0,0,1,1.72-.57,6.42,6.42,0,0,1,1.81-.11,5.07,5.07,0,0,1,1.91.5,5.08,5.08,0,0,1-1.61,1.18,6.72,6.72,0,0,1-3.49.67A5.41,5.41,0,0,1,176.4,392.61Z" transform="translate(-16.67 -94.79)"/><path class="cls-7" d="M119.13,411.81a111.92,111.92,0,0,1,11.72-5.93c4-1.78,8.08-3.37,12.2-4.84,2.07-.73,4.15-1.4,6.23-2.08s4.19-1.28,6.32-1.8a111.94,111.94,0,0,1,12.85-2.71c-4.11,1.53-8.25,2.89-12.36,4.33s-8.22,2.84-12.31,4.31C135.56,406,127.42,409,119.13,411.81Z" transform="translate(-16.67 -94.79)"/><path class="cls-7" d="M64.16,376.63s13.49-9.1,26.23-3.91l2,6.09L72,387.58Z" transform="translate(-16.67 -94.79)"/><path class="cls-8" d="M74.45,376.67A52.62,52.62,0,0,0,90,379.78c2.64.21,5.29.27,7.94.25l4-.07,4-.25c1.32,0,2.64-.21,4-.35s2.64-.24,4-.41l3.93-.55c1.32-.17,2.63-.37,3.93-.63,2.6-.5,5.23-.86,7.81-1.47s5.21-1.06,7.74-1.8,5.13-1.25,7.61-2.15l3.76-1.24c1.25-.41,2.44-1,3.68-1.43a97.8,97.8,0,0,0,14.19-6.9,81.41,81.41,0,0,0,12.68-9.42,53.73,53.73,0,0,0,10.21-12.15,46.75,46.75,0,0,1-9.08,13.3,72.69,72.69,0,0,1-12.45,10.42A98.2,98.2,0,0,1,138,377.67a149.71,149.71,0,0,1-32,4.58,92.12,92.12,0,0,1-16.17-.88,64.83,64.83,0,0,1-7.92-1.68A33.23,33.23,0,0,1,74.45,376.67Z" transform="translate(-16.67 -94.79)"/><path class="cls-5" d="M80.92,332.43s2.21,4.18,8.68,6.43" transform="translate(-16.67 -94.79)"/><path class="cls-5" d="M84.78,332.07s2.21,4.17,8.68,6.43" transform="translate(-16.67 -94.79)"/><path class="cls-5" d="M91.55,332.62S93,335.44,97.41,337" transform="translate(-16.67 -94.79)"/><path class="cls-5" d="M163.67,310.8s3.76-2.86,4.92-9.61" transform="translate(-16.67 -94.79)"/><path class="cls-5" d="M162.68,307.06s3.76-2.87,4.92-9.62" transform="translate(-16.67 -94.79)"/><path class="cls-5" d="M162.11,300.29s2.54-1.93,3.32-6.49" transform="translate(-16.67 -94.79)"/><path class="cls-7" d="M65.37,322.46c-1.84-8.61-1.3-25.58,11.57-41.72,7.47-9.36,12.85-14.21,35.14-22.88.32-.12-30.3,6.28-44.4,28.51C54.35,307.37,65.52,323.16,65.37,322.46Z" transform="translate(-16.67 -94.79)"/><path class="cls-8" d="M145.13,258.36a6.86,6.86,0,0,1,2.43,0,9.48,9.48,0,0,1,2.21.64,9.28,9.28,0,0,1,2,1.14,6.84,6.84,0,0,1,1.66,1.76,8,8,0,0,1-2.39-.21,12.51,12.51,0,0,1-2.12-.69,12.8,12.8,0,0,1-2-1A8.46,8.46,0,0,1,145.13,258.36Z" transform="translate(-16.67 -94.79)"/><path class="cls-8" d="M68.71,284.9a58.78,58.78,0,0,1,13.12-14.5,72.88,72.88,0,0,1,17-10,70.84,70.84,0,0,1,19-5.35,50.45,50.45,0,0,1,19.55,1.25,70.23,70.23,0,0,0-19.28.62c-1.58.25-3.14.6-4.7,1s-3.11.77-4.64,1.23c-3.06,1-6.1,2-9.07,3.24a82.67,82.67,0,0,0-16.85,9.25A70.69,70.69,0,0,0,68.71,284.9Z" transform="translate(-16.67 -94.79)"/><path class="cls-8" d="M96.45,364.61a6.86,6.86,0,0,1-2.43,0,9.21,9.21,0,0,1-2.21-.64,9,9,0,0,1-2-1.14,6.84,6.84,0,0,1-1.66-1.76,8,8,0,0,1,2.39.21,12.51,12.51,0,0,1,2.12.69,12.8,12.8,0,0,1,2,1A8.46,8.46,0,0,1,96.45,364.61Z" transform="translate(-16.67 -94.79)"/><path class="cls-8" d="M172.86,338.07a58.74,58.74,0,0,1-13.11,14.5,72.88,72.88,0,0,1-17,10,70.84,70.84,0,0,1-19,5.35,50.45,50.45,0,0,1-19.55-1.25,70.14,70.14,0,0,0,19.27-.62c1.59-.25,3.15-.6,4.71-1s3.1-.77,4.64-1.23c3.06-1,6.1-2,9.07-3.24a82.67,82.67,0,0,0,16.85-9.25A70.64,70.64,0,0,0,172.86,338.07Z" transform="translate(-16.67 -94.79)"/><path class="cls-5" d="M114.13,287.07a28,28,0,0,0,2.72,2.73c.47.44,1,.83,1.46,1.25l1.52,1.14a29.62,29.62,0,0,0,6.68,3.57,25.6,25.6,0,0,0,7.35,1.68,35.09,35.09,0,0,0,7.65-.27c-.62.17-1.25.33-1.88.48a13.79,13.79,0,0,1-1.91.4,24.17,24.17,0,0,1-3.9.22,22.44,22.44,0,0,1-3.92-.38c-.65-.12-1.27-.33-1.91-.49a13.66,13.66,0,0,1-1.87-.62,24.45,24.45,0,0,1-6.79-3.92A23.68,23.68,0,0,1,114.13,287.07Z" transform="translate(-16.67 -94.79)"/><path class="cls-5" d="M53.53,312.21c.16,1.56.34,3.12.58,4.67s.46,3.1.75,4.64c.57,3.07,1.21,6.13,2,9.15s1.68,6,2.7,9c.26.74.5,1.48.77,2.22l.87,2.18c.52,1.48,1.23,2.88,1.79,4.35a58.42,58.42,0,0,1-4.22-8.45c-.65-1.45-1.1-3-1.65-4.44s-.94-3-1.31-4.55a71.65,71.65,0,0,1-1.79-9.3A57.22,57.22,0,0,1,53.53,312.21Z" transform="translate(-16.67 -94.79)"/><path class="cls-7" d="M117.65,528.31c-1.06-4.4,46.23-20,45.68-21.62S112.93,521,110.6,515.3c-.87-2.09,5.78-4.81,5.7-10.35-.11-7.6-14.2-8.3-16-18-1.93-10.15,7.61-15.95,6.35-27.56-1.46-13.44-18.71-26.95-26.4-23.73A9.44,9.44,0,0,0,76,440L89.2,482.71l29.24,71.49c26.49.47,56.38-25.31,54.3-30.73C170.25,517,118.6,532.22,117.65,528.31Z" transform="translate(-16.67 -94.79)"/><path class="cls-7" d="M79,400.35c1.3-1,.6-5.09-4.73-15.64a85.49,85.49,0,0,0-10.07-8.08c-49.07,14.43-43.25,93.75-43.25,93.75a20.57,20.57,0,0,0,5.87,3.23c-13.24,28.78,8.9,97,8.9,97,10.51-.59,19.28-1.29,26.64-2,1.71-5.4,2-10.69-.43-14.78-6.27-10.73-27.63-8.08-27.85-12.5-.21-4.1,18.21-6.94,18-10.93-.26-4.43-23.19-5.42-23.28-8.88-.11-4.07,31.61-5.94,32.14-12.7.42-5.3-19-5.8-28.46-21.36-2.56-4.2-3.64-10.49-5.78-23.05-2.71-15.82-4-23.8-.3-27.1,6.83-6.11,24.64,4.34,25.55,1.91,1.46-3.91-21.38-15-19.62-18.57s20.1,1.57,20.45.17c.28-1.15-12.41-2.43-14.92-9.33S43.27,392.11,53,390.09C65.3,387.52,76,402.6,79,400.35Z" transform="translate(-16.67 -94.79)"/><path class="cls-5" d="M71,381.24s-4.13-2.28-10.78-.62" transform="translate(-16.67 -94.79)"/><path class="cls-5" d="M68,383.66s-4.13-2.28-10.78-.62" transform="translate(-16.67 -94.79)"/><path class="cls-5" d="M62,386.91s-2.79-1.54-7.28-.42" transform="translate(-16.67 -94.79)"/><path class="cls-5" d="M263,245s-4.13-2.28-10.78-.62" transform="translate(-16.67 -94.79)"/><path class="cls-5" d="M260,247.4s-4.13-2.28-10.78-.62" transform="translate(-16.67 -94.79)"/><path class="cls-5" d="M254,250.65s-2.79-1.54-7.28-.42" transform="translate(-16.67 -94.79)"/><path class="cls-7" d="M40.24,440.5s-4.52-1.39-10.68,1.59" transform="translate(-16.67 -94.79)"/><path class="cls-7" d="M37.76,443.49s-4.51-1.39-10.68,1.59" transform="translate(-16.67 -94.79)"/><path class="cls-7" d="M32.59,447.88s-3-.93-7.21,1.09" transform="translate(-16.67 -94.79)"/><path class="cls-4" d="M206.9,139.2l-16.61-33.38s-3.19-6.6-8.4-3.92-2.78,9.23-2.78,9.23l16.73,42.18s-3.38,5.36-2.24,8.41S206.81,181.42,212,182s23,6.92,40.43-3l-2.58-6.94s8.32-14.13,7.37-20.09-7.83-21.08-7.83-21.08l-1.59-27.18s.76-8.17-5.82-8.88-6.19,8-6.19,8l.21,22.64Z" transform="translate(-16.67 -94.79)"/><path class="cls-8" d="M208.75,167.67c1.3.51,5.9-4.82,7.71-5.55,2.21-.88,2.58-2.91,4.68-5.23,2.57-2.84,3.89-1.89,7.25-4.48,5.37-4.14,7-10.41,7.38-12a23.47,23.47,0,0,0,.7-7.34,24.35,24.35,0,0,1,5.76-1.87c2.81-.45,2.61-.8,2.61-.8A27.1,27.1,0,0,0,233,131l-20.68,21.19Z" transform="translate(-16.67 -94.79)"/><path class="cls-4" d="M221.26,126.61s-12.63-4.48-15,2.88.62,23.75,4.29,24.28,9.53-.7,8.37-7.21a65.28,65.28,0,0,1-1.07-11.41,4.44,4.44,0,0,1,2.58,1.08" transform="translate(-16.67 -94.79)"/><path class="cls-8" d="M221.26,126.62a24.9,24.9,0,0,0-8.29-1.08,9.2,9.2,0,0,0-3.92,1,5.17,5.17,0,0,0-2.43,3,25.88,25.88,0,0,0-.75,8.21A45,45,0,0,0,207,146a31.3,31.3,0,0,0,1.18,4,12.69,12.69,0,0,0,.87,1.82,3.67,3.67,0,0,0,1.2,1.36,1.16,1.16,0,0,0,.33.11l.5.06c.34,0,.67,0,1,.06a10.27,10.27,0,0,0,2-.19,5.91,5.91,0,0,0,3.39-1.81,5,5,0,0,0,1.14-3.63,19.07,19.07,0,0,0-.25-2c-.1-.7-.19-1.4-.27-2.11a58.26,58.26,0,0,1-.4-8.46V135l.11,0a4.21,4.21,0,0,1,2.57,1.18,4.18,4.18,0,0,0-2.59-1l.11-.1a71.2,71.2,0,0,0,.81,8.37c.1.7.22,1.39.35,2.08a19.2,19.2,0,0,1,.33,2.12,6,6,0,0,1-1.21,4.26,6.81,6.81,0,0,1-3.89,2.16,10.88,10.88,0,0,1-2.2.23,10.2,10.2,0,0,1-1.1,0l-.55-.06a2.14,2.14,0,0,1-.66-.22,4.54,4.54,0,0,1-1.62-1.71,13.25,13.25,0,0,1-1-2,26.71,26.71,0,0,1-1.25-4.12,46.5,46.5,0,0,1-1.06-8.46,23.9,23.9,0,0,1,1-8.51,5.88,5.88,0,0,1,2.88-3.31,9.59,9.59,0,0,1,4.21-1A23.92,23.92,0,0,1,221.26,126.62Z" transform="translate(-16.67 -94.79)"/><path class="cls-4" d="M244.78,130.45s-2.68-1.27-11.79.53a71.74,71.74,0,0,0,1.07,12.23c1.16,6.51-4.7,7.74-8.37,7.21s-6.7-16.93-4.29-24.28,14.56-3,14.56-3" transform="translate(-16.67 -94.79)"/><path class="cls-8" d="M244.78,130.45a10,10,0,0,0-2.93-.33,26.56,26.56,0,0,0-3,.17c-2,.2-3.91.59-5.84,1l.23-.28a72,72,0,0,0,.65,8.41c.18,1.41.44,2.75.65,4.19a6.74,6.74,0,0,1-.73,4.42,6.18,6.18,0,0,1-3.65,2.62,11,11,0,0,1-4.42.34,3.22,3.22,0,0,1-.65-.16,2.89,2.89,0,0,1-.57-.35,3.78,3.78,0,0,1-.83-.87,9.66,9.66,0,0,1-1.09-2,27.07,27.07,0,0,1-1.33-4.12,45.93,45.93,0,0,1-1.19-8.49,26.86,26.86,0,0,1,.79-8.55,6.14,6.14,0,0,1,2.53-3.58,8.26,8.26,0,0,1,4.16-1.23,21.77,21.77,0,0,1,8.36,1.46,22.74,22.74,0,0,0-8.33-1,8.43,8.43,0,0,0-3.85,1.28,5.49,5.49,0,0,0-2.15,3.27,28.12,28.12,0,0,0-.56,8.3,45.47,45.47,0,0,0,1.24,8.29,25.28,25.28,0,0,0,1.31,3.94,10.54,10.54,0,0,0,1,1.74c.39.51.8.94,1.32,1a9.76,9.76,0,0,0,4-.26A5.24,5.24,0,0,0,233,147.5c1.42-2.25.22-5.18.06-8a75.7,75.7,0,0,1-.39-8.52v-.24l.24-.05a47.31,47.31,0,0,1,5.93-.73,27.12,27.12,0,0,1,3,0A9.71,9.71,0,0,1,244.78,130.45Z" transform="translate(-16.67 -94.79)"/><path class="cls-4" d="M195.84,153.31s17.85-24.2,24.86-16.76.05,11.61-6.3,14.91c0,0-2.13,10.39-5.65,16.21" transform="translate(-16.67 -94.79)"/><path class="cls-8" d="M195.84,153.31a87,87,0,0,1,8.36-10.23,52.11,52.11,0,0,1,4.86-4.53,21,21,0,0,1,5.78-3.44,7,7,0,0,1,3.49-.4,5.12,5.12,0,0,1,3.06,1.82,12,12,0,0,1,2,2.81,6.65,6.65,0,0,1,.76,3.45,6.46,6.46,0,0,1-1.33,3.27,12.64,12.64,0,0,1-2.46,2.39,37.47,37.47,0,0,1-5.75,3.38l.22-.29a85.13,85.13,0,0,1-2.41,8.32,39.14,39.14,0,0,1-3.65,7.81,43.42,43.42,0,0,0,3.15-8,85.63,85.63,0,0,0,2.1-8.31l0-.19.18-.1a45.8,45.8,0,0,0,5.55-3.41c1.66-1.3,3.19-3,3.33-5s-1.09-3.89-2.49-5.47a4.12,4.12,0,0,0-2.45-1.52,6,6,0,0,0-3,.33,20.24,20.24,0,0,0-5.54,3.22,51.34,51.34,0,0,0-4.93,4.29A120.43,120.43,0,0,0,195.84,153.31Z" transform="translate(-16.67 -94.79)"/><path class="cls-4" d="M205.53,234.77l64.67,1.16L252.41,179,212,182S218,201.71,205.53,234.77Z" transform="translate(-16.67 -94.79)"/><path class="cls-8" d="M244.68,386.9c-2.39-.32-4.81-.32-7.21-.64a53.75,53.75,0,0,1-7.09-1.47,35.56,35.56,0,0,1-6.73-2.73l-.12.18a32.58,32.58,0,0,0,6.5,3.58,54.88,54.88,0,0,0,7.14,2.15,35.28,35.28,0,0,0,7.37,1.1c.59,0,1.18,0,1.76,0V389l-.56-1c.27-.27.53-.55.8-.83Z" transform="translate(-16.67 -94.79)"/><path class="cls-8" d="M194.51,121.26a19.76,19.76,0,0,0,2.57-1.8l-.35-.69c-.72.83-1.47,1.64-2.28,2.41Z" transform="translate(-16.67 -94.79)"/><path class="cls-8" d="M192.55,119.49l0,.1a37,37,0,0,0,3.91-1.27l-.39-.78C195,118.24,193.74,118.79,192.55,119.49Z" transform="translate(-16.67 -94.79)"/><path class="cls-3" d="M180,112.16c-1-3-.05-6.83,2.19-7.51,2-.58,4,1.53,4.23,1.82,2.51,2.7,3.49,8.06,1.71,9.85S181.37,116.2,180,112.16Z" transform="translate(-16.67 -94.79)"/><path class="cls-3" d="M181.83,116.79a3.39,3.39,0,0,0,2.85,1.25" transform="translate(-16.67 -94.79)"/><path class="cls-3" d="M185.86,104.14a6.21,6.21,0,0,1,1.51,1,6.67,6.67,0,0,1,1.2,1.39,5.33,5.33,0,0,1,.72,1.72,3.77,3.77,0,0,1-.06,1.83,7.29,7.29,0,0,0-.34-1.72,8.86,8.86,0,0,0-.77-1.54A17.85,17.85,0,0,0,185.86,104.14Z" transform="translate(-16.67 -94.79)"/><path class="cls-3" d="M237.32,102.12c.12-2.74,2.14-5.58,4.18-5.42,1.78.15,2.74,2.51,2.86,2.83,1.18,3,.26,7.68-1.75,8.57S237.15,105.84,237.32,102.12Z" transform="translate(-16.67 -94.79)"/><path class="cls-3" d="M237.34,106.47a3,3,0,0,0,1.91,1.93" transform="translate(-16.67 -94.79)"/><path class="cls-3" d="M244.66,97.47a5,5,0,0,1,.92,1.3,5.89,5.89,0,0,1,.55,1.52,5,5,0,0,1,0,1.64,3.29,3.29,0,0,1-.67,1.47,6.27,6.27,0,0,0,.25-1.51,8.27,8.27,0,0,0-.15-1.49A16.56,16.56,0,0,0,244.66,97.47Z" transform="translate(-16.67 -94.79)"/><path class="cls-3" d="M195.17,161.48c.86,2.62,3.45,5.45,6.32,5.36,5.17-.14,10.78-9.76,8.54-16.67-.36-1.11-1.26-3.89-3.41-4.33C202.15,144.94,192.8,154.29,195.17,161.48Z" transform="translate(-16.67 -94.79)"/><path class="cls-3" d="M210.34,134.9a2.4,2.4,0,0,1-2.75-2,5,5,0,0,1,1.18-4.27c.79-.72,2-.84,4.32-1.08s4.2-.42,4.86.55-.17,2.53-.35,2.87C216.23,133.63,212.73,134.57,210.34,134.9Z" transform="translate(-16.67 -94.79)"/><path class="cls-3" d="M197.74,127.42c.35,1.06-.67,2.74-2.34,3.67-2.22,1.23-4.25,1.85-5.52,1.51-1-.27-1.25-1.25-1.76-3.21s-.9-3.49.27-4.66a6.61,6.61,0,0,1,3.68-1.42C195.6,122.93,197.1,125.49,197.74,127.42Z" transform="translate(-16.67 -94.79)"/><path class="cls-3" d="M202,140.83c.41,1-.34,2.51-1.72,3.23-1.83.95-3.55,1.35-4.69.92-.89-.35-1.2-1.28-1.83-3.16s-1.1-3.35-.18-4.34a4.69,4.69,0,0,1,3.1-1C199.74,136.44,201.28,139,202,140.83Z" transform="translate(-16.67 -94.79)"/><path class="cls-3" d="M246.89,122.26c-.07,1.12-1.64,2.3-3.54,2.54-2.51.33-4.63.15-5.68-.64-.82-.62-.7-1.62-.44-3.63s.45-3.58,2-4.23a6.62,6.62,0,0,1,4,0C246.56,117.3,247,120.23,246.89,122.26Z" transform="translate(-16.67 -94.79)"/><path class="cls-3" d="M225.42,131.16a2.37,2.37,0,0,1-2.68-2,4.92,4.92,0,0,1,1.17-4.26c.8-.73,2-.85,4.33-1.09s4.2-.42,4.85.55-.17,2.53-.34,2.88C231.36,129.9,227.81,130.84,225.42,131.16Z" transform="translate(-16.67 -94.79)"/><path class="cls-3" d="M226,175.41c-4.62-4.18,3-27,16.69-29.77.6-.13,7.25-1.4,9.69,2,3.78,5.16-3.69,19.65-15.2,25.61C234.74,174.49,228.56,177.69,226,175.41Z" transform="translate(-16.67 -94.79)"/><path class="cls-7" d="M208.27,245.46s17.83-8.5,36.68-10l-33.88-.61Z" transform="translate(-16.67 -94.79)"/><path class="cls-8" d="M204.53,134.23l.46,1,.42,7.18L203.77,144S203.12,137.74,204.53,134.23Z" transform="translate(-16.67 -94.79)"/><path class="cls-3" d="M209,173.38a.85.85,0,0,1,.09-1.52,18.51,18.51,0,0,0,3.27-1.71c3.19-2.11,3.82-4,5.14-3.8,2.36.27,4.79,6.61,2.87,8.85C218.82,177,214.31,176.36,209,173.38Z" transform="translate(-16.67 -94.79)"/><path class="cls-3" d="M205.53,234.77l6.4.11c.83-18.6,7.92-37,8.23-51.55l-7.66,1C213.64,190.4,215.5,208.29,205.53,234.77Z" transform="translate(-16.67 -94.79)"/><path class="cls-3" d="M40.06,350.26l-.64-2s-42.66,9.08-11.15,68.85l.87-1.49C4.16,365.75,32.51,352.74,40.06,350.26Z" transform="translate(-16.67 -94.79)"/><path class="cls-8" d="M36.47,368.53a51.29,51.29,0,0,0-4.39-6,12.27,12.27,0,0,0,.79,3.82,16,16,0,0,0,1.73,3.46,10.56,10.56,0,0,0,.69,1c.57-.54,1.13-1,1.64-1.49C36.78,369,36.63,368.76,36.47,368.53Z" transform="translate(-16.67 -94.79)"/><path class="cls-8" d="M24.9,381.62a12.82,12.82,0,0,0,3.68,1.29,16.9,16.9,0,0,0,3.26.29c-.08-.75-.13-1.48-.16-2.2A46.31,46.31,0,0,0,24.9,381.62Z" transform="translate(-16.67 -94.79)"/><path class="cls-8" d="M33.49,391.32l-.19.11a53.16,53.16,0,0,0-6.18,4.2A12.63,12.63,0,0,0,31,395a16.64,16.64,0,0,0,3.19-1.45C33.92,392.81,33.7,392.07,33.49,391.32Z" transform="translate(-16.67 -94.79)"/><path class="cls-8" d="M247.18,111.91c-1.31.23-2.64.41-4,.51v.1a21.36,21.36,0,0,0,4.08.26h.24c-1.06.62-2.16,1.2-3.29,1.72l0,.1a20.93,20.93,0,0,0,3.91-1.18l.18-.07-.09-1.67C247.89,111.75,247.54,111.85,247.18,111.91Z" transform="translate(-16.67 -94.79)"/><path class="cls-8" d="M247.19,130.68v.11a19.54,19.54,0,0,0,2.16-.06l0-.56Q248.27,130.46,247.19,130.68Z" transform="translate(-16.67 -94.79)"/><path class="cls-8" d="M202,129.34c-.64.71-1.3,1.42-2,2.09l.06.08A19.12,19.12,0,0,0,202.3,130l-.67-1.35a12.14,12.14,0,0,1-3.32,1.71l0,.11a11.84,11.84,0,0,0,2.1-.42A10.62,10.62,0,0,0,202,129.34Z" transform="translate(-16.67 -94.79)"/><path class="cls-8" d="M249.83,172.08c-4.94,3.59-12.94,8.46-20.86,9.29,0,0,13.28,1.23,23.43-2.4Z" transform="translate(-16.67 -94.79)"/><path class="cls-8" d="M214.65,182.33a27.48,27.48,0,0,0-2.84-.34l.17,0s.23.76.51,2.22c.71,0,1.43-.13,2.14-.18,1.11-.07,2.22-.19,3.32-.35s2.19-.35,3.28-.62l0-.22c-1.1-.07-2.19-.13-3.29-.25Z" transform="translate(-16.67 -94.79)"/><path class="cls-8" d="M259.67,450.36c-2.27.78-4.41,1.89-6.65,2.78s-4.5,1.74-6.78,2.53-4.57,1.56-6.87,2.33l0,.21c2.39-.43,4.76-.94,7.13-1.5s4.71-1.23,7-1.93a45.94,45.94,0,0,0,6.91-2.4l.21-.11-.48-2.1Z" transform="translate(-16.67 -94.79)"/><path class="cls-8" d="M261,223.28a4.52,4.52,0,0,1,.55,1.1,5,5,0,0,1,.26,1,4.35,4.35,0,0,1,0,1,1.81,1.81,0,0,1-.3.85,4.81,4.81,0,0,1-.55-1.12,4.38,4.38,0,0,1-.25-1,3.71,3.71,0,0,1,0-.94A2,2,0,0,1,261,223.28Z" transform="translate(-16.67 -94.79)"/><path class="cls-8" d="M251.43,190.07a76.75,76.75,0,0,1,3.09,7.11c.92,2.4,1.74,4.81,2.48,7.23.37,1.21.71,2.42,1,3.62s.64,2.42.89,3.62a68.31,68.31,0,0,1,1.24,7.13c-.72-2.42-1.35-4.81-2.05-7.2s-1.38-4.77-2.12-7.16-1.48-4.77-2.24-7.16Z" transform="translate(-16.67 -94.79)"/></g></g></g></svg>