<svg xmlns="http://www.w3.org/2000/svg" xmlns:xlink="http://www.w3.org/1999/xlink" viewBox="0 0 2504.63 1590.48"><defs><style>.cls-1{fill:none;}.cls-2{isolation:isolate;}.cls-3{clip-path:url(#clip-path);}.cls-4{fill:url(#radial-gradient);}.cls-32,.cls-5,.cls-6,.cls-7{fill:#fff;}.cls-14,.cls-15,.cls-16,.cls-28,.cls-29,.cls-39,.cls-42,.cls-6,.cls-71,.cls-72,.cls-73,.cls-86,.cls-87,.cls-96,.cls-99{opacity:0.32;}.cls-7{opacity:0.4;}.cls-10,.cls-12,.cls-126,.cls-128,.cls-129,.cls-130,.cls-131,.cls-132,.cls-133,.cls-17,.cls-18,.cls-19,.cls-20,.cls-21,.cls-23,.cls-24,.cls-25,.cls-26,.cls-27,.cls-30,.cls-38,.cls-40,.cls-65,.cls-66,.cls-67,.cls-69,.cls-74,.cls-75,.cls-76,.cls-77,.cls-78,.cls-8,.cls-81,.cls-82,.cls-83,.cls-84,.cls-85,.cls-88,.cls-9,.cls-95,.cls-97{opacity:0.5;}.cls-10,.cls-100,.cls-101,.cls-102,.cls-103,.cls-104,.cls-105,.cls-106,.cls-107,.cls-108,.cls-109,.cls-11,.cls-110,.cls-111,.cls-112,.cls-113,.cls-114,.cls-115,.cls-116,.cls-117,.cls-118,.cls-119,.cls-12,.cls-120,.cls-121,.cls-122,.cls-123,.cls-124,.cls-125,.cls-127,.cls-13,.cls-14,.cls-15,.cls-16,.cls-17,.cls-18,.cls-19,.cls-20,.cls-21,.cls-22,.cls-23,.cls-24,.cls-25,.cls-26,.cls-27,.cls-28,.cls-29,.cls-30,.cls-31,.cls-33,.cls-34,.cls-35,.cls-36,.cls-37,.cls-38,.cls-39,.cls-40,.cls-41,.cls-42,.cls-43,.cls-44,.cls-45,.cls-46,.cls-47,.cls-48,.cls-49,.cls-50,.cls-51,.cls-52,.cls-53,.cls-54,.cls-55,.cls-56,.cls-57,.cls-58,.cls-59,.cls-60,.cls-61,.cls-62,.cls-63,.cls-64,.cls-65,.cls-66,.cls-67,.cls-68,.cls-69,.cls-70,.cls-71,.cls-72,.cls-73,.cls-74,.cls-75,.cls-76,.cls-77,.cls-78,.cls-79,.cls-8,.cls-80,.cls-81,.cls-82,.cls-83,.cls-84,.cls-85,.cls-86,.cls-87,.cls-88,.cls-89,.cls-9,.cls-90,.cls-91,.cls-92,.cls-93,.cls-94,.cls-95,.cls-96,.cls-97,.cls-98,.cls-99{mix-blend-mode:screen;}.cls-8{fill:url(#radial-gradient-2);}.cls-9{fill:url(#radial-gradient-3);}.cls-10{fill:url(#radial-gradient-4);}.cls-11{fill:url(#radial-gradient-5);}.cls-12{fill:url(#radial-gradient-6);}.cls-13{fill:url(#radial-gradient-7);}.cls-14{fill:url(#radial-gradient-8);}.cls-15{fill:url(#radial-gradient-9);}.cls-16{fill:url(#radial-gradient-10);}.cls-17{fill:url(#radial-gradient-11);}.cls-18{fill:url(#radial-gradient-12);}.cls-19{fill:url(#radial-gradient-13);}.cls-20{fill:url(#radial-gradient-14);}.cls-21{fill:url(#radial-gradient-15);}.cls-22{fill:url(#radial-gradient-16);}.cls-23{fill:url(#radial-gradient-17);}.cls-24{fill:url(#radial-gradient-18);}.cls-25{fill:url(#radial-gradient-19);}.cls-26{fill:url(#radial-gradient-20);}.cls-27{fill:url(#radial-gradient-21);}.cls-28{fill:url(#radial-gradient-22);}.cls-29{fill:url(#radial-gradient-23);}.cls-30{fill:url(#radial-gradient-24);}.cls-31{fill:url(#radial-gradient-25);}.cls-100,.cls-101,.cls-102,.cls-103,.cls-104,.cls-105,.cls-106,.cls-107,.cls-108,.cls-109,.cls-110,.cls-111,.cls-112,.cls-113,.cls-114,.cls-115,.cls-116,.cls-117,.cls-118,.cls-119,.cls-120,.cls-121,.cls-134,.cls-135,.cls-136,.cls-137,.cls-138,.cls-139,.cls-140,.cls-141,.cls-142,.cls-143,.cls-144,.cls-145,.cls-146,.cls-147,.cls-148,.cls-149,.cls-150,.cls-32,.cls-33,.cls-34,.cls-35,.cls-36,.cls-37,.cls-43,.cls-44,.cls-45,.cls-46,.cls-47,.cls-48,.cls-49,.cls-50,.cls-51,.cls-52,.cls-53,.cls-54,.cls-55,.cls-56,.cls-57,.cls-58,.cls-59,.cls-60,.cls-61,.cls-62,.cls-63,.cls-64,.cls-90,.cls-91,.cls-92,.cls-93,.cls-94{opacity:0.25;}.cls-33{fill:url(#radial-gradient-26);}.cls-34{fill:url(#radial-gradient-27);}.cls-35{fill:url(#radial-gradient-28);}.cls-36{fill:url(#radial-gradient-29);}.cls-37{fill:url(#radial-gradient-30);}.cls-38{fill:url(#radial-gradient-31);}.cls-39{fill:url(#radial-gradient-32);}.cls-40{fill:url(#radial-gradient-33);}.cls-41{fill:url(#radial-gradient-34);}.cls-42{fill:url(#radial-gradient-35);}.cls-43{fill:url(#radial-gradient-36);}.cls-44{fill:url(#radial-gradient-37);}.cls-45{fill:url(#radial-gradient-38);}.cls-46{fill:url(#radial-gradient-39);}.cls-47{fill:url(#radial-gradient-40);}.cls-48{fill:url(#radial-gradient-41);}.cls-49{fill:url(#radial-gradient-42);}.cls-50{fill:url(#radial-gradient-43);}.cls-51{fill:url(#radial-gradient-44);}.cls-52{fill:url(#radial-gradient-45);}.cls-53{fill:url(#radial-gradient-46);}.cls-54{fill:url(#radial-gradient-47);}.cls-55{fill:url(#radial-gradient-48);}.cls-56{fill:url(#radial-gradient-49);}.cls-57{fill:url(#radial-gradient-50);}.cls-58{fill:url(#radial-gradient-51);}.cls-59{fill:url(#radial-gradient-52);}.cls-60{fill:url(#radial-gradient-53);}.cls-61{fill:url(#radial-gradient-54);}.cls-62{fill:url(#radial-gradient-55);}.cls-63{fill:url(#radial-gradient-56);}.cls-64{fill:url(#radial-gradient-57);}.cls-65{fill:url(#radial-gradient-58);}.cls-66{fill:url(#radial-gradient-59);}.cls-67{fill:url(#radial-gradient-60);}.cls-68{fill:url(#radial-gradient-61);}.cls-69{fill:url(#radial-gradient-62);}.cls-70{fill:url(#radial-gradient-63);}.cls-71{fill:url(#radial-gradient-64);}.cls-72{fill:url(#radial-gradient-65);}.cls-73{fill:url(#radial-gradient-66);}.cls-74{fill:url(#radial-gradient-67);}.cls-75{fill:url(#radial-gradient-68);}.cls-76{fill:url(#radial-gradient-69);}.cls-77{fill:url(#radial-gradient-70);}.cls-78{fill:url(#radial-gradient-71);}.cls-79{fill:url(#radial-gradient-72);}.cls-80{fill:url(#radial-gradient-73);}.cls-81{fill:url(#radial-gradient-74);}.cls-82{fill:url(#radial-gradient-75);}.cls-83{fill:url(#radial-gradient-76);}.cls-84{fill:url(#radial-gradient-77);}.cls-85{fill:url(#radial-gradient-78);}.cls-86{fill:url(#radial-gradient-79);}.cls-87{fill:url(#radial-gradient-80);}.cls-88{fill:url(#radial-gradient-81);}.cls-89{fill:url(#radial-gradient-82);}.cls-90{fill:url(#radial-gradient-83);}.cls-91{fill:url(#radial-gradient-84);}.cls-92{fill:url(#radial-gradient-85);}.cls-93{fill:url(#radial-gradient-86);}.cls-94{fill:url(#radial-gradient-87);}.cls-95{fill:url(#radial-gradient-88);}.cls-96{fill:url(#radial-gradient-89);}.cls-97{fill:url(#radial-gradient-90);}.cls-98{fill:url(#radial-gradient-91);}.cls-99{fill:url(#radial-gradient-92);}.cls-100{fill:url(#radial-gradient-93);}.cls-101{fill:url(#radial-gradient-94);}.cls-102{fill:url(#radial-gradient-95);}.cls-103{fill:url(#radial-gradient-96);}.cls-104{fill:url(#radial-gradient-97);}.cls-105{fill:url(#radial-gradient-98);}.cls-106{fill:url(#radial-gradient-99);}.cls-107{fill:url(#radial-gradient-100);}.cls-108{fill:url(#radial-gradient-101);}.cls-109{fill:url(#radial-gradient-102);}.cls-110{fill:url(#radial-gradient-103);}.cls-111{fill:url(#radial-gradient-104);}.cls-112{fill:url(#radial-gradient-105);}.cls-113{fill:url(#radial-gradient-106);}.cls-114{fill:url(#radial-gradient-107);}.cls-115{fill:url(#radial-gradient-108);}.cls-116{fill:url(#radial-gradient-109);}.cls-117{fill:url(#radial-gradient-110);}.cls-118{fill:url(#radial-gradient-111);}.cls-119{fill:url(#radial-gradient-112);}.cls-120{fill:url(#radial-gradient-113);}.cls-121{fill:url(#radial-gradient-114);}.cls-122{fill:url(#radial-gradient-115);}.cls-123{fill:url(#radial-gradient-116);}.cls-124{fill:url(#radial-gradient-117);}.cls-125{fill:url(#radial-gradient-118);}.cls-126{fill:url(#radial-gradient-119);}.cls-127{fill:url(#radial-gradient-120);}.cls-128{fill:url(#radial-gradient-121);}.cls-129{fill:url(#radial-gradient-122);}.cls-130{fill:url(#radial-gradient-123);}.cls-131{fill:url(#radial-gradient-124);}.cls-132{fill:url(#radial-gradient-125);}.cls-133{fill:url(#radial-gradient-126);}.cls-134{fill:url(#radial-gradient-127);}.cls-135{fill:url(#radial-gradient-128);}.cls-136{fill:url(#radial-gradient-129);}.cls-137{fill:url(#radial-gradient-130);}.cls-138{fill:url(#radial-gradient-131);}.cls-139{fill:url(#radial-gradient-132);}.cls-140{fill:url(#radial-gradient-133);}.cls-141{fill:url(#radial-gradient-134);}.cls-142{fill:url(#radial-gradient-135);}.cls-143{fill:url(#radial-gradient-136);}.cls-144{fill:url(#radial-gradient-137);}.cls-145{fill:url(#radial-gradient-138);}.cls-146{fill:url(#radial-gradient-139);}.cls-147{fill:url(#radial-gradient-140);}.cls-148{fill:url(#radial-gradient-141);}.cls-149{fill:url(#radial-gradient-142);}.cls-150{fill:url(#radial-gradient-143);}</style><clipPath id="clip-path" transform="translate(921.17 390)"><rect class="cls-1" x="-585" y="-390" width="1920" height="1280"/></clipPath><radialGradient id="radial-gradient" cx="595.27" cy="250" r="794.36" gradientTransform="translate(403.27 390) scale(1.5 1)" gradientUnits="userSpaceOnUse"><stop offset="0" stop-color="#4a289c"/><stop offset="0.96" stop-color="#00092b"/></radialGradient><radialGradient id="radial-gradient-2" cx="1287.43" cy="145.63" r="467.63" gradientTransform="matrix(-1, 0, 0, 1, 877.15, 0)" gradientUnits="userSpaceOnUse"><stop offset="0.06" stop-color="#0a1656"/><stop offset="0.89" stop-color="#4478af"/></radialGradient><radialGradient id="radial-gradient-3" cx="1254.46" cy="140.6" r="467.63" xlink:href="#radial-gradient-2"/><radialGradient id="radial-gradient-4" cx="1287.43" cy="145.63" r="467.63" xlink:href="#radial-gradient-2"/><radialGradient id="radial-gradient-5" cx="1106.08" cy="-90.35" r="36.7" xlink:href="#radial-gradient-2"/><radialGradient id="radial-gradient-6" cx="1411.15" cy="105.19" r="339.31" xlink:href="#radial-gradient-2"/><radialGradient id="radial-gradient-7" cx="1283.92" cy="-66.57" r="26.63" xlink:href="#radial-gradient-2"/><radialGradient id="radial-gradient-8" cx="1161.45" cy="679.01" r="339.31" gradientTransform="matrix(0.71, -0.71, -0.71, -0.71, -837.94, 935.26)" xlink:href="#radial-gradient-2"/><radialGradient id="radial-gradient-9" cx="1161.45" cy="679.01" r="339.32" gradientTransform="matrix(0.71, -0.71, -0.71, -0.71, -837.94, 935.26)" xlink:href="#radial-gradient-2"/><radialGradient id="radial-gradient-10" cx="1282.36" cy="410.62" r="27.31" gradientTransform="matrix(0.71, -0.71, -0.71, -0.71, -837.94, 935.26)" xlink:href="#radial-gradient-2"/><radialGradient id="radial-gradient-11" cx="990.48" cy="152.98" r="467.63" gradientTransform="matrix(0.71, -0.71, -0.71, -0.71, -1171.86, 1104.43)" xlink:href="#radial-gradient-2"/><radialGradient id="radial-gradient-12" cx="1000.36" cy="140.37" r="467.63" gradientTransform="matrix(0.71, -0.71, -0.71, -0.71, -1171.86, 1104.43)" xlink:href="#radial-gradient-2"/><radialGradient id="radial-gradient-13" cx="990.48" cy="152.98" r="467.64" gradientTransform="matrix(0.71, -0.71, -0.71, -0.71, -1171.86, 1104.43)" xlink:href="#radial-gradient-2"/><radialGradient id="radial-gradient-14" cx="990.48" cy="152.98" r="467.63" gradientTransform="matrix(0.71, -0.71, -0.71, -0.71, -1171.86, 1104.43)" xlink:href="#radial-gradient-2"/><radialGradient id="radial-gradient-15" cx="1593.52" cy="278.56" r="467.65" gradientTransform="matrix(0.71, -0.71, -0.71, -0.71, -1171.86, 1104.43)" xlink:href="#radial-gradient-2"/><radialGradient id="radial-gradient-16" cx="1135.68" cy="-213.33" r="25.84" gradientTransform="matrix(0.71, -0.71, -0.71, -0.71, -1171.86, 1104.43)" xlink:href="#radial-gradient-2"/><radialGradient id="radial-gradient-17" cx="1295.73" cy="-361.09" r="5.98" gradientTransform="matrix(-1, 0, 0, 1, 877.15, 0)" gradientUnits="userSpaceOnUse"><stop offset="0.06" stop-color="#e47e99"/><stop offset="0.53" stop-color="#e43d99"/><stop offset="0.99" stop-color="#b30058"/></radialGradient><radialGradient id="radial-gradient-18" cx="1330" cy="-21.73" r="5.79" xlink:href="#radial-gradient-17"/><radialGradient id="radial-gradient-19" cx="1180.76" cy="-169.31" r="5.79" xlink:href="#radial-gradient-17"/><radialGradient id="radial-gradient-20" cx="1279.38" cy="-229.34" r="5.79" xlink:href="#radial-gradient-17"/><radialGradient id="radial-gradient-21" cx="1051.96" cy="-228.96" r="5.79" xlink:href="#radial-gradient-17"/><radialGradient id="radial-gradient-22" cx="1121.64" cy="-312.69" r="36.41" xlink:href="#radial-gradient-17"/><radialGradient id="radial-gradient-23" cx="1316.85" cy="192.6" r="36.55" xlink:href="#radial-gradient-17"/><radialGradient id="radial-gradient-24" cx="1213.91" cy="-148.01" r="3.68" xlink:href="#radial-gradient-17"/><radialGradient id="radial-gradient-25" cx="1331.73" cy="-190.42" r="28.62" xlink:href="#radial-gradient-17"/><radialGradient id="radial-gradient-26" cx="572.75" cy="158.54" r="467.63" xlink:href="#radial-gradient-2"/><radialGradient id="radial-gradient-27" cx="164.11" cy="361.73" r="36.7" gradientTransform="matrix(1, 0.08, 0.08, -1, -58.62, 135.67)" xlink:href="#radial-gradient-2"/><radialGradient id="radial-gradient-28" cx="968.4" cy="-307.07" r="5.79" xlink:href="#radial-gradient-17"/><radialGradient id="radial-gradient-29" cx="868.39" cy="-319.47" r="3.68" xlink:href="#radial-gradient-17"/><radialGradient id="radial-gradient-30" cx="870.39" cy="-243.65" r="28.39" xlink:href="#radial-gradient-17"/><radialGradient id="radial-gradient-31" cx="1255.39" cy="465.86" r="5.98" xlink:href="#radial-gradient-17"/><radialGradient id="radial-gradient-32" cx="1289.57" cy="132.96" r="5.07" xlink:href="#radial-gradient-17"/><radialGradient id="radial-gradient-33" cx="1276.16" cy="80.86" r="5.07" xlink:href="#radial-gradient-17"/><radialGradient id="radial-gradient-34" cx="1124.07" cy="101.36" r="39.45" xlink:href="#radial-gradient-17"/><radialGradient id="radial-gradient-35" cx="1415.95" cy="64.72" r="39.13" xlink:href="#radial-gradient-17"/><radialGradient id="radial-gradient-36" cx="1173.07" cy="501.9" r="467.63" xlink:href="#radial-gradient-2"/><radialGradient id="radial-gradient-37" cx="975.82" cy="267.86" r="36.7" xlink:href="#radial-gradient-2"/><radialGradient id="radial-gradient-38" cx="706.69" cy="437.16" r="339.31" xlink:href="#radial-gradient-2"/><radialGradient id="radial-gradient-39" cx="706.69" cy="437.17" r="339.31" xlink:href="#radial-gradient-2"/><radialGradient id="radial-gradient-40" cx="706.69" cy="437.17" r="339.31" xlink:href="#radial-gradient-2"/><radialGradient id="radial-gradient-41" cx="109.03" cy="-24.31" r="26.63" gradientTransform="matrix(1, 0.08, 0.08, -1, -58.62, 135.67)" xlink:href="#radial-gradient-2"/><radialGradient id="radial-gradient-42" cx="1443.01" cy="321.6" r="467.63" gradientTransform="matrix(0.71, -0.71, -0.71, -0.71, -1171.86, 1104.43)" xlink:href="#radial-gradient-2"/><radialGradient id="radial-gradient-43" cx="1443.02" cy="321.6" r="467.63" gradientTransform="matrix(0.71, -0.71, -0.71, -0.71, -1171.86, 1104.43)" xlink:href="#radial-gradient-2"/><radialGradient id="radial-gradient-44" cx="1443.01" cy="321.61" r="467.64" gradientTransform="matrix(0.71, -0.71, -0.71, -0.71, -1171.86, 1104.43)" xlink:href="#radial-gradient-2"/><radialGradient id="radial-gradient-45" cx="1539.11" cy="-19.73" r="37.64" gradientTransform="matrix(0.71, -0.71, -0.71, -0.71, -1171.86, 1104.43)" xlink:href="#radial-gradient-2"/><radialGradient id="radial-gradient-46" cx="915.47" cy="387.94" r="5.79" xlink:href="#radial-gradient-17"/><radialGradient id="radial-gradient-47" cx="960.5" cy="455.51" r="36.55" xlink:href="#radial-gradient-17"/><radialGradient id="radial-gradient-48" cx="890.36" cy="-122.9" r="4.2" xlink:href="#radial-gradient-17"/><radialGradient id="radial-gradient-49" cx="866.25" cy="85.14" r="4.2" xlink:href="#radial-gradient-17"/><radialGradient id="radial-gradient-50" cx="916.81" cy="24.39" r="26.42" xlink:href="#radial-gradient-17"/><radialGradient id="radial-gradient-51" cx="852.79" cy="219.26" r="3.68" xlink:href="#radial-gradient-17"/><radialGradient id="radial-gradient-52" cx="844.48" cy="364.38" r="3.68" xlink:href="#radial-gradient-17"/><radialGradient id="radial-gradient-53" cx="854.78" cy="295.08" r="28.39" xlink:href="#radial-gradient-17"/><radialGradient id="radial-gradient-54" cx="968.01" cy="-2.63" r="5.07" xlink:href="#radial-gradient-17"/><radialGradient id="radial-gradient-55" cx="1305.02" cy="-431.14" r="37.64" gradientTransform="matrix(0.71, -0.71, -0.71, -0.71, -1171.86, 1104.43)" xlink:href="#radial-gradient-2"/><radialGradient id="radial-gradient-56" cx="791.43" cy="480.83" r="26.42" xlink:href="#radial-gradient-17"/><radialGradient id="radial-gradient-57" cx="842.63" cy="453.81" r="5.07" xlink:href="#radial-gradient-17"/><radialGradient id="radial-gradient-58" cx="882.22" cy="322.24" r="467.63" gradientTransform="matrix(1, 0, 0, -1, 261.3, 388.43)" xlink:href="#radial-gradient-2"/><radialGradient id="radial-gradient-59" cx="849.25" cy="317.22" r="467.63" gradientTransform="matrix(1, 0, 0, -1, 261.3, 388.43)" xlink:href="#radial-gradient-2"/><radialGradient id="radial-gradient-60" cx="882.22" cy="322.24" r="467.63" gradientTransform="matrix(1, 0, 0, -1, 261.3, 388.43)" xlink:href="#radial-gradient-2"/><radialGradient id="radial-gradient-61" cx="176.28" cy="86.27" r="36.7" gradientTransform="translate(1138.45 388.43) rotate(180)" xlink:href="#radial-gradient-2"/><radialGradient id="radial-gradient-62" cx="1005.93" cy="281.8" r="339.31" gradientTransform="matrix(1, 0, 0, -1, 261.3, 388.43)" xlink:href="#radial-gradient-2"/><radialGradient id="radial-gradient-63" cx="-1.56" cy="110.05" r="26.63" gradientTransform="translate(1138.45 388.43) rotate(180)" xlink:href="#radial-gradient-2"/><radialGradient id="radial-gradient-64" cx="1323.09" cy="267.59" r="339.31" gradientTransform="matrix(-0.71, 0.71, 0.71, 0.71, 1976.39, -546.84)" xlink:href="#radial-gradient-2"/><radialGradient id="radial-gradient-65" cx="1323.09" cy="267.6" r="339.32" gradientTransform="matrix(-0.71, 0.71, 0.71, 0.71, 1976.39, -546.84)" xlink:href="#radial-gradient-2"/><radialGradient id="radial-gradient-66" cx="187.86" cy="-73.3" r="27.58" gradientTransform="translate(1138.45 388.43) rotate(180)" xlink:href="#radial-gradient-2"/><radialGradient id="radial-gradient-67" cx="1152.13" cy="-258.44" r="467.63" gradientTransform="matrix(-0.71, 0.71, 0.71, 0.71, 2310.32, -716)" xlink:href="#radial-gradient-2"/><radialGradient id="radial-gradient-68" cx="1162" cy="-271.05" r="467.63" gradientTransform="matrix(-0.71, 0.71, 0.71, 0.71, 2310.32, -716)" xlink:href="#radial-gradient-2"/><radialGradient id="radial-gradient-69" cx="1152.13" cy="-258.44" r="467.64" gradientTransform="matrix(-0.71, 0.71, 0.71, 0.71, 2310.32, -716)" xlink:href="#radial-gradient-2"/><radialGradient id="radial-gradient-70" cx="1152.13" cy="-258.44" r="467.63" gradientTransform="matrix(-0.71, 0.71, 0.71, 0.71, 2310.32, -716)" xlink:href="#radial-gradient-2"/><radialGradient id="radial-gradient-71" cx="1755.17" cy="-132.86" r="467.65" gradientTransform="matrix(-0.71, 0.71, 0.71, 0.71, 2310.32, -716)" xlink:href="#radial-gradient-2"/><radialGradient id="radial-gradient-72" cx="-82.12" cy="507.28" r="38.09" gradientTransform="translate(1138.45 388.43) rotate(180)" xlink:href="#radial-gradient-2"/><radialGradient id="radial-gradient-73" cx="185.3" cy="632.66" r="24.64" gradientTransform="translate(1138.45 388.43) rotate(180)" xlink:href="#radial-gradient-2"/><radialGradient id="radial-gradient-74" cx="890.52" cy="-184.47" r="5.98" gradientTransform="matrix(1, 0, 0, -1, 261.3, 388.43)" xlink:href="#radial-gradient-17"/><radialGradient id="radial-gradient-75" cx="924.78" cy="154.89" r="5.79" gradientTransform="matrix(1, 0, 0, -1, 261.3, 388.43)" xlink:href="#radial-gradient-17"/><radialGradient id="radial-gradient-76" cx="775.55" cy="7.3" r="5.79" gradientTransform="matrix(1, 0, 0, -1, 261.3, 388.43)" xlink:href="#radial-gradient-17"/><radialGradient id="radial-gradient-77" cx="874.17" cy="-52.73" r="5.79" gradientTransform="matrix(1, 0, 0, -1, 261.3, 388.43)" xlink:href="#radial-gradient-17"/><radialGradient id="radial-gradient-78" cx="646.75" cy="-52.34" r="5.79" gradientTransform="matrix(1, 0, 0, -1, 261.3, 388.43)" xlink:href="#radial-gradient-17"/><radialGradient id="radial-gradient-79" cx="160.73" cy="-136.07" r="36.41" gradientTransform="translate(1138.45 388.43) rotate(180)" xlink:href="#radial-gradient-17"/><radialGradient id="radial-gradient-80" cx="-34.48" cy="369.21" r="36.55" gradientTransform="translate(1138.45 388.43) rotate(180)" xlink:href="#radial-gradient-17"/><radialGradient id="radial-gradient-81" cx="808.7" cy="28.6" r="3.68" gradientTransform="matrix(1, 0, 0, -1, 261.3, 388.43)" xlink:href="#radial-gradient-17"/><radialGradient id="radial-gradient-82" cx="-49.36" cy="-13.8" r="28.62" gradientTransform="translate(1138.45 388.43) rotate(180)" xlink:href="#radial-gradient-17"/><radialGradient id="radial-gradient-83" cx="167.54" cy="335.16" r="467.63" gradientTransform="matrix(1, 0, 0, -1, 261.3, 388.43)" xlink:href="#radial-gradient-2"/><radialGradient id="radial-gradient-84" cx="542.98" cy="-34.73" r="37.64" gradientTransform="translate(1138.45 388.43) rotate(180)" xlink:href="#radial-gradient-2"/><radialGradient id="radial-gradient-85" cx="563.18" cy="-130.45" r="5.79" gradientTransform="matrix(1, 0, 0, -1, 261.3, 388.43)" xlink:href="#radial-gradient-17"/><radialGradient id="radial-gradient-86" cx="463.17" cy="-142.86" r="3.68" gradientTransform="matrix(1, 0, 0, -1, 261.3, 388.43)" xlink:href="#radial-gradient-17"/><radialGradient id="radial-gradient-87" cx="411.98" cy="-67.04" r="28.39" gradientTransform="translate(1138.45 388.43) rotate(180)" xlink:href="#radial-gradient-17"/><radialGradient id="radial-gradient-88" cx="850.18" cy="642.48" r="5.98" gradientTransform="matrix(1, 0, 0, -1, 261.3, 388.43)" xlink:href="#radial-gradient-17"/><radialGradient id="radial-gradient-89" cx="884.36" cy="309.57" r="5.07" gradientTransform="matrix(1, 0, 0, -1, 261.3, 388.43)" xlink:href="#radial-gradient-17"/><radialGradient id="radial-gradient-90" cx="870.95" cy="257.47" r="5.07" gradientTransform="matrix(1, 0, 0, -1, 261.3, 388.43)" xlink:href="#radial-gradient-17"/><radialGradient id="radial-gradient-91" cx="158.3" cy="277.98" r="39.45" gradientTransform="translate(1138.45 388.43) rotate(180)" xlink:href="#radial-gradient-17"/><radialGradient id="radial-gradient-92" cx="-133.58" cy="241.34" r="39.13" gradientTransform="translate(1138.45 388.43) rotate(180)" xlink:href="#radial-gradient-17"/><radialGradient id="radial-gradient-93" cx="767.85" cy="678.52" r="467.63" gradientTransform="matrix(1, 0, 0, -1, 261.3, 388.43)" xlink:href="#radial-gradient-2"/><radialGradient id="radial-gradient-94" cx="306.54" cy="444.48" r="36.7" gradientTransform="translate(1138.45 388.43) rotate(180)" xlink:href="#radial-gradient-2"/><radialGradient id="radial-gradient-95" cx="301.48" cy="613.78" r="339.31" gradientTransform="matrix(1, 0, 0, -1, 261.3, 388.43)" xlink:href="#radial-gradient-2"/><radialGradient id="radial-gradient-96" cx="301.48" cy="613.78" r="339.31" gradientTransform="matrix(1, 0, 0, -1, 261.3, 388.43)" xlink:href="#radial-gradient-2"/><radialGradient id="radial-gradient-97" cx="301.48" cy="613.78" r="339.31" gradientTransform="matrix(1, 0, 0, -1, 261.3, 388.43)" xlink:href="#radial-gradient-2"/><radialGradient id="radial-gradient-98" cx="454.77" cy="345.39" r="27.31" gradientTransform="translate(1138.45 388.43) rotate(180)" xlink:href="#radial-gradient-2"/><radialGradient id="radial-gradient-99" cx="1604.66" cy="-89.82" r="467.63" gradientTransform="matrix(-0.71, 0.71, 0.71, 0.71, 2310.32, -716)" xlink:href="#radial-gradient-2"/><radialGradient id="radial-gradient-100" cx="1604.66" cy="-89.82" r="467.63" gradientTransform="matrix(-0.71, 0.71, 0.71, 0.71, 2310.32, -716)" xlink:href="#radial-gradient-2"/><radialGradient id="radial-gradient-101" cx="1604.66" cy="-89.81" r="467.64" gradientTransform="matrix(-0.71, 0.71, 0.71, 0.71, 2310.32, -716)" xlink:href="#radial-gradient-2"/><radialGradient id="radial-gradient-102" cx="341.37" cy="223.12" r="38.01" gradientTransform="translate(1138.45 388.43) rotate(180)" xlink:href="#radial-gradient-2"/><radialGradient id="radial-gradient-103" cx="510.25" cy="564.56" r="5.79" gradientTransform="matrix(1, 0, 0, -1, 261.3, 388.43)" xlink:href="#radial-gradient-17"/><radialGradient id="radial-gradient-104" cx="321.86" cy="632.13" r="36.55" gradientTransform="translate(1138.45 388.43) rotate(180)" xlink:href="#radial-gradient-17"/><radialGradient id="radial-gradient-105" cx="485.15" cy="53.71" r="4.2" gradientTransform="matrix(1, 0, 0, -1, 261.3, 388.43)" xlink:href="#radial-gradient-17"/><radialGradient id="radial-gradient-106" cx="461.04" cy="261.76" r="4.2" gradientTransform="matrix(1, 0, 0, -1, 261.3, 388.43)" xlink:href="#radial-gradient-17"/><radialGradient id="radial-gradient-107" cx="365.56" cy="201" r="26.42" gradientTransform="translate(1138.45 388.43) rotate(180)" xlink:href="#radial-gradient-17"/><radialGradient id="radial-gradient-108" cx="447.57" cy="395.87" r="3.68" gradientTransform="matrix(1, 0, 0, -1, 261.3, 388.43)" xlink:href="#radial-gradient-17"/><radialGradient id="radial-gradient-109" cx="439.27" cy="541" r="3.68" gradientTransform="matrix(1, 0, 0, -1, 261.3, 388.43)" xlink:href="#radial-gradient-17"/><radialGradient id="radial-gradient-110" cx="427.58" cy="471.69" r="28.39" gradientTransform="translate(1138.45 388.43) rotate(180)" xlink:href="#radial-gradient-17"/><radialGradient id="radial-gradient-111" cx="562.79" cy="173.98" r="5.07" gradientTransform="matrix(1, 0, 0, -1, 261.3, 388.43)" xlink:href="#radial-gradient-17"/><radialGradient id="radial-gradient-112" cx="466.75" cy="679.56" r="38.01" gradientTransform="translate(1138.45 388.43) rotate(180)" xlink:href="#radial-gradient-2"/><radialGradient id="radial-gradient-113" cx="490.94" cy="657.44" r="26.42" gradientTransform="translate(1138.45 388.43) rotate(180)" xlink:href="#radial-gradient-17"/><radialGradient id="radial-gradient-114" cx="437.41" cy="630.42" r="5.07" gradientTransform="matrix(1, 0, 0, -1, 261.3, 388.43)" xlink:href="#radial-gradient-17"/><radialGradient id="radial-gradient-115" cx="359.12" cy="388.68" r="1151.21" gradientTransform="translate(-88.59 -134.15) scale(1.12 1.26)" gradientUnits="userSpaceOnUse"><stop offset="0" stop-color="#4a289c" stop-opacity="0"/><stop offset="0.96" stop-color="#00092b"/></radialGradient><radialGradient id="radial-gradient-116" cx="360.95" cy="432.51" r="1002.44" xlink:href="#radial-gradient-115"/><radialGradient id="radial-gradient-117" cx="335.38" cy="388.94" r="891.28" gradientTransform="translate(-88.59 -93.91) scale(1.12 1.18)" xlink:href="#radial-gradient"/><radialGradient id="radial-gradient-118" cx="317.6" cy="431.5" r="645.59" gradientTransform="matrix(1, 0, 0, 1, 0, 0)" xlink:href="#radial-gradient"/><radialGradient id="radial-gradient-119" cx="422.71" cy="497.57" r="495.16" gradientTransform="matrix(1.11, 0.18, -0.17, 1.2, -17.74, -192.02)" xlink:href="#radial-gradient"/><radialGradient id="radial-gradient-120" cx="436.52" cy="628.16" r="371.31" gradientTransform="translate(-88.59 -111.92) scale(1.12 1.21)" xlink:href="#radial-gradient"/><radialGradient id="radial-gradient-121" cx="562.75" cy="390.28" r="458.7" gradientTransform="translate(-88.59 -111.92) scale(1.12 1.21)" xlink:href="#radial-gradient"/><radialGradient id="radial-gradient-122" cx="562.75" cy="390.28" r="458.7" gradientTransform="translate(-88.59 -111.92) scale(1.12 1.21)" xlink:href="#radial-gradient"/><radialGradient id="radial-gradient-123" cx="562.75" cy="390.28" r="458.7" gradientTransform="translate(-88.59 -111.92) scale(1.12 1.21)" xlink:href="#radial-gradient"/><radialGradient id="radial-gradient-124" cx="562.75" cy="390.28" r="458.7" gradientTransform="translate(-88.59 -111.92) scale(1.12 1.21)" xlink:href="#radial-gradient"/><radialGradient id="radial-gradient-125" cx="562.75" cy="390.28" r="458.7" gradientTransform="translate(-88.59 -111.92) scale(1.12 1.21)" xlink:href="#radial-gradient"/><radialGradient id="radial-gradient-126" cx="562.75" cy="390.28" r="458.7" gradientTransform="translate(-88.59 -111.92) scale(1.12 1.21)" xlink:href="#radial-gradient"/><radialGradient id="radial-gradient-127" cx="-41.33" cy="612.16" r="139.96" gradientTransform="translate(184.76 -54.35) rotate(19.23) scale(1.12 1.21)" xlink:href="#radial-gradient"/><radialGradient id="radial-gradient-128" cx="667.42" cy="380.48" r="139.95" gradientTransform="matrix(-0.36, 1.08, -1.16, -0.31, 1379.99, -38.43)" xlink:href="#radial-gradient"/><radialGradient id="radial-gradient-129" cx="1046.89" cy="122.85" r="139.96" gradientTransform="matrix(0.74, 0.91, -0.85, 0.8, 422.83, -414.35)" xlink:href="#radial-gradient"/><radialGradient id="radial-gradient-130" cx="734.25" cy="407.2" r="59.41" gradientTransform="matrix(1.02, 0.52, -0.48, 1.1, 136.91, -297.48)" xlink:href="#radial-gradient"/><radialGradient id="radial-gradient-131" cx="844.46" cy="465.86" r="59.41" gradientTransform="matrix(1.02, 0.52, -0.48, 1.1, 136.91, -297.48)" xlink:href="#radial-gradient"/><radialGradient id="radial-gradient-132" cx="881.6" cy="374.84" r="59.41" gradientTransform="matrix(1.02, 0.52, -0.48, 1.1, 136.91, -297.48)" xlink:href="#radial-gradient"/><radialGradient id="radial-gradient-133" cx="991.67" cy="327.2" r="59.41" gradientTransform="matrix(0.87, 0.77, -0.71, 0.94, 298.93, -371.55)" xlink:href="#radial-gradient"/><radialGradient id="radial-gradient-134" cx="925.22" cy="304.67" r="95.34" gradientTransform="matrix(0.95, 0.65, -0.61, 1.02, 216.44, -341.21)" xlink:href="#radial-gradient"/><radialGradient id="radial-gradient-135" cx="741.12" cy="483.81" r="95.34" gradientTransform="matrix(-0.36, 1.09, -1.16, -0.3, 1519.72, 24.25)" xlink:href="#radial-gradient"/><radialGradient id="radial-gradient-136" cx="153.58" cy="560.7" r="85.88" gradientTransform="matrix(1.12, 0.07, -0.06, 1.21, -64.38, -133.39)" xlink:href="#radial-gradient"/><radialGradient id="radial-gradient-137" cx="146.67" cy="640.28" r="85.88" gradientTransform="matrix(1.12, 0.07, -0.06, 1.21, -64.38, -133.39)" xlink:href="#radial-gradient"/><radialGradient id="radial-gradient-138" cx="177.87" cy="635.28" r="53.5" gradientTransform="matrix(1.12, 0.07, -0.06, 1.21, -64.38, -133.39)" xlink:href="#radial-gradient"/><radialGradient id="radial-gradient-139" cx="105.86" cy="534.74" r="53.5" gradientTransform="matrix(1.12, 0.07, -0.06, 1.21, -64.38, -133.39)" xlink:href="#radial-gradient"/><radialGradient id="radial-gradient-140" cx="26.18" cy="643.42" r="53.5" gradientTransform="matrix(1.12, 0.07, -0.06, 1.21, -64.38, -133.39)" xlink:href="#radial-gradient"/><radialGradient id="radial-gradient-141" cx="219.81" cy="515.07" r="139.96" gradientTransform="matrix(1.06, 0.37, -0.4, 1.15, 162.36, -157.62)" xlink:href="#radial-gradient"/><radialGradient id="radial-gradient-142" cx="281.74" cy="532.48" r="53.5" gradientTransform="matrix(1.12, 0.07, -0.06, 1.21, -64.38, -133.39)" xlink:href="#radial-gradient"/><radialGradient id="radial-gradient-143" cx="26.4" cy="559.32" r="53.5" gradientTransform="matrix(1.12, 0.07, -0.06, 1.21, -64.38, -133.39)" xlink:href="#radial-gradient"/></defs><g class="cls-2"><g id="Capa_1" data-name="Capa 1"><g class="cls-3"><rect class="cls-4" x="336.17" width="1920" height="1280"/><path class="cls-5" d="M-203.86.87s-2.39,5.53-3.79,6.93-6.93,3.79-6.93,3.79,5.54,2.39,6.93,3.79,3.79,6.93,3.79,6.93,2.4-5.53,3.79-6.93,6.94-3.79,6.94-3.79-5.54-2.39-6.94-3.79S-203.86.87-203.86.87Z" transform="translate(921.17 390)"/><path class="cls-6" d="M-266.62-245.56s-2.4,5.53-3.79,6.93-6.93,3.79-6.93,3.79,5.53,2.39,6.93,3.79,3.79,6.93,3.79,6.93,2.39-5.53,3.79-6.93,6.93-3.79,6.93-3.79-5.53-2.39-6.93-3.79S-266.62-245.56-266.62-245.56Z" transform="translate(921.17 390)"/><path class="cls-6" d="M-452.88,90s-4,9.22-6.32,11.55-11.55,6.32-11.55,6.32,9.22,4,11.55,6.31,6.32,11.56,6.32,11.56,4-9.23,6.32-11.56,11.55-6.31,11.55-6.31-9.23-4-11.55-6.32S-452.88,90-452.88,90Z" transform="translate(921.17 390)"/><path class="cls-5" d="M-424,1.86s-1.74,4-2.75,5-5,2.75-5,2.75,4,1.74,5,2.75,2.75,5,2.75,5,1.73-4,2.75-5,5-2.75,5-2.75-4-1.73-5-2.75S-424,1.86-424,1.86Z" transform="translate(921.17 390)"/><path class="cls-5" d="M-429.76-178.66s-1.73,4-2.75,5-5,2.75-5,2.75,4,1.74,5,2.75,2.75,5,2.75,5,1.74-4,2.75-5,5-2.75,5-2.75-4-1.73-5-2.75S-429.76-178.66-429.76-178.66Z" transform="translate(921.17 390)"/><path class="cls-6" d="M-404.53,156.86s-2.9,6.69-4.59,8.38-8.38,4.58-8.38,4.58,6.69,2.9,8.38,4.59,4.59,8.38,4.59,8.38,2.89-6.69,4.58-8.38,8.38-4.59,8.38-4.59-6.69-2.89-8.38-4.58S-404.53,156.86-404.53,156.86Z" transform="translate(921.17 390)"/><path class="cls-6" d="M-238.34-318.56s-2.69-6.78-2.69-9.17,2.69-9.16,2.69-9.16-6.79,2.68-9.17,2.68-9.17-2.68-9.17-2.68,2.68,6.78,2.68,9.16-2.68,9.17-2.68,9.17,6.78-2.68,9.17-2.68S-238.34-318.56-238.34-318.56Z" transform="translate(921.17 390)"/><path class="cls-7" d="M-223.46,361.45s-3.7-9.35-3.7-12.64,3.7-12.64,3.7-12.64-9.34,3.7-12.64,3.7-12.63-3.7-12.63-3.7,3.7,9.35,3.7,12.64-3.7,12.64-3.7,12.64,9.34-3.7,12.63-3.7S-223.46,361.45-223.46,361.45Z" transform="translate(921.17 390)"/><path class="cls-8" d="M-477.06-281.39a19.86,19.86,0,0,0-2.11-3.84,19.87,19.87,0,0,0-3.85-2.11,20.26,20.26,0,0,0,3.85-2.1,20.17,20.17,0,0,0,2.11-3.85,20.57,20.57,0,0,0,2.1,3.85,20.57,20.57,0,0,0,3.85,2.1,20.17,20.17,0,0,0-3.85,2.11A20.25,20.25,0,0,0-477.06-281.39Z" transform="translate(921.17 390)"/><path class="cls-9" d="M-155.06,91.37a20.26,20.26,0,0,0-2.1-3.85A20.17,20.17,0,0,0-161,85.41a20.57,20.57,0,0,0,3.85-2.1,20.57,20.57,0,0,0,2.1-3.85,20.17,20.17,0,0,0,2.11,3.85,20.26,20.26,0,0,0,3.85,2.1,19.87,19.87,0,0,0-3.85,2.11A19.87,19.87,0,0,0-155.06,91.37Z" transform="translate(921.17 390)"/><path class="cls-10" d="M-257.09-172.87a20.26,20.26,0,0,0-2.1-3.85,20.17,20.17,0,0,0-3.85-2.11,20.57,20.57,0,0,0,3.85-2.1,20.57,20.57,0,0,0,2.1-3.85,20.17,20.17,0,0,0,2.11,3.85,20.26,20.26,0,0,0,3.85,2.1,19.87,19.87,0,0,0-3.85,2.11A19.87,19.87,0,0,0-257.09-172.87Z" transform="translate(921.17 390)"/><path class="cls-11" d="M-235.56-88.36a2,2,0,0,1,2,2,2,2,0,0,1-2,2,2,2,0,0,1-2-2A2,2,0,0,1-235.56-88.36Zm-21.89-30.51a4,4,0,0,0,4,4,4,4,0,0,0,4-4,4,4,0,0,0-4-4A4,4,0,0,0-257.45-118.87Zm-11.94,51.74a8,8,0,0,0,8,8,8,8,0,0,0,8-8,8,8,0,0,0-8-8A8,8,0,0,0-269.39-67.13Zm73,5.3a4,4,0,0,0,4,4,4,4,0,0,0,4-4,4,4,0,0,0-4-4A4,4,0,0,0-196.43-61.83Z" transform="translate(921.17 390)"/><path class="cls-12" d="M-422.84-125.92a14.21,14.21,0,0,0-1.53-2.79,14.78,14.78,0,0,0-2.79-1.53,14.59,14.59,0,0,0,2.79-1.52,14.51,14.51,0,0,0,1.53-2.8,15.1,15.1,0,0,0,1.53,2.8,14.59,14.59,0,0,0,2.79,1.52,14.78,14.78,0,0,0-2.79,1.53A14.78,14.78,0,0,0-422.84-125.92Z" transform="translate(921.17 390)"/><path class="cls-13" d="M-411.58-65.12a1.44,1.44,0,0,1,1.44,1.44,1.45,1.45,0,0,1-1.44,1.45A1.45,1.45,0,0,1-413-63.68,1.44,1.44,0,0,1-411.58-65.12Zm-15.89-22.14a2.9,2.9,0,0,0,2.89,2.89,2.89,2.89,0,0,0,2.89-2.89,2.89,2.89,0,0,0-2.89-2.89A2.89,2.89,0,0,0-427.47-87.26Zm-8.66,37.54a5.77,5.77,0,0,0,5.78,5.77,5.77,5.77,0,0,0,5.77-5.77,5.77,5.77,0,0,0-5.77-5.78A5.78,5.78,0,0,0-436.13-49.72Zm52.94,3.85A2.9,2.9,0,0,0-380.3-43a2.9,2.9,0,0,0,2.89-2.89,2.89,2.89,0,0,0-2.89-2.89A2.89,2.89,0,0,0-383.19-45.87Z" transform="translate(921.17 390)"/><path class="cls-14" d="M-217.77-324.38a14.76,14.76,0,0,0,3.05.89,14.7,14.7,0,0,0,3.06-.89,14.64,14.64,0,0,0-.9,3.05,14.58,14.58,0,0,0,.9,3.06,14.58,14.58,0,0,0-3.06-.9,14.64,14.64,0,0,0-3.05.9,14.7,14.7,0,0,0,.89-3.06A14.76,14.76,0,0,0-217.77-324.38Z" transform="translate(921.17 390)"/><path class="cls-15" d="M-301.54-324.06a14.64,14.64,0,0,0,3.05.9,14.58,14.58,0,0,0,3.06-.9,14.58,14.58,0,0,0-.9,3.06,14.64,14.64,0,0,0,.9,3.05,14.7,14.7,0,0,0-3.06-.89,14.76,14.76,0,0,0-3.05.89,14.76,14.76,0,0,0,.89-3.05A14.7,14.7,0,0,0-301.54-324.06Z" transform="translate(921.17 390)"/><path class="cls-16" d="M-223.41-259a1.44,1.44,0,0,1,2,.18,1.43,1.43,0,0,1-.17,2,1.43,1.43,0,0,1-2-.17A1.44,1.44,0,0,1-223.41-259Zm-26.41-6.68a2.89,2.89,0,0,0,4.07.34,2.89,2.89,0,0,0,.34-4.07,2.89,2.89,0,0,0-4.07-.34A2.89,2.89,0,0,0-249.82-265.71Zm17.57,34.28a5.77,5.77,0,0,0,8.14.69,5.76,5.76,0,0,0,.69-8.13,5.78,5.78,0,0,0-8.14-.7A5.77,5.77,0,0,0-232.25-231.43Zm43-31.18a2.9,2.9,0,0,0,4.07.35,2.89,2.89,0,0,0,.34-4.07,2.89,2.89,0,0,0-4.07-.35A2.89,2.89,0,0,0-189.29-262.61Z" transform="translate(921.17 390)"/><path class="cls-17" d="M-393.44,250.13a6,6,0,0,1,8.46,0,6,6,0,0,1,0,8.46,6,6,0,0,1-8.46,0A6,6,0,0,1-393.44,250.13Z" transform="translate(921.17 390)"/><path class="cls-18" d="M-214.6,552.54a20,20,0,0,0,4.21,1.24,20.24,20.24,0,0,0,4.21-1.24,20.24,20.24,0,0,0-1.24,4.21,20,20,0,0,0,1.24,4.21,20.37,20.37,0,0,0-4.21-1.23A20.17,20.17,0,0,0-214.6,561a20.17,20.17,0,0,0,1.23-4.21A20.37,20.37,0,0,0-214.6,552.54Z" transform="translate(921.17 390)"/><path class="cls-19" d="M-195.11,353.42a20.37,20.37,0,0,0,4.21,1.23,20.17,20.17,0,0,0,4.21-1.23,20.17,20.17,0,0,0-1.23,4.21,20.17,20.17,0,0,0,1.23,4.21,20.17,20.17,0,0,0-4.21-1.23,20.37,20.37,0,0,0-4.21,1.23,20,20,0,0,0,1.24-4.21A20,20,0,0,0-195.11,353.42Z" transform="translate(921.17 390)"/><path class="cls-20" d="M-310.56,353.87a20.37,20.37,0,0,0,4.21,1.23,20.17,20.17,0,0,0,4.21-1.23,20.17,20.17,0,0,0-1.23,4.21,20.37,20.37,0,0,0,1.23,4.21,20,20,0,0,0-4.21-1.24,20.24,20.24,0,0,0-4.21,1.24,20.24,20.24,0,0,0,1.24-4.21A20,20,0,0,0-310.56,353.87Z" transform="translate(921.17 390)"/><path class="cls-21" d="M-364.4-27.34a20.37,20.37,0,0,0,4.21,1.23A20.17,20.17,0,0,0-356-27.34a20.17,20.17,0,0,0-1.23,4.21A20.37,20.37,0,0,0-356-18.92a20,20,0,0,0-4.21-1.24,20.24,20.24,0,0,0-4.21,1.24,20.24,20.24,0,0,0,1.24-4.21A20,20,0,0,0-364.4-27.34Z" transform="translate(921.17 390)"/><path class="cls-22" d="M-202.88,443.49a2,2,0,0,1,2.81.24,2,2,0,0,1-.24,2.8,2,2,0,0,1-2.81-.23A2,2,0,0,1-202.88,443.49Zm-36.4-9.22a4,4,0,0,0,5.61.48,4,4,0,0,0,.48-5.61,4,4,0,0,0-5.61-.48A4,4,0,0,0-239.28,434.27Zm24.22,47.25a8,8,0,0,0,11.22,1,8,8,0,0,0,1-11.22,8,8,0,0,0-11.21-.95A8,8,0,0,0-215.06,481.52Z" transform="translate(921.17 390)"/><path class="cls-23" d="M-420-366.91a6,6,0,0,1,7.21,4.43,6,6,0,0,1-4.43,7.21,6,6,0,0,1-7.2-4.43A6,6,0,0,1-420-366.91Z" transform="translate(921.17 390)"/><path class="cls-24" d="M-454.23-27.52a20.63,20.63,0,0,0,2.94,3.26A20.53,20.53,0,0,0-447-23.11a20.63,20.63,0,0,0-3.26,2.94,20.32,20.32,0,0,0-1.15,4.23,20.23,20.23,0,0,0-2.94-3.25,20.48,20.48,0,0,0-4.23-1.15,19.92,19.92,0,0,0,3.25-2.95A20.32,20.32,0,0,0-454.23-27.52Z" transform="translate(921.17 390)"/><path class="cls-25" d="M-305-175.1a20.34,20.34,0,0,0,2.95,3.25,20.32,20.32,0,0,0,4.23,1.15,20.63,20.63,0,0,0-3.26,2.94,20.53,20.53,0,0,0-1.15,4.24,20.63,20.63,0,0,0-2.94-3.26,20.32,20.32,0,0,0-4.23-1.15,20.23,20.23,0,0,0,3.25-2.94A20.48,20.48,0,0,0-305-175.1Z" transform="translate(921.17 390)"/><path class="cls-26" d="M-403.62-235.13a19.92,19.92,0,0,0,2.95,3.25,20.32,20.32,0,0,0,4.23,1.15,20.23,20.23,0,0,0-3.25,2.94,20.07,20.07,0,0,0-1.16,4.24,20.13,20.13,0,0,0-2.94-3.26A20.32,20.32,0,0,0-408-228a20.23,20.23,0,0,0,3.25-2.94A19.85,19.85,0,0,0-403.62-235.13Z" transform="translate(921.17 390)"/><path class="cls-27" d="M-176.19-234.75a20.63,20.63,0,0,0,2.94,3.26,20.48,20.48,0,0,0,4.23,1.15,20.23,20.23,0,0,0-3.25,2.94,20.32,20.32,0,0,0-1.15,4.23,20.23,20.23,0,0,0-2.94-3.25,20.53,20.53,0,0,0-4.24-1.15,20.63,20.63,0,0,0,3.26-2.94A20.53,20.53,0,0,0-176.19-234.75Z" transform="translate(921.17 390)"/><path class="cls-28" d="M-232.69-310.12a2,2,0,0,1-2.4-1.48,2,2,0,0,1,1.47-2.39,2,2,0,0,1,2.4,1.47A2,2,0,0,1-232.69-310.12Zm28.38,24.58a4,4,0,0,0-4.79-2.95,4,4,0,0,0-3,4.8,4,4,0,0,0,4.8,2.95A4,4,0,0,0-204.31-285.54Zm-.42-53.1a8,8,0,0,0-9.59-5.89,8,8,0,0,0-5.89,9.6,8,8,0,0,0,9.59,5.89A8,8,0,0,0-204.73-338.64Zm-72.19,11.81a4,4,0,0,0-4.8-2.94,4,4,0,0,0-2.94,4.8,4,4,0,0,0,4.79,2.94A4,4,0,0,0-276.92-326.83Z" transform="translate(921.17 390)"/><path class="cls-29" d="M-449.8,191.93a2,2,0,0,1,2.27,1.67,2,2,0,0,1-1.67,2.27,2,2,0,0,1-2.27-1.68A2,2,0,0,1-449.8,191.93ZM-476,165a4,4,0,0,0,4.52,3.34,4,4,0,0,0,3.35-4.53,4,4,0,0,0-4.53-3.34A4,4,0,0,0-476,165ZM-480.08,218a8,8,0,0,0,9.06,6.68,8,8,0,0,0,6.68-9.06,8,8,0,0,0-9.06-6.68A8,8,0,0,0-480.08,218Zm72.94-5.65a4,4,0,0,0,4.53,3.35,4,4,0,0,0,3.34-4.53,4,4,0,0,0-4.53-3.35A4,4,0,0,0-407.14,212.32Z" transform="translate(921.17 390)"/><path class="cls-30" d="M-333.08-145.75a14.32,14.32,0,0,0-3.18-.16,14.47,14.47,0,0,0-2.76,1.58,14.36,14.36,0,0,0,.16-3.18,14.47,14.47,0,0,0-1.58-2.76,15,15,0,0,0,3.18.16,15,15,0,0,0,2.76-1.58,15,15,0,0,0-.16,3.18A15,15,0,0,0-333.08-145.75Z" transform="translate(921.17 390)"/><path class="cls-31" d="M-458.13-195.6a1.43,1.43,0,0,1,2-.47,1.44,1.44,0,0,1,.48,2,1.45,1.45,0,0,1-2,.48A1.44,1.44,0,0,1-458.13-195.6Zm-27.18,1.95a2.88,2.88,0,0,0,4-.95,2.88,2.88,0,0,0-1-4,2.89,2.89,0,0,0-4,.95A2.89,2.89,0,0,0-485.31-193.65Zm27.46,27a5.77,5.77,0,0,0,7.94-1.9,5.77,5.77,0,0,0-1.9-7.94,5.77,5.77,0,0,0-7.94,1.9A5.77,5.77,0,0,0-457.85-166.62Zm31-43.1a2.89,2.89,0,0,0,4-.95,2.88,2.88,0,0,0-1-4,2.88,2.88,0,0,0-4,.95A2.89,2.89,0,0,0-426.87-209.72Z" transform="translate(921.17 390)"/><path class="cls-32" d="M98.88-139.69s-4,9.23-6.31,11.55S81-121.82,81-121.82s9.23,4,11.56,6.32,6.31,11.55,6.31,11.55,4-9.22,6.32-11.55,11.55-6.32,11.55-6.32-9.22-4-11.55-6.32S98.88-139.69,98.88-139.69Z" transform="translate(921.17 390)"/><path class="cls-32" d="M-99.4-199.53S-101-203.6-101-205s1.61-5.5,1.61-5.5-4.07,1.62-5.5,1.62-5.5-1.62-5.5-1.62,1.61,4.07,1.61,5.5-1.61,5.51-1.61,5.51,4.06-1.62,5.5-1.62S-99.4-199.53-99.4-199.53Z" transform="translate(921.17 390)"/><path class="cls-33" d="M73.16-154.06a19.87,19.87,0,0,0-2.11-3.85A19.86,19.86,0,0,0,67.21-160a20.25,20.25,0,0,0,3.84-2.1A20.17,20.17,0,0,0,73.16-166a20.57,20.57,0,0,0,2.1,3.85,20.57,20.57,0,0,0,3.85,2.1,20.17,20.17,0,0,0-3.85,2.11A20.26,20.26,0,0,0,73.16-154.06Z" transform="translate(921.17 390)"/><path class="cls-34" d="M142.34-212.26a2,2,0,0,1-1.81-2.15,2,2,0,0,1,2.15-1.81,2,2,0,0,1,1.82,2.15A2,2,0,0,1,142.34-212.26ZM161.57-180a4,4,0,0,0-3.63-4.3,4,4,0,0,0-4.3,3.63,4,4,0,0,0,3.62,4.3A4,4,0,0,0,161.57-180Zm16.28-50.54a8,8,0,0,0-7.25-8.6,8,8,0,0,0-8.61,7.25,8,8,0,0,0,7.25,8.61A8,8,0,0,0,177.85-230.54ZM105.6-242a4,4,0,0,0-3.63-4.31,4,4,0,0,0-4.3,3.63,4,4,0,0,0,3.63,4.3A4,4,0,0,0,105.6-242Z" transform="translate(921.17 390)"/><path class="cls-35" d="M-92.63-312.86a20.63,20.63,0,0,0,2.94,3.26,20.53,20.53,0,0,0,4.24,1.15,20.63,20.63,0,0,0-3.26,2.94,20.48,20.48,0,0,0-1.15,4.23,20.23,20.23,0,0,0-2.94-3.25A20.48,20.48,0,0,0-97-305.68a20.67,20.67,0,0,0,3.25-2.94A20.53,20.53,0,0,0-92.63-312.86Z" transform="translate(921.17 390)"/><path class="cls-32" d="M23.93-230.92s-1.74,4-2.75,5-5,2.75-5,2.75,4,1.74,5,2.75,2.75,5,2.75,5,1.73-4,2.75-5,5-2.75,5-2.75-4-1.73-5-2.75S23.93-230.92,23.93-230.92Z" transform="translate(921.17 390)"/><path class="cls-32" d="M5.74-318s-2.9,6.69-4.59,8.38S-7.23-305-7.23-305s6.69,2.9,8.38,4.59S5.74-292,5.74-292s2.89-6.69,4.58-8.38S18.7-305,18.7-305s-6.69-2.89-8.38-4.58S5.74-318,5.74-318Z" transform="translate(921.17 390)"/><path class="cls-36" d="M12.45-317.21a14.36,14.36,0,0,0-3.18-.16,14.3,14.3,0,0,0-2.77,1.58A14.36,14.36,0,0,0,6.66-319a14.15,14.15,0,0,0-1.58-2.76,15,15,0,0,0,3.18.16A14.76,14.76,0,0,0,11-323.16a14.36,14.36,0,0,0-.16,3.18A14.3,14.3,0,0,0,12.45-317.21Z" transform="translate(921.17 390)"/><path class="cls-37" d="M11-237a1.44,1.44,0,0,1-2,.3,1.44,1.44,0,0,1-.3-2,1.44,1.44,0,0,1,2-.31A1.44,1.44,0,0,1,11-237Zm27.25.36a2.89,2.89,0,0,0-4,.61,2.89,2.89,0,0,0,.61,4,2.89,2.89,0,0,0,4-.61A2.9,2.9,0,0,0,38.28-236.6ZM13.21-265.85a5.77,5.77,0,0,0-8.07,1.21,5.78,5.78,0,0,0,1.21,8.08,5.78,5.78,0,0,0,8.08-1.22A5.77,5.77,0,0,0,13.21-265.85Zm-34.53,40.31a2.89,2.89,0,0,0-4,.61,2.88,2.88,0,0,0,.61,4,2.88,2.88,0,0,0,4-.61A2.88,2.88,0,0,0-21.32-225.54Z" transform="translate(921.17 390)"/><path class="cls-38" d="M-373.14,469a6,6,0,0,1-8.23,2,6,6,0,0,1-2-8.23,6,6,0,0,1,8.22-2A6,6,0,0,1-373.14,469Z" transform="translate(921.17 390)"/><path class="cls-39" d="M-407.34,136.07a20.55,20.55,0,0,0-4.38-.22,20.38,20.38,0,0,0-3.81,2.18,20.55,20.55,0,0,0,.22-4.38,20.38,20.38,0,0,0-2.18-3.81,19.86,19.86,0,0,0,4.38.22,20.38,20.38,0,0,0,3.81-2.18,19.9,19.9,0,0,0-.22,4.38A19.83,19.83,0,0,0-407.34,136.07Z" transform="translate(921.17 390)"/><path class="cls-40" d="M-393.93,84a20.55,20.55,0,0,0-4.38-.22,20.38,20.38,0,0,0-3.81,2.18,20.55,20.55,0,0,0,.22-4.38,20.38,20.38,0,0,0-2.18-3.81,19.9,19.9,0,0,0,4.38.22,19.83,19.83,0,0,0,3.81-2.18,19.9,19.9,0,0,0-.22,4.38A19.83,19.83,0,0,0-393.93,84Z" transform="translate(921.17 390)"/><path class="cls-41" d="M-251.81,94.23a2,2,0,0,1,2.73-.66,2,2,0,0,1,.66,2.74,2,2,0,0,1-2.74.65A2,2,0,0,1-251.81,94.23Zm-37.46,2.69a4,4,0,0,0,5.47-1.31,4,4,0,0,0-1.3-5.48,4,4,0,0,0-5.48,1.31A4,4,0,0,0-289.27,96.92Zm37.84,37.24a8,8,0,0,0,11-2.62,8,8,0,0,0-2.62-10.94,8,8,0,0,0-11,2.61A8,8,0,0,0-251.43,134.16Zm42.7-59.4a4,4,0,0,0,5.48-1.31A4,4,0,0,0-204.56,68,4,4,0,0,0-210,69.29,4,4,0,0,0-208.73,74.76Z" transform="translate(921.17 390)"/><path class="cls-42" d="M-532.91,74a2,2,0,0,1-2.79.42,2,2,0,0,1-.42-2.78,2,2,0,0,1,2.78-.42A2,2,0,0,1-532.91,74Zm37.54.5a4,4,0,0,0-5.56.84,4,4,0,0,0,.84,5.56,4,4,0,0,0,5.56-.84A4,4,0,0,0-495.37,74.45Zm-34.54-40.32A8,8,0,0,0-541,35.81a8,8,0,0,0,1.68,11.13,8,8,0,0,0,11.13-1.68A8,8,0,0,0-529.91,34.13ZM-577.5,89.69a4,4,0,0,0-5.56.84,4,4,0,0,0,.84,5.57,4,4,0,0,0,5.56-.84A4,4,0,0,0-577.5,89.69Z" transform="translate(921.17 390)"/><path class="cls-7" d="M-122.46,362.17s-2.4,5.53-3.79,6.93-6.93,3.79-6.93,3.79,5.53,2.39,6.93,3.79,3.79,6.93,3.79,6.93,2.39-5.53,3.79-6.93,6.93-3.79,6.93-3.79-5.54-2.39-6.93-3.79S-122.46,362.17-122.46,362.17Z" transform="translate(921.17 390)"/><path class="cls-32" d="M39.53,307.81s-1.74,4-2.75,5-5,2.75-5,2.75,4,1.74,5,2.75,2.75,5,2.75,5,1.74-4,2.75-5,5-2.75,5-2.75-4-1.73-5-2.75S39.53,307.81,39.53,307.81Z" transform="translate(921.17 390)"/><path class="cls-32" d="M-33.6,215.74s-2.89,6.7-4.58,8.38-8.38,4.59-8.38,4.59,6.69,2.89,8.38,4.58,4.58,8.39,4.58,8.39,2.9-6.7,4.59-8.39,8.38-4.58,8.38-4.58-6.69-2.9-8.38-4.59S-33.6,215.74-33.6,215.74Z" transform="translate(921.17 390)"/><path class="cls-32" d="M71.91-243.85s-2.9,6.69-4.59,8.38-8.38,4.58-8.38,4.58,6.69,2.9,8.38,4.59,4.59,8.38,4.59,8.38,2.89-6.69,4.58-8.38,8.39-4.59,8.39-4.59-6.7-2.89-8.39-4.58S71.91-243.85,71.91-243.85Z" transform="translate(921.17 390)"/><path class="cls-32" d="M11.83,374.69s-2.9,6.69-4.59,8.38-8.38,4.58-8.38,4.58,6.69,2.9,8.38,4.59,4.59,8.38,4.59,8.38,2.89-6.69,4.58-8.38,8.38-4.59,8.38-4.59-6.69-2.89-8.38-4.58S11.83,374.69,11.83,374.69Z" transform="translate(921.17 390)"/><path class="cls-32" d="M-22.71-77.77s-3.7-9.35-3.7-12.64,3.7-12.63,3.7-12.63-9.34,3.7-12.63,3.7S-48-103-48-103s3.7,9.34,3.7,12.63S-48-77.77-48-77.77s9.34-3.7,12.64-3.7S-22.71-77.77-22.71-77.77Z" transform="translate(921.17 390)"/><path class="cls-43" d="M-73.66,452.67a19.87,19.87,0,0,0-2.11-3.85,20.17,20.17,0,0,0-3.85-2.11,20.57,20.57,0,0,0,3.85-2.1,20.17,20.17,0,0,0,2.11-3.85,20.57,20.57,0,0,0,2.1,3.85,20.57,20.57,0,0,0,3.85,2.1,20.17,20.17,0,0,0-3.85,2.11A20.26,20.26,0,0,0-73.66,452.67Z" transform="translate(921.17 390)"/><path class="cls-44" d="M-105.3,269.85a2,2,0,0,1,2,2,2,2,0,0,1-2,2,2,2,0,0,1-2-2A2,2,0,0,1-105.3,269.85Zm-21.89-30.51a4,4,0,0,0,4,4,4,4,0,0,0,4-4,4,4,0,0,0-4-4A4,4,0,0,0-127.19,239.34Zm-11.94,51.74a8,8,0,0,0,8,8,8,8,0,0,0,8-8,8,8,0,0,0-8-8A8,8,0,0,0-139.13,291.08Zm73,5.3a4,4,0,0,0,4,4,4,4,0,0,0,4-4,4,4,0,0,0-4-4A4,4,0,0,0-66.17,296.38Z" transform="translate(921.17 390)"/><path class="cls-45" d="M51.44,365.09a4.34,4.34,0,1,1,4.34-4.34A4.34,4.34,0,0,1,51.44,365.09Z" transform="translate(921.17 390)"/><path class="cls-46" d="M2.67,210.34a14.91,14.91,0,0,0-1.52-2.8A14.91,14.91,0,0,0-1.65,206a15.1,15.1,0,0,0,2.8-1.53,14.59,14.59,0,0,0,1.52-2.79,14.78,14.78,0,0,0,1.53,2.79A14.78,14.78,0,0,0,7,206a14.59,14.59,0,0,0-2.79,1.52A15.1,15.1,0,0,0,2.67,210.34Z" transform="translate(921.17 390)"/><path class="cls-47" d="M62.14,269.34a14.78,14.78,0,0,0-1.53-2.79A14.78,14.78,0,0,0,57.82,265a14.59,14.59,0,0,0,2.79-1.52,15.1,15.1,0,0,0,1.53-2.8,14.91,14.91,0,0,0,1.52,2.8,14.91,14.91,0,0,0,2.8,1.52,15.1,15.1,0,0,0-2.8,1.53A14.59,14.59,0,0,0,62.14,269.34Z" transform="translate(921.17 390)"/><path class="cls-48" d="M52.87,168.11a1.44,1.44,0,1,1,1.56-1.31A1.44,1.44,0,0,1,52.87,168.11Zm13.95,23.41a2.89,2.89,0,1,0-3.12,2.63A2.88,2.88,0,0,0,66.82,191.52Zm11.82-36.67a5.78,5.78,0,1,0-6.25,5.26A5.79,5.79,0,0,0,78.64,154.85Zm-52.43-8.33a2.89,2.89,0,1,0-3.12,2.63A2.88,2.88,0,0,0,26.21,146.52Z" transform="translate(921.17 390)"/><path class="cls-49" d="M-29.75,111.39a20.37,20.37,0,0,0,4.21,1.23,20.17,20.17,0,0,0,4.21-1.23,20.17,20.17,0,0,0-1.23,4.21,20.17,20.17,0,0,0,1.23,4.21,20.17,20.17,0,0,0-4.21-1.23,20.37,20.37,0,0,0-4.21,1.23,20,20,0,0,0,1.24-4.21A20,20,0,0,0-29.75,111.39Z" transform="translate(921.17 390)"/><path class="cls-50" d="M5.65-85.8a20,20,0,0,0,4.21,1.24,20.24,20.24,0,0,0,4.21-1.24,20.24,20.24,0,0,0-1.24,4.21,20,20,0,0,0,1.24,4.21,20.37,20.37,0,0,0-4.21-1.23,20.17,20.17,0,0,0-4.21,1.23,20.17,20.17,0,0,0,1.23-4.21A20.37,20.37,0,0,0,5.65-85.8Z" transform="translate(921.17 390)"/><path class="cls-51" d="M-109.8-85.35a20.17,20.17,0,0,0,4.21,1.23,20.37,20.37,0,0,0,4.21-1.23,20,20,0,0,0-1.24,4.21,20,20,0,0,0,1.24,4.21,20.37,20.37,0,0,0-4.21-1.23,20.17,20.17,0,0,0-4.21,1.23,20.17,20.17,0,0,0,1.23-4.21A20.17,20.17,0,0,0-109.8-85.35Z" transform="translate(921.17 390)"/><path class="cls-52" d="M-72.19,34a2,2,0,0,1,2.8.24A2,2,0,0,1-69.63,37a2,2,0,0,1-2.8-.24A2,2,0,0,1-72.19,34Zm-36.41-9.21a4,4,0,0,0,5.61.47,4,4,0,0,0,.48-5.6,4,4,0,0,0-5.61-.48A4,4,0,0,0-108.6,24.74ZM-84.38,72a8,8,0,0,0,11.22,1,8,8,0,0,0,1-11.21,8,8,0,0,0-11.21-1A8,8,0,0,0-84.38,72Zm59.21-43a4,4,0,0,0,5.6.48,4,4,0,0,0,.48-5.61,4,4,0,0,0-5.61-.47A4,4,0,0,0-25.17,29Z" transform="translate(921.17 390)"/><path class="cls-53" d="M-39.7,382.15a20.63,20.63,0,0,0,2.94,3.26,20.48,20.48,0,0,0,4.23,1.15,20.67,20.67,0,0,0-3.25,2.94,20.48,20.48,0,0,0-1.15,4.23,20.67,20.67,0,0,0-2.94-3.25,20.53,20.53,0,0,0-4.24-1.15,20.63,20.63,0,0,0,3.26-2.94A20.53,20.53,0,0,0-39.7,382.15Z" transform="translate(921.17 390)"/><path class="cls-54" d="M-93.45,454.84a2,2,0,0,1,2.26,1.67,2,2,0,0,1-1.67,2.27,2,2,0,0,1-2.26-1.67A2,2,0,0,1-93.45,454.84Zm-26.2-26.9a4,4,0,0,0,4.53,3.34,4,4,0,0,0,3.34-4.53,4,4,0,0,0-4.53-3.34A4,4,0,0,0-119.65,427.94Zm-4.08,52.94a8,8,0,0,0,9.06,6.68A8,8,0,0,0-108,478.5a8,8,0,0,0-9.06-6.68A8,8,0,0,0-123.73,480.88Zm72.93-5.64a4,4,0,0,0,4.53,3.34,4,4,0,0,0,3.34-4.53,4,4,0,0,0-4.53-3.34A4,4,0,0,0-50.8,475.24Z" transform="translate(921.17 390)"/><path class="cls-55" d="M-14.21-127.1a14.63,14.63,0,0,0,2.13,2.36,15,15,0,0,0,3.07.83,14.81,14.81,0,0,0-2.36,2.14,14.82,14.82,0,0,0-.83,3.07,14.39,14.39,0,0,0-2.14-2.36,14.52,14.52,0,0,0-3.07-.84A14.7,14.7,0,0,0-15-124,14.52,14.52,0,0,0-14.21-127.1Z" transform="translate(921.17 390)"/><path class="cls-56" d="M9.9,80.94A14.22,14.22,0,0,0,12,83.3a14.52,14.52,0,0,0,3.07.84,14.63,14.63,0,0,0-2.36,2.13,15,15,0,0,0-.83,3.07A14.81,14.81,0,0,0,9.77,87a15,15,0,0,0-3.07-.83A14.81,14.81,0,0,0,9.06,84,14.52,14.52,0,0,0,9.9,80.94Z" transform="translate(921.17 390)"/><path class="cls-57" d="M-31.1,26.25a1.45,1.45,0,0,1-1.74-1.07,1.45,1.45,0,0,1,1.07-1.74A1.44,1.44,0,0,1-30,24.51,1.45,1.45,0,0,1-31.1,26.25Zm20.6,17.84A2.88,2.88,0,0,0-14,42a2.89,2.89,0,0,0-2.14,3.48,2.89,2.89,0,0,0,3.48,2.14A2.9,2.9,0,0,0-10.5,44.09Zm-.31-38.53a5.77,5.77,0,0,0-7-4.27,5.76,5.76,0,0,0-4.27,7,5.77,5.77,0,0,0,7,4.27A5.78,5.78,0,0,0-10.81,5.56Zm-52.38,8.57A2.89,2.89,0,0,0-66.67,12a2.88,2.88,0,0,0-2.14,3.48,2.89,2.89,0,0,0,3.48,2.14A2.89,2.89,0,0,0-63.19,14.13Z" transform="translate(921.17 390)"/><path class="cls-58" d="M28.05,221.52a14.36,14.36,0,0,0-3.18-.16,14.47,14.47,0,0,0-2.76,1.58,15,15,0,0,0,.16-3.18A15,15,0,0,0,20.69,217a14.91,14.91,0,0,0,3.17.16,14.85,14.85,0,0,0,2.77-1.58,14.26,14.26,0,0,0-.16,3.17A14.3,14.3,0,0,0,28.05,221.52Z" transform="translate(921.17 390)"/><path class="cls-59" d="M36.35,366.64a15,15,0,0,0-3.18-.16,14.94,14.94,0,0,0-2.76,1.59,14.36,14.36,0,0,0,.16-3.18A14.85,14.85,0,0,0,29,362.12a14.32,14.32,0,0,0,3.18.16,14.47,14.47,0,0,0,2.76-1.58,15,15,0,0,0-.16,3.18A14.69,14.69,0,0,0,36.35,366.64Z" transform="translate(921.17 390)"/><path class="cls-60" d="M26.64,301.77a1.45,1.45,0,1,1-.31-2A1.45,1.45,0,0,1,26.64,301.77Zm27.24.36a2.89,2.89,0,1,0,.61,4A2.9,2.9,0,0,0,53.88,302.13ZM28.81,272.88A5.77,5.77,0,1,0,30,281,5.77,5.77,0,0,0,28.81,272.88ZM-5.71,313.19a2.9,2.9,0,0,0-4,.61,2.88,2.88,0,0,0,.61,4,2.89,2.89,0,0,0,4-.61A2.9,2.9,0,0,0-5.71,313.19Z" transform="translate(921.17 390)"/><path class="cls-61" d="M-85.78.48A20.5,20.5,0,0,0-90.16.26,20.38,20.38,0,0,0-94,2.44a19.86,19.86,0,0,0,.22-4.38,19.83,19.83,0,0,0-2.18-3.81,19.9,19.9,0,0,0,4.38.22,19.83,19.83,0,0,0,3.81-2.18A20.55,20.55,0,0,0-88-3.33,20.38,20.38,0,0,0-85.78.48Z" transform="translate(921.17 390)"/><path class="cls-62" d="M53.19,490.39A2,2,0,1,1,53,493.2,2,2,0,0,1,53.19,490.39Zm-36.41-9.22a4,4,0,1,0,.48-5.6A4,4,0,0,0,16.78,481.17ZM41,528.43a8,8,0,1,0,1-11.22A8,8,0,0,0,41,528.43Zm59.21-43a4,4,0,1,0,.47-5.61A4,4,0,0,0,100.21,485.45Z" transform="translate(921.17 390)"/><path class="cls-63" d="M94.28,482.69a1.46,1.46,0,0,1-1.74-1.07,1.44,1.44,0,1,1,1.74,1.07Zm20.6,17.83a2.89,2.89,0,1,0-2.14,3.48A2.88,2.88,0,0,0,114.88,500.52ZM114.57,462a5.77,5.77,0,1,0-4.27,7A5.77,5.77,0,0,0,114.57,462Zm-52.38,8.57a2.89,2.89,0,1,0-2.14,3.48A2.89,2.89,0,0,0,62.19,470.57Z" transform="translate(921.17 390)"/><path class="cls-64" d="M39.6,456.92a20.5,20.5,0,0,0-4.38-.22,20.38,20.38,0,0,0-3.81,2.18,19.86,19.86,0,0,0,.22-4.38,19.83,19.83,0,0,0-2.18-3.81,19.9,19.9,0,0,0,4.38.22,19.83,19.83,0,0,0,3.81-2.18,20.55,20.55,0,0,0-.22,4.38A20.38,20.38,0,0,0,39.6,456.92Z" transform="translate(921.17 390)"/><path class="cls-5" d="M937.1,210.94s2.39-5.53,3.79-6.93,6.93-3.79,6.93-3.79-5.54-2.39-6.93-3.79-3.79-6.93-3.79-6.93-2.4,5.53-3.8,6.93-6.93,3.79-6.93,3.79,5.54,2.39,6.93,3.79S937.1,210.94,937.1,210.94Z" transform="translate(921.17 390)"/><path class="cls-6" d="M999.86,457.37s2.39-5.53,3.79-6.93,6.93-3.79,6.93-3.79-5.53-2.39-6.93-3.79-3.79-6.93-3.79-6.93-2.39,5.53-3.79,6.93-6.93,3.79-6.93,3.79,5.53,2.39,6.93,3.79S999.86,457.37,999.86,457.37Z" transform="translate(921.17 390)"/><path class="cls-6" d="M1186.12,121.83s4-9.22,6.32-11.55S1204,104,1204,104s-9.22-4-11.55-6.31-6.32-11.56-6.32-11.56-4,9.23-6.32,11.56-11.55,6.31-11.55,6.31,9.23,4,11.55,6.32S1186.12,121.83,1186.12,121.83Z" transform="translate(921.17 390)"/><path class="cls-5" d="M1157.27,210s1.74-4,2.75-5,5-2.75,5-2.75-4-1.74-5-2.75-2.75-5-2.75-5-1.73,4-2.75,5-5,2.75-5,2.75,4,1.73,5,2.75S1157.27,210,1157.27,210Z" transform="translate(921.17 390)"/><path class="cls-5" d="M1163,390.47s1.73-4,2.75-5,5-2.75,5-2.75-4-1.74-5-2.75-2.75-5-2.75-5-1.74,4-2.75,5-5,2.75-5,2.75,4,1.73,5,2.75S1163,390.47,1163,390.47Z" transform="translate(921.17 390)"/><path class="cls-6" d="M1137.77,55s2.9-6.69,4.59-8.38,8.38-4.58,8.38-4.58-6.69-2.9-8.38-4.59-4.59-8.38-4.59-8.38-2.89,6.69-4.58,8.38-8.38,4.59-8.38,4.59,6.69,2.89,8.38,4.58S1137.77,55,1137.77,55Z" transform="translate(921.17 390)"/><path class="cls-6" d="M971.58,530.37s2.69,6.78,2.69,9.17-2.69,9.16-2.69,9.16,6.79-2.68,9.17-2.68,9.17,2.68,9.17,2.68-2.68-6.78-2.68-9.16,2.68-9.17,2.68-9.17-6.78,2.68-9.17,2.68S971.58,530.37,971.58,530.37Z" transform="translate(921.17 390)"/><path class="cls-5" d="M1059.25-82.53s2.23,5.6,2.23,7.58-2.23,7.58-2.23,7.58,5.61-2.22,7.59-2.22,7.58,2.22,7.58,2.22-2.22-5.61-2.22-7.58,2.22-7.58,2.22-7.58-5.61,2.22-7.58,2.22S1059.25-82.53,1059.25-82.53Z" transform="translate(921.17 390)"/><path class="cls-7" d="M956.7-149.64s3.7,9.35,3.7,12.64-3.7,12.64-3.7,12.64,9.34-3.7,12.64-3.7,12.63,3.7,12.63,3.7-3.7-9.35-3.7-12.64,3.7-12.64,3.7-12.64-9.34,3.7-12.63,3.7S956.7-149.64,956.7-149.64Z" transform="translate(921.17 390)"/><path class="cls-65" d="M1210.3,493.2a19.86,19.86,0,0,0,2.11,3.84,19.87,19.87,0,0,0,3.85,2.11,7.8,7.8,0,0,0-6,6,20.57,20.57,0,0,0-2.1-3.85,20.57,20.57,0,0,0-3.85-2.1,20.17,20.17,0,0,0,3.85-2.11A20.25,20.25,0,0,0,1210.3,493.2Z" transform="translate(921.17 390)"/><path class="cls-66" d="M888.3,120.44a20.26,20.26,0,0,0,2.1,3.85,20.17,20.17,0,0,0,3.85,2.11,20.57,20.57,0,0,0-3.85,2.1,20.57,20.57,0,0,0-2.1,3.85,20.17,20.17,0,0,0-2.11-3.85,20.26,20.26,0,0,0-3.85-2.1,19.87,19.87,0,0,0,3.85-2.11A19.87,19.87,0,0,0,888.3,120.44Z" transform="translate(921.17 390)"/><path class="cls-67" d="M990.33,384.68a20.26,20.26,0,0,0,2.1,3.85,20.17,20.17,0,0,0,3.85,2.11,20.57,20.57,0,0,0-3.85,2.1,20.57,20.57,0,0,0-2.1,3.85,20.17,20.17,0,0,0-2.11-3.85,20.26,20.26,0,0,0-3.85-2.1,19.87,19.87,0,0,0,3.85-2.11A19.87,19.87,0,0,0,990.33,384.68Z" transform="translate(921.17 390)"/><path class="cls-68" d="M968.8,300.17a2,2,0,1,1,2-2A2,2,0,0,1,968.8,300.17Zm21.89,30.51a4,4,0,1,0-4,4A4,4,0,0,0,990.69,330.68Zm11.94-51.74a8,8,0,1,0-8,8A8,8,0,0,0,1002.63,278.94Zm-73-5.3a4,4,0,1,0-4,4A4,4,0,0,0,929.67,273.64Z" transform="translate(921.17 390)"/><path class="cls-69" d="M1156.08,337.73a14.21,14.21,0,0,0,1.53,2.79,14.78,14.78,0,0,0,2.79,1.53,14.59,14.59,0,0,0-2.79,1.52,14.51,14.51,0,0,0-1.53,2.8,15.1,15.1,0,0,0-1.53-2.8,14.59,14.59,0,0,0-2.79-1.52,14.78,14.78,0,0,0,2.79-1.53A14.78,14.78,0,0,0,1156.08,337.73Z" transform="translate(921.17 390)"/><path class="cls-70" d="M1144.82,276.93a1.45,1.45,0,1,1,1.45-1.44A1.44,1.44,0,0,1,1144.82,276.93Zm15.89,22.14a2.89,2.89,0,1,0-2.89,2.89A2.9,2.9,0,0,0,1160.71,299.07Zm8.66-37.54a5.78,5.78,0,1,0-5.78,5.78A5.77,5.77,0,0,0,1169.37,261.53Zm-52.94-3.85a2.89,2.89,0,1,0-2.89,2.89A2.9,2.9,0,0,0,1116.43,257.68Z" transform="translate(921.17 390)"/><path class="cls-71" d="M951,536.19a5.69,5.69,0,0,0-6.11,0,5.64,5.64,0,0,0,0-6.11,5.64,5.64,0,0,0,6.11,0,5.69,5.69,0,0,0,0,6.11Z" transform="translate(921.17 390)"/><path class="cls-72" d="M1034.78,535.87a5.64,5.64,0,0,0-6.11,0,5.64,5.64,0,0,0,0-6.11,5.69,5.69,0,0,0,6.11,0,5.69,5.69,0,0,0,0,6.11Z" transform="translate(921.17 390)"/><path class="cls-73" d="M956.65,470.84a1.44,1.44,0,1,1,.17-2A1.44,1.44,0,0,1,956.65,470.84Zm26.41,6.68a2.89,2.89,0,1,0-.34,4.07A2.89,2.89,0,0,0,983.06,477.52Zm-17.57-34.28a5.78,5.78,0,1,0-.69,8.14A5.77,5.77,0,0,0,965.49,443.24Zm-43,31.18a2.88,2.88,0,1,0-.34,4.07A2.9,2.9,0,0,0,922.53,474.42Z" transform="translate(921.17 390)"/><path class="cls-74" d="M1126.68-38.32a6,6,0,0,1-8.46,0,6,6,0,0,1,0-8.46,6,6,0,0,1,8.46,0A6,6,0,0,1,1126.68-38.32Z" transform="translate(921.17 390)"/><path class="cls-75" d="M947.84-340.73a20,20,0,0,0-4.21-1.24,20.24,20.24,0,0,0-4.21,1.24,20.24,20.24,0,0,0,1.24-4.21,20,20,0,0,0-1.24-4.21,20.37,20.37,0,0,0,4.21,1.23,20.17,20.17,0,0,0,4.21-1.23,20.17,20.17,0,0,0-1.23,4.21A20.37,20.37,0,0,0,947.84-340.73Z" transform="translate(921.17 390)"/><path class="cls-76" d="M928.35-141.61a20.37,20.37,0,0,0-4.21-1.23,20.17,20.17,0,0,0-4.21,1.23,20.17,20.17,0,0,0,1.23-4.21,20.17,20.17,0,0,0-1.23-4.21,20.17,20.17,0,0,0,4.21,1.23,20.23,20.23,0,0,0,4.2-1.23,20.17,20.17,0,0,0-1.23,4.21A20,20,0,0,0,928.35-141.61Z" transform="translate(921.17 390)"/><path class="cls-77" d="M1043.8-142.06a20.37,20.37,0,0,0-4.21-1.23,20.17,20.17,0,0,0-4.21,1.23,20.17,20.17,0,0,0,1.23-4.21,20.37,20.37,0,0,0-1.23-4.21,20,20,0,0,0,4.21,1.24,20.24,20.24,0,0,0,4.21-1.24,20.24,20.24,0,0,0-1.24,4.21A20,20,0,0,0,1043.8-142.06Z" transform="translate(921.17 390)"/><path class="cls-78" d="M1097.63,239.15a7.82,7.82,0,0,0-8.42,0,20,20,0,0,0,1.24-4.21,20.24,20.24,0,0,0-1.24-4.21,7.77,7.77,0,0,0,8.42,0,20.37,20.37,0,0,0-1.23,4.21A20.17,20.17,0,0,0,1097.63,239.15Z" transform="translate(921.17 390)"/><path class="cls-79" d="M1213.07-131.64a2,2,0,0,1,2.81,0,2,2,0,0,1,0,2.82,2,2,0,0,1-2.81,0A2,2,0,0,1,1213.07-131.64ZM1176-137.73a4,4,0,0,0,5.63,0,4,4,0,0,0,0-5.63,4,4,0,0,0-5.63,0A4,4,0,0,0,1176-137.73Zm28.14,45a8,8,0,0,0,11.26,0,8,8,0,0,0,0-11.25,8,8,0,0,0-11.26,0A8,8,0,0,0,1204.15-92.71Zm55.35-47.84a4,4,0,0,0,5.63,0,4,4,0,0,0,0-5.63,4,4,0,0,0-5.63,0A4,4,0,0,0,1259.5-140.55Z" transform="translate(921.17 390)"/><path class="cls-80" d="M936.12-231.68a2,2,0,0,1-2.81-.24,2,2,0,0,1,.24-2.8,2,2,0,0,1,2.81.23A2,2,0,0,1,936.12-231.68Zm36.4,9.22a4,4,0,0,0-5.61-.48,4,4,0,0,0-.48,5.61,4,4,0,0,0,5.61.48A4,4,0,0,0,972.52-222.46ZM948.3-269.71a8,8,0,0,0-11.22-1,8,8,0,0,0-1,11.22,8,8,0,0,0,11.21.95A8,8,0,0,0,948.3-269.71Z" transform="translate(921.17 390)"/><path class="cls-81" d="M1153.21,578.72a6,6,0,1,1,4.42-7.21A6,6,0,0,1,1153.21,578.72Z" transform="translate(921.17 390)"/><path class="cls-82" d="M1187.47,239.33a20.63,20.63,0,0,0-2.94-3.26,20.53,20.53,0,0,0-4.24-1.15,20.63,20.63,0,0,0,3.26-2.94,20.32,20.32,0,0,0,1.15-4.23,20.23,20.23,0,0,0,2.94,3.25,20.48,20.48,0,0,0,4.23,1.15,19.92,19.92,0,0,0-3.25,2.95A20.32,20.32,0,0,0,1187.47,239.33Z" transform="translate(921.17 390)"/><path class="cls-83" d="M1038.24,386.91a7.82,7.82,0,0,0-7.18-4.4,20.63,20.63,0,0,0,3.26-2.94,20.53,20.53,0,0,0,1.15-4.24,20.13,20.13,0,0,0,2.94,3.26,20.32,20.32,0,0,0,4.23,1.15,20.23,20.23,0,0,0-3.25,2.94A20.48,20.48,0,0,0,1038.24,386.91Z" transform="translate(921.17 390)"/><path class="cls-84" d="M1136.85,446.94a19.74,19.74,0,0,0-2.94-3.25,20.32,20.32,0,0,0-4.23-1.15,20.23,20.23,0,0,0,3.25-2.94,20.07,20.07,0,0,0,1.16-4.24,7.78,7.78,0,0,0,7.17,4.41,20.23,20.23,0,0,0-3.25,2.94A20,20,0,0,0,1136.85,446.94Z" transform="translate(921.17 390)"/><path class="cls-85" d="M909.43,446.56a7.78,7.78,0,0,0-7.17-4.41,20.23,20.23,0,0,0,3.25-2.94,20.32,20.32,0,0,0,1.15-4.23,20.23,20.23,0,0,0,2.94,3.25,20.53,20.53,0,0,0,4.24,1.15,20.63,20.63,0,0,0-3.26,2.94A20.53,20.53,0,0,0,909.43,446.56Z" transform="translate(921.17 390)"/><path class="cls-86" d="M965.93,521.93a2,2,0,0,1,2.4,1.48,2,2,0,1,1-2.4-1.48Zm-28.38-24.58a4,4,0,1,0,2.94-4.8A4,4,0,0,0,937.55,497.35Zm.42,53.1a8,8,0,1,0,5.89-9.6A8,8,0,0,0,938,550.45Zm72.19-11.81a4,4,0,1,0,3-4.8A4,4,0,0,0,1010.16,538.64Z" transform="translate(921.17 390)"/><path class="cls-87" d="M1183,19.88a2,2,0,1,1,1.67-2.26A2,2,0,0,1,1183,19.88Zm26.19,26.9a4,4,0,1,0-3.34,4.53A4,4,0,0,0,1209.23,46.78Zm4.09-52.94a8,8,0,0,0-9.06-6.68,8,8,0,0,0-6.68,9.06,8,8,0,0,0,9.06,6.68A8,8,0,0,0,1213.32-6.16ZM1140.38-.51a4,4,0,0,0-7.87,1.18A4,4,0,0,0,1137,4,4,4,0,0,0,1140.38-.51Z" transform="translate(921.17 390)"/><path class="cls-88" d="M1066.32,357.56a14.32,14.32,0,0,0,3.18.16,14.47,14.47,0,0,0,2.76-1.58,14.36,14.36,0,0,0-.16,3.18,14.47,14.47,0,0,0,1.58,2.76,5.66,5.66,0,0,0-5.94,1.42,15,15,0,0,0,.16-3.18A15,15,0,0,0,1066.32,357.56Z" transform="translate(921.17 390)"/><path class="cls-89" d="M1191.37,407.41a1.44,1.44,0,0,1-2.46-1.51,1.44,1.44,0,1,1,2.46,1.51Zm27.18-2a2.89,2.89,0,1,0,1,4A2.88,2.88,0,0,0,1218.55,405.46Zm-27.46-27a5.77,5.77,0,1,0,1.9,7.94A5.77,5.77,0,0,0,1191.09,378.43Zm-31,43.1a2.89,2.89,0,1,0,1,4A2.89,2.89,0,0,0,1160.11,421.53Z" transform="translate(921.17 390)"/><path class="cls-32" d="M634.36,351.5s4-9.23,6.31-11.55,11.56-6.32,11.56-6.32-9.23-4-11.56-6.32-6.31-11.55-6.31-11.55-4,9.22-6.32,11.55-11.55,6.32-11.55,6.32,9.22,4,11.55,6.32S634.36,351.5,634.36,351.5Z" transform="translate(921.17 390)"/><path class="cls-32" d="M832.64,411.34s1.61,4.07,1.61,5.51-1.61,5.5-1.61,5.5,4.07-1.62,5.5-1.62,5.5,1.62,5.5,1.62-1.61-4.07-1.61-5.5,1.61-5.51,1.61-5.51-4.07,1.62-5.5,1.62S832.64,411.34,832.64,411.34Z" transform="translate(921.17 390)"/><path class="cls-90" d="M660.08,365.87a19.87,19.87,0,0,0,2.11,3.85,19.86,19.86,0,0,0,3.84,2.11,20.25,20.25,0,0,0-3.84,2.1,20.17,20.17,0,0,0-2.11,3.85,20.57,20.57,0,0,0-2.1-3.85,20.57,20.57,0,0,0-3.85-2.1,20.17,20.17,0,0,0,3.85-2.11A20.26,20.26,0,0,0,660.08,365.87Z" transform="translate(921.17 390)"/><path class="cls-91" d="M590.9,424.07a2,2,0,1,1-2.16,1.81A2,2,0,0,1,590.9,424.07Zm-19.23-32.26a4,4,0,1,0,4.31-3.63A4,4,0,0,0,571.67,391.81Zm-16.28,50.54a8,8,0,1,0,8.6-7.26A7.95,7.95,0,0,0,555.39,442.35Zm72.25,11.47a4,4,0,1,0,4.3-3.62A4,4,0,0,0,627.64,453.82Z" transform="translate(921.17 390)"/><path class="cls-92" d="M825.87,524.67a7.78,7.78,0,0,0-7.18-4.41,20.63,20.63,0,0,0,3.26-2.94,20.48,20.48,0,0,0,1.15-4.23,20.23,20.23,0,0,0,2.94,3.25,20.48,20.48,0,0,0,4.23,1.15,20.23,20.23,0,0,0-3.25,2.94A20.53,20.53,0,0,0,825.87,524.67Z" transform="translate(921.17 390)"/><path class="cls-32" d="M709.31,442.73s1.74-4,2.75-5,5-2.75,5-2.75-4-1.74-5-2.75-2.75-5-2.75-5-1.73,4-2.75,5-5,2.75-5,2.75,4,1.73,5,2.75S709.31,442.73,709.31,442.73Z" transform="translate(921.17 390)"/><path class="cls-32" d="M727.5,529.77s2.9-6.69,4.59-8.38,8.38-4.58,8.38-4.58-6.69-2.9-8.38-4.59-4.59-8.38-4.59-8.38-2.89,6.69-4.58,8.38-8.38,4.59-8.38,4.59,6.69,2.89,8.38,4.58S727.5,529.77,727.5,529.77Z" transform="translate(921.17 390)"/><path class="cls-93" d="M720.79,529a14.36,14.36,0,0,0,3.18.16,14.15,14.15,0,0,0,2.76-1.58,14.51,14.51,0,0,0-.15,3.18,14.15,14.15,0,0,0,1.58,2.76,15,15,0,0,0-3.18-.16,14.76,14.76,0,0,0-2.77,1.59,5.68,5.68,0,0,0-1.42-6Z" transform="translate(921.17 390)"/><path class="cls-94" d="M722.21,448.77a1.44,1.44,0,1,1,.3,2A1.43,1.43,0,0,1,722.21,448.77ZM695,448.41a2.89,2.89,0,1,0-.61-4A2.89,2.89,0,0,0,695,448.41ZM720,477.66a5.77,5.77,0,1,0-1.22-8.07A5.77,5.77,0,0,0,720,477.66Zm34.53-40.31a2.89,2.89,0,1,0-.61-4A2.89,2.89,0,0,0,754.56,437.35Z" transform="translate(921.17 390)"/><path class="cls-95" d="M1106.38-257.18a6,6,0,0,1,8.22-2,6,6,0,0,1,2,8.23,6,6,0,0,1-8.22,2A6,6,0,0,1,1106.38-257.18Z" transform="translate(921.17 390)"/><path class="cls-96" d="M1140.58,75.74A20.55,20.55,0,0,0,1145,76a20.38,20.38,0,0,0,3.81-2.18,20.55,20.55,0,0,0-.22,4.38,20.38,20.38,0,0,0,2.18,3.81,19.86,19.86,0,0,0-4.38-.22,20.38,20.38,0,0,0-3.81,2.18,19.9,19.9,0,0,0,.22-4.38A19.83,19.83,0,0,0,1140.58,75.74Z" transform="translate(921.17 390)"/><path class="cls-97" d="M1127.17,127.84a20.55,20.55,0,0,0,4.38.22,20.38,20.38,0,0,0,3.81-2.18,20.55,20.55,0,0,0-.22,4.38,20.38,20.38,0,0,0,2.18,3.81,19.9,19.9,0,0,0-4.38-.22,19.83,19.83,0,0,0-3.81,2.18,19.9,19.9,0,0,0,.22-4.38A19.83,19.83,0,0,0,1127.17,127.84Z" transform="translate(921.17 390)"/><path class="cls-98" d="M985.05,117.58a2,2,0,1,1-.65-2.73A2,2,0,0,1,985.05,117.58Zm37.46-2.69a4,4,0,1,0,1.31,5.48A4,4,0,0,0,1022.51,114.89ZM984.67,77.65a8,8,0,1,0,2.62,10.95A8,8,0,0,0,984.67,77.65ZM942,137.05a4,4,0,1,0,1.31,5.47A4,4,0,0,0,942,137.05Z" transform="translate(921.17 390)"/><path class="cls-99" d="M1266.15,137.86a2,2,0,1,1,.42,2.78A2,2,0,0,1,1266.15,137.86Zm-37.54-.5a4,4,0,1,0-.84-5.56A4,4,0,0,0,1228.61,137.36Zm34.54,40.32a8,8,0,1,0-1.68-11.13A8,8,0,0,0,1263.15,177.68Zm47.59-55.56a4,4,0,1,0-.84-5.57A4,4,0,0,0,1310.74,122.12Z" transform="translate(921.17 390)"/><path class="cls-7" d="M855.7-150.36s2.4-5.53,3.79-6.93,6.93-3.79,6.93-3.79-5.53-2.39-6.93-3.79-3.79-6.93-3.79-6.93-2.39,5.53-3.79,6.93-6.93,3.79-6.93,3.79,5.53,2.39,6.93,3.79S855.7-150.36,855.7-150.36Z" transform="translate(921.17 390)"/><path class="cls-32" d="M693.71-96s1.74-4,2.75-5,5-2.75,5-2.75-4-1.74-5-2.75-2.75-5-2.75-5-1.74,4-2.75,5-5,2.75-5,2.75,4,1.73,5,2.75S693.71-96,693.71-96Z" transform="translate(921.17 390)"/><path class="cls-32" d="M766.84-3.93s2.89-6.7,4.58-8.38,8.38-4.59,8.38-4.59-6.69-2.89-8.38-4.58-4.58-8.39-4.58-8.39-2.9,6.7-4.59,8.39-8.38,4.58-8.38,4.58,6.69,2.9,8.38,4.59S766.84-3.93,766.84-3.93Z" transform="translate(921.17 390)"/><path class="cls-32" d="M661.33,455.66s2.9-6.69,4.59-8.38,8.38-4.58,8.38-4.58-6.7-2.9-8.38-4.59-4.59-8.38-4.59-8.38-2.89,6.69-4.58,8.38-8.39,4.59-8.39,4.59,6.7,2.89,8.39,4.58S661.33,455.66,661.33,455.66Z" transform="translate(921.17 390)"/><path class="cls-32" d="M721.41-162.88s2.9-6.69,4.59-8.38,8.38-4.58,8.38-4.58-6.69-2.9-8.38-4.59-4.59-8.38-4.59-8.38-2.89,6.69-4.58,8.38-8.38,4.59-8.38,4.59,6.69,2.89,8.38,4.58S721.41-162.88,721.41-162.88Z" transform="translate(921.17 390)"/><path class="cls-5" d="M858.5,356.68s2.22,5.61,2.22,7.58-2.22,7.58-2.22,7.58,5.61-2.22,7.58-2.22,7.58,2.22,7.58,2.22-2.22-5.6-2.22-7.58,2.22-7.58,2.22-7.58-5.6,2.22-7.58,2.22S858.5,356.68,858.5,356.68Z" transform="translate(921.17 390)"/><path class="cls-32" d="M756,289.58s3.7,9.35,3.7,12.64-3.7,12.63-3.7,12.63,9.34-3.7,12.63-3.7,12.64,3.7,12.64,3.7-3.7-9.34-3.7-12.63,3.7-12.64,3.7-12.64-9.34,3.7-12.64,3.7S756,289.58,756,289.58Z" transform="translate(921.17 390)"/><path class="cls-100" d="M806.9-240.86A19.87,19.87,0,0,0,809-237a19.87,19.87,0,0,0,3.85,2.11,20.26,20.26,0,0,0-3.85,2.1,20.17,20.17,0,0,0-2.11,3.85,20.57,20.57,0,0,0-2.1-3.85,20.57,20.57,0,0,0-3.85-2.1A20.17,20.17,0,0,0,804.8-237,20.26,20.26,0,0,0,806.9-240.86Z" transform="translate(921.17 390)"/><path class="cls-101" d="M838.54-58a2,2,0,0,1-2-2,2,2,0,0,1,2-2,2,2,0,0,1,2,2A2,2,0,0,1,838.54-58Zm21.89,30.51a4,4,0,0,0-4-4,4,4,0,0,0-4,4,4,4,0,0,0,4,4A4,4,0,0,0,860.43-27.53Zm11.94-51.74a8,8,0,0,0-8-8,8,8,0,0,0-8,8,8,8,0,0,0,8,8A8,8,0,0,0,872.37-79.27Zm-73-5.3a4,4,0,0,0-4-4,4,4,0,0,0-4,4,4,4,0,0,0,4,4A4,4,0,0,0,799.41-84.57Z" transform="translate(921.17 390)"/><path class="cls-102" d="M681.8-153.28a4.34,4.34,0,0,1,4.34,4.34,4.33,4.33,0,0,1-4.34,4.33,4.34,4.34,0,0,1-4.34-4.33A4.34,4.34,0,0,1,681.8-153.28Z" transform="translate(921.17 390)"/><path class="cls-103" d="M730.57,1.47a14.91,14.91,0,0,0,1.52,2.8,14.91,14.91,0,0,0,2.8,1.52,15.1,15.1,0,0,0-2.8,1.53,14.59,14.59,0,0,0-1.52,2.79A14.78,14.78,0,0,0,729,7.32a14.78,14.78,0,0,0-2.79-1.53A14.59,14.59,0,0,0,729,4.27,15.1,15.1,0,0,0,730.57,1.47Z" transform="translate(921.17 390)"/><path class="cls-104" d="M671.1-57.53a14.78,14.78,0,0,0,1.53,2.79,14.78,14.78,0,0,0,2.79,1.53,14.59,14.59,0,0,0-2.79,1.52,15.1,15.1,0,0,0-1.53,2.8,14.91,14.91,0,0,0-1.52-2.8,14.91,14.91,0,0,0-2.8-1.52,15.1,15.1,0,0,0,2.8-1.53A14.59,14.59,0,0,0,671.1-57.53Z" transform="translate(921.17 390)"/><path class="cls-105" d="M680.37,43.7A1.44,1.44,0,1,1,678.81,45,1.44,1.44,0,0,1,680.37,43.7Zm-14-23.41a2.89,2.89,0,1,0,3.12-2.63A2.88,2.88,0,0,0,666.42,20.29ZM654.6,57a5.78,5.78,0,1,0,6.25-5.26A5.79,5.79,0,0,0,654.6,57ZM707,65.29a2.89,2.89,0,1,0,3.12-2.63A2.88,2.88,0,0,0,707,65.29Z" transform="translate(921.17 390)"/><path class="cls-106" d="M763,100.42a7.82,7.82,0,0,0-8.42,0,20.17,20.17,0,0,0,1.23-4.21A20.17,20.17,0,0,0,754.57,92,7.82,7.82,0,0,0,763,92a20,20,0,0,0-1.24,4.21A20,20,0,0,0,763,100.42Z" transform="translate(921.17 390)"/><path class="cls-107" d="M727.59,297.61a7.77,7.77,0,0,0-8.42,0,20.24,20.24,0,0,0,1.24-4.21,20,20,0,0,0-1.24-4.21,7.82,7.82,0,0,0,8.42,0,20.17,20.17,0,0,0-1.23,4.21A20.37,20.37,0,0,0,727.59,297.61Z" transform="translate(921.17 390)"/><path class="cls-108" d="M843,297.16a7.82,7.82,0,0,0-8.42,0,20,20,0,0,0,1.24-4.21,20,20,0,0,0-1.24-4.21,7.82,7.82,0,0,0,8.42,0,20.17,20.17,0,0,0-1.23,4.21A20.17,20.17,0,0,0,843,297.16Z" transform="translate(921.17 390)"/><path class="cls-109" d="M805.43,177.86a2,2,0,1,1,.24-2.81A2,2,0,0,1,805.43,177.86Zm36.41,9.21a4,4,0,1,0-.48,5.61A4,4,0,0,0,841.84,187.07Zm-24.22-47.25a8,8,0,1,0-1,11.22A8,8,0,0,0,817.62,139.82Zm-59.21,43a4,4,0,1,0-.47,5.6A4,4,0,0,0,758.41,182.8Z" transform="translate(921.17 390)"/><path class="cls-110" d="M772.94-170.34A20.63,20.63,0,0,0,770-173.6a20.53,20.53,0,0,0-4.24-1.15,20.63,20.63,0,0,0,3.26-2.94,20.48,20.48,0,0,0,1.15-4.23,20.67,20.67,0,0,0,2.94,3.25,20.53,20.53,0,0,0,4.24,1.15,20.63,20.63,0,0,0-3.26,2.94A20.53,20.53,0,0,0,772.94-170.34Z" transform="translate(921.17 390)"/><path class="cls-111" d="M826.69-243a2,2,0,0,1-2.26-1.67A2,2,0,0,1,826.1-247a2,2,0,0,1,2.26,1.67A2,2,0,0,1,826.69-243Zm26.2,26.9a4,4,0,0,0-4.53-3.34,4,4,0,0,0-3.34,4.53,4,4,0,0,0,4.53,3.34A4,4,0,0,0,852.89-216.13ZM857-269.07a8,8,0,0,0-9.06-6.68,8,8,0,0,0-6.68,9.06,8,8,0,0,0,9.06,6.68A8,8,0,0,0,857-269.07ZM784-263.43a4,4,0,0,0-4.53-3.34,4,4,0,0,0-3.34,4.53,4,4,0,0,0,4.52,3.34A4,4,0,0,0,784-263.43Z" transform="translate(921.17 390)"/><path class="cls-112" d="M747.45,338.91a14.63,14.63,0,0,0-2.13-2.36,15,15,0,0,0-3.07-.83,14.81,14.81,0,0,0,2.36-2.14,14.82,14.82,0,0,0,.83-3.07,5.69,5.69,0,0,0,5.21,3.2,14.7,14.7,0,0,0-2.36,2.13A14.52,14.52,0,0,0,747.45,338.91Z" transform="translate(921.17 390)"/><path class="cls-113" d="M723.34,130.87a14.22,14.22,0,0,0-2.13-2.36,14.52,14.52,0,0,0-3.07-.84,14.63,14.63,0,0,0,2.36-2.13,15,15,0,0,0,.83-3.07,14.81,14.81,0,0,0,2.14,2.36,15,15,0,0,0,3.07.83,14.81,14.81,0,0,0-2.36,2.14A14.52,14.52,0,0,0,723.34,130.87Z" transform="translate(921.17 390)"/><path class="cls-114" d="M764.34,185.56a1.44,1.44,0,1,1-1.07,1.74A1.45,1.45,0,0,1,764.34,185.56Zm-20.6-17.84a2.89,2.89,0,1,0,2.14-3.48A2.88,2.88,0,0,0,743.74,167.72Zm.31,38.53a5.77,5.77,0,1,0,4.27-7A5.77,5.77,0,0,0,744.05,206.25Zm52.38-8.57a2.89,2.89,0,1,0,2.14-3.48A2.89,2.89,0,0,0,796.43,197.68Z" transform="translate(921.17 390)"/><path class="cls-115" d="M705.19-9.71a14.36,14.36,0,0,0,3.18.16,14.47,14.47,0,0,0,2.76-1.58A15,15,0,0,0,711-7.95a15,15,0,0,0,1.58,2.76,15,15,0,0,0-3.18-.16,15,15,0,0,0-2.76,1.58,14.26,14.26,0,0,0,.16-3.17A14.3,14.3,0,0,0,705.19-9.71Z" transform="translate(921.17 390)"/><path class="cls-116" d="M696.89-154.83a15,15,0,0,0,3.18.16,14.94,14.94,0,0,0,2.76-1.59,14.36,14.36,0,0,0-.16,3.18,14.3,14.3,0,0,0,1.58,2.77,14.32,14.32,0,0,0-3.18-.16,14.47,14.47,0,0,0-2.76,1.58,15,15,0,0,0,.16-3.18A14.69,14.69,0,0,0,696.89-154.83Z" transform="translate(921.17 390)"/><path class="cls-117" d="M706.6-90a1.45,1.45,0,0,1,2-.31,1.45,1.45,0,0,1,.31,2,1.44,1.44,0,0,1-2,.31A1.45,1.45,0,0,1,706.6-90Zm-27.24-.36a2.9,2.9,0,0,0,4-.61,2.9,2.9,0,0,0-.61-4,2.89,2.89,0,0,0-4,.61A2.89,2.89,0,0,0,679.36-90.32Zm25.07,29.25a5.77,5.77,0,0,0,8.07-1.21,5.77,5.77,0,0,0-1.22-8.08,5.77,5.77,0,0,0-8.07,1.22A5.76,5.76,0,0,0,704.43-61.07ZM739-101.38a2.9,2.9,0,0,0,4-.61,2.89,2.89,0,0,0-.61-4,2.89,2.89,0,0,0-4,.61A2.9,2.9,0,0,0,739-101.38Z" transform="translate(921.17 390)"/><path class="cls-118" d="M819,211.33a7.8,7.8,0,0,0,8.19-2,19.86,19.86,0,0,0-.22,4.38,19.83,19.83,0,0,0,2.18,3.81,7.8,7.8,0,0,0-8.19,2,20.55,20.55,0,0,0,.22-4.38A20.38,20.38,0,0,0,819,211.33Z" transform="translate(921.17 390)"/><path class="cls-119" d="M680.05-278.58a2,2,0,0,1-2.8-.24,2,2,0,0,1,.24-2.81,2,2,0,0,1,2.8.24A2,2,0,0,1,680.05-278.58Zm36.41,9.22a4,4,0,0,0-5.61-.48,4,4,0,0,0-.48,5.61,4,4,0,0,0,5.61.47A4,4,0,0,0,716.46-269.36Zm-24.22-47.26a8,8,0,0,0-11.22-.95,8,8,0,0,0-1,11.22,8,8,0,0,0,11.22,1A8,8,0,0,0,692.24-316.62Zm-59.21,43a4,4,0,0,0-5.61-.48,4,4,0,0,0-.47,5.61,4,4,0,0,0,5.6.48A4,4,0,0,0,633-273.64Z" transform="translate(921.17 390)"/><path class="cls-120" d="M639-270.88a1.46,1.46,0,0,1,1.74,1.07,1.44,1.44,0,0,1-1.07,1.74,1.44,1.44,0,0,1-1.74-1.07A1.44,1.44,0,0,1,639-270.88Zm-20.6-17.83a2.88,2.88,0,0,0,3.48,2.13,2.89,2.89,0,0,0,2.14-3.48,2.88,2.88,0,0,0-3.48-2.13A2.89,2.89,0,0,0,618.36-288.71Zm.31,38.52a5.77,5.77,0,0,0,7,4.27,5.77,5.77,0,0,0,4.27-7,5.78,5.78,0,0,0-7-4.27A5.78,5.78,0,0,0,618.67-250.19Zm52.38-8.57a2.89,2.89,0,0,0,3.48,2.14,2.89,2.89,0,0,0,2.14-3.48,2.89,2.89,0,0,0-3.48-2.14A2.89,2.89,0,0,0,671.05-258.76Z" transform="translate(921.17 390)"/><path class="cls-121" d="M693.64-245.11a20.5,20.5,0,0,0,4.38.22,20.38,20.38,0,0,0,3.81-2.18,19.86,19.86,0,0,0-.22,4.38,19.83,19.83,0,0,0,2.18,3.81,19.9,19.9,0,0,0-4.38-.22,19.83,19.83,0,0,0-3.81,2.18,20.55,20.55,0,0,0,.22-4.38A20.38,20.38,0,0,0,693.64-245.11Z" transform="translate(921.17 390)"/><path class="cls-122" d="M1583.45,902.93C1346,580,885.42,361.07,356.16,361.07-213.19,361.07-703,614.46-921.17,978v222.44H1583.45Z" transform="translate(921.17 390)"/><path class="cls-123" d="M1421.62,887.14C1214.83,606,813.79,415.31,352.93,415.31c-495.78,0-922.3,220.64-1112.28,537.24v193.69h2181Z" transform="translate(921.17 390)"/><path class="cls-124" d="M1300.69,892.37C1116.83,658.1,760.27,499.23,350.51,499.23c-440.79,0-820,183.84-988.93,447.64v161.39H1300.69Z" transform="translate(921.17 390)"/><path class="cls-125" d="M-326.53,694.66c-9.11,97.92,275.09,110.16,599.37,80.24s552,81.59,701.39-1.36c59.16-32.85,56.31-78.92,25.18-123.6C818.59,555.3,593.94,499.23,350.51,499.23c-252.22,0-484.25,60.21-668.29,161.13A119.22,119.22,0,0,0-326.53,694.66Z" transform="translate(921.17 390)"/><path class="cls-126" d="M788.05,644.63c-3,21.56-47,32.38-98.25,24.15s-90.45-32.37-87.48-53.94,47-32.38,98.24-24.16S791,623.06,788.05,644.63Zm-946.8-29.14c-48.42,20-81.81,52.73-74.58,73.09s52.34,20.65,100.76.65S-50.75,636.5-58,616.14-110.33,595.49-158.75,615.49ZM5.06,650.71C-29.83,664.16-54.16,687-49.3,701.62s37.07,15.65,72,2.21S81.87,667.59,77,652.92,39.94,637.26,5.06,650.71ZM83.42,543.8c-26.37,9-45.13,25.2-41.89,36.29s27.23,12.82,53.6,3.87,45.12-25.2,41.89-36.28S109.79,534.85,83.42,543.8ZM929.81,670.65c-25.27-12.07-49.3-13.25-53.66-2.62s12.58,29,37.86,41.11,49.3,13.25,53.67,2.63S955.09,682.73,929.81,670.65ZM809.69,716.31c-31.19-3.89-57.62,3.59-59,16.71s22.75,26.91,53.94,30.8,57.63-3.6,59-16.72S840.89,720.2,809.69,716.31Z" transform="translate(921.17 390)"/><path class="cls-127" d="M-117.7,687.77c-22.16,9.16-43.61,14.05-61.07,14.72a202.3,202.3,0,0,0,46.2-13.26c48.42-20,81.82-52.73,74.59-73.09-3.92-11-19-16.17-39.69-15.37,28.16-4.28,49.75.37,54.56,13.91C-35.88,635.05-69.27,667.77-117.7,687.77ZM48.58,641.28C63.52,641,74.36,644.91,77,652.92c4.86,14.67-19.47,37.46-54.35,50.91A149.65,149.65,0,0,1-6,711.8c12.42-.23,27.68-3.33,43.52-9.43,34.88-13.45,59.22-36.24,54.36-50.91C88.42,641,71,637.53,48.58,641.28Zm652-50.6c51.29,8.23,90.46,32.38,87.49,54-1.76,12.71-17.76,21.68-41.1,25.22,31.22-1.56,53.87-11.42,56-26.68,3-21.57-36.2-45.72-87.48-53.95-21.07-3.37-40.89-3.54-57.16-1.06A205,205,0,0,1,700.56,590.68Zm244.13,78.51c-19.27-9.2-37.78-12.05-47.44-8.19,9.36.81,20.81,4,32.57,9.65,25.27,12.08,42.22,30.49,37.86,41.12-1,2.52-3.22,4.36-6.23,5.57,10.77.93,18.77-1.35,21.1-7C986.92,699.68,970,681.27,944.69,669.19ZM824.57,714.85a115,115,0,0,0-34.08.5,127.44,127.44,0,0,1,19.2,1C840.89,720.2,865,734,863.64,747.1c-.84,7.82-10.62,13.62-25,16.22,22.16-.58,38.73-7.37,39.83-17.68C879.91,732.52,855.76,718.74,824.57,714.85ZM114.66,538.09c11.92,0,20.52,3.27,22.36,9.59C140.25,558.76,121.5,575,95.13,584a114.86,114.86,0,0,1-16.37,4.26c9,0,19.9-1.87,31.24-5.72,26.37-9,45.13-25.19,41.89-36.28C149.35,537.5,133.94,534.59,114.66,538.09Z" transform="translate(921.17 390)"/><path class="cls-128" d="M852.48,759.21c-9.65-5.16-22.8-9.24-37.58-11.08-19.45-2.42-37-.42-47.88,4.6,9.65,5.16,22.8,9.24,37.58,11.09C824.06,766.24,841.65,764.24,852.48,759.21Z" transform="translate(921.17 390)"/><path class="cls-129" d="M783.16,654.6c-14.56-14.11-43.29-26.62-77.39-32.09-42.61-6.84-80.16-.52-93.36,14.18C627,650.8,655.7,663.31,689.8,668.78,732.41,675.62,770,669.3,783.16,654.6Z" transform="translate(921.17 390)"/><path class="cls-130" d="M889.72,693.59A110.42,110.42,0,0,0,914,709.14c17.93,8.57,35.2,11.62,45.3,8.89A110.42,110.42,0,0,0,935,702.48C917.09,693.91,899.82,690.86,889.72,693.59Z" transform="translate(921.17 390)"/><path class="cls-131" d="M-224,698.79c17.12,9.36,53.23,6.21,91.41-9.56,33.5-13.84,59.8-33.77,70.44-51.48-17.12-9.35-53.23-6.21-91.41,9.57C-187,661.16-213.34,681.08-224,698.79Z" transform="translate(921.17 390)"/><path class="cls-132" d="M88.62,575.63a105.14,105.14,0,0,0-27.73,14c9.52.47,21.59-1.34,34.24-5.63a105.22,105.22,0,0,0,27.74-14C113.34,569.53,101.27,571.34,88.62,575.63Z" transform="translate(921.17 390)"/><path class="cls-133" d="M-35.91,711.73c13.59,3.54,35.47,1,58.57-7.9,20.09-7.75,36.64-18.59,46.17-29.2-13.59-3.54-35.47-1-58.57,7.9C-9.83,690.28-26.38,701.12-35.91,711.73Z" transform="translate(921.17 390)"/><ellipse class="cls-134" cx="-121.86" cy="723.71" rx="37.37" ry="15.28" transform="translate(676.03 390.24) rotate(-19.23)"/><ellipse class="cls-135" cx="607.58" cy="556.04" rx="15.37" ry="37.15" transform="translate(887.14 1462.43) rotate(-81.29)"/><path class="cls-136" d="M1069.34,732.34c-4.1,7.26-21.61,3.82-39.1-7.68s-28.34-26.71-24.23-34,21.6-3.82,39.09,7.69S1073.44,725.09,1069.34,732.34Z" transform="translate(921.17 390)"/><path class="cls-137" d="M692.64,570.35c-.45,3.57-7.81,5.43-16.42,4.15s-15.22-5.22-14.77-8.8,7.81-5.43,16.43-4.15S693.1,566.77,692.64,570.35Z" transform="translate(921.17 390)"/><path class="cls-138" d="M776.49,691.8c-.46,3.58-7.81,5.43-16.42,4.15s-15.23-5.22-14.77-8.79,7.81-5.43,16.42-4.15S777,688.23,776.49,691.8Z" transform="translate(921.17 390)"/><path class="cls-139" d="M858,611.24c-.45,3.57-7.81,5.43-16.42,4.15s-15.22-5.22-14.77-8.79,7.81-5.44,16.42-4.15S858.45,607.66,858,611.24Z" transform="translate(921.17 390)"/><path class="cls-140" d="M926.6,736.86c-1.24,3.35-8.79,3.25-16.87-.23s-13.61-9-12.38-12.35,8.79-3.25,16.87.22S927.84,733.5,926.6,736.86Z" transform="translate(921.17 390)"/><path class="cls-141" d="M908.63,640.47c-1.4,5.59-13.45,6.93-26.92,3s-23.25-11.65-21.85-17.24,13.46-6.93,26.93-3S910,634.88,908.63,640.47Z" transform="translate(921.17 390)"/><ellipse class="cls-142" cx="631.91" cy="673.84" rx="10.46" ry="25.32" transform="translate(778.78 1567.64) rotate(-79.89)"/><path class="cls-143" d="M101.61,607.16c1.2,5.06-7.7,11.88-19.87,15.25s-23,2-24.22-3,7.69-11.88,19.87-15.25S100.41,602.11,101.61,607.16Z" transform="translate(921.17 390)"/><path class="cls-144" d="M89.05,703.1c1.2,5-7.69,11.87-19.87,15.24s-23,2-24.22-3.05,7.7-11.88,19.87-15.24S87.85,698.05,89.05,703.1Z" transform="translate(921.17 390)"/><path class="cls-145" d="M114.09,679.67c.75,3.15-4.79,7.4-12.38,9.5s-14.33,1.24-15.08-1.9,4.79-7.4,12.38-9.5S113.34,676.52,114.09,679.67Z" transform="translate(921.17 390)"/><path class="cls-146" d="M39.3,553.22c.75,3.14-4.8,7.39-12.38,9.49s-14.34,1.25-15.09-1.9,4.8-7.4,12.38-9.5S38.55,550.07,39.3,553.22Z" transform="translate(921.17 390)"/><path class="cls-147" d="M-56.71,679.67c.75,3.15-4.8,7.4-12.38,9.5s-14.34,1.24-15.09-1.9,4.8-7.4,12.38-9.5S-57.46,676.52-56.71,679.67Z" transform="translate(921.17 390)"/><ellipse class="cls-148" cx="171.76" cy="605.95" rx="37.37" ry="15.28" transform="translate(731.19 480.37) rotate(-19.23)"/><path class="cls-149" d="M236.91,561.91c.75,3.15-4.8,7.4-12.38,9.5s-14.34,1.24-15.09-1.91,4.8-7.39,12.38-9.49S236.16,558.76,236.91,561.91Z" transform="translate(921.17 390)"/><path class="cls-150" d="M-51.41,577.82c.75,3.15-4.79,7.4-12.38,9.5s-14.33,1.24-15.08-1.9,4.79-7.4,12.38-9.5S-52.16,574.67-51.41,577.82Z" transform="translate(921.17 390)"/></g></g></g></svg>