<svg xmlns="http://www.w3.org/2000/svg" viewBox="0 0 62.98 62.98"><defs><style>.cls-1{isolation:isolate;}.cls-2{fill:#eb5b2c;}.cls-3{fill:#f9b654;}.cls-4,.cls-6{fill:#736759;}.cls-5{fill:#5b4a43;}.cls-6{opacity:0.5;mix-blend-mode:multiply;}</style></defs><g class="cls-1"><g id="Слой_2" data-name="Слой 2"><g id="Слой_1-2" data-name="Слой 1">
<path class="cls-2" d="M23.36,59A13.68,13.68,0,0,1,4,39.63C9.35,34.28,63,0,63,0S28.7,53.63,23.36,59Z">
<animate attributeName="d" values="M 23.36 59 C 20.79 61.553 17.308 62.984 13.685 62.978 C 10.063 62.971 6.587 61.527 4.026 58.964 C 1.465 56.402 0.022 52.925 0.017 49.303 C 0.013 45.68 1.446 42.199 4 39.63 C 9.35 34.28 63 0 63 0 C 63 0 28.7 53.63 23.36 59 Z; M 23.4 59 C 20.7 61.65 17.175 62.975 13.662 62.975 C 10.15 62.975 6.65 61.65 4 59 C 1.35 56.35 0.025 52.85 0.025 49.337 C 0.025 45.825 1.35 42.3 4 39.6 C 9.4 34.3 53.4 10 53.4 10 C 53.4 10 28.7 53.6 23.4 59 Z" dur="0.3s" repeatCount="indefinite"/>
</path>
<path class="cls-3" d="M21.49,55.74A10.07,10.07,0,1,1,7.24,41.5c3.94-3.94,33.09-18.85,33.09-18.85S25.42,51.81,21.49,55.74Z"/><path class="cls-4" d="M15.69,55.27h0a.58.58,0,0,1,.39-.29,6.87,6.87,0,0,0,1.69-.7.61.61,0,0,1,.48-.07h0a1.47,1.47,0,0,0,1.8-1.8h0a.58.58,0,0,1,.07-.48,7.28,7.28,0,0,0,.7-1.69.58.58,0,0,1,.29-.39h0a1.47,1.47,0,0,0,0-2.55h0a.63.63,0,0,1-.29-.39,6.93,6.93,0,0,0-.7-1.69.59.59,0,0,1-.07-.48h0a1.47,1.47,0,0,0-1.8-1.8h0a.66.66,0,0,1-.48-.07,6.5,6.5,0,0,0-1.69-.7.61.61,0,0,1-.39-.29h0a1.47,1.47,0,0,0-2.55,0h0a.62.62,0,0,1-.38.29,6.23,6.23,0,0,0-1.69.7.68.68,0,0,1-.48.07h0a1.47,1.47,0,0,0-1.81,1.8h0a.59.59,0,0,1-.07.48A6.53,6.53,0,0,0,8,46.91a.71.71,0,0,1-.29.39h0a1.47,1.47,0,0,0,0,2.55h0a.65.65,0,0,1,.29.39,6.83,6.83,0,0,0,.69,1.69.58.58,0,0,1,.07.48h0a1.48,1.48,0,0,0,1.81,1.8h0a.63.63,0,0,1,.48.07,6.56,6.56,0,0,0,1.69.7.59.59,0,0,1,.38.29h0A1.47,1.47,0,0,0,15.69,55.27Z"/><circle class="cls-5" cx="15.01" cy="47.54" r="1.55"/><circle class="cls-5" cx="14.34" cy="52.97" r="1.55"/><circle class="cls-5" cx="17.7" cy="44.57" r="0.83"/><path class="cls-5" d="M11.82,46a.85.85,0,0,1-1.18,0,.83.83,0,0,1,1.18-1.18A.85.85,0,0,1,11.82,46Z"/><path class="cls-5" d="M11.66,50.74a1.48,1.48,0,0,1-2.08,0,1.47,1.47,0,1,1,2.08,0Z"/><circle class="cls-5" cx="19.08" cy="49.41" r="0.83"/><path class="cls-6" d="M20.05,52.41h0a.58.58,0,0,1,.07-.48,7.28,7.28,0,0,0,.7-1.69s0,0,0,0c-.8.95-3.31,3.47-6.8,2.6a8.7,8.7,0,0,1-6-5.89.71.71,0,0,1-.29.39h0a1.47,1.47,0,0,0,0,2.55h0a.65.65,0,0,1,.29.39,6.83,6.83,0,0,0,.69,1.69.58.58,0,0,1,.07.48h0a1.48,1.48,0,0,0,1.81,1.8.63.63,0,0,1,.48.07,6.56,6.56,0,0,0,1.69.7.59.59,0,0,1,.38.29h0a1.47,1.47,0,0,0,2.55,0h0a.58.58,0,0,1,.39-.29,6.87,6.87,0,0,0,1.69-.7.61.61,0,0,1,.48-.07h0A1.47,1.47,0,0,0,20.05,52.41Z"/></g></g></g></svg>