<svg xmlns="http://www.w3.org/2000/svg" xmlns:xlink="http://www.w3.org/1999/xlink" viewBox="0 0 1339.42 728.28"><defs><style>.cls-1{fill:none;}.cls-2{isolation:isolate;}.cls-3{clip-path:url(#clip-path);}.cls-4{opacity:0.5;fill:url(#Degradado_sin_nombre_12);}.cls-10,.cls-100,.cls-101,.cls-102,.cls-103,.cls-104,.cls-105,.cls-106,.cls-107,.cls-108,.cls-109,.cls-11,.cls-110,.cls-111,.cls-112,.cls-113,.cls-114,.cls-115,.cls-116,.cls-117,.cls-118,.cls-119,.cls-12,.cls-120,.cls-121,.cls-122,.cls-123,.cls-124,.cls-125,.cls-13,.cls-14,.cls-15,.cls-16,.cls-17,.cls-18,.cls-19,.cls-20,.cls-21,.cls-22,.cls-23,.cls-24,.cls-25,.cls-26,.cls-27,.cls-28,.cls-29,.cls-30,.cls-31,.cls-32,.cls-33,.cls-34,.cls-35,.cls-36,.cls-37,.cls-38,.cls-39,.cls-4,.cls-40,.cls-41,.cls-42,.cls-43,.cls-44,.cls-45,.cls-46,.cls-47,.cls-48,.cls-49,.cls-5,.cls-50,.cls-51,.cls-52,.cls-53,.cls-54,.cls-55,.cls-56,.cls-57,.cls-58,.cls-59,.cls-6,.cls-60,.cls-61,.cls-62,.cls-63,.cls-64,.cls-65,.cls-66,.cls-67,.cls-68,.cls-69,.cls-7,.cls-70,.cls-71,.cls-72,.cls-73,.cls-74,.cls-75,.cls-76,.cls-77,.cls-78,.cls-79,.cls-8,.cls-80,.cls-81,.cls-82,.cls-83,.cls-84,.cls-85,.cls-86,.cls-87,.cls-88,.cls-89,.cls-9,.cls-90,.cls-91,.cls-92,.cls-93,.cls-94,.cls-95,.cls-96,.cls-97,.cls-98,.cls-99{mix-blend-mode:screen;}.cls-5{fill:url(#Degradado_sin_nombre_12-2);}.cls-6{fill:url(#Degradado_sin_nombre_12-3);}.cls-7{fill:url(#Degradado_sin_nombre_12-4);}.cls-8{fill:url(#Degradado_sin_nombre_12-5);}.cls-9{fill:url(#Degradado_sin_nombre_12-6);}.cls-10{fill:url(#Degradado_sin_nombre_12-7);}.cls-11{fill:url(#Degradado_sin_nombre_12-8);}.cls-12{fill:url(#Degradado_sin_nombre_12-9);}.cls-13{fill:url(#Degradado_sin_nombre_12-10);}.cls-14{fill:url(#Degradado_sin_nombre_12-11);}.cls-15{fill:url(#Degradado_sin_nombre_12-12);}.cls-16{fill:url(#Degradado_sin_nombre_12-13);}.cls-17{fill:url(#Degradado_sin_nombre_12-14);}.cls-18{fill:url(#Degradado_sin_nombre_12-15);}.cls-19{fill:url(#Degradado_sin_nombre_12-17);}.cls-20{opacity:0.4;fill:url(#Degradado_sin_nombre_12-18);}.cls-21{fill:url(#Degradado_sin_nombre_12-19);}.cls-22,.cls-23{opacity:0.6;}.cls-22{fill:url(#Degradado_sin_nombre_12-20);}.cls-23{fill:url(#Degradado_sin_nombre_12-21);}.cls-24{fill:url(#Degradado_sin_nombre_12-22);}.cls-25{fill:url(#Degradado_sin_nombre_12-23);}.cls-26{fill:url(#Degradado_sin_nombre_12-24);}.cls-27{fill:url(#Degradado_sin_nombre_12-25);}.cls-28{fill:url(#Degradado_sin_nombre_12-26);}.cls-29{fill:url(#Degradado_sin_nombre_12-27);}.cls-30{fill:url(#Degradado_sin_nombre_12-28);}.cls-31{fill:url(#Degradado_sin_nombre_12-29);}.cls-32{fill:url(#Degradado_sin_nombre_12-30);}.cls-33{fill:url(#Degradado_sin_nombre_12-31);}.cls-34{fill:url(#Degradado_sin_nombre_12-32);}.cls-35{fill:url(#Degradado_sin_nombre_12-33);}.cls-36{fill:url(#Degradado_sin_nombre_12-34);}.cls-37{fill:url(#Degradado_sin_nombre_12-35);}.cls-38{fill:url(#Degradado_sin_nombre_12-36);}.cls-39{fill:url(#Degradado_sin_nombre_12-37);}.cls-40{fill:url(#Degradado_sin_nombre_12-38);}.cls-41{fill:url(#Degradado_sin_nombre_12-39);}.cls-42{fill:url(#Degradado_sin_nombre_12-40);}.cls-43{fill:url(#Degradado_sin_nombre_12-41);}.cls-44{fill:url(#Degradado_sin_nombre_12-42);}.cls-45{fill:url(#Degradado_sin_nombre_12-43);}.cls-46{fill:url(#Degradado_sin_nombre_12-44);}.cls-47{fill:url(#Degradado_sin_nombre_12-45);}.cls-48{fill:url(#Degradado_sin_nombre_12-46);}.cls-49{fill:url(#Degradado_sin_nombre_12-47);}.cls-50{fill:url(#Degradado_sin_nombre_12-48);}.cls-51{fill:url(#Degradado_sin_nombre_12-49);}.cls-52{fill:url(#Degradado_sin_nombre_12-50);}.cls-53{fill:url(#Degradado_sin_nombre_12-51);}.cls-54{fill:url(#Degradado_sin_nombre_12-52);}.cls-55{fill:url(#Degradado_sin_nombre_12-53);}.cls-56{fill:url(#Degradado_sin_nombre_12-54);}.cls-57{fill:url(#Degradado_sin_nombre_12-55);}.cls-58{fill:url(#Degradado_sin_nombre_12-56);}.cls-59{fill:url(#Degradado_sin_nombre_12-57);}.cls-60{fill:url(#Degradado_sin_nombre_12-58);}.cls-61{fill:url(#Degradado_sin_nombre_12-59);}.cls-62{fill:url(#Degradado_sin_nombre_12-60);}.cls-63{fill:url(#Degradado_sin_nombre_12-61);}.cls-64{fill:url(#Degradado_sin_nombre_12-62);}.cls-65{fill:url(#Degradado_sin_nombre_12-63);}.cls-66{fill:url(#Degradado_sin_nombre_12-64);}.cls-67{fill:url(#Degradado_sin_nombre_12-65);}.cls-68{fill:url(#Degradado_sin_nombre_12-66);}.cls-69{fill:url(#Degradado_sin_nombre_12-67);}.cls-70{fill:url(#Degradado_sin_nombre_12-68);}.cls-71{fill:url(#Degradado_sin_nombre_12-69);}.cls-72{fill:url(#Degradado_sin_nombre_12-70);}.cls-73{fill:url(#Degradado_sin_nombre_12-71);}.cls-74{fill:url(#Degradado_sin_nombre_12-72);}.cls-75{fill:url(#Degradado_sin_nombre_12-73);}.cls-76{fill:url(#Degradado_sin_nombre_12-74);}.cls-77{fill:url(#Degradado_sin_nombre_12-75);}.cls-78{fill:url(#Degradado_sin_nombre_12-76);}.cls-79{fill:url(#Degradado_sin_nombre_12-77);}.cls-80{fill:url(#Degradado_sin_nombre_12-78);}.cls-81{fill:url(#Degradado_sin_nombre_12-79);}.cls-82{fill:url(#Degradado_sin_nombre_12-80);}.cls-83{fill:url(#Degradado_sin_nombre_12-81);}.cls-84{fill:url(#Degradado_sin_nombre_12-82);}.cls-85{fill:url(#Degradado_sin_nombre_12-83);}.cls-86{fill:url(#Degradado_sin_nombre_12-84);}.cls-87{fill:url(#Degradado_sin_nombre_12-85);}.cls-88{fill:url(#Degradado_sin_nombre_12-86);}.cls-89{fill:url(#Degradado_sin_nombre_12-87);}.cls-90{fill:url(#Degradado_sin_nombre_12-88);}.cls-91{fill:url(#Degradado_sin_nombre_12-89);}.cls-92{fill:url(#Degradado_sin_nombre_12-90);}.cls-93{fill:url(#Degradado_sin_nombre_12-91);}.cls-94{fill:url(#Degradado_sin_nombre_12-92);}.cls-95{fill:url(#Degradado_sin_nombre_12-93);}.cls-96{fill:url(#Degradado_sin_nombre_12-94);}.cls-97{fill:url(#Degradado_sin_nombre_12-95);}.cls-98{fill:url(#Degradado_sin_nombre_12-96);}.cls-99{fill:url(#Degradado_sin_nombre_12-97);}.cls-100{fill:url(#Degradado_sin_nombre_12-98);}.cls-101{fill:url(#Degradado_sin_nombre_12-99);}.cls-102{fill:url(#Degradado_sin_nombre_12-100);}.cls-103{fill:url(#Degradado_sin_nombre_12-101);}.cls-104{fill:url(#Degradado_sin_nombre_12-102);}.cls-105{fill:url(#Degradado_sin_nombre_12-103);}.cls-106{fill:url(#Degradado_sin_nombre_12-104);}.cls-107{fill:url(#Degradado_sin_nombre_12-105);}.cls-108{fill:url(#Degradado_sin_nombre_12-106);}.cls-109{fill:url(#Degradado_sin_nombre_12-107);}.cls-110{fill:url(#Degradado_sin_nombre_12-108);}.cls-111{fill:url(#Degradado_sin_nombre_12-109);}.cls-112{fill:url(#Degradado_sin_nombre_12-110);}.cls-113{fill:url(#Degradado_sin_nombre_12-111);}.cls-114{fill:url(#Degradado_sin_nombre_12-112);}.cls-115{fill:url(#Degradado_sin_nombre_12-113);}.cls-116{fill:url(#Degradado_sin_nombre_12-114);}.cls-117{fill:url(#Degradado_sin_nombre_12-115);}.cls-118{fill:url(#Degradado_sin_nombre_12-116);}.cls-119{fill:url(#Degradado_sin_nombre_12-117);}.cls-120{fill:url(#Degradado_sin_nombre_12-118);}.cls-121{fill:url(#Degradado_sin_nombre_12-119);}.cls-122{fill:url(#Degradado_sin_nombre_12-120);}.cls-123{fill:url(#Degradado_sin_nombre_12-121);}.cls-124{fill:url(#Degradado_sin_nombre_12-122);}.cls-125{fill:url(#Degradado_sin_nombre_12-123);}.cls-126{fill:#fff;}</style><clipPath id="clip-path" transform="translate(296.22 228.28)"><rect class="cls-1" width="750" height="500"/></clipPath><radialGradient id="Degradado_sin_nombre_12" cx="447.84" cy="433.65" fy="497.1274238743685" r="63.67" gradientTransform="matrix(0, 0.91, -4.11, 0, 2268.11, -205.62)" gradientUnits="userSpaceOnUse"><stop offset="0" stop-color="#fff"/><stop offset="0.01" stop-color="#fffbf6" stop-opacity="0.96"/><stop offset="0.05" stop-color="#ffe7c8" stop-opacity="0.78"/><stop offset="0.09" stop-color="#ffd49d" stop-opacity="0.61"/><stop offset="0.14" stop-color="#ffc477" stop-opacity="0.47"/><stop offset="0.2" stop-color="#ffb657" stop-opacity="0.34"/><stop offset="0.25" stop-color="#ffaa3b" stop-opacity="0.23"/><stop offset="0.32" stop-color="#ffa025" stop-opacity="0.15"/><stop offset="0.4" stop-color="#ff9914" stop-opacity="0.08"/><stop offset="0.49" stop-color="#ff9409" stop-opacity="0.03"/><stop offset="0.63" stop-color="#ff9102" stop-opacity="0.01"/><stop offset="1" stop-color="#ff9000" stop-opacity="0"/></radialGradient><radialGradient id="Degradado_sin_nombre_12-2" cx="374.66" cy="436.33" fy="436.33074999999917" r="63.67" gradientTransform="translate(418.27 -137.12) rotate(45)" xlink:href="#Degradado_sin_nombre_12"/><radialGradient id="Degradado_sin_nombre_12-3" cx="651.42" cy="790.65" fy="790.6513336111093" r="63.67" gradientTransform="translate(-76.37 436.91) scale(1.15 0.29)" xlink:href="#Degradado_sin_nombre_12"/><radialGradient id="Degradado_sin_nombre_12-4" cx="1599.31" cy="790.65" fy="790.6513336111093" r="63.67" gradientTransform="translate(-3031.53 436.91) scale(2.31 0.29)" xlink:href="#Degradado_sin_nombre_12"/><radialGradient id="Degradado_sin_nombre_12-5" cx="2070.92" cy="790.65" fy="790.6513336111093" r="63.67" gradientTransform="translate(-9036.35 436.91) scale(4.69 0.29)" xlink:href="#Degradado_sin_nombre_12"/><radialGradient id="Degradado_sin_nombre_12-6" cx="-880.15" cy="226.79" fy="290.25747020982914" r="63.67" gradientTransform="translate(1227.31 -188.31) scale(0.63 2.94)" xlink:href="#Degradado_sin_nombre_12"/><radialGradient id="Degradado_sin_nombre_12-7" cx="-6066.61" cy="378.56" fy="442.0369846298412" r="63.67" gradientTransform="matrix(0, 0.24, -2.94, 0, 1525.62, 1721.55)" xlink:href="#Degradado_sin_nombre_12"/><radialGradient id="Degradado_sin_nombre_12-8" cx="-4982.9" cy="-106.6" fy="-43.124519983294704" r="63.67" gradientTransform="matrix(0.24, 0, 0, 4.11, 1424.46, 664.65)" xlink:href="#Degradado_sin_nombre_12"/><radialGradient id="Degradado_sin_nombre_12-9" cx="351.9" cy="-236.38" fy="-172.912573969287" r="63.67" gradientTransform="matrix(0.63, 0, 0, 4.73, -101.42, 1392.1)" xlink:href="#Degradado_sin_nombre_12"/><radialGradient id="Degradado_sin_nombre_12-10" cx="-5315.98" cy="-201.79" fy="-138.31622102967066" r="63.67" gradientTransform="matrix(0.2, 0, 0, 4.73, 1194.4, 1201.21)" xlink:href="#Degradado_sin_nombre_12"/><radialGradient id="Degradado_sin_nombre_12-11" cx="2393.45" cy="834.85" fy="898.3210530490978" r="63.67" gradientTransform="matrix(0, 0.63, -3.04, 0, 3107.27, -1107.07)" xlink:href="#Degradado_sin_nombre_12"/><radialGradient id="Degradado_sin_nombre_12-12" cx="1181.72" cy="-451.35" fy="-387.8713157040749" r="63.67" gradientTransform="matrix(0.63, 0, 0, 3.34, -568.59, 1861.81)" xlink:href="#Degradado_sin_nombre_12"/><radialGradient id="Degradado_sin_nombre_12-13" cx="-214.83" cy="-102.09" fy="-38.61945091692994" r="63.67" gradientTransform="matrix(0.71, 0, 0, 2.59, 471.86, 545.44)" xlink:href="#Degradado_sin_nombre_12"/><radialGradient id="Degradado_sin_nombre_12-14" cx="444.96" cy="-430.54" fy="-367.06922609311516" r="63.67" gradientTransform="matrix(0.71, 0, 0, 2.59, -60.06, 1435.18)" xlink:href="#Degradado_sin_nombre_12"/><radialGradient id="Degradado_sin_nombre_12-15" cx="1866.17" cy="930.46" fy="993.9376457721917" r="63.67" gradientTransform="matrix(0, 0.71, -2.59, 0, 2936.74, -947.94)" xlink:href="#Degradado_sin_nombre_12"/><radialGradient id="Degradado_sin_nombre_12-17" cx="-1627.58" cy="1243.82" fy="1307.2928296275202" r="63.67" gradientTransform="matrix(0.05, 0.13, -1.73, 0.7, 2715.5, -266.13)" xlink:href="#Degradado_sin_nombre_12"/><radialGradient id="Degradado_sin_nombre_12-18" cx="580.35" cy="554.64" fy="618.1162554629786" r="63.67" gradientTransform="matrix(0, 0.64, -4.08, 0, 2832.95, -106.06)" xlink:href="#Degradado_sin_nombre_12"/><radialGradient id="Degradado_sin_nombre_12-19" cx="-962.25" cy="516.36" fy="579.8276296134411" r="63.67" gradientTransform="matrix(0, 0.41, -4.08, 0, 2655.32, 639.11)" xlink:href="#Degradado_sin_nombre_12"/><radialGradient id="Degradado_sin_nombre_12-20" cx="-6394.74" cy="439.06" fy="502.5260306917368" r="63.67" gradientTransform="matrix(0, 0.2, -4.08, 0, 2300.04, 1463.39)" xlink:href="#Degradado_sin_nombre_12"/><radialGradient id="Degradado_sin_nombre_12-21" cx="-7326.09" cy="360.41" fy="423.88530584274224" r="63.67" gradientTransform="matrix(0, 0.2, -4.08, 0, 1939.22, 1626.04)" xlink:href="#Degradado_sin_nombre_12"/><radialGradient id="Degradado_sin_nombre_12-22" cx="184.11" cy="594.71" fy="658.1803095970938" r="63.67" gradientTransform="matrix(0, 0.41, -4.08, 0, 3019.8, 218.15)" xlink:href="#Degradado_sin_nombre_12"/><radialGradient id="Degradado_sin_nombre_12-23" cx="184.26" cy="485.07" fy="548.5460695754927" r="63.67" gradientTransform="matrix(0, 0.41, -5.3, 0, 3228.92, 175.58)" xlink:href="#Degradado_sin_nombre_12"/><radialGradient id="Degradado_sin_nombre_12-24" cx="-2491.57" cy="495.94" fy="559.4117890434421" r="63.67" gradientTransform="matrix(0.08, 0.15, -4.61, 2.61, 3161.8, -662.94)" xlink:href="#Degradado_sin_nombre_12"/><radialGradient id="Degradado_sin_nombre_12-25" cx="-2407.14" cy="59.5" fy="122.9746967842145" r="63.67" gradientTransform="matrix(0.41, 0, 0, 5.3, 1286.91, -207.01)" xlink:href="#Degradado_sin_nombre_12"/><radialGradient id="Degradado_sin_nombre_12-26" cx="-9695.26" cy="83.98" fy="147.44518448816638" r="63.66" gradientTransform="matrix(0.17, -0.03, 0.93, 5.22, 1838.74, -620.28)" xlink:href="#Degradado_sin_nombre_12"/><radialGradient id="Degradado_sin_nombre_12-27" cx="-1151.36" cy="568.78" fy="632.2536188847279" r="63.67" gradientTransform="matrix(0, 0.41, -3.28, 0, 2370.23, 746.4)" xlink:href="#Degradado_sin_nombre_12"/><radialGradient id="Degradado_sin_nombre_12-28" cx="-5932.09" cy="419.23" fy="482.7047378163172" r="63.67" gradientTransform="matrix(0.13, 0.11, -3.52, 3.96, 2819.86, -815.46)" xlink:href="#Degradado_sin_nombre_12"/><radialGradient id="Degradado_sin_nombre_12-29" cx="379.24" cy="-402.8" fy="-339.33404675845327" r="63.67" gradientTransform="matrix(0.17, 0, 0, 4.11, 49.88, 2077.6)" xlink:href="#Degradado_sin_nombre_12"/><radialGradient id="Degradado_sin_nombre_12-30" cx="-3943.6" cy="473.08" fy="536.5587362631313" r="63.67" gradientTransform="matrix(0, 0.17, -5.3, 0, 3153.3, 895.93)" xlink:href="#Degradado_sin_nombre_12"/><radialGradient id="Degradado_sin_nombre_12-31" cx="1015.41" cy="-273.71" fy="-210.23992034375573" r="63.67" gradientTransform="matrix(0.41, 0, 0, 5.3, -376.49, 1828.87)" xlink:href="#Degradado_sin_nombre_12"/><radialGradient id="Degradado_sin_nombre_12-32" cx="-1972.69" cy="-265.45" fy="-201.98871060440408" r="63.66" gradientTransform="matrix(0.17, 0, 0, 5.3, 377.71, 1764.12)" xlink:href="#Degradado_sin_nombre_12"/><radialGradient id="Degradado_sin_nombre_12-33" cx="-906.95" cy="521.27" fy="584.7433159528975" r="63.67" gradientTransform="matrix(0, 0.17, -5.3, 0, 3462.18, 493.48)" xlink:href="#Degradado_sin_nombre_12"/><radialGradient id="Degradado_sin_nombre_12-34" cx="613.07" cy="515.34" fy="578.8153273447036" r="63.67" gradientTransform="matrix(0, 0.47, -5.3, 0, 3424.52, 36.37)" xlink:href="#Degradado_sin_nombre_12"/><radialGradient id="Degradado_sin_nombre_12-35" cx="1348.48" cy="529.93" fy="593.3938026927988" r="63.66" gradientTransform="matrix(0, 0.29, -5.3, 0, 3518.45, -5.58)" xlink:href="#Degradado_sin_nombre_12"/><radialGradient id="Degradado_sin_nombre_12-36" cx="-410.6" cy="-280.32" fy="-216.83802335526158" r="63.68" gradientTransform="matrix(0.02, -0.17, 5.27, 0.59, 1523.76, 496.51)" xlink:href="#Degradado_sin_nombre_12"/><radialGradient id="Degradado_sin_nombre_12-37" cx="-1756.04" cy="-223.46" fy="-159.99349054697043" r="63.67" gradientTransform="matrix(0.31, 0, 0, 5.3, 622.78, 1463.33)" xlink:href="#Degradado_sin_nombre_12"/><radialGradient id="Degradado_sin_nombre_12-38" cx="-3453.81" cy="-250.35" fy="-186.87328977755635" r="63.67" gradientTransform="matrix(0.17, 0, 0, 5.3, 638.28, 1644.79)" xlink:href="#Degradado_sin_nombre_12"/><radialGradient id="Degradado_sin_nombre_12-39" cx="3504.15" cy="839.06" fy="902.5268209352383" r="63.67" gradientTransform="matrix(0, 0.14, -3.01, 0, 3094.2, -54.84)" xlink:href="#Degradado_sin_nombre_12"/><radialGradient id="Degradado_sin_nombre_12-40" cx="692.2" cy="-1132.42" fy="-1132.4183510794437" r="17.61" gradientTransform="translate(442.96 1674.83) rotate(-42.02)" xlink:href="#Degradado_sin_nombre_12"/><radialGradient id="Degradado_sin_nombre_12-41" cx="1594.02" cy="-5738.22" fy="-5738.220479417815" r="17.61" gradientTransform="matrix(1.55, -1.45, 0.14, 0.15, -1466.83, 3548.32)" xlink:href="#Degradado_sin_nombre_12"/><radialGradient id="Degradado_sin_nombre_12-42" cx="2965.99" cy="-8135.54" fy="-8135.544793622913" r="17.61" gradientTransform="matrix(-1.45, -1.55, 0.15, -0.14, 5726.32, 3829.65)" xlink:href="#Degradado_sin_nombre_12"/><radialGradient id="Degradado_sin_nombre_12-43" cx="855.58" cy="1323.87" fy="1323.8651022421564" r="17.61" gradientTransform="translate(1768.31 -676.94) rotate(90.96)" xlink:href="#Degradado_sin_nombre_12"/><radialGradient id="Degradado_sin_nombre_12-44" cx="1671.09" cy="6085.47" fy="6085.468262147235" r="17.61" gradientTransform="matrix(1.77, 1.17, -0.11, 0.17, -1834.76, -2853.72)" xlink:href="#Degradado_sin_nombre_12"/><radialGradient id="Degradado_sin_nombre_12-45" cx="1809.6" cy="-7347.76" fy="-7347.764948979911" r="17.61" gradientTransform="matrix(1.17, -1.77, 0.17, 0.11, -413.81, 4203.44)" xlink:href="#Degradado_sin_nombre_12"/><radialGradient id="Degradado_sin_nombre_12-46" cx="892.62" cy="1539.66" fy="1539.6560648141913" r="9.92" gradientTransform="matrix(0.83, 0.55, -0.55, 0.83, 445.71, -1419.95)" xlink:href="#Degradado_sin_nombre_12"/><radialGradient id="Degradado_sin_nombre_12-47" cx="1688.53" cy="7124.64" fy="7124.642032720489" r="9.92" gradientTransform="matrix(1.77, 1.17, -0.11, 0.17, -1834.76, -2853.72)" xlink:href="#Degradado_sin_nombre_12"/><radialGradient id="Degradado_sin_nombre_12-48" cx="1707.98" cy="-7169.33" fy="-7169.332072052102" r="9.92" gradientTransform="matrix(1.17, -1.77, 0.17, 0.11, -413.81, 4203.44)" xlink:href="#Degradado_sin_nombre_12"/><radialGradient id="Degradado_sin_nombre_12-49" cx="824.09" cy="1537.7" fy="1537.6956038340413" r="4.62" gradientTransform="matrix(0.83, 0.55, -0.55, 0.83, 445.71, -1419.95)" xlink:href="#Degradado_sin_nombre_12"/><radialGradient id="Degradado_sin_nombre_12-50" cx="1656.26" cy="7115.21" fy="7115.212631380326" r="4.62" gradientTransform="matrix(1.77, 1.17, -0.11, 0.17, -1834.76, -2853.72)" xlink:href="#Degradado_sin_nombre_12"/><radialGradient id="Degradado_sin_nombre_12-51" cx="1708.91" cy="-7499.35" fy="-7499.354476887632" r="4.62" gradientTransform="matrix(1.17, -1.77, 0.17, 0.11, -413.81, 4203.44)" xlink:href="#Degradado_sin_nombre_12"/><radialGradient id="Degradado_sin_nombre_12-52" cx="914.95" cy="1506.45" fy="1506.4461085316816" r="4.62" gradientTransform="matrix(0.83, 0.55, -0.55, 0.83, 445.71, -1419.95)" xlink:href="#Degradado_sin_nombre_12"/><radialGradient id="Degradado_sin_nombre_12-53" cx="1699.05" cy="6964.71" fy="6964.709493620476" r="4.62" gradientTransform="matrix(1.77, 1.17, -0.11, 0.17, -1834.76, -2853.72)" xlink:href="#Degradado_sin_nombre_12"/><radialGradient id="Degradado_sin_nombre_12-54" cx="1723.62" cy="-7061.8" fy="-7061.797129783304" r="4.62" gradientTransform="matrix(1.17, -1.77, 0.17, 0.11, -413.81, 4203.44)" xlink:href="#Degradado_sin_nombre_12"/><radialGradient id="Degradado_sin_nombre_12-55" cx="843.32" cy="1421.23" fy="1421.2323898325285" r="4.62" gradientTransform="matrix(0.83, 0.55, -0.55, 0.83, 445.71, -1419.95)" xlink:href="#Degradado_sin_nombre_12"/><radialGradient id="Degradado_sin_nombre_12-56" cx="1665.31" cy="6554.36" fy="6554.360257440092" r="4.62" gradientTransform="matrix(1.77, 1.17, -0.11, 0.17, -1834.76, -2853.72)" xlink:href="#Degradado_sin_nombre_12"/><radialGradient id="Degradado_sin_nombre_12-57" cx="1763.75" cy="-7406.8" fy="-7406.798564762889" r="4.62" gradientTransform="matrix(1.17, -1.77, 0.17, 0.11, -413.81, 4203.44)" xlink:href="#Degradado_sin_nombre_12"/><radialGradient id="Degradado_sin_nombre_12-58" cx="552.84" cy="-731.41" fy="-731.406617159877" r="4.62" gradientTransform="translate(79.52 1225.3) rotate(-32.17)" xlink:href="#Degradado_sin_nombre_12"/><radialGradient id="Degradado_sin_nombre_12-59" cx="1529.08" cy="-3810.75" fy="-3810.7455842171703" r="4.62" gradientTransform="matrix(1.8, -1.13, 0.11, 0.18, -2168.88, 2710.48)" xlink:href="#Degradado_sin_nombre_12"/><radialGradient id="Degradado_sin_nombre_12-60" cx="2777.47" cy="-8804.52" fy="-8804.521423435279" r="4.62" gradientTransform="matrix(-1.13, -1.8, 0.18, -0.11, 4846.07, 4330.22)" xlink:href="#Degradado_sin_nombre_12"/><radialGradient id="Degradado_sin_nombre_12-61" cx="474.9" cy="-745.53" fy="-745.5331733129715" r="4.62" gradientTransform="translate(79.52 1225.3) rotate(-32.17)" xlink:href="#Degradado_sin_nombre_12"/><radialGradient id="Degradado_sin_nombre_12-62" cx="1492.38" cy="-3878.75" fy="-3878.7542092836575" r="4.62" gradientTransform="matrix(1.8, -1.13, 0.11, 0.18, -2168.88, 2710.48)" xlink:href="#Degradado_sin_nombre_12"/><radialGradient id="Degradado_sin_nombre_12-63" cx="2784.13" cy="-9179.78" fy="-9179.776476206063" r="4.62" gradientTransform="matrix(-1.13, -1.8, 0.18, -0.11, 4846.07, 4330.22)" xlink:href="#Degradado_sin_nombre_12"/><radialGradient id="Degradado_sin_nombre_12-64" cx="857.48" cy="1621.21" fy="1621.211446699277" r="4.62" gradientTransform="matrix(0.83, 0.55, -0.55, 0.83, 445.71, -1419.95)" xlink:href="#Degradado_sin_nombre_12"/><radialGradient id="Degradado_sin_nombre_12-65" cx="1671.97" cy="7517.39" fy="7517.392276774932" r="4.62" gradientTransform="matrix(1.77, 1.17, -0.11, 0.17, -1834.76, -2853.72)" xlink:href="#Degradado_sin_nombre_12"/><radialGradient id="Degradado_sin_nombre_12-66" cx="1669.57" cy="-7338.57" fy="-7338.565131865818" r="4.62" gradientTransform="matrix(1.17, -1.77, 0.17, 0.11, -413.81, 4203.44)" xlink:href="#Degradado_sin_nombre_12"/><radialGradient id="Degradado_sin_nombre_12-67" cx="1093.06" cy="1444.56" fy="1444.56203996375" r="4.62" gradientTransform="matrix(0.83, 0.55, -0.55, 0.83, 445.71, -1419.95)" xlink:href="#Degradado_sin_nombre_12"/><radialGradient id="Degradado_sin_nombre_12-68" cx="1782.92" cy="6666.66" fy="6666.664714911725" r="4.62" gradientTransform="matrix(1.77, 1.17, -0.11, 0.17, -1834.76, -2853.72)" xlink:href="#Degradado_sin_nombre_12"/><radialGradient id="Degradado_sin_nombre_12-69" cx="1752.75" cy="-6204.12" fy="-6204.123068269975" r="4.62" gradientTransform="matrix(1.17, -1.77, 0.17, 0.11, -413.81, 4203.44)" xlink:href="#Degradado_sin_nombre_12"/><radialGradient id="Degradado_sin_nombre_12-70" cx="723.39" cy="1426.52" fy="1426.521887865636" r="4.62" gradientTransform="matrix(0.83, 0.55, -0.55, 0.83, 445.71, -1419.95)" xlink:href="#Degradado_sin_nombre_12"/><radialGradient id="Degradado_sin_nombre_12-71" cx="1608.84" cy="6579.85" fy="6579.85323723404" r="4.62" gradientTransform="matrix(1.77, 1.17, -0.11, 0.17, -1834.76, -2853.72)" xlink:href="#Degradado_sin_nombre_12"/><radialGradient id="Degradado_sin_nombre_12-72" cx="1761.27" cy="-7984.32" fy="-7984.322469672377" r="4.62" gradientTransform="matrix(1.17, -1.77, 0.17, 0.11, -413.81, 4203.44)" xlink:href="#Degradado_sin_nombre_12"/><radialGradient id="Degradado_sin_nombre_12-73" cx="3442.78" cy="2255.46" fy="2255.4608084408137" r="4.62" gradientTransform="translate(3856.57 -2082.31) rotate(105.72)" xlink:href="#Degradado_sin_nombre_12"/><radialGradient id="Degradado_sin_nombre_12-74" cx="2889.7" cy="10572.95" fy="10572.954795006894" r="4.62" gradientTransform="matrix(-0.58, 2.04, -0.2, -0.06, 4232.29, -4919.14)" xlink:href="#Degradado_sin_nombre_12"/><radialGradient id="Degradado_sin_nombre_12-75" cx="1370.86" cy="5107.81" fy="5107.809564766765" r="4.62" gradientTransform="matrix(2.04, 0.58, -0.06, 0.2, -2058, -1417.14)" xlink:href="#Degradado_sin_nombre_12"/><radialGradient id="Degradado_sin_nombre_12-76" cx="1016.14" cy="1300.56" fy="1300.5560110626066" r="4.62" gradientTransform="matrix(0.83, 0.55, -0.55, 0.83, 445.71, -1419.95)" xlink:href="#Degradado_sin_nombre_12"/><radialGradient id="Degradado_sin_nombre_12-77" cx="1746.71" cy="5973.19" fy="5973.191339084098" r="4.62" gradientTransform="matrix(1.77, 1.17, -0.11, 0.17, -1834.76, -2853.72)" xlink:href="#Degradado_sin_nombre_12"/><radialGradient id="Degradado_sin_nombre_12-78" cx="1820.57" cy="-6574.55" fy="-6574.545093278153" r="4.62" gradientTransform="matrix(1.17, -1.77, 0.17, 0.11, -413.81, 4203.44)" xlink:href="#Degradado_sin_nombre_12"/><radialGradient id="Degradado_sin_nombre_12-79" cx="563.99" cy="-159.67" fy="-159.66739005123327" r="4.62" gradientTransform="translate(-84.53 632.96) rotate(-12.77)" xlink:href="#Degradado_sin_nombre_12"/><radialGradient id="Degradado_sin_nombre_12-80" cx="1534.24" cy="-1056.6" fy="-1056.6049902119903" r="4.62" gradientTransform="matrix(2.07, -0.47, 0.05, 0.2, -2698.51, 1286.68)" xlink:href="#Degradado_sin_nombre_12"/><radialGradient id="Degradado_sin_nombre_12-81" cx="2508.3" cy="-8749.02" fy="-8749.020534036872" r="4.62" gradientTransform="matrix(-0.47, -2.07, 0.2, -0.05, 3379.94, 5145.45)" xlink:href="#Degradado_sin_nombre_12"/><radialGradient id="Degradado_sin_nombre_12-82" cx="670.11" cy="1116.13" fy="1116.1302919008122" r="4.62" gradientTransform="translate(686.33 -882.6) rotate(45)" xlink:href="#Degradado_sin_nombre_12"/><radialGradient id="Degradado_sin_nombre_12-83" cx="1583.8" cy="5087.01" fy="5087.013240003591" r="4.62" gradientTransform="matrix(1.98, 0.78, -0.08, 0.19, -2371.02, -1835.04)" xlink:href="#Degradado_sin_nombre_12"/><radialGradient id="Degradado_sin_nombre_12-84" cx="1907.48" cy="-8239.08" fy="-8239.081253518481" r="4.62" gradientTransform="matrix(0.78, -1.98, 0.19, 0.08, 478.18, 4776.05)" xlink:href="#Degradado_sin_nombre_12"/><radialGradient id="Degradado_sin_nombre_12-85" cx="431.49" cy="-356.97" fy="-356.965310978233" r="9.92" gradientTransform="translate(-2.37 710.98) rotate(-17.52)" xlink:href="#Degradado_sin_nombre_12"/><radialGradient id="Degradado_sin_nombre_12-86" cx="1471.96" cy="-2008.64" fy="-2008.6367255572513" r="9.92" gradientTransform="matrix(2.12, 0, 0, 0.21, -2824.06, 657.95)" xlink:href="#Degradado_sin_nombre_12"/><radialGradient id="Degradado_sin_nombre_12-87" cx="2601.39" cy="-9385.74" fy="-9385.736035133143" r="9.92" gradientTransform="matrix(-0.64, -2.02, 0.2, -0.06, 3824, 4921.6)" xlink:href="#Degradado_sin_nombre_12"/><radialGradient id="Degradado_sin_nombre_12-88" cx="3271.25" cy="2207.81" fy="2207.8075386567507" r="9.92" gradientTransform="matrix(-0.27, 0.96, -0.96, -0.27, 3409.13, -2278.27)" xlink:href="#Degradado_sin_nombre_12"/><radialGradient id="Degradado_sin_nombre_12-89" cx="2809.38" cy="10338.89" fy="10338.888757621715" r="9.92" gradientTransform="matrix(-0.52, 2.06, -0.2, -0.05, 3936.27, -4987.35)" xlink:href="#Degradado_sin_nombre_12"/><radialGradient id="Degradado_sin_nombre_12-90" cx="1393.7" cy="4284.03" fy="4284.030227126326" r="9.92" gradientTransform="matrix(2.06, 0.52, -0.05, 0.2, -2254.08, -1310.92)" xlink:href="#Degradado_sin_nombre_12"/><radialGradient id="Degradado_sin_nombre_12-91" cx="1993.84" cy="2208.3" fy="2208.2962422649416" r="9.92" gradientTransform="matrix(0.42, 0.91, -0.91, 0.42, 1968.02, -2102.47)" xlink:href="#Degradado_sin_nombre_12"/><radialGradient id="Degradado_sin_nombre_12-92" cx="2207.32" cy="10347.38" fy="10347.376691489653" r="9.92" gradientTransform="matrix(0.89, 1.93, -0.19, 0.09, 487.98, -4750.67)" xlink:href="#Degradado_sin_nombre_12"/><radialGradient id="Degradado_sin_nombre_12-93" cx="1393.11" cy="-1869.73" fy="-1869.731052049132" r="9.92" gradientTransform="matrix(1.93, -0.89, 0.09, 0.19, -2019.16, 1998.56)" xlink:href="#Degradado_sin_nombre_12"/><radialGradient id="Degradado_sin_nombre_12-94" cx="4046.46" cy="1666.5" fy="1666.502584073849" r="9.92" gradientTransform="translate(4374.67 -2037.49) rotate(126.67)" xlink:href="#Degradado_sin_nombre_12"/><radialGradient id="Degradado_sin_nombre_12-95" cx="3174.05" cy="7731.37" fy="7731.368975593534" r="9.92" gradientTransform="matrix(-1.27, 1.7, -0.17, -0.12, 5934.81, -4234.1)" xlink:href="#Degradado_sin_nombre_12"/><radialGradient id="Degradado_sin_nombre_12-96" cx="1648.27" cy="8016.92" fy="8016.921333200573" r="9.92" gradientTransform="matrix(1.7, 1.27, -0.12, 0.17, -1191.65, -3213.02)" xlink:href="#Degradado_sin_nombre_12"/><radialGradient id="Degradado_sin_nombre_12-97" cx="1967.82" cy="2038.76" fy="2038.7611486339538" r="9.92" gradientTransform="translate(1583.84 -2360.31) rotate(65.34)" xlink:href="#Degradado_sin_nombre_12"/><radialGradient id="Degradado_sin_nombre_12-98" cx="2194.19" cy="9530.27" fy="9530.266992975803" r="9.92" gradientTransform="matrix(0.89, 1.93, -0.19, 0.09, 406.31, -4782)" xlink:href="#Degradado_sin_nombre_12"/><radialGradient id="Degradado_sin_nombre_12-99" cx="1472.49" cy="-1995.71" fy="-1995.7108646194774" r="9.92" gradientTransform="matrix(1.93, -0.89, 0.09, 0.19, -2116.59, 1959.84)" xlink:href="#Degradado_sin_nombre_12"/><radialGradient id="Degradado_sin_nombre_12-100" cx="3790.58" cy="2347.61" fy="2347.6106341815266" r="9.92" gradientTransform="translate(4220.58 -1317.41) rotate(125.45)" xlink:href="#Degradado_sin_nombre_12"/><radialGradient id="Degradado_sin_nombre_12-101" cx="3053.46" cy="11013.14" fy="11013.136491002011" r="9.92" gradientTransform="matrix(-0.94, 1.9, -0.19, -0.09, 5039.89, -4383.19)" xlink:href="#Degradado_sin_nombre_12"/><radialGradient id="Degradado_sin_nombre_12-102" cx="1327.26" cy="6781.72" fy="6781.72409091704" r="9.92" gradientTransform="matrix(1.9, 0.94, -0.09, 0.19, -1789.33, -2105.01)" xlink:href="#Degradado_sin_nombre_12"/><radialGradient id="Degradado_sin_nombre_12-103" cx="1445.48" cy="2004.21" fy="2004.2106374089926" r="12.53" gradientTransform="translate(1471.28 -2009.66) rotate(58.86)" xlink:href="#Degradado_sin_nombre_12"/><radialGradient id="Degradado_sin_nombre_12-104" cx="1949.26" cy="9351.8" fy="9351.797253463299" r="12.53" gradientTransform="matrix(1.1, 1.82, -0.18, 0.11, 25.99, -4283.46)" xlink:href="#Degradado_sin_nombre_12"/><radialGradient id="Degradado_sin_nombre_12-105" cx="1489.52" cy="-4509.35" fy="-4509.347675246161" r="12.53" gradientTransform="matrix(2.12, 0, 0, 0.21, -2659.61, 1200.48)" xlink:href="#Degradado_sin_nombre_12"/><radialGradient id="Degradado_sin_nombre_12-106" cx="1814.58" cy="2471.16" fy="2471.1629357684524" r="9.92" gradientTransform="translate(1882.65 -2287.79) rotate(68.69)" xlink:href="#Degradado_sin_nombre_12"/><radialGradient id="Degradado_sin_nombre_12-107" cx="2122.77" cy="11612.07" fy="11612.073906601456" r="9.92" gradientTransform="matrix(0.85, 1.94, -0.19, 0.08, 634.34, -4795.84)" xlink:href="#Degradado_sin_nombre_12"/><radialGradient id="Degradado_sin_nombre_12-108" cx="1269.49" cy="-2733.47" fy="-2733.4738056768983" r="9.92" gradientTransform="matrix(1.94, -0.85, 0.08, 0.19, -1999.83, 1904.54)" xlink:href="#Degradado_sin_nombre_12"/><radialGradient id="Degradado_sin_nombre_12-109" cx="2526.68" cy="2493.91" fy="2493.9143770085357" r="9.92" gradientTransform="translate(3701.16 450.31) rotate(139.01)" xlink:href="#Degradado_sin_nombre_12"/><radialGradient id="Degradado_sin_nombre_12-110" cx="2458.1" cy="11718.85" fy="11718.846370263587" r="9.92" gradientTransform="matrix(0.53, 2.06, -0.2, 0.05, 1208.2, -5437.73)" xlink:href="#Degradado_sin_nombre_12"/><radialGradient id="Degradado_sin_nombre_12-111" cx="1258.21" cy="699.98" fy="699.9759318032284" r="9.92" gradientTransform="matrix(2.06, -0.53, 0.05, 0.2, -2465.12, 753.23)" xlink:href="#Degradado_sin_nombre_12"/><radialGradient id="Degradado_sin_nombre_12-112" cx="775.02" cy="-511.11" fy="-511.1065618097073" r="17.61" gradientTransform="matrix(0.98, -0.19, 0.19, 0.98, -22.55, 1029.01)" xlink:href="#Degradado_sin_nombre_12"/><radialGradient id="Degradado_sin_nombre_12-113" cx="1633.67" cy="-2751.88" fy="-2751.8795299159046" r="17.61" gradientTransform="matrix(2.12, 0, 0, 0.21, -2829.86, 949.27)" xlink:href="#Degradado_sin_nombre_12"/><radialGradient id="Degradado_sin_nombre_12-114" cx="2674.08" cy="-7736.3" fy="-7736.300181424205" r="17.61" gradientTransform="matrix(0, -2.12, 0.21, 0, 2245.89, 6055.78)" xlink:href="#Degradado_sin_nombre_12"/><radialGradient id="Degradado_sin_nombre_12-115" cx="497.74" cy="719.05" fy="719.0520028247611" r="34.02" gradientTransform="translate(990.58 -271.03) rotate(75.96)" xlink:href="#Degradado_sin_nombre_12"/><radialGradient id="Degradado_sin_nombre_12-116" cx="1502.69" cy="3169.02" fy="3169.018695180055" r="34.01" gradientTransform="matrix(0, 2.12, -0.21, 0, 1072.14, -2804.59)" xlink:href="#Degradado_sin_nombre_12"/><radialGradient id="Degradado_sin_nombre_12-117" cx="2094.58" cy="-9074.44" fy="-9074.441106700271" r="34.01" gradientTransform="matrix(2.12, 0, 0, 0.21, -4033.79, 2271.18)" xlink:href="#Degradado_sin_nombre_12"/><radialGradient id="Degradado_sin_nombre_12-118" cx="450.05" cy="311.56" fy="311.56063726138564" r="23.64" gradientTransform="translate(326.89 -119.5) rotate(44.42)" xlink:href="#Degradado_sin_nombre_12"/><radialGradient id="Degradado_sin_nombre_12-119" cx="1480.26" cy="1206.08" fy="1206.0780100383108" r="23.63" gradientTransform="matrix(2.12, -0.02, 0, 0.21, -2715.33, 199.17)" xlink:href="#Degradado_sin_nombre_12"/><radialGradient id="Degradado_sin_nombre_12-120" cx="2286.69" cy="-9304.77" fy="-9304.766095985678" r="23.63" gradientTransform="matrix(-0.02, -2.12, 0.21, 0, 2411.78, 5253.78)" xlink:href="#Degradado_sin_nombre_12"/><radialGradient id="Degradado_sin_nombre_12-121" cx="366.93" cy="-56.01" fy="-56.00539943401691" r="34.02" gradientTransform="translate(-34.86 463.41) rotate(0.28)" xlink:href="#Degradado_sin_nombre_12"/><radialGradient id="Degradado_sin_nombre_12-122" cx="1441.52" cy="-557.36" fy="-557.3605881100739" r="34.02" gradientTransform="matrix(2.12, 0, 0, 0.21, -2728.62, 524.98)" xlink:href="#Degradado_sin_nombre_12"/><radialGradient id="Degradado_sin_nombre_12-123" cx="2459.64" cy="-9699.23" fy="-9699.231661614802" r="34.02" gradientTransform="matrix(-0.38, -2.09, 0.2, -0.04, 3250.27, 5186.58)" xlink:href="#Degradado_sin_nombre_12"/></defs><g class="cls-2"><g id="Слой_2" data-name="Слой 2"><g id="space"><g class="cls-3"><ellipse class="cls-4" cx="486.5" cy="200.43" rx="261.58" ry="57.73" transform="translate(393.84 783.16) rotate(-64.74)"/><circle class="cls-5" cx="374.66" cy="436.33" r="63.67" transform="translate(97.42 621) rotate(-45)"/><ellipse class="cls-6" cx="670.87" cy="664.61" rx="73.04" ry="18.34"/><ellipse class="cls-7" cx="670.87" cy="664.61" rx="147.39" ry="18.34"/><ellipse class="cls-8" cx="670.87" cy="664.61" rx="298.44" ry="18.34"/><ellipse class="cls-9" cx="670.87" cy="477.65" rx="40.25" ry="186.96"/><ellipse class="cls-10" cx="413.78" cy="254.13" rx="186.96" ry="15.4" transform="translate(375.33 834.25) rotate(-77.99)"/><ellipse class="cls-11" cx="219.08" cy="226.87" rx="15.4" ry="261.58" transform="translate(204.19 403.39) rotate(-36.55)"/><ellipse class="cls-12" cx="121.06" cy="273.82" rx="40.25" ry="301.2" transform="translate(121.42 456.29) rotate(-57.35)"/><ellipse class="cls-13" cx="140.66" cy="246.68" rx="12.62" ry="301.2" transform="translate(156.67 428.92) rotate(-50.98)"/><ellipse class="cls-14" cx="566.06" cy="405.92" rx="193.8" ry="40.25" transform="translate(239.53 322.15) rotate(-9.03)"/><ellipse class="cls-15" cx="178.42" cy="354.45" rx="40.25" ry="212.64" transform="translate(78.81 610.91) rotate(-67.35)"/><ellipse class="cls-16" cx="318.93" cy="281.34" rx="45.32" ry="164.71" transform="translate(219.84 352.79) rotate(-19.78)"/><ellipse class="cls-17" cx="256.69" cy="321.39" rx="45.32" ry="164.71" transform="translate(143.58 509.24) rotate(-45.74)"/><ellipse class="cls-18" cx="529.59" cy="380.44" rx="164.71" ry="45.32" transform="translate(198.55 430.55) rotate(-19.83)"/><ellipse class="cls-18" cx="529.59" cy="380.44" rx="164.71" ry="45.32" transform="translate(198.55 430.55) rotate(-19.83)"/><path class="cls-19" d="M487.85,400.14c-60.71,24.46-111.39,40.66-113.19,36.19S420.61,408.41,481.33,384s111.39-40.67,113.19-36.19S548.56,375.68,487.85,400.14Z" transform="translate(296.22 228.28)"/><ellipse class="cls-20" cx="568.87" cy="263.61" rx="259.9" ry="40.56" transform="translate(264.82 672.95) rotate(-41.65)"/><ellipse class="cls-21" cx="547.58" cy="242.3" rx="259.9" ry="26.25" transform="translate(298.58 718.16) rotate(-48.29)"/><ellipse class="cls-22" cx="507.49" cy="212.94" rx="259.9" ry="12.45" transform="translate(361.31 768.59) rotate(-59.26)"/><ellipse class="cls-23" cx="467.63" cy="193.63" rx="259.9" ry="12.45" transform="translate(415.75 789.33) rotate(-69.04)"/><ellipse class="cls-24" cx="592.17" cy="294.07" rx="259.9" ry="26.25" transform="translate(231.84 600.37) rotate(-33.18)"/><ellipse class="cls-25" cx="657.16" cy="251.57" rx="337.56" ry="26.25" transform="translate(265.7 629.01) rotate(-33.18)"/><path class="cls-26" d="M673.59,279.17c-162.19,91.93-296,162.29-298.93,157.16s126.21-83.82,288.39-175.75S959.08,98.29,962,103.42,835.78,187.24,673.59,279.17Z" transform="translate(296.22 228.28)"/><ellipse class="cls-27" cx="294.35" cy="108.46" rx="26.25" ry="337.56" transform="translate(278.86 301.42) rotate(-13.76)"/><path class="cls-28" d="M325.85,102.15c32.76,183.53,54.62,333.14,48.81,334.18s-37.08-146.9-69.85-330.43S250.19-227.24,256-228.28,293.08-81.38,325.85,102.15Z" transform="translate(296.22 228.28)"/><ellipse class="cls-29" cx="503.33" cy="271.67" rx="208.98" ry="26.25" transform="translate(275.57 729.28) rotate(-51.99)"/><path class="cls-30" d="M607,191.18C483.07,330.49,379.07,440.25,374.66,436.33S467.1,316.3,591,177,818.88-72.09,823.28-68.17,730.84,51.87,607,191.18Z" transform="translate(296.22 228.28)"/><ellipse class="cls-31" cx="113.5" cy="423.4" rx="10.68" ry="261.47" transform="translate(-18.77 744.1) rotate(-87.16)"/><ellipse class="cls-32" cx="645.11" cy="234.33" rx="337.56" ry="10.68" transform="translate(284.24 660.91) rotate(-36.76)"/><ellipse class="cls-33" cx="42.23" cy="377.71" rx="26.25" ry="337.56" transform="translate(-40.86 581.99) rotate(-80)"/><ellipse class="cls-34" cx="46.62" cy="356.73" rx="10.68" ry="337.56" transform="translate(-14.82 546.19) rotate(-76.36)"/><ellipse class="cls-35" cx="698.57" cy="341.32" rx="337.56" ry="10.68" transform="translate(228.39 438.71) rotate(-16.35)"/><ellipse class="cls-36" cx="692.31" cy="322.11" rx="337.56" ry="29.67" transform="translate(228.06 481.53) rotate(-19.78)"/><ellipse class="cls-37" cx="708.93" cy="389.32" rx="337.56" ry="18.64" transform="translate(248.9 330.82) rotate(-8.01)"/><path class="cls-38" d="M40.42,387.92c185.25,20.87,334.9,42.55,334.24,48.41S223.28,430,38,409.15s-334.91-42.55-334.24-48.42S-144.84,367,40.42,387.92Z" transform="translate(296.22 228.28)"/><ellipse class="cls-39" cx="76.21" cy="278.62" rx="19.82" ry="337.56" transform="translate(90.48 444.11) rotate(-62.15)"/><ellipse class="cls-40" cx="58.77" cy="317.33" rx="10.68" ry="337.56" transform="translate(37.31 488.74) rotate(-69.36)"/><ellipse class="cls-41" cx="566.2" cy="425.62" rx="191.84" ry="8.73" transform="translate(273.34 260.56) rotate(-3.2)"/><circle class="cls-42" cx="199.12" cy="370.2" r="17.61" transform="translate(290.33 231.51) rotate(-0.91)"/><path class="cls-43" d="M226.49,344.73c1.37,1.48-9.76,14.08-24.88,28.15s-28.49,24.27-29.86,22.79,9.76-14.08,24.88-28.15S225.11,343.25,226.49,344.73Z" transform="translate(296.22 228.28)"/><path class="cls-44" d="M173.65,342.83c1.47-1.38,14.08,9.76,28.14,24.88s24.28,28.49,22.8,29.86-14.08-9.76-28.15-24.88S172.17,344.21,173.65,342.83Z" transform="translate(296.22 228.28)"/><circle class="cls-45" cx="430.24" cy="156.24" r="17.61" transform="translate(363.66 663.62) rotate(-57.53)"/><path class="cls-46" d="M461.44,176.84c-1.11,1.68-16-6.17-33.21-17.55s-30.3-22-29.19-23.66,16,6.18,33.22,17.56S462.56,175.15,461.44,176.84Z" transform="translate(296.22 228.28)"/><path class="cls-47" d="M450.84,125c1.69,1.11-6.17,16-17.55,33.21s-22,30.3-23.65,29.19,6.17-16,17.55-33.22S449.16,123.92,450.84,125Z" transform="translate(296.22 228.28)"/><path class="cls-48" d="M350.53,362.19a9.92,9.92,0,1,1-2.81-13.74A9.92,9.92,0,0,1,350.53,362.19Z" transform="translate(296.22 228.28)"/><path class="cls-49" d="M359.83,368.33c-.63.95-9-3.48-18.71-9.89s-17.06-12.37-16.44-13.32,9,3.48,18.71,9.89S360.45,367.38,359.83,368.33Z" transform="translate(296.22 228.28)"/><path class="cls-50" d="M353.86,339.15c.95.63-3.48,9-9.89,18.71s-12.37,17.07-13.32,16.44,3.48-9,9.89-18.71S352.91,338.53,353.86,339.15Z" transform="translate(296.22 228.28)"/><path class="cls-51" d="M290,319.88a4.62,4.62,0,1,1-1.31-6.41A4.62,4.62,0,0,1,290,319.88Z" transform="translate(296.22 228.28)"/><path class="cls-52" d="M294.34,322.74c-.3.44-4.2-1.62-8.72-4.61s-8-5.77-7.66-6.21,4.19,1.62,8.72,4.61S294.63,322.3,294.34,322.74Z" transform="translate(296.22 228.28)"/><path class="cls-53" d="M291.55,309.14c.45.29-1.62,4.2-4.6,8.72s-5.77,7.95-6.21,7.66,1.62-4.2,4.61-8.72S291.11,308.85,291.55,309.14Z" transform="translate(296.22 228.28)"/><path class="cls-54" d="M383.05,343.86a4.62,4.62,0,1,1-1.31-6.4A4.63,4.63,0,0,1,383.05,343.86Z" transform="translate(296.22 228.28)"/><path class="cls-55" d="M387.38,346.72c-.29.45-4.2-1.62-8.72-4.6s-8-5.77-7.66-6.21,4.2,1.62,8.72,4.61S387.67,346.28,387.38,346.72Z" transform="translate(296.22 228.28)"/><path class="cls-56" d="M384.6,333.13c.44.29-1.62,4.19-4.61,8.72s-5.77,7.95-6.21,7.66,1.62-4.2,4.61-8.72S384.16,332.84,384.6,333.13Z" transform="translate(296.22 228.28)"/><path class="cls-57" d="M370.22,233.28a4.62,4.62,0,1,1-1.31-6.4A4.63,4.63,0,0,1,370.22,233.28Z" transform="translate(296.22 228.28)"/><path class="cls-58" d="M374.55,236.14c-.29.44-4.2-1.62-8.72-4.61s-7.95-5.76-7.66-6.2,4.2,1.62,8.72,4.6S374.84,235.7,374.55,236.14Z" transform="translate(296.22 228.28)"/><path class="cls-59" d="M371.77,222.54c.44.3-1.62,4.2-4.61,8.72s-5.77,8-6.21,7.66,1.62-4.19,4.61-8.72S371.33,222.25,371.77,222.54Z" transform="translate(296.22 228.28)"/><path class="cls-60" d="M161.94,309.31a4.63,4.63,0,1,1-6.38-1.45A4.64,4.64,0,0,1,161.94,309.31Z" transform="translate(296.22 228.28)"/><path class="cls-61" d="M166.33,306.55c.28.45-3.21,3.15-7.8,6s-8.53,4.86-8.81,4.41,3.2-3.15,7.79-6S166.05,306.1,166.33,306.55Z" transform="translate(296.22 228.28)"/><path class="cls-62" d="M152.8,303.47c.45-.28,3.15,3.21,6,7.79s4.86,8.54,4.41,8.82-3.15-3.21-6-7.79S152.35,303.75,152.8,303.47Z" transform="translate(296.22 228.28)"/><path class="cls-63" d="M88.44,338.86a4.62,4.62,0,1,1-6.37-1.46A4.62,4.62,0,0,1,88.44,338.86Z" transform="translate(296.22 228.28)"/><path class="cls-64" d="M92.84,336.09c.28.45-3.21,3.15-7.8,6s-8.54,4.86-8.82,4.41,3.21-3.15,7.8-6S92.55,335.64,92.84,336.09Z" transform="translate(296.22 228.28)"/><path class="cls-65" d="M79.3,333c.45-.28,3.16,3.21,6,7.8s4.86,8.53,4.41,8.81-3.15-3.2-6-7.79S78.86,333.29,79.3,333Z" transform="translate(296.22 228.28)"/><path class="cls-66" d="M271.85,408a4.63,4.63,0,1,1-1.31-6.41A4.64,4.64,0,0,1,271.85,408Z" transform="translate(296.22 228.28)"/><path class="cls-67" d="M276.18,410.83c-.29.44-4.2-1.62-8.72-4.61s-7.95-5.77-7.66-6.21,4.2,1.62,8.72,4.61S276.47,410.38,276.18,410.83Z" transform="translate(296.22 228.28)"/><path class="cls-68" d="M273.4,397.23c.44.29-1.62,4.19-4.61,8.72s-5.77,7.95-6.21,7.66,1.62-4.2,4.61-8.72S273,396.94,273.4,397.23Z" transform="translate(296.22 228.28)"/><path class="cls-69" d="M565.77,390.36a4.62,4.62,0,1,1-1.31-6.41A4.62,4.62,0,0,1,565.77,390.36Z" transform="translate(296.22 228.28)"/><path class="cls-70" d="M570.1,393.22c-.29.44-4.19-1.62-8.71-4.61s-8-5.77-7.67-6.21,4.2,1.62,8.72,4.61S570.4,392.77,570.1,393.22Z" transform="translate(296.22 228.28)"/><path class="cls-71" d="M567.32,379.62c.44.29-1.62,4.2-4.6,8.72s-5.77,8-6.21,7.66,1.62-4.2,4.6-8.72S566.88,379.33,567.32,379.62Z" transform="translate(296.22 228.28)"/><path class="cls-72" d="M267.22,171.62a4.62,4.62,0,1,1-1.31-6.41A4.62,4.62,0,0,1,267.22,171.62Z" transform="translate(296.22 228.28)"/><path class="cls-73" d="M271.56,174.48c-.29.44-4.2-1.62-8.72-4.61s-7.95-5.77-7.66-6.21,4.19,1.62,8.72,4.61S271.85,174,271.56,174.48Z" transform="translate(296.22 228.28)"/><path class="cls-74" d="M268.78,160.88c.44.29-1.62,4.19-4.61,8.72s-5.77,8-6.21,7.66,1.62-4.2,4.61-8.72S268.33,160.59,268.78,160.88Z" transform="translate(296.22 228.28)"/><circle class="cls-75" cx="752.82" cy="620.71" r="4.62"/><path class="cls-76" d="M453.94,401.88c-.51-.14.27-4.49,1.74-9.71s3.07-9.33,3.58-9.19-.27,4.49-1.74,9.71S454.45,402,453.94,401.88Z" transform="translate(296.22 228.28)"/><path class="cls-77" d="M466.05,395.09c-.15.51-4.49-.27-9.71-1.73s-9.33-3.08-9.19-3.59,4.49.27,9.71,1.74S466.19,394.58,466.05,395.09Z" transform="translate(296.22 228.28)"/><path class="cls-78" d="M580.93,227.8a4.62,4.62,0,1,1-1.31-6.4A4.61,4.61,0,0,1,580.93,227.8Z" transform="translate(296.22 228.28)"/><path class="cls-79" d="M585.27,230.66c-.3.45-4.2-1.62-8.72-4.6s-8-5.77-7.66-6.21,4.19,1.62,8.72,4.61S585.56,230.22,585.27,230.66Z" transform="translate(296.22 228.28)"/><path class="cls-80" d="M582.48,217.07c.45.29-1.62,4.19-4.6,8.72s-5.77,8-6.21,7.66,1.62-4.2,4.61-8.72S582,216.77,582.48,217.07Z" transform="translate(296.22 228.28)"/><path class="cls-81" d="M434.75,351.57a4.62,4.62,0,1,1-5.53-3.48A4.63,4.63,0,0,1,434.75,351.57Z" transform="translate(296.22 228.28)"/><path class="cls-82" d="M439.81,350.42c.12.52-4.07,1.91-9.36,3.11s-9.66,1.75-9.78,1.23,4.07-1.91,9.36-3.1S439.7,349.91,439.81,350.42Z" transform="translate(296.22 228.28)"/><path class="cls-83" d="M428.07,343c.52-.12,1.91,4.07,3.11,9.36s1.75,9.67,1.23,9.78-1.91-4.07-3.1-9.35S427.56,343.14,428.07,343Z" transform="translate(296.22 228.28)"/><circle class="cls-84" cx="370.98" cy="380.44" r="4.62" transform="translate(175.29 407.75) rotate(-23.5)"/><path class="cls-85" d="M380.11,384c-.19.49-4.44-.72-9.48-2.7s-9-4-8.78-4.49,4.44.71,9.48,2.7S380.31,383.55,380.11,384Z" transform="translate(296.22 228.28)"/><path class="cls-86" d="M374.58,371.31c.49.2-.72,4.44-2.7,9.49s-4,9-4.49,8.77.71-4.44,2.7-9.48S374.09,371.12,374.58,371.31Z" transform="translate(296.22 228.28)"/><path class="cls-87" d="M311.08,237.67a9.92,9.92,0,1,1-12.44-6.47A9.92,9.92,0,0,1,311.08,237.67Z" transform="translate(296.22 228.28)"/><ellipse class="cls-88" cx="301.62" cy="240.65" rx="21.06" ry="2.06" transform="translate(237.76 330.25) rotate(-17.52)"/><path class="cls-89" d="M295.28,220.57c1.09-.34,4.8,8.37,8.3,19.46s5.47,20.36,4.38,20.7-4.8-8.37-8.3-19.46S294.2,220.91,295.28,220.57Z" transform="translate(296.22 228.28)"/><circle class="cls-90" cx="398.76" cy="273.82" r="9.92" transform="translate(288.83 239.36) rotate(-1.58)"/><path class="cls-91" d="M393.62,294.24c-1.1-.28.31-9.65,3.14-20.92s6-20.2,7.14-19.92-.31,9.64-3.14,20.92S394.73,294.52,393.62,294.24Z" transform="translate(296.22 228.28)"/><path class="cls-92" d="M419.18,279c-.27,1.11-9.64-.3-20.92-3.13s-20.2-6-19.92-7.14,9.64.3,20.92,3.14S419.46,277.85,419.18,279Z" transform="translate(296.22 228.28)"/><circle class="cls-93" cx="799.55" cy="633.7" r="9.92"/><path class="cls-94" d="M512.17,424.54c-1,.47-5.83-7.7-10.71-18.26s-8-19.5-7-20,5.83,7.7,10.7,18.26S513.2,424.06,512.17,424.54Z" transform="translate(296.22 228.28)"/><path class="cls-95" d="M522.45,396.59c.48,1-7.69,5.82-18.25,10.7s-19.5,8-20,7,7.69-5.82,18.25-10.7S522,395.55,522.45,396.59Z" transform="translate(296.22 228.28)"/><path class="cls-96" d="M615.5,220.89a9.92,9.92,0,1,1,13.88-2A9.92,9.92,0,0,1,615.5,220.89Z" transform="translate(296.22 228.28)"/><path class="cls-97" d="M608.85,229.83c-.91-.68,4-8.79,10.92-18.12s13.32-16.34,14.23-15.66-4,8.79-10.92,18.12S609.76,230.51,608.85,229.83Z" transform="translate(296.22 228.28)"/><path class="cls-98" d="M638.31,225.51c-.67.92-8.79-4-18.12-10.92s-16.33-13.32-15.66-14.23,8.8,4,18.12,10.93S639,224.6,638.31,225.51Z" transform="translate(296.22 228.28)"/><path class="cls-99" d="M556.13,287.63A9.91,9.91,0,1,1,561,274.48,9.92,9.92,0,0,1,556.13,287.63Z" transform="translate(296.22 228.28)"/><path class="cls-100" d="M560.78,297.76c-1,.47-5.8-7.71-10.66-18.28s-8-19.52-6.91-20,5.8,7.71,10.66,18.28S561.82,297.28,560.78,297.76Z" transform="translate(296.22 228.28)"/><path class="cls-101" d="M571.13,269.83c.48,1-7.71,5.81-18.28,10.66s-19.52,7.95-20,6.92,7.71-5.81,18.28-10.66S570.66,268.8,571.13,269.83Z" transform="translate(296.22 228.28)"/><circle class="cls-102" cx="109.7" cy="409.21" r="9.92" transform="matrix(0.99, -0.16, 0.16, 0.99, 233.09, 250.69)"/><path class="cls-103" d="M100.35,428.08c-1-.51,2.34-9.36,7.51-19.78s10.18-18.46,11.2-17.95-2.34,9.36-7.51,19.78S101.37,428.58,100.35,428.08Z" transform="translate(296.22 228.28)"/><path class="cls-104" d="M128.57,418.57c-.51,1-9.36-2.35-19.78-7.51s-18.46-10.19-18-11.2,9.36,2.34,19.78,7.51S129.07,417.55,128.57,418.57Z" transform="translate(296.22 228.28)"/><path class="cls-105" d="M509.81,274.63a12.53,12.53,0,1,1,4.25-17.21A12.54,12.54,0,0,1,509.81,274.63Z" transform="translate(296.22 228.28)"/><path class="cls-106" d="M517.09,286.68c-1.23.74-8.38-8.85-16-21.44s-12.77-23.38-11.54-24.12,8.39,8.85,16,21.43S518.32,285.93,517.09,286.68Z" transform="translate(296.22 228.28)"/><ellipse class="cls-107" cx="503.33" cy="263.9" rx="26.61" ry="2.6" transform="translate(232.27 526.55) rotate(-31.14)"/><circle class="cls-108" cx="239.94" cy="300.63" r="9.92" transform="translate(283.8 238.63) rotate(-2.41)"/><path class="cls-109" d="M248.41,319.91c-1,.46-5.68-7.8-10.36-18.45s-7.62-19.65-6.58-20.1,5.67,7.8,10.35,18.45S249.45,319.46,248.41,319.91Z" transform="translate(296.22 228.28)"/><path class="cls-110" d="M259.22,292.16c.45,1-7.81,5.68-18.45,10.36s-19.65,7.63-20.11,6.59,7.8-5.68,18.45-10.36S258.76,291.12,259.22,292.16Z" transform="translate(296.22 228.28)"/><circle class="cls-111" cx="158.02" cy="225.26" r="9.92" transform="translate(182.14 494.47) rotate(-63.5)"/><path class="cls-112" d="M163.29,245.64c-1.1.29-4.35-8.61-7.26-19.87s-4.38-20.62-3.28-20.9,4.36,8.61,7.27,19.87S164.39,245.36,163.29,245.64Z" transform="translate(296.22 228.28)"/><path class="cls-113" d="M178.41,220c.29,1.1-8.61,4.35-19.87,7.26s-20.62,4.38-20.9,3.28,8.61-4.36,19.87-7.27S178.13,218.88,178.41,220Z" transform="translate(296.22 228.28)"/><circle class="cls-114" cx="639.04" cy="377.71" r="17.61" transform="translate(228.07 380.34) rotate(-12.89)"/><ellipse class="cls-115" cx="639.04" cy="377.71" rx="37.39" ry="3.66" transform="translate(197.78 521.3) rotate(-24.03)"/><ellipse class="cls-116" cx="639.04" cy="377.71" rx="3.66" ry="37.39" transform="translate(197.78 521.3) rotate(-24.03)"/><circle class="cls-117" cx="413.78" cy="386.27" r="34.02" transform="translate(183.28 821.88) rotate(-64.52)"/><ellipse class="cls-118" cx="413.78" cy="386.27" rx="7.06" ry="72.23" transform="translate(249.31 943.48) rotate(-78.56)"/><ellipse class="cls-119" cx="413.78" cy="386.27" rx="72.23" ry="7.06" transform="translate(249.31 943.48) rotate(-78.56)"/><circle class="cls-120" cx="430.24" cy="417.99" r="23.64" transform="translate(126.67 654.94) rotate(-45)"/><path class="cls-121" d="M480.43,417.49c0,2.71-22.42,5.13-50.14,5.41s-50.21-1.69-50.23-4.4,22.42-5.13,50.13-5.41S480.4,414.78,480.43,417.49Z" transform="translate(296.22 228.28)"/><path class="cls-122" d="M429.74,367.81c2.71,0,5.13,22.42,5.41,50.14s-1.69,50.2-4.4,50.23-5.14-22.42-5.42-50.14S427,367.84,429.74,367.81Z" transform="translate(296.22 228.28)"/><circle class="cls-123" cx="332.34" cy="409.21" r="34.02" transform="translate(226.55 296.47) rotate(-10.61)"/><ellipse class="cls-124" cx="332.34" cy="409.21" rx="72.23" ry="7.06" transform="translate(228.24 294.49) rotate(-10.33)"/><path class="cls-125" d="M319.39,338.15c3.84-.7,12.75,30.55,19.9,69.79s9.84,71.63,6,72.33-12.75-30.55-19.9-69.79S315.55,338.85,319.39,338.15Z" transform="translate(296.22 228.28)"/><path class="cls-126" d="M417.83,423.15a.38.38,0,1,1-.38-.38A.38.38,0,0,1,417.83,423.15Z" transform="translate(296.22 228.28)"/><path class="cls-126" d="M417.75,416a.38.38,0,1,1-.38-.38A.38.38,0,0,1,417.75,416Z" transform="translate(296.22 228.28)"/><path class="cls-126" d="M414.41,373.17a.38.38,0,1,1-.38-.38A.38.38,0,0,1,414.41,373.17Z" transform="translate(296.22 228.28)"/><path class="cls-126" d="M408.5,371.85a.38.38,0,1,1-.38-.38A.38.38,0,0,1,408.5,371.85Z" transform="translate(296.22 228.28)"/><path class="cls-126" d="M370.22,395.6a.38.38,0,1,1-.38-.38A.38.38,0,0,1,370.22,395.6Z" transform="translate(296.22 228.28)"/><circle class="cls-126" cx="655.11" cy="632.73" r="0.38"/><path class="cls-126" d="M368.68,406.71a.38.38,0,1,1-.38-.38A.38.38,0,0,1,368.68,406.71Z" transform="translate(296.22 228.28)"/><path class="cls-126" d="M391.66,379.93a.38.38,0,1,1-.38-.38A.38.38,0,0,1,391.66,379.93Z" transform="translate(296.22 228.28)"/><path class="cls-126" d="M400.36,346.47a.38.38,0,1,1-.38-.38A.38.38,0,0,1,400.36,346.47Z" transform="translate(296.22 228.28)"/><path class="cls-126" d="M387.38,345.83a.38.38,0,1,1-.38-.38A.38.38,0,0,1,387.38,345.83Z" transform="translate(296.22 228.28)"/><path class="cls-126" d="M365.66,358.3a.38.38,0,1,1-.38-.38A.38.38,0,0,1,365.66,358.3Z" transform="translate(296.22 228.28)"/><path class="cls-126" d="M357.21,375.46a.38.38,0,1,1-.38-.38A.38.38,0,0,1,357.21,375.46Z" transform="translate(296.22 228.28)"/><path class="cls-126" d="M378.69,375.07a.38.38,0,0,1-.76,0,.38.38,0,1,1,.76,0Z" transform="translate(296.22 228.28)"/><path class="cls-126" d="M427.64,370.44a.38.38,0,1,1-.38-.38A.38.38,0,0,1,427.64,370.44Z" transform="translate(296.22 228.28)"/><path class="cls-126" d="M423.68,368.85a.39.39,0,0,1-.39.38.38.38,0,0,1,0-.76A.39.39,0,0,1,423.68,368.85Z" transform="translate(296.22 228.28)"/><path class="cls-126" d="M414.81,400.1a.38.38,0,1,1-.38-.38A.38.38,0,0,1,414.81,400.1Z" transform="translate(296.22 228.28)"/><path class="cls-126" d="M414.19,425.42a.38.38,0,1,1-.38-.38A.38.38,0,0,1,414.19,425.42Z" transform="translate(296.22 228.28)"/><path class="cls-126" d="M464.13,417.58a.38.38,0,1,1-.38-.38A.38.38,0,0,1,464.13,417.58Z" transform="translate(296.22 228.28)"/><path class="cls-126" d="M469.88,413.05a.38.38,0,1,1-.38-.38A.38.38,0,0,1,469.88,413.05Z" transform="translate(296.22 228.28)"/><path class="cls-126" d="M451.35,411.53a.38.38,0,1,1-.38-.38A.38.38,0,0,1,451.35,411.53Z" transform="translate(296.22 228.28)"/><path class="cls-126" d="M333.23,412.5a.38.38,0,1,1-.38-.38A.38.38,0,0,1,333.23,412.5Z" transform="translate(296.22 228.28)"/><path class="cls-126" d="M326.25,410.44a.39.39,0,1,1-.39-.39A.38.38,0,0,1,326.25,410.44Z" transform="translate(296.22 228.28)"/><path class="cls-126" d="M304.8,404.28a.38.38,0,1,1-.38-.38A.38.38,0,0,1,304.8,404.28Z" transform="translate(296.22 228.28)"/><path class="cls-126" d="M261.42,398.25a.38.38,0,1,1-.38-.38A.38.38,0,0,1,261.42,398.25Z" transform="translate(296.22 228.28)"/><path class="cls-126" d="M230.69,397.75a.38.38,0,1,1-.38-.38A.38.38,0,0,1,230.69,397.75Z" transform="translate(296.22 228.28)"/><path class="cls-126" d="M246.54,397.39a.38.38,0,1,1-.38-.38A.38.38,0,0,1,246.54,397.39Z" transform="translate(296.22 228.28)"/><path class="cls-126" d="M292.08,401.13a.38.38,0,1,1-.38-.38A.38.38,0,0,1,292.08,401.13Z" transform="translate(296.22 228.28)"/><path class="cls-126" d="M389.9,438.47a.38.38,0,1,1-.38-.38A.38.38,0,0,1,389.9,438.47Z" transform="translate(296.22 228.28)"/><path class="cls-126" d="M430.55,436.83a.38.38,0,1,1-.38-.38A.38.38,0,0,1,430.55,436.83Z" transform="translate(296.22 228.28)"/><path class="cls-126" d="M406.59,421.78a.38.38,0,1,1-.38-.38A.38.38,0,0,1,406.59,421.78Z" transform="translate(296.22 228.28)"/><path class="cls-126" d="M330.11,372.09a.38.38,0,1,1-.38-.38A.38.38,0,0,1,330.11,372.09Z" transform="translate(296.22 228.28)"/><path class="cls-126" d="M325,348.3a.38.38,0,1,1-.38-.38A.38.38,0,0,1,325,348.3Z" transform="translate(296.22 228.28)"/><path class="cls-126" d="M322.93,343.78a.38.38,0,1,1-.38-.38A.38.38,0,0,1,322.93,343.78Z" transform="translate(296.22 228.28)"/><path class="cls-126" d="M295.21,364.08a.38.38,0,1,1-.38-.38A.38.38,0,0,1,295.21,364.08Z" transform="translate(296.22 228.28)"/><path class="cls-126" d="M270.23,380.7a.39.39,0,1,1-.39-.38A.38.38,0,0,1,270.23,380.7Z" transform="translate(296.22 228.28)"/><path class="cls-126" d="M260.94,384.78a.38.38,0,1,1-.38-.38A.38.38,0,0,1,260.94,384.78Z" transform="translate(296.22 228.28)"/><path class="cls-126" d="M264.88,383a.38.38,0,1,1-.38-.38A.38.38,0,0,1,264.88,383Z" transform="translate(296.22 228.28)"/><path class="cls-126" d="M286.42,337.92a.38.38,0,1,1-.38-.38A.38.38,0,0,1,286.42,337.92Z" transform="translate(296.22 228.28)"/><path class="cls-126" d="M293.13,329.77a.38.38,0,1,1-.38-.38A.38.38,0,0,1,293.13,329.77Z" transform="translate(296.22 228.28)"/><path class="cls-126" d="M298.88,328.55a.38.38,0,1,1-.38-.38A.38.38,0,0,1,298.88,328.55Z" transform="translate(296.22 228.28)"/><path class="cls-126" d="M303.81,337a.38.38,0,1,1-.38-.38A.38.38,0,0,1,303.81,337Z" transform="translate(296.22 228.28)"/><path class="cls-126" d="M303.74,347.51a.38.38,0,1,1-.38-.38A.38.38,0,0,1,303.74,347.51Z" transform="translate(296.22 228.28)"/><circle class="cls-126" cx="556.98" cy="559.41" r="0.38"/><path class="cls-126" d="M255.53,298.05a.38.38,0,1,1-.38-.38A.38.38,0,0,1,255.53,298.05Z" transform="translate(296.22 228.28)"/><path class="cls-126" d="M254.55,289.19a.38.38,0,1,1-.38-.38A.38.38,0,0,1,254.55,289.19Z" transform="translate(296.22 228.28)"/><path class="cls-126" d="M228.35,305a.38.38,0,1,1-.38-.38A.38.38,0,0,1,228.35,305Z" transform="translate(296.22 228.28)"/><path class="cls-126" d="M225.46,340.5a.39.39,0,0,1-.39.38.38.38,0,1,1,0-.76A.39.39,0,0,1,225.46,340.5Z" transform="translate(296.22 228.28)"/><path class="cls-126" d="M222.81,349.29a.38.38,0,1,1-.38-.38A.38.38,0,0,1,222.81,349.29Z" transform="translate(296.22 228.28)"/><path class="cls-126" d="M215,361.28a.38.38,0,1,1-.38-.38A.38.38,0,0,1,215,361.28Z" transform="translate(296.22 228.28)"/><path class="cls-126" d="M210,369.28a.38.38,0,1,1-.76,0,.38.38,0,1,1,.76,0Z" transform="translate(296.22 228.28)"/><path class="cls-126" d="M138.5,396.73a.38.38,0,1,1-.38-.38A.38.38,0,0,1,138.5,396.73Z" transform="translate(296.22 228.28)"/><path class="cls-126" d="M124.73,407a.38.38,0,1,1-.76,0,.38.38,0,1,1,.76,0Z" transform="translate(296.22 228.28)"/><path class="cls-126" d="M156.42,377.17a.38.38,0,1,1-.38-.38A.38.38,0,0,1,156.42,377.17Z" transform="translate(296.22 228.28)"/><path class="cls-126" d="M157.26,348.75a.38.38,0,1,1-.38-.38A.38.38,0,0,1,157.26,348.75Z" transform="translate(296.22 228.28)"/><circle class="cls-126" cx="475.08" cy="528.49" r="0.38"/><path class="cls-126" d="M173.55,292.49a.38.38,0,1,1-.38-.38A.38.38,0,0,1,173.55,292.49Z" transform="translate(296.22 228.28)"/><path class="cls-126" d="M152.21,316a.38.38,0,1,1-.38-.38A.38.38,0,0,1,152.21,316Z" transform="translate(296.22 228.28)"/><path class="cls-126" d="M123.91,361.51a.38.38,0,1,1-.38-.38A.38.38,0,0,1,123.91,361.51Z" transform="translate(296.22 228.28)"/><path class="cls-126" d="M125.55,332.52a.38.38,0,1,1-.38-.38A.38.38,0,0,1,125.55,332.52Z" transform="translate(296.22 228.28)"/><path class="cls-126" d="M137.41,288a.38.38,0,1,1-.38-.39A.38.38,0,0,1,137.41,288Z" transform="translate(296.22 228.28)"/><path class="cls-126" d="M257.54,205.78a.38.38,0,1,1-.38-.38A.38.38,0,0,1,257.54,205.78Z" transform="translate(296.22 228.28)"/><path class="cls-126" d="M271.26,199.89a.38.38,0,1,1-.38-.38A.38.38,0,0,1,271.26,199.89Z" transform="translate(296.22 228.28)"/><path class="cls-126" d="M264.4,253.83a.38.38,0,1,1-.38-.38A.38.38,0,0,1,264.4,253.83Z" transform="translate(296.22 228.28)"/><path class="cls-126" d="M263.3,287.18a.38.38,0,0,1-.38.38.38.38,0,1,1,0-.76A.38.38,0,0,1,263.3,287.18Z" transform="translate(296.22 228.28)"/><path class="cls-126" d="M269.83,289.18a.38.38,0,1,1-.38-.38A.38.38,0,0,1,269.83,289.18Z" transform="translate(296.22 228.28)"/><path class="cls-126" d="M280.1,279.08a.38.38,0,1,1-.38-.38A.38.38,0,0,1,280.1,279.08Z" transform="translate(296.22 228.28)"/><path class="cls-126" d="M247.66,271.59a.38.38,0,1,1-.38-.38A.38.38,0,0,1,247.66,271.59Z" transform="translate(296.22 228.28)"/><path class="cls-126" d="M246.34,237.65a.38.38,0,1,1-.38-.38A.38.38,0,0,1,246.34,237.65Z" transform="translate(296.22 228.28)"/><path class="cls-126" d="M282.46,210.05a.38.38,0,1,1-.38-.38A.38.38,0,0,1,282.46,210.05Z" transform="translate(296.22 228.28)"/><path class="cls-126" d="M288,210.94a.38.38,0,1,1-.38-.38A.38.38,0,0,1,288,210.94Z" transform="translate(296.22 228.28)"/><path class="cls-126" d="M289.16,324.21a.38.38,0,1,1-.38-.38A.38.38,0,0,1,289.16,324.21Z" transform="translate(296.22 228.28)"/><path class="cls-126" d="M297,343.76a.38.38,0,1,1-.38-.38A.38.38,0,0,1,297,343.76Z" transform="translate(296.22 228.28)"/><path class="cls-126" d="M353.16,308.47a.38.38,0,1,1-.38-.38A.38.38,0,0,1,353.16,308.47Z" transform="translate(296.22 228.28)"/><path class="cls-126" d="M415,192.21a.38.38,0,1,1-.38-.38A.38.38,0,0,1,415,192.21Z" transform="translate(296.22 228.28)"/><path class="cls-126" d="M412.12,185a.38.38,0,1,1-.38-.38A.38.38,0,0,1,412.12,185Z" transform="translate(296.22 228.28)"/><path class="cls-126" d="M339.2,276.77a.38.38,0,1,1-.38-.38A.38.38,0,0,1,339.2,276.77Z" transform="translate(296.22 228.28)"/><path class="cls-126" d="M314.18,332.78a.38.38,0,1,1-.38-.38A.38.38,0,0,1,314.18,332.78Z" transform="translate(296.22 228.28)"/><path class="cls-126" d="M374.93,330.83a.38.38,0,1,1-.38-.38A.38.38,0,0,1,374.93,330.83Z" transform="translate(296.22 228.28)"/><path class="cls-126" d="M489.89,281.61a.38.38,0,1,1-.38-.38A.38.38,0,0,1,489.89,281.61Z" transform="translate(296.22 228.28)"/><path class="cls-126" d="M472.42,280.2a.38.38,0,1,1-.38-.38A.38.38,0,0,1,472.42,280.2Z" transform="translate(296.22 228.28)"/><path class="cls-126" d="M385.85,329.59a.38.38,0,1,1-.38-.38A.38.38,0,0,1,385.85,329.59Z" transform="translate(296.22 228.28)"/><path class="cls-126" d="M379.21,329.27a.38.38,0,1,1-.38-.38A.38.38,0,0,1,379.21,329.27Z" transform="translate(296.22 228.28)"/><path class="cls-126" d="M380.39,239.17a.38.38,0,1,1-.38-.38A.38.38,0,0,1,380.39,239.17Z" transform="translate(296.22 228.28)"/><path class="cls-126" d="M390.43,205.13a.38.38,0,0,1-.38.38.38.38,0,1,1,0-.76A.38.38,0,0,1,390.43,205.13Z" transform="translate(296.22 228.28)"/><path class="cls-126" d="M393.33,231.57a.38.38,0,1,1-.38-.38A.38.38,0,0,1,393.33,231.57Z" transform="translate(296.22 228.28)"/><path class="cls-126" d="M486.68,339.91a.38.38,0,1,1-.38-.38A.38.38,0,0,1,486.68,339.91Z" transform="translate(296.22 228.28)"/><path class="cls-126" d="M500.6,334.33a.38.38,0,1,1-.38-.38A.38.38,0,0,1,500.6,334.33Z" transform="translate(296.22 228.28)"/><path class="cls-126" d="M462.51,248.93a.38.38,0,1,1-.38-.38A.38.38,0,0,1,462.51,248.93Z" transform="translate(296.22 228.28)"/><path class="cls-126" d="M452.79,233.41a.38.38,0,1,1-.38-.39A.38.38,0,0,1,452.79,233.41Z" transform="translate(296.22 228.28)"/><path class="cls-126" d="M453.65,285.82a.38.38,0,1,1-.38-.38A.38.38,0,0,1,453.65,285.82Z" transform="translate(296.22 228.28)"/><path class="cls-126" d="M463.68,320.83a.38.38,0,1,1-.38-.38A.38.38,0,0,1,463.68,320.83Z" transform="translate(296.22 228.28)"/><path class="cls-126" d="M490.26,317.3a.38.38,0,1,1-.38-.39A.38.38,0,0,1,490.26,317.3Z" transform="translate(296.22 228.28)"/><path class="cls-126" d="M534.23,290.37a.38.38,0,1,1-.38-.38A.38.38,0,0,1,534.23,290.37Z" transform="translate(296.22 228.28)"/><path class="cls-126" d="M568.74,256.21a.38.38,0,1,1-.38-.38A.38.38,0,0,1,568.74,256.21Z" transform="translate(296.22 228.28)"/><path class="cls-126" d="M573.69,252.29a.38.38,0,1,1-.38-.38A.38.38,0,0,1,573.69,252.29Z" transform="translate(296.22 228.28)"/><path class="cls-126" d="M555.08,299.5a.38.38,0,1,1-.38-.38A.38.38,0,0,1,555.08,299.5Z" transform="translate(296.22 228.28)"/><path class="cls-126" d="M552.43,355.5a.39.39,0,1,1-.38-.38A.38.38,0,0,1,552.43,355.5Z" transform="translate(296.22 228.28)"/><path class="cls-126" d="M577,355.32a.38.38,0,1,1-.38-.38A.38.38,0,0,1,577,355.32Z" transform="translate(296.22 228.28)"/><path class="cls-126" d="M630,340.06a.38.38,0,1,1-.38-.38A.38.38,0,0,1,630,340.06Z" transform="translate(296.22 228.28)"/><path class="cls-126" d="M653.09,309.13a.38.38,0,1,1-.38-.38A.38.38,0,0,1,653.09,309.13Z" transform="translate(296.22 228.28)"/><path class="cls-126" d="M641,322.9a.38.38,0,1,1-.38-.38A.38.38,0,0,1,641,322.9Z" transform="translate(296.22 228.28)"/><path class="cls-126" d="M640.25,364.53a.38.38,0,1,1-.38-.38A.38.38,0,0,1,640.25,364.53Z" transform="translate(296.22 228.28)"/><path class="cls-126" d="M652.14,375.41a.38.38,0,1,1-.38-.38A.38.38,0,0,1,652.14,375.41Z" transform="translate(296.22 228.28)"/><path class="cls-126" d="M657.09,362.21a.38.38,0,1,1-.38-.38A.38.38,0,0,1,657.09,362.21Z" transform="translate(296.22 228.28)"/><path class="cls-126" d="M666.66,310.18a.38.38,0,1,1-.38-.38A.38.38,0,0,1,666.66,310.18Z" transform="translate(296.22 228.28)"/><path class="cls-126" d="M661.17,247.37a.38.38,0,1,1-.38-.38A.38.38,0,0,1,661.17,247.37Z" transform="translate(296.22 228.28)"/><path class="cls-126" d="M635.17,218.77a.38.38,0,1,1-.38-.38A.38.38,0,0,1,635.17,218.77Z" transform="translate(296.22 228.28)"/><path class="cls-126" d="M570.69,207.8a.38.38,0,1,1-.38-.38A.38.38,0,0,1,570.69,207.8Z" transform="translate(296.22 228.28)"/><path class="cls-126" d="M487.32,199a.38.38,0,0,1-.38.38.39.39,0,1,1,0-.77A.38.38,0,0,1,487.32,199Z" transform="translate(296.22 228.28)"/><path class="cls-126" d="M490.83,222a.38.38,0,1,1-.38-.38A.38.38,0,0,1,490.83,222Z" transform="translate(296.22 228.28)"/><path class="cls-126" d="M497.22,265.33a.38.38,0,1,1-.76,0,.38.38,0,0,1,.76,0Z" transform="translate(296.22 228.28)"/><path class="cls-126" d="M557.92,229.2a.38.38,0,1,1-.38-.38A.38.38,0,0,1,557.92,229.2Z" transform="translate(296.22 228.28)"/><path class="cls-126" d="M599,200.4a.38.38,0,1,1-.38-.38A.38.38,0,0,1,599,200.4Z" transform="translate(296.22 228.28)"/><path class="cls-126" d="M606.17,216.33a.38.38,0,1,1-.38-.38A.38.38,0,0,1,606.17,216.33Z" transform="translate(296.22 228.28)"/><path class="cls-126" d="M660,316.05a.38.38,0,1,1-.38-.38A.38.38,0,0,1,660,316.05Z" transform="translate(296.22 228.28)"/><path class="cls-126" d="M657.89,319.11a.39.39,0,1,1-.38-.38A.38.38,0,0,1,657.89,319.11Z" transform="translate(296.22 228.28)"/><path class="cls-126" d="M661.43,321.73a.38.38,0,1,1-.38-.38A.38.38,0,0,1,661.43,321.73Z" transform="translate(296.22 228.28)"/><path class="cls-126" d="M681.46,332.81a.38.38,0,1,1-.38-.38A.38.38,0,0,1,681.46,332.81Z" transform="translate(296.22 228.28)"/><path class="cls-126" d="M638.48,357.77a.38.38,0,1,1-.38-.38A.38.38,0,0,1,638.48,357.77Z" transform="translate(296.22 228.28)"/><path class="cls-126" d="M551.27,360a.38.38,0,1,1-.38-.38A.38.38,0,0,1,551.27,360Z" transform="translate(296.22 228.28)"/><path class="cls-126" d="M471.66,353.39a.38.38,0,1,1-.38-.39A.38.38,0,0,1,471.66,353.39Z" transform="translate(296.22 228.28)"/><path class="cls-126" d="M458.91,364.56a.38.38,0,1,1-.38-.38A.38.38,0,0,1,458.91,364.56Z" transform="translate(296.22 228.28)"/><path class="cls-126" d="M452.76,365.94a.39.39,0,1,1-.39-.38A.38.38,0,0,1,452.76,365.94Z" transform="translate(296.22 228.28)"/><path class="cls-126" d="M464.35,360.19a.38.38,0,1,1-.38-.38A.38.38,0,0,1,464.35,360.19Z" transform="translate(296.22 228.28)"/><path class="cls-126" d="M444.71,362a.38.38,0,1,1-.38-.38A.38.38,0,0,1,444.71,362Z" transform="translate(296.22 228.28)"/><path class="cls-126" d="M425.64,414.34a.38.38,0,1,1-.38-.38A.38.38,0,0,1,425.64,414.34Z" transform="translate(296.22 228.28)"/><path class="cls-126" d="M428.9,417.38a.38.38,0,1,1-.38-.38A.38.38,0,0,1,428.9,417.38Z" transform="translate(296.22 228.28)"/><path class="cls-126" d="M436.59,416.13a.39.39,0,0,1-.39.38.38.38,0,1,1,0-.76A.39.39,0,0,1,436.59,416.13Z" transform="translate(296.22 228.28)"/><path class="cls-126" d="M443,407.18a.38.38,0,1,1-.38-.38A.38.38,0,0,1,443,407.18Z" transform="translate(296.22 228.28)"/><path class="cls-126" d="M438.52,394.72a.38.38,0,1,1-.38-.38A.38.38,0,0,1,438.52,394.72Z" transform="translate(296.22 228.28)"/><path class="cls-126" d="M396.3,422.3a.38.38,0,1,1-.38-.39A.38.38,0,0,1,396.3,422.3Z" transform="translate(296.22 228.28)"/><path class="cls-126" d="M394.58,418.37a.38.38,0,1,1-.38-.38A.38.38,0,0,1,394.58,418.37Z" transform="translate(296.22 228.28)"/><path class="cls-126" d="M391.3,423a.38.38,0,1,1-.38-.38A.38.38,0,0,1,391.3,423Z" transform="translate(296.22 228.28)"/><path class="cls-126" d="M387.3,410.39a.38.38,0,1,1-.38-.38A.38.38,0,0,1,387.3,410.39Z" transform="translate(296.22 228.28)"/><path class="cls-126" d="M400.62,394a.38.38,0,1,1-.38-.38A.38.38,0,0,1,400.62,394Z" transform="translate(296.22 228.28)"/><path class="cls-126" d="M408.82,389a.38.38,0,1,1-.38-.38A.38.38,0,0,1,408.82,389Z" transform="translate(296.22 228.28)"/><circle class="cls-126" cx="697.82" cy="616.6" r="0.38"/><path class="cls-126" d="M393.5,393.51a.38.38,0,1,1-.38-.38A.38.38,0,0,1,393.5,393.51Z" transform="translate(296.22 228.28)"/><path class="cls-126" d="M389.83,395.26a.38.38,0,0,1-.76,0,.38.38,0,1,1,.76,0Z" transform="translate(296.22 228.28)"/><path class="cls-126" d="M390.34,400.66a.38.38,0,1,1-.38-.38A.38.38,0,0,1,390.34,400.66Z" transform="translate(296.22 228.28)"/><path class="cls-126" d="M387.69,405.25a.38.38,0,1,1-.38-.38A.38.38,0,0,1,387.69,405.25Z" transform="translate(296.22 228.28)"/><path class="cls-126" d="M385.74,419.43a.39.39,0,1,1-.39-.38A.38.38,0,0,1,385.74,419.43Z" transform="translate(296.22 228.28)"/><path class="cls-126" d="M385.27,423.76a.39.39,0,0,1-.39.38.38.38,0,0,1,0-.76A.39.39,0,0,1,385.27,423.76Z" transform="translate(296.22 228.28)"/><path class="cls-126" d="M380.63,420.21a.38.38,0,1,1-.38-.38A.38.38,0,0,1,380.63,420.21Z" transform="translate(296.22 228.28)"/><path class="cls-126" d="M378.33,415.66a.38.38,0,1,1-.38-.38A.38.38,0,0,1,378.33,415.66Z" transform="translate(296.22 228.28)"/><circle class="cls-126" cx="669.16" cy="645.98" r="0.38"/><path class="cls-126" d="M362.92,418.35a.38.38,0,1,1-.38-.38A.38.38,0,0,1,362.92,418.35Z" transform="translate(296.22 228.28)"/><path class="cls-126" d="M360.18,414.78a.38.38,0,0,1-.76,0,.38.38,0,1,1,.76,0Z" transform="translate(296.22 228.28)"/><path class="cls-126" d="M355.32,416.62a.38.38,0,0,1-.76,0,.38.38,0,1,1,.76,0Z" transform="translate(296.22 228.28)"/><path class="cls-126" d="M349.86,414.17a.39.39,0,1,1-.39-.38A.38.38,0,0,1,349.86,414.17Z" transform="translate(296.22 228.28)"/><path class="cls-126" d="M348.43,419.14a.38.38,0,1,1-.76,0,.38.38,0,0,1,.76,0Z" transform="translate(296.22 228.28)"/><path class="cls-126" d="M345.36,415.47a.38.38,0,1,1-.38-.38A.38.38,0,0,1,345.36,415.47Z" transform="translate(296.22 228.28)"/><path class="cls-126" d="M344.17,420.89a.38.38,0,1,1-.38-.38A.38.38,0,0,1,344.17,420.89Z" transform="translate(296.22 228.28)"/><path class="cls-126" d="M344.76,426.17a.38.38,0,1,1-.38-.38A.38.38,0,0,1,344.76,426.17Z" transform="translate(296.22 228.28)"/><path class="cls-126" d="M348.3,433.33a.38.38,0,1,1-.38-.38A.38.38,0,0,1,348.3,433.33Z" transform="translate(296.22 228.28)"/><path class="cls-126" d="M355.27,430a.38.38,0,1,1-.38-.38A.38.38,0,0,1,355.27,430Z" transform="translate(296.22 228.28)"/><path class="cls-126" d="M363.67,425.68a.38.38,0,1,1-.76,0,.38.38,0,0,1,.76,0Z" transform="translate(296.22 228.28)"/><path class="cls-126" d="M370.65,415.07a.38.38,0,1,1-.38-.38A.38.38,0,0,1,370.65,415.07Z" transform="translate(296.22 228.28)"/><path class="cls-126" d="M373.1,410.9a.38.38,0,1,1-.38-.39A.38.38,0,0,1,373.1,410.9Z" transform="translate(296.22 228.28)"/><path class="cls-126" d="M366.66,410.54a.38.38,0,1,1-.38-.38A.38.38,0,0,1,366.66,410.54Z" transform="translate(296.22 228.28)"/><path class="cls-126" d="M358.32,409.49a.38.38,0,1,1-.38-.38A.38.38,0,0,1,358.32,409.49Z" transform="translate(296.22 228.28)"/><path class="cls-126" d="M355.13,422.51a.38.38,0,1,1-.76,0,.38.38,0,0,1,.76,0Z" transform="translate(296.22 228.28)"/><path class="cls-126" d="M367.28,420.66a.38.38,0,1,1-.38-.38A.38.38,0,0,1,367.28,420.66Z" transform="translate(296.22 228.28)"/><path class="cls-126" d="M379,426.14a.38.38,0,1,1-.38-.38A.38.38,0,0,1,379,426.14Z" transform="translate(296.22 228.28)"/><path class="cls-126" d="M389.64,419.21a.38.38,0,1,1-.38-.38A.38.38,0,0,1,389.64,419.21Z" transform="translate(296.22 228.28)"/><path class="cls-126" d="M390.93,412a.38.38,0,1,1-.38-.38A.38.38,0,0,1,390.93,412Z" transform="translate(296.22 228.28)"/><path class="cls-126" d="M377.35,403.48a.38.38,0,1,1-.38-.38A.38.38,0,0,1,377.35,403.48Z" transform="translate(296.22 228.28)"/><path class="cls-126" d="M372.22,401.82a.38.38,0,1,1-.38-.38A.38.38,0,0,1,372.22,401.82Z" transform="translate(296.22 228.28)"/><path class="cls-126" d="M366.86,400.7a.38.38,0,1,1-.38-.38A.38.38,0,0,1,366.86,400.7Z" transform="translate(296.22 228.28)"/><path class="cls-126" d="M363.62,399a.39.39,0,1,1-.39-.38A.38.38,0,0,1,363.62,399Z" transform="translate(296.22 228.28)"/><path class="cls-126" d="M380.21,400.08a.38.38,0,1,1-.38-.38A.38.38,0,0,1,380.21,400.08Z" transform="translate(296.22 228.28)"/><path class="cls-126" d="M398,403.91a.38.38,0,1,1-.38-.38A.38.38,0,0,1,398,403.91Z" transform="translate(296.22 228.28)"/><path class="cls-126" d="M404,401.58a.38.38,0,1,1-.38-.38A.38.38,0,0,1,404,401.58Z" transform="translate(296.22 228.28)"/><path class="cls-126" d="M404,398.09a.38.38,0,1,1-.38-.38A.38.38,0,0,1,404,398.09Z" transform="translate(296.22 228.28)"/><path class="cls-126" d="M398.55,397.84a.39.39,0,1,1-.38-.38A.38.38,0,0,1,398.55,397.84Z" transform="translate(296.22 228.28)"/><path class="cls-126" d="M395.14,401a.38.38,0,1,1-.38-.38A.38.38,0,0,1,395.14,401Z" transform="translate(296.22 228.28)"/><path class="cls-126" d="M403.55,408a.39.39,0,1,1-.39-.38A.38.38,0,0,1,403.55,408Z" transform="translate(296.22 228.28)"/><path class="cls-126" d="M412.23,409.69a.38.38,0,1,1-.38-.38A.38.38,0,0,1,412.23,409.69Z" transform="translate(296.22 228.28)"/><path class="cls-126" d="M433.05,424.54a.39.39,0,1,1-.77,0,.39.39,0,0,1,.77,0Z" transform="translate(296.22 228.28)"/><path class="cls-126" d="M439.14,430.31a.38.38,0,1,1-.38-.38A.38.38,0,0,1,439.14,430.31Z" transform="translate(296.22 228.28)"/><path class="cls-126" d="M442.2,432.63a.38.38,0,1,1-.38-.38A.38.38,0,0,1,442.2,432.63Z" transform="translate(296.22 228.28)"/><path class="cls-126" d="M444.4,429.3a.38.38,0,1,1-.38-.38A.38.38,0,0,1,444.4,429.3Z" transform="translate(296.22 228.28)"/><path class="cls-126" d="M442.29,426.48a.38.38,0,1,1-.38-.38A.38.38,0,0,1,442.29,426.48Z" transform="translate(296.22 228.28)"/><path class="cls-126" d="M428.69,428.82a.38.38,0,0,1-.76,0,.38.38,0,1,1,.76,0Z" transform="translate(296.22 228.28)"/><path class="cls-126" d="M421.94,425.38a.38.38,0,0,1-.76,0,.38.38,0,1,1,.76,0Z" transform="translate(296.22 228.28)"/><path class="cls-126" d="M412,421.52a.38.38,0,1,1-.38-.38A.38.38,0,0,1,412,421.52Z" transform="translate(296.22 228.28)"/><path class="cls-126" d="M383.1,415.59a.38.38,0,1,1-.38-.38A.38.38,0,0,1,383.1,415.59Z" transform="translate(296.22 228.28)"/><path class="cls-126" d="M358.21,419.62a.38.38,0,1,1-.38-.38A.38.38,0,0,1,358.21,419.62Z" transform="translate(296.22 228.28)"/><path class="cls-126" d="M319.57,422.9a.38.38,0,1,1-.38-.38A.38.38,0,0,1,319.57,422.9Z" transform="translate(296.22 228.28)"/><path class="cls-126" d="M306.22,415.51a.38.38,0,1,1-.38-.38A.38.38,0,0,1,306.22,415.51Z" transform="translate(296.22 228.28)"/><path class="cls-126" d="M286.66,412.77a.38.38,0,1,1-.38-.38A.38.38,0,0,1,286.66,412.77Z" transform="translate(296.22 228.28)"/><path class="cls-126" d="M267.25,406.92a.38.38,0,1,1-.38-.38A.38.38,0,0,1,267.25,406.92Z" transform="translate(296.22 228.28)"/><path class="cls-126" d="M263.81,407.94a.38.38,0,1,1-.38-.38A.38.38,0,0,1,263.81,407.94Z" transform="translate(296.22 228.28)"/><path class="cls-126" d="M280,408.21a.38.38,0,0,1-.38.38.38.38,0,1,1,0-.76A.38.38,0,0,1,280,408.21Z" transform="translate(296.22 228.28)"/><path class="cls-126" d="M292,411.9a.39.39,0,1,1-.77,0,.39.39,0,0,1,.77,0Z" transform="translate(296.22 228.28)"/><path class="cls-126" d="M312.46,417.14a.38.38,0,1,1-.38-.38A.38.38,0,0,1,312.46,417.14Z" transform="translate(296.22 228.28)"/><path class="cls-126" d="M315.67,421.08a.38.38,0,1,1-.38-.38A.38.38,0,0,1,315.67,421.08Z" transform="translate(296.22 228.28)"/><path class="cls-126" d="M322.47,420.17a.38.38,0,1,1-.38-.38A.38.38,0,0,1,322.47,420.17Z" transform="translate(296.22 228.28)"/><path class="cls-126" d="M327.78,414a.38.38,0,1,1-.38-.38A.38.38,0,0,1,327.78,414Z" transform="translate(296.22 228.28)"/><path class="cls-126" d="M335.59,396.78a.38.38,0,0,1-.38.38.39.39,0,0,1-.39-.38.4.4,0,0,1,.39-.39A.39.39,0,0,1,335.59,396.78Z" transform="translate(296.22 228.28)"/><path class="cls-126" d="M332.26,407.2a.38.38,0,0,1-.76,0,.38.38,0,1,1,.76,0Z" transform="translate(296.22 228.28)"/><path class="cls-126" d="M323.18,426.21a.38.38,0,1,1-.38-.38A.38.38,0,0,1,323.18,426.21Z" transform="translate(296.22 228.28)"/><path class="cls-126" d="M311.48,425.12a.38.38,0,1,1-.38-.38A.38.38,0,0,1,311.48,425.12Z" transform="translate(296.22 228.28)"/><path class="cls-126" d="M297.06,426.16a.38.38,0,1,1-.38-.38A.38.38,0,0,1,297.06,426.16Z" transform="translate(296.22 228.28)"/><path class="cls-126" d="M297.35,422.72a.39.39,0,1,1-.77,0,.39.39,0,0,1,.77,0Z" transform="translate(296.22 228.28)"/><path class="cls-126" d="M293.34,408.19a.38.38,0,1,1-.38-.38A.38.38,0,0,1,293.34,408.19Z" transform="translate(296.22 228.28)"/><path class="cls-126" d="M282.77,404.93a.38.38,0,0,1-.38.38.38.38,0,1,1,0-.76A.38.38,0,0,1,282.77,404.93Z" transform="translate(296.22 228.28)"/><path class="cls-126" d="M271.65,421.26a.38.38,0,1,1-.38-.38A.38.38,0,0,1,271.65,421.26Z" transform="translate(296.22 228.28)"/><path class="cls-126" d="M267.22,423.25a.38.38,0,1,1-.38-.38A.38.38,0,0,1,267.22,423.25Z" transform="translate(296.22 228.28)"/><path class="cls-126" d="M264.54,420.48a.38.38,0,1,1-.38-.38A.38.38,0,0,1,264.54,420.48Z" transform="translate(296.22 228.28)"/><path class="cls-126" d="M267.42,418.39A.38.38,0,1,1,267,418,.38.38,0,0,1,267.42,418.39Z" transform="translate(296.22 228.28)"/><path class="cls-126" d="M290,421.26a.38.38,0,0,1-.38.38.38.38,0,1,1,0-.76A.38.38,0,0,1,290,421.26Z" transform="translate(296.22 228.28)"/><path class="cls-126" d="M354.42,411.88a.38.38,0,0,1-.38.38.38.38,0,1,1,0-.76A.38.38,0,0,1,354.42,411.88Z" transform="translate(296.22 228.28)"/><path class="cls-126" d="M363.11,408.45a.38.38,0,1,1-.38-.38A.38.38,0,0,1,363.11,408.45Z" transform="translate(296.22 228.28)"/><path class="cls-126" d="M363.62,389.39a.38.38,0,0,1-.38.38.38.38,0,1,1,0-.76A.38.38,0,0,1,363.62,389.39Z" transform="translate(296.22 228.28)"/><path class="cls-126" d="M364.37,383.87a.38.38,0,1,1-.38-.38A.38.38,0,0,1,364.37,383.87Z" transform="translate(296.22 228.28)"/><path class="cls-126" d="M373.51,391.58a.38.38,0,1,1-.38-.38A.38.38,0,0,1,373.51,391.58Z" transform="translate(296.22 228.28)"/><path class="cls-126" d="M397.14,412.46a.38.38,0,0,1-.38.38.38.38,0,1,1,0-.76A.38.38,0,0,1,397.14,412.46Z" transform="translate(296.22 228.28)"/><path class="cls-126" d="M418.5,410.49a.38.38,0,1,1-.38-.38A.38.38,0,0,1,418.5,410.49Z" transform="translate(296.22 228.28)"/><path class="cls-126" d="M431.22,410.23a.38.38,0,1,1-.38-.38A.38.38,0,0,1,431.22,410.23Z" transform="translate(296.22 228.28)"/><path class="cls-126" d="M450.92,403.4a.38.38,0,1,1-.38-.38A.38.38,0,0,1,450.92,403.4Z" transform="translate(296.22 228.28)"/><path class="cls-126" d="M462.71,400.76a.38.38,0,1,1-.38-.38A.38.38,0,0,1,462.71,400.76Z" transform="translate(296.22 228.28)"/><path class="cls-126" d="M481.33,387.05a.38.38,0,1,1-.38-.38A.38.38,0,0,1,481.33,387.05Z" transform="translate(296.22 228.28)"/><path class="cls-126" d="M485.7,385.67a.38.38,0,1,1-.38-.38A.38.38,0,0,1,485.7,385.67Z" transform="translate(296.22 228.28)"/><path class="cls-126" d="M491.63,415.58a.38.38,0,1,1-.38-.38A.38.38,0,0,1,491.63,415.58Z" transform="translate(296.22 228.28)"/><path class="cls-126" d="M495.76,417.57a.38.38,0,0,1-.38.38.38.38,0,1,1,0-.76A.38.38,0,0,1,495.76,417.57Z" transform="translate(296.22 228.28)"/><path class="cls-126" d="M499.12,411.39a.38.38,0,1,1-.38-.38A.38.38,0,0,1,499.12,411.39Z" transform="translate(296.22 228.28)"/><path class="cls-126" d="M493.06,402.09a.38.38,0,1,1-.38-.38A.38.38,0,0,1,493.06,402.09Z" transform="translate(296.22 228.28)"/><path class="cls-126" d="M464.19,380.32a.39.39,0,0,1-.39.38.38.38,0,0,1,0-.76A.39.39,0,0,1,464.19,380.32Z" transform="translate(296.22 228.28)"/><path class="cls-126" d="M414.76,366.83a.38.38,0,1,1-.38-.38A.38.38,0,0,1,414.76,366.83Z" transform="translate(296.22 228.28)"/><path class="cls-126" d="M415.45,376.76a.38.38,0,1,1-.38-.38A.38.38,0,0,1,415.45,376.76Z" transform="translate(296.22 228.28)"/><path class="cls-126" d="M427.56,392.9a.38.38,0,1,1-.38-.38A.38.38,0,0,1,427.56,392.9Z" transform="translate(296.22 228.28)"/><path class="cls-126" d="M444.53,387.66a.38.38,0,0,1-.38.38.38.38,0,1,1,0-.76A.38.38,0,0,1,444.53,387.66Z" transform="translate(296.22 228.28)"/><path class="cls-126" d="M479.12,377.64a.38.38,0,1,1-.38-.39A.38.38,0,0,1,479.12,377.64Z" transform="translate(296.22 228.28)"/><path class="cls-126" d="M487.4,377a.38.38,0,1,1-.38-.38A.38.38,0,0,1,487.4,377Z" transform="translate(296.22 228.28)"/><path class="cls-126" d="M424.32,375.41a.38.38,0,1,1-.38-.38A.38.38,0,0,1,424.32,375.41Z" transform="translate(296.22 228.28)"/><path class="cls-126" d="M370,363.5a.38.38,0,1,1-.38-.38A.38.38,0,0,1,370,363.5Z" transform="translate(296.22 228.28)"/><circle class="cls-126" cx="622.81" cy="593.24" r="0.38"/><path class="cls-126" d="M309.71,367.72a.38.38,0,1,1-.38-.38A.38.38,0,0,1,309.71,367.72Z" transform="translate(296.22 228.28)"/><path class="cls-126" d="M284.85,380.57a.38.38,0,1,1-.38-.38A.38.38,0,0,1,284.85,380.57Z" transform="translate(296.22 228.28)"/><path class="cls-126" d="M283.26,386.31a.39.39,0,0,1-.39.39.39.39,0,0,1,0-.77A.39.39,0,0,1,283.26,386.31Z" transform="translate(296.22 228.28)"/><path class="cls-126" d="M290,392.39a.39.39,0,1,1-.38-.38A.38.38,0,0,1,290,392.39Z" transform="translate(296.22 228.28)"/><path class="cls-126" d="M349.63,387.13a.38.38,0,1,1-.38-.38A.38.38,0,0,1,349.63,387.13Z" transform="translate(296.22 228.28)"/><path class="cls-126" d="M370.15,384.71a.38.38,0,1,1-.38-.38A.38.38,0,0,1,370.15,384.71Z" transform="translate(296.22 228.28)"/><path class="cls-126" d="M342.59,390.85a.38.38,0,1,1-.38-.38A.38.38,0,0,1,342.59,390.85Z" transform="translate(296.22 228.28)"/><path class="cls-126" d="M316.74,395.08a.38.38,0,1,1-.76,0,.38.38,0,0,1,.76,0Z" transform="translate(296.22 228.28)"/><circle class="cls-126" cx="614.41" cy="620.36" r="0.38"/><path class="cls-126" d="M322,395.19a.39.39,0,1,1-.39-.38A.38.38,0,0,1,322,395.19Z" transform="translate(296.22 228.28)"/><path class="cls-126" d="M325.6,384.86a.38.38,0,1,1-.38-.38A.38.38,0,0,1,325.6,384.86Z" transform="translate(296.22 228.28)"/><path class="cls-126" d="M317,373.54a.38.38,0,1,1-.38-.38A.38.38,0,0,1,317,373.54Z" transform="translate(296.22 228.28)"/><path class="cls-126" d="M316.15,367.32a.38.38,0,1,1-.38-.38A.38.38,0,0,1,316.15,367.32Z" transform="translate(296.22 228.28)"/><path class="cls-126" d="M318.36,382.15a.38.38,0,0,1-.38.38.38.38,0,1,1,0-.76A.38.38,0,0,1,318.36,382.15Z" transform="translate(296.22 228.28)"/><path class="cls-126" d="M318.77,403a.38.38,0,1,1-.38-.38A.38.38,0,0,1,318.77,403Z" transform="translate(296.22 228.28)"/><path class="cls-126" d="M318.24,408.85a.38.38,0,1,1-.38-.38A.38.38,0,0,1,318.24,408.85Z" transform="translate(296.22 228.28)"/><path class="cls-126" d="M342.49,401.41a.38.38,0,1,1-.38-.38A.38.38,0,0,1,342.49,401.41Z" transform="translate(296.22 228.28)"/><path class="cls-126" d="M358.91,400.48a.38.38,0,0,1-.76,0,.38.38,0,1,1,.76,0Z" transform="translate(296.22 228.28)"/><path class="cls-126" d="M373.48,422a.38.38,0,1,1-.38-.38A.38.38,0,0,1,373.48,422Z" transform="translate(296.22 228.28)"/><path class="cls-126" d="M389.38,430.18a.39.39,0,0,1-.39.38.38.38,0,0,1,0-.76A.39.39,0,0,1,389.38,430.18Z" transform="translate(296.22 228.28)"/><path class="cls-126" d="M398,433.59a.39.39,0,0,1-.38.39.4.4,0,0,1-.39-.39.39.39,0,0,1,.39-.38A.38.38,0,0,1,398,433.59Z" transform="translate(296.22 228.28)"/><path class="cls-126" d="M388.4,434.7a.38.38,0,1,1-.38-.38A.38.38,0,0,1,388.4,434.7Z" transform="translate(296.22 228.28)"/><path class="cls-126" d="M363.65,440.16a.38.38,0,1,1-.38-.38A.38.38,0,0,1,363.65,440.16Z" transform="translate(296.22 228.28)"/><path class="cls-126" d="M358.88,439.32a.38.38,0,1,1-.38-.38A.38.38,0,0,1,358.88,439.32Z" transform="translate(296.22 228.28)"/><path class="cls-126" d="M361,442.37a.39.39,0,1,1-.39-.38A.38.38,0,0,1,361,442.37Z" transform="translate(296.22 228.28)"/><path class="cls-126" d="M355.71,437.49a.38.38,0,1,1-.38-.38A.38.38,0,0,1,355.71,437.49Z" transform="translate(296.22 228.28)"/><path class="cls-126" d="M362.51,436.52a.38.38,0,0,1-.76,0,.38.38,0,1,1,.76,0Z" transform="translate(296.22 228.28)"/><path class="cls-126" d="M356.36,433.27a.38.38,0,0,1-.38.38.38.38,0,1,1,0-.76A.38.38,0,0,1,356.36,433.27Z" transform="translate(296.22 228.28)"/><path class="cls-126" d="M359.89,433.43a.38.38,0,1,1-.38-.38A.38.38,0,0,1,359.89,433.43Z" transform="translate(296.22 228.28)"/><path class="cls-126" d="M360.61,430a.38.38,0,1,1-.38-.38A.38.38,0,0,1,360.61,430Z" transform="translate(296.22 228.28)"/><path class="cls-126" d="M364.79,433.19a.38.38,0,1,1-.38-.38A.38.38,0,0,1,364.79,433.19Z" transform="translate(296.22 228.28)"/><path class="cls-126" d="M368.13,441.13a.38.38,0,1,1-.38-.38A.38.38,0,0,1,368.13,441.13Z" transform="translate(296.22 228.28)"/><path class="cls-126" d="M376.91,439.78a.38.38,0,1,1-.38-.38A.38.38,0,0,1,376.91,439.78Z" transform="translate(296.22 228.28)"/><path class="cls-126" d="M373.15,442.49a.38.38,0,1,1-.38-.38A.38.38,0,0,1,373.15,442.49Z" transform="translate(296.22 228.28)"/><path class="cls-126" d="M378.79,435.85a.38.38,0,1,1-.38-.38A.38.38,0,0,1,378.79,435.85Z" transform="translate(296.22 228.28)"/><path class="cls-126" d="M372.65,438.93a.38.38,0,0,1-.38.38.38.38,0,1,1,0-.76A.38.38,0,0,1,372.65,438.93Z" transform="translate(296.22 228.28)"/><path class="cls-126" d="M374.08,435.62a.38.38,0,1,1-.38-.38A.38.38,0,0,1,374.08,435.62Z" transform="translate(296.22 228.28)"/><circle class="cls-126" cx="665.94" cy="665.28" r="0.38"/><path class="cls-126" d="M375.14,431.71a.38.38,0,1,1-.38-.38A.38.38,0,0,1,375.14,431.71Z" transform="translate(296.22 228.28)"/><path class="cls-126" d="M369.11,432.78a.38.38,0,1,1-.38-.38A.38.38,0,0,1,369.11,432.78Z" transform="translate(296.22 228.28)"/><path class="cls-126" d="M372.32,430.68a.38.38,0,1,1-.38-.38A.38.38,0,0,1,372.32,430.68Z" transform="translate(296.22 228.28)"/><path class="cls-126" d="M370.09,428.65a.39.39,0,0,1-.39.38.38.38,0,1,1,0-.76A.39.39,0,0,1,370.09,428.65Z" transform="translate(296.22 228.28)"/></g></g></g></g></svg>