<svg xmlns="http://www.w3.org/2000/svg" xmlns:xlink="http://www.w3.org/1999/xlink" viewBox="0 0 267.07 364.83"><defs><style>.cls-1{isolation:isolate;}.cls-2{fill:url(#radial-gradient);}.cls-3{fill:url(#radial-gradient-2);}.cls-120,.cls-130,.cls-131,.cls-136,.cls-139,.cls-140,.cls-152,.cls-153,.cls-4,.cls-6,.cls-60,.cls-65,.cls-67,.cls-68,.cls-69,.cls-7,.cls-70,.cls-71,.cls-72,.cls-73,.cls-75,.cls-76,.cls-77,.cls-8,.cls-82,.cls-88,.cls-9{mix-blend-mode:screen;}.cls-4{fill:url(#radial-gradient-3);}.cls-5{opacity:0.7;}.cls-6{fill:url(#radial-gradient-4);}.cls-7{fill:url(#radial-gradient-5);}.cls-8{fill:url(#radial-gradient-6);}.cls-9{fill:url(#radial-gradient-7);}.cls-10,.cls-11,.cls-118,.cls-12,.cls-13,.cls-14,.cls-143,.cls-144,.cls-15,.cls-151,.cls-16,.cls-17,.cls-18,.cls-19,.cls-20,.cls-21,.cls-22,.cls-23,.cls-24,.cls-25,.cls-26,.cls-27,.cls-28,.cls-29,.cls-30,.cls-31,.cls-32,.cls-33,.cls-34,.cls-35,.cls-36,.cls-37,.cls-38,.cls-39,.cls-40,.cls-41,.cls-42,.cls-43,.cls-44,.cls-45,.cls-46,.cls-47,.cls-48,.cls-49,.cls-50,.cls-51,.cls-52,.cls-53,.cls-54,.cls-55,.cls-56,.cls-57,.cls-58,.cls-59,.cls-60,.cls-61,.cls-66,.cls-67,.cls-81,.cls-87{opacity:0.5;}.cls-10,.cls-102,.cls-109,.cls-11,.cls-111,.cls-112,.cls-113,.cls-114,.cls-118,.cls-12,.cls-13,.cls-133,.cls-134,.cls-135,.cls-14,.cls-141,.cls-143,.cls-144,.cls-149,.cls-15,.cls-151,.cls-16,.cls-17,.cls-18,.cls-19,.cls-20,.cls-21,.cls-22,.cls-23,.cls-24,.cls-25,.cls-26,.cls-27,.cls-28,.cls-29,.cls-30,.cls-31,.cls-32,.cls-33,.cls-34,.cls-35,.cls-36,.cls-37,.cls-38,.cls-39,.cls-40,.cls-41,.cls-42,.cls-43,.cls-44,.cls-45,.cls-46,.cls-47,.cls-48,.cls-49,.cls-50,.cls-51,.cls-52,.cls-53,.cls-54,.cls-55,.cls-56,.cls-57,.cls-58,.cls-59,.cls-61,.cls-63,.cls-66,.cls-79,.cls-81,.cls-84,.cls-85,.cls-87,.cls-93,.cls-96,.cls-97{mix-blend-mode:multiply;}.cls-10{fill:url(#radial-gradient-8);}.cls-11{fill:url(#radial-gradient-9);}.cls-12{fill:url(#radial-gradient-10);}.cls-13{fill:url(#radial-gradient-11);}.cls-14{fill:url(#radial-gradient-12);}.cls-15{fill:url(#radial-gradient-13);}.cls-16{fill:url(#radial-gradient-14);}.cls-17{fill:url(#radial-gradient-15);}.cls-18{fill:url(#radial-gradient-16);}.cls-19{fill:url(#radial-gradient-17);}.cls-20{fill:url(#radial-gradient-18);}.cls-21{fill:url(#radial-gradient-19);}.cls-22{fill:url(#radial-gradient-20);}.cls-23{fill:url(#radial-gradient-21);}.cls-24{fill:url(#radial-gradient-22);}.cls-25{fill:url(#radial-gradient-23);}.cls-26{fill:url(#radial-gradient-24);}.cls-27{fill:url(#radial-gradient-25);}.cls-28{fill:url(#radial-gradient-26);}.cls-29{fill:url(#radial-gradient-27);}.cls-30{fill:url(#radial-gradient-28);}.cls-31{fill:url(#radial-gradient-29);}.cls-32{fill:url(#radial-gradient-30);}.cls-33{fill:url(#radial-gradient-31);}.cls-34{fill:url(#radial-gradient-32);}.cls-35{fill:url(#radial-gradient-33);}.cls-36{fill:url(#radial-gradient-34);}.cls-37{fill:url(#radial-gradient-35);}.cls-38{fill:url(#radial-gradient-36);}.cls-39{fill:url(#radial-gradient-37);}.cls-40{fill:url(#radial-gradient-38);}.cls-41{fill:url(#radial-gradient-39);}.cls-42{fill:url(#radial-gradient-40);}.cls-43{fill:url(#radial-gradient-41);}.cls-44{fill:url(#radial-gradient-42);}.cls-45{fill:url(#radial-gradient-43);}.cls-46{fill:url(#radial-gradient-44);}.cls-47{fill:url(#radial-gradient-45);}.cls-48{fill:url(#radial-gradient-46);}.cls-49{fill:url(#radial-gradient-47);}.cls-50{fill:url(#radial-gradient-48);}.cls-51{fill:url(#radial-gradient-49);}.cls-52{fill:url(#radial-gradient-50);}.cls-53{fill:url(#radial-gradient-51);}.cls-54{fill:url(#radial-gradient-52);}.cls-55{fill:url(#radial-gradient-53);}.cls-56{fill:url(#radial-gradient-54);}.cls-57{fill:url(#radial-gradient-55);}.cls-58{fill:url(#radial-gradient-56);}.cls-59{fill:url(#radial-gradient-57);}.cls-60{fill:url(#radial-gradient-58);}.cls-61{fill:url(#radial-gradient-59);}.cls-136,.cls-62,.cls-63,.cls-65,.cls-66,.cls-67{fill:#f5a605;}.cls-63{opacity:0.54;}.cls-64{fill:url(#radial-gradient-60);}.cls-68{fill:url(#radial-gradient-61);}.cls-69,.cls-70,.cls-71,.cls-72,.cls-73{opacity:0.45;}.cls-69{fill:url(#radial-gradient-62);}.cls-70{fill:url(#radial-gradient-63);}.cls-71{fill:url(#radial-gradient-64);}.cls-72{fill:url(#radial-gradient-65);}.cls-73{fill:url(#radial-gradient-66);}.cls-74{fill:url(#radial-gradient-67);}.cls-75{fill:url(#radial-gradient-68);}.cls-76{fill:url(#radial-gradient-69);}.cls-77{fill:url(#radial-gradient-70);}.cls-78{fill:url(#radial-gradient-71);}.cls-109,.cls-111,.cls-112,.cls-113,.cls-114,.cls-133,.cls-141,.cls-149,.cls-79,.cls-84,.cls-85,.cls-93{opacity:0.25;}.cls-79{fill:url(#radial-gradient-72);}.cls-80{fill:url(#radial-gradient-73);}.cls-81{fill:url(#radial-gradient-74);}.cls-82{fill:url(#radial-gradient-75);}.cls-101,.cls-108,.cls-117,.cls-119,.cls-138,.cls-83,.cls-95{opacity:0.34;mix-blend-mode:color-burn;}.cls-83{fill:url(#radial-gradient-76);}.cls-84{fill:url(#radial-gradient-77);}.cls-85{fill:url(#radial-gradient-78);}.cls-86{fill:url(#radial-gradient-79);}.cls-87{fill:url(#radial-gradient-80);}.cls-89{fill:url(#radial-gradient-81);}.cls-90{fill:url(#radial-gradient-82);}.cls-91{fill:url(#radial-gradient-83);}.cls-92{fill:url(#radial-gradient-84);}.cls-93{fill:url(#radial-gradient-85);}.cls-94{fill:url(#radial-gradient-86);}.cls-95{fill:url(#radial-gradient-87);}.cls-102,.cls-96{opacity:0.6;}.cls-96{fill:url(#radial-gradient-88);}.cls-98{fill:url(#radial-gradient-89);}.cls-99{fill:url(#radial-gradient-90);}.cls-100{fill:url(#radial-gradient-91);}.cls-101{fill:url(#radial-gradient-92);}.cls-102{fill:url(#radial-gradient-93);}.cls-103{fill:url(#radial-gradient-94);}.cls-104{fill:url(#radial-gradient-95);}.cls-105{fill:url(#radial-gradient-96);}.cls-106{fill:url(#radial-gradient-97);}.cls-107{fill:url(#radial-gradient-98);}.cls-108{fill:url(#radial-gradient-99);}.cls-110{fill:url(#radial-gradient-100);}.cls-111{fill:url(#radial-gradient-101);}.cls-112{fill:url(#radial-gradient-102);}.cls-113{fill:url(#radial-gradient-103);}.cls-114{fill:url(#radial-gradient-104);}.cls-115{fill:url(#radial-gradient-105);}.cls-116{fill:url(#radial-gradient-106);}.cls-117{fill:url(#radial-gradient-107);}.cls-118{fill:url(#radial-gradient-108);}.cls-119{fill:url(#radial-gradient-109);}.cls-120{fill:url(#radial-gradient-110);}.cls-121{fill:url(#radial-gradient-111);}.cls-122{fill:url(#radial-gradient-112);}.cls-123{fill:url(#radial-gradient-113);}.cls-124{fill:url(#radial-gradient-114);}.cls-125{fill:url(#radial-gradient-115);}.cls-126{fill:url(#radial-gradient-116);}.cls-127{fill:url(#radial-gradient-117);}.cls-128{fill:url(#radial-gradient-118);}.cls-129{fill:url(#radial-gradient-119);}.cls-130{fill:url(#radial-gradient-120);}.cls-131{fill:url(#radial-gradient-121);}.cls-132{fill:url(#radial-gradient-122);}.cls-133{fill:url(#radial-gradient-123);}.cls-134{fill:url(#radial-gradient-124);}.cls-135{fill:url(#radial-gradient-125);}.cls-136{opacity:0.35;}.cls-137{fill:url(#radial-gradient-126);}.cls-138{fill:url(#radial-gradient-127);}.cls-139{fill:url(#radial-gradient-128);}.cls-140{fill:url(#radial-gradient-129);}.cls-141{fill:url(#radial-gradient-130);}.cls-142{fill:url(#radial-gradient-131);}.cls-143{fill:url(#radial-gradient-132);}.cls-144{fill:url(#radial-gradient-133);}.cls-145{fill:url(#radial-gradient-134);}.cls-146{fill:url(#radial-gradient-135);}.cls-147{fill:url(#radial-gradient-136);}.cls-148{fill:url(#radial-gradient-137);}.cls-149{fill:url(#radial-gradient-138);}.cls-150{fill:url(#radial-gradient-139);}.cls-151{fill:url(#radial-gradient-140);}.cls-152{fill:url(#radial-gradient-141);}.cls-153{fill:url(#radial-gradient-142);}.cls-154{fill:url(#radial-gradient-143);}.cls-155{fill:url(#radial-gradient-144);}.cls-156{fill:url(#radial-gradient-145);}.cls-157{fill:url(#radial-gradient-146);}</style><radialGradient id="radial-gradient" cx="151.96" cy="250.27" r="115.31" gradientUnits="userSpaceOnUse"><stop offset="0" stop-color="#e72d77"/><stop offset="0.38" stop-color="#e62d77" stop-opacity="0.99"/><stop offset="0.52" stop-color="#e32e78" stop-opacity="0.96"/><stop offset="0.61" stop-color="#dd2f7a" stop-opacity="0.91"/><stop offset="0.69" stop-color="#d4327c" stop-opacity="0.84"/><stop offset="0.76" stop-color="#c9347f" stop-opacity="0.74"/><stop offset="0.82" stop-color="#bc3783" stop-opacity="0.63"/><stop offset="0.88" stop-color="#ab3b87" stop-opacity="0.48"/><stop offset="0.93" stop-color="#98408d" stop-opacity="0.32"/><stop offset="0.97" stop-color="#844592" stop-opacity="0.14"/><stop offset="1" stop-color="#734997" stop-opacity="0"/></radialGradient><radialGradient id="radial-gradient-2" cx="162.76" cy="161.41" r="201.04" gradientTransform="translate(222.15 -34.75) rotate(45)" gradientUnits="userSpaceOnUse"><stop offset="0" stop-color="#e72d77"/><stop offset="0.15" stop-color="#e22e78"/><stop offset="0.32" stop-color="#d4327c"/><stop offset="0.51" stop-color="#bc3783"/><stop offset="0.71" stop-color="#9b3f8c"/><stop offset="0.9" stop-color="#734997"/></radialGradient><radialGradient id="radial-gradient-3" cx="-119.13" cy="360.27" r="191.16" gradientTransform="matrix(1.31, 0.35, -0.31, 1.15, 366.49, -328.97)" gradientUnits="userSpaceOnUse"><stop offset="0.05" stop-color="#f5a605"/><stop offset="0.41" stop-color="#f5a506" stop-opacity="0.99"/><stop offset="0.54" stop-color="#f3a30a" stop-opacity="0.96"/><stop offset="0.63" stop-color="#f19e11" stop-opacity="0.92"/><stop offset="0.7" stop-color="#ed981b" stop-opacity="0.85"/><stop offset="0.77" stop-color="#e98f28" stop-opacity="0.76"/><stop offset="0.82" stop-color="#e38538" stop-opacity="0.65"/><stop offset="0.87" stop-color="#dc794b" stop-opacity="0.51"/><stop offset="0.92" stop-color="#d46a61" stop-opacity="0.36"/><stop offset="0.96" stop-color="#cc5b79" stop-opacity="0.19"/><stop offset="1" stop-color="#c24a94" stop-opacity="0.01"/><stop offset="1" stop-color="#c24995" stop-opacity="0"/></radialGradient><radialGradient id="radial-gradient-4" cx="160.33" cy="162.45" r="149.58" gradientTransform="matrix(1, 0, 0, 1, 0, 0)" xlink:href="#radial-gradient-3"/><radialGradient id="radial-gradient-5" cx="160.33" cy="162.45" r="149.58" gradientTransform="matrix(1, 0, 0, 1, 0, 0)" xlink:href="#radial-gradient-3"/><radialGradient id="radial-gradient-6" cx="160.33" cy="162.45" r="149.58" gradientTransform="matrix(1, 0, 0, 1, 0, 0)" xlink:href="#radial-gradient-3"/><radialGradient id="radial-gradient-7" cx="160.33" cy="162.45" r="149.58" gradientTransform="matrix(1, 0, 0, 1, 0, 0)" xlink:href="#radial-gradient-3"/><radialGradient id="radial-gradient-8" cx="162.59" cy="188.85" r="175.96" gradientTransform="matrix(1, 0, 0, 1, 0, 0)" xlink:href="#radial-gradient-2"/><radialGradient id="radial-gradient-9" cx="161.39" cy="242.79" r="129.35" gradientTransform="matrix(1, 0, 0, 1, 0, 0)" xlink:href="#radial-gradient-2"/><radialGradient id="radial-gradient-10" cx="144.78" cy="143.25" r="44.8" gradientTransform="matrix(1, 0, 0, 1, 0, 0)" xlink:href="#radial-gradient-2"/><radialGradient id="radial-gradient-11" cx="144.78" cy="143.25" r="44.8" gradientTransform="matrix(1, 0, 0, 1, 0, 0)" xlink:href="#radial-gradient-2"/><radialGradient id="radial-gradient-12" cx="-1034.14" cy="917.84" r="44.8" gradientTransform="translate(-781.53 1208.88) rotate(180)" xlink:href="#radial-gradient-2"/><radialGradient id="radial-gradient-13" cx="-1034.14" cy="917.84" r="44.8" gradientTransform="translate(961.67 1453.07) rotate(101.24)" xlink:href="#radial-gradient-2"/><radialGradient id="radial-gradient-14" cx="-449.44" cy="1960.46" r="44.8" gradientTransform="translate(-276.38 2303) rotate(-180)" xlink:href="#radial-gradient-2"/><radialGradient id="radial-gradient-15" cx="-449.44" cy="1960.46" r="44.8" gradientTransform="translate(-152.38 2326.24) rotate(176.44)" xlink:href="#radial-gradient-2"/><radialGradient id="radial-gradient-16" cx="158.91" cy="1643.91" r="53.72" gradientTransform="matrix(0, -1, 1.77, 0, -2829.73, 453.6)" xlink:href="#radial-gradient-2"/><radialGradient id="radial-gradient-17" cx="110.68" cy="231.58" r="68.38" gradientTransform="matrix(1, 0, 0, 1, 0, 0)" xlink:href="#radial-gradient-2"/><radialGradient id="radial-gradient-18" cx="-16.47" cy="690.08" r="34.58" gradientTransform="matrix(0, 1, -1.77, 0, 1408.09, 208.22)" xlink:href="#radial-gradient-2"/><radialGradient id="radial-gradient-19" cx="-681.36" cy="1765.39" r="44.01" gradientTransform="translate(149.19 2119.81) rotate(159.71)" xlink:href="#radial-gradient-2"/><radialGradient id="radial-gradient-20" cx="-862.44" cy="1501.15" r="43.4" gradientTransform="matrix(-1, 0, 0, -1.77, -654.87, 2967.59)" xlink:href="#radial-gradient-2"/><radialGradient id="radial-gradient-21" cx="820.4" cy="1027.32" r="55.24" gradientTransform="translate(-1067.7 756.81) rotate(-72.91)" xlink:href="#radial-gradient-2"/><radialGradient id="radial-gradient-22" cx="824.67" cy="905.05" r="35.32" gradientTransform="matrix(1, 0, 0, 1, -741.5, -720.33)" xlink:href="#radial-gradient-2"/><radialGradient id="radial-gradient-23" cx="824.67" cy="905.05" r="35.32" gradientTransform="translate(-1143.84 331.19) rotate(-53.79)" xlink:href="#radial-gradient-2"/><radialGradient id="radial-gradient-24" cx="562.87" cy="1845.64" r="44.81" gradientTransform="translate(-1790.57 872.42) rotate(-90)" xlink:href="#radial-gradient-2"/><radialGradient id="radial-gradient-25" cx="562.87" cy="1845.64" r="44.81" gradientTransform="matrix(-0.51, -0.86, 0.86, -0.51, -1239.54, 1740.49)" xlink:href="#radial-gradient-2"/><radialGradient id="radial-gradient-26" cx="-309.05" cy="109.95" r="25.36" gradientTransform="translate(522.2 218.62) rotate(29.94)" xlink:href="#radial-gradient-2"/><radialGradient id="radial-gradient-27" cx="-309.05" cy="109.95" r="25.36" gradientTransform="translate(522.2 218.62) rotate(29.94)" xlink:href="#radial-gradient-2"/><radialGradient id="radial-gradient-28" cx="-593.92" cy="1906.12" r="25.36" gradientTransform="translate(79.53 2341.94) rotate(165.92)" xlink:href="#radial-gradient-2"/><radialGradient id="radial-gradient-29" cx="-593.92" cy="1906.12" r="25.36" gradientTransform="translate(79.53 2341.94) rotate(165.92)" xlink:href="#radial-gradient-2"/><radialGradient id="radial-gradient-30" cx="628.47" cy="1494.07" r="25.36" gradientTransform="translate(-1410.45 965.89) rotate(-92.84)" xlink:href="#radial-gradient-2"/><radialGradient id="radial-gradient-31" cx="628.46" cy="1494.07" r="25.36" gradientTransform="translate(-1410.45 965.89) rotate(-92.84)" xlink:href="#radial-gradient-2"/><radialGradient id="radial-gradient-32" cx="-414.52" cy="2106.17" r="25.36" gradientTransform="translate(-743.66 2311.56) rotate(-166.86)" xlink:href="#radial-gradient-2"/><radialGradient id="radial-gradient-33" cx="-414.52" cy="2106.17" r="25.36" gradientTransform="translate(-743.66 2311.56) rotate(-166.86)" xlink:href="#radial-gradient-2"/><radialGradient id="radial-gradient-34" cx="-786.86" cy="438.62" r="19.46" gradientTransform="translate(693.45 1013.53) rotate(90)" xlink:href="#radial-gradient-2"/><radialGradient id="radial-gradient-35" cx="-786.86" cy="438.62" r="19.46" gradientTransform="translate(942.43 802.38) rotate(69.11)" xlink:href="#radial-gradient-2"/><radialGradient id="radial-gradient-36" cx="-910.35" cy="1407.09" r="19.46" gradientTransform="matrix(-0.64, 0.77, -0.77, -0.64, 742.62, 1905.39)" xlink:href="#radial-gradient-2"/><radialGradient id="radial-gradient-37" cx="-910.35" cy="1407.09" r="19.46" gradientTransform="matrix(-0.64, 0.77, -0.77, -0.64, 742.62, 1905.39)" xlink:href="#radial-gradient-2"/><radialGradient id="radial-gradient-38" cx="847.41" cy="1783.09" r="13.26" gradientTransform="translate(-1711.33 1119.27) rotate(-90)" xlink:href="#radial-gradient-2"/><radialGradient id="radial-gradient-39" cx="847.41" cy="1783.09" r="13.26" gradientTransform="matrix(-0.31, -0.95, 0.95, -0.31, -1359.35, 1631.98)" xlink:href="#radial-gradient-2"/><radialGradient id="radial-gradient-40" cx="901.82" cy="939.89" r="13.27" gradientTransform="matrix(0.84, -0.54, 0.95, 1.46, -1524.42, -675.38)" xlink:href="#radial-gradient-2"/><radialGradient id="radial-gradient-41" cx="901.82" cy="939.89" r="13.27" gradientTransform="matrix(0.84, -0.54, 0.95, 1.46, -1524.42, -675.38)" xlink:href="#radial-gradient-2"/><radialGradient id="radial-gradient-42" cx="138.86" cy="360.28" r="13.26" gradientTransform="translate(549.08 39.52) rotate(90)" xlink:href="#radial-gradient-2"/><radialGradient id="radial-gradient-43" cx="138.86" cy="360.28" r="13.26" gradientTransform="translate(184.94 -211.21) rotate(21.68)" xlink:href="#radial-gradient-2"/><radialGradient id="radial-gradient-44" cx="-706.97" cy="1291.84" r="10.55" gradientTransform="matrix(-0.29, 0.96, -1.57, -0.47, 2056.01, 1539.47)" xlink:href="#radial-gradient-2"/><radialGradient id="radial-gradient-45" cx="-706.97" cy="1291.84" r="10.55" gradientTransform="matrix(-0.29, 0.96, -1.57, -0.47, 2056.01, 1539.47)" xlink:href="#radial-gradient-2"/><radialGradient id="radial-gradient-46" cx="575.75" cy="600.79" r="25.36" gradientTransform="translate(-487.56 -436.46)" xlink:href="#radial-gradient-2"/><radialGradient id="radial-gradient-47" cx="575.75" cy="600.79" r="25.36" gradientTransform="translate(-742.56 60.72) rotate(-38.54)" xlink:href="#radial-gradient-2"/><radialGradient id="radial-gradient-48" cx="580.01" cy="426.78" r="58.77" gradientTransform="matrix(0.87, -0.5, 0.41, 0.72, -503.67, 263.72)" xlink:href="#radial-gradient-2"/><radialGradient id="radial-gradient-49" cx="580.01" cy="426.78" r="58.77" gradientTransform="matrix(0.87, -0.5, 0.41, 0.72, -503.67, 263.72)" xlink:href="#radial-gradient-2"/><radialGradient id="radial-gradient-50" cx="-879.98" cy="251.46" r="65.56" gradientTransform="matrix(0.45, 0.89, -0.74, 0.37, 711.54, 958.43)" xlink:href="#radial-gradient-2"/><radialGradient id="radial-gradient-51" cx="-868.62" cy="269.64" r="39.63" gradientTransform="matrix(0.45, 0.89, -0.74, 0.37, 711.54, 958.43)" xlink:href="#radial-gradient-2"/><radialGradient id="radial-gradient-52" cx="-1110.82" cy="587.66" r="32.27" gradientTransform="matrix(0.12, 0.99, -0.83, 0.1, 710.68, 1296.94)" xlink:href="#radial-gradient-2"/><radialGradient id="radial-gradient-53" cx="-1118.78" cy="378.02" r="46.96" gradientTransform="matrix(0.12, 0.99, -0.83, 0.1, 710.68, 1296.94)" xlink:href="#radial-gradient-2"/><radialGradient id="radial-gradient-54" cx="-1109.21" cy="393.72" r="30.75" gradientTransform="matrix(0.12, 0.99, -0.83, 0.1, 710.68, 1296.94)" xlink:href="#radial-gradient-2"/><radialGradient id="radial-gradient-55" cx="-500.31" cy="41.73" r="58.77" gradientTransform="matrix(0.78, 0.62, -0.52, 0.65, 540.88, 579.69)" xlink:href="#radial-gradient-2"/><radialGradient id="radial-gradient-56" cx="-500.31" cy="41.73" r="58.77" gradientTransform="matrix(0.78, 0.62, -0.52, 0.65, 540.88, 579.69)" xlink:href="#radial-gradient-2"/><radialGradient id="radial-gradient-57" cx="-521.33" cy="41.96" r="58.77" gradientTransform="matrix(0.78, 0.62, -0.52, 0.65, 540.88, 579.69)" xlink:href="#radial-gradient-2"/><radialGradient id="radial-gradient-58" cx="141.72" cy="124.57" r="170.77" gradientTransform="matrix(1, 0, 0, 1, 0, 0)" xlink:href="#radial-gradient-3"/><radialGradient id="radial-gradient-59" cx="161.99" cy="167.89" r="36.08" gradientTransform="matrix(1, 0, 0, 1, 0, 0)" xlink:href="#radial-gradient-2"/><radialGradient id="radial-gradient-60" cx="25.86" cy="47.24" r="113.33" gradientTransform="matrix(1, 0, 0, 1, 0, 0)" xlink:href="#radial-gradient-2"/><radialGradient id="radial-gradient-61" cx="145.62" cy="110.51" r="75.57" gradientTransform="translate(-137.95 -29.43) rotate(-8.19)" xlink:href="#radial-gradient-3"/><radialGradient id="radial-gradient-62" cx="33.06" cy="53.71" r="47.24" gradientTransform="matrix(1, 0, 0, 1, 0, 0)" xlink:href="#radial-gradient-3"/><radialGradient id="radial-gradient-63" cx="71.41" cy="49.62" r="49.47" gradientTransform="matrix(1, 0, 0, 1, 0, 0)" xlink:href="#radial-gradient-3"/><radialGradient id="radial-gradient-64" cx="15.25" cy="59.05" r="63.51" gradientTransform="matrix(1, 0, 0, 1, 0, 0)" xlink:href="#radial-gradient-3"/><radialGradient id="radial-gradient-65" cx="16.56" cy="57.45" r="63.92" gradientTransform="matrix(1, 0, 0, 1, 0, 0)" xlink:href="#radial-gradient-3"/><radialGradient id="radial-gradient-66" cx="74.46" cy="46.42" r="53.47" gradientTransform="matrix(1, 0, 0, 1, 0, 0)" xlink:href="#radial-gradient-3"/><radialGradient id="radial-gradient-67" cx="158.08" cy="101.74" r="69.24" gradientUnits="userSpaceOnUse"><stop offset="0.06" stop-color="#fef1d6"/><stop offset="0.24" stop-color="#fdedd3"/><stop offset="0.42" stop-color="#f9e1ca"/><stop offset="0.61" stop-color="#f2ccba"/><stop offset="0.8" stop-color="#e8b0a5"/><stop offset="0.95" stop-color="#df938f"/></radialGradient><radialGradient id="radial-gradient-68" cx="188.66" cy="70.91" r="7.46" xlink:href="#radial-gradient-67"/><radialGradient id="radial-gradient-69" cx="188.66" cy="70.91" r="7.46" xlink:href="#radial-gradient-67"/><radialGradient id="radial-gradient-70" cx="132.78" cy="89.39" r="9.28" xlink:href="#radial-gradient-67"/><radialGradient id="radial-gradient-71" cx="149.55" cy="60.83" r="88.51" gradientUnits="userSpaceOnUse"><stop offset="0.06" stop-color="#1cb2db"/><stop offset="1" stop-color="#43277b"/></radialGradient><radialGradient id="radial-gradient-72" cx="183.82" cy="145.2" r="10.7" gradientUnits="userSpaceOnUse"><stop offset="0" stop-color="#cf0a5b"/><stop offset="1" stop-color="#692980" stop-opacity="0.6"/></radialGradient><radialGradient id="radial-gradient-73" cx="787.67" cy="1054.68" r="16.66" gradientTransform="matrix(0.32, -0.95, 0.95, 0.32, -1075.12, 562.25)" xlink:href="#radial-gradient-2"/><radialGradient id="radial-gradient-74" cx="176.24" cy="138.41" r="15.71" gradientTransform="matrix(1, 0, 0, 1, 0, 0)" xlink:href="#radial-gradient-2"/><radialGradient id="radial-gradient-75" cx="180.19" cy="144.11" r="8.36" gradientTransform="matrix(1, 0, 0, 1, 0, 0)" xlink:href="#radial-gradient-2"/><radialGradient id="radial-gradient-76" cx="154.39" cy="60.88" r="86.54" xlink:href="#radial-gradient-71"/><radialGradient id="radial-gradient-77" cx="72.35" cy="49.87" r="236.85" xlink:href="#radial-gradient-72"/><radialGradient id="radial-gradient-78" cx="-41.8" cy="67.61" r="296.85" xlink:href="#radial-gradient-72"/><radialGradient id="radial-gradient-79" cx="127.19" cy="121.31" r="16.66" gradientTransform="matrix(1, 0, 0, 1, 0, 0)" xlink:href="#radial-gradient-2"/><radialGradient id="radial-gradient-80" cx="127.19" cy="124.33" r="15.11" gradientTransform="matrix(1, 0, 0, 1, 0, 0)" xlink:href="#radial-gradient-2"/><radialGradient id="radial-gradient-81" cx="123.06" cy="115.46" r="33.39" gradientTransform="matrix(1, 0, 0, 1, 0, 0)" xlink:href="#radial-gradient-2"/><radialGradient id="radial-gradient-82" cx="123.06" cy="115.46" r="33.39" gradientTransform="matrix(1, 0, 0, 1, 0, 0)" xlink:href="#radial-gradient-2"/><radialGradient id="radial-gradient-83" cx="123.06" cy="115.46" r="33.38" gradientTransform="matrix(1, 0, 0, 1, 0, 0)" xlink:href="#radial-gradient-2"/><radialGradient id="radial-gradient-84" cx="123.06" cy="115.46" r="33.39" gradientTransform="matrix(1, 0, 0, 1, 0, 0)" xlink:href="#radial-gradient-2"/><radialGradient id="radial-gradient-85" cx="166.32" cy="115.32" r="50.75" xlink:href="#radial-gradient-72"/><radialGradient id="radial-gradient-86" cx="120.24" cy="192.32" r="31.31" gradientTransform="translate(4.13 -46.76) scale(1.02 1.04)" xlink:href="#radial-gradient-71"/><radialGradient id="radial-gradient-87" cx="129.95" cy="145.52" r="89.23" xlink:href="#radial-gradient-71"/><radialGradient id="radial-gradient-88" cx="133.94" cy="150.74" r="12.7" xlink:href="#radial-gradient-71"/><radialGradient id="radial-gradient-89" cx="131.99" cy="157.13" r="13.96" xlink:href="#radial-gradient-71"/><radialGradient id="radial-gradient-90" cx="131.99" cy="157.13" r="13.96" xlink:href="#radial-gradient-71"/><radialGradient id="radial-gradient-91" cx="137.44" cy="325.76" r="31.31" gradientTransform="matrix(1.05, 0.03, -0.03, 1.24, 40.78, -246.99)" xlink:href="#radial-gradient-71"/><radialGradient id="radial-gradient-92" cx="147.59" cy="284.46" r="89.23" gradientTransform="matrix(1.03, 0.03, -0.03, 1.18, 35.04, -191.27)" xlink:href="#radial-gradient-71"/><radialGradient id="radial-gradient-93" cx="151.58" cy="289.68" r="12.7" gradientTransform="matrix(1.03, 0.03, -0.03, 1.18, 35.04, -191.27)" xlink:href="#radial-gradient-71"/><radialGradient id="radial-gradient-94" cx="149.64" cy="296.07" r="13.96" gradientTransform="matrix(1.03, 0.03, -0.03, 1.18, 35.04, -191.27)" xlink:href="#radial-gradient-71"/><radialGradient id="radial-gradient-95" cx="149.64" cy="296.07" r="13.96" gradientTransform="matrix(1.03, 0.03, -0.03, 1.18, 35.04, -191.27)" xlink:href="#radial-gradient-71"/><radialGradient id="radial-gradient-96" cx="93.78" cy="89.83" r="36.61" xlink:href="#radial-gradient-71"/><radialGradient id="radial-gradient-97" cx="211.26" cy="17.44" r="57.4" xlink:href="#radial-gradient-71"/><radialGradient id="radial-gradient-98" cx="151.52" cy="60.98" r="88.51" xlink:href="#radial-gradient-71"/><radialGradient id="radial-gradient-99" cx="151.57" cy="60.58" r="84.25" xlink:href="#radial-gradient-71"/><radialGradient id="radial-gradient-100" cx="167.39" cy="103.06" r="17.05" xlink:href="#radial-gradient-72"/><radialGradient id="radial-gradient-101" cx="187.67" cy="151.96" r="6.17" xlink:href="#radial-gradient-72"/><radialGradient id="radial-gradient-102" cx="180.21" cy="128.74" r="8.92" xlink:href="#radial-gradient-72"/><radialGradient id="radial-gradient-103" cx="135.99" cy="141.09" r="6.22" xlink:href="#radial-gradient-72"/><radialGradient id="radial-gradient-104" cx="144.68" cy="122.94" r="7.85" xlink:href="#radial-gradient-72"/><radialGradient id="radial-gradient-105" cx="130.38" cy="99.5" r="6.51" xlink:href="#radial-gradient-72"/><radialGradient id="radial-gradient-106" cx="191.54" cy="76.35" r="6.93" xlink:href="#radial-gradient-72"/><radialGradient id="radial-gradient-107" cx="111.8" cy="101.97" r="10.37" xlink:href="#radial-gradient-71"/><radialGradient id="radial-gradient-108" cx="157.04" cy="69.26" r="52.32" xlink:href="#radial-gradient-71"/><radialGradient id="radial-gradient-109" cx="209.7" cy="51.11" r="14.99" xlink:href="#radial-gradient-71"/><radialGradient id="radial-gradient-110" cx="157.81" cy="86.59" r="15.11" xlink:href="#radial-gradient-71"/><radialGradient id="radial-gradient-111" cx="133.95" cy="54.1" r="75.47" xlink:href="#radial-gradient-71"/><radialGradient id="radial-gradient-112" cx="133.95" cy="54.1" r="75.47" xlink:href="#radial-gradient-71"/><radialGradient id="radial-gradient-113" cx="133.95" cy="54.1" r="75.47" xlink:href="#radial-gradient-71"/><radialGradient id="radial-gradient-114" cx="133.95" cy="54.1" r="75.47" xlink:href="#radial-gradient-71"/><radialGradient id="radial-gradient-115" cx="133.95" cy="54.1" r="75.47" xlink:href="#radial-gradient-71"/><radialGradient id="radial-gradient-116" cx="133.95" cy="54.1" r="75.47" xlink:href="#radial-gradient-71"/><radialGradient id="radial-gradient-117" cx="133.95" cy="54.1" r="75.47" xlink:href="#radial-gradient-71"/><radialGradient id="radial-gradient-118" cx="133.95" cy="54.1" r="75.47" xlink:href="#radial-gradient-71"/><radialGradient id="radial-gradient-119" cx="133.95" cy="54.1" r="75.47" xlink:href="#radial-gradient-71"/><radialGradient id="radial-gradient-120" cx="154.68" cy="98.23" r="14.88" xlink:href="#radial-gradient-67"/><radialGradient id="radial-gradient-121" cx="154.68" cy="98.23" r="14.88" xlink:href="#radial-gradient-67"/><radialGradient id="radial-gradient-122" cx="125.48" cy="21.63" r="84.92" gradientTransform="translate(17.27 -42.08) rotate(16.79)" xlink:href="#radial-gradient-67"/><radialGradient id="radial-gradient-123" cx="139.54" cy="23.42" r="72.54" xlink:href="#radial-gradient-72"/><radialGradient id="radial-gradient-124" cx="129.12" cy="13.09" r="67.08" gradientUnits="userSpaceOnUse"><stop offset="0.06" stop-color="#1cb2db"/><stop offset="0.89" stop-color="#72c3b1"/></radialGradient><radialGradient id="radial-gradient-125" cx="129.46" cy="21.99" r="61.05" xlink:href="#radial-gradient-124"/><radialGradient id="radial-gradient-126" cx="131.1" cy="13.09" r="65.91" xlink:href="#radial-gradient-71"/><radialGradient id="radial-gradient-127" cx="131.13" cy="15.49" r="61.73" xlink:href="#radial-gradient-71"/><radialGradient id="radial-gradient-128" cx="137.5" cy="10.88" r="46.13" xlink:href="#radial-gradient-67"/><radialGradient id="radial-gradient-129" cx="137.5" cy="10.88" r="46.13" xlink:href="#radial-gradient-67"/><radialGradient id="radial-gradient-130" cx="131.63" cy="3.65" r="29.46" xlink:href="#radial-gradient-72"/><radialGradient id="radial-gradient-131" cx="130.36" cy="0.46" r="30.28" gradientTransform="matrix(1, 0, 0, 1, 0, 0)" xlink:href="#radial-gradient-2"/><radialGradient id="radial-gradient-132" cx="130.4" cy="0.5" r="30.23" gradientTransform="matrix(1, 0, 0, 1, 0, 0)" xlink:href="#radial-gradient-2"/><radialGradient id="radial-gradient-133" cx="141.77" cy="0.43" r="21.21" gradientTransform="matrix(1, 0, 0, 1, 0, 0)" xlink:href="#radial-gradient-2"/><radialGradient id="radial-gradient-134" cx="130.65" cy="4.41" r="36.7" gradientTransform="matrix(1, 0, 0, 1, 0, 0)" xlink:href="#radial-gradient-2"/><radialGradient id="radial-gradient-135" cx="130.65" cy="4.41" r="36.7" gradientTransform="matrix(1, 0, 0, 1, 0, 0)" xlink:href="#radial-gradient-2"/><radialGradient id="radial-gradient-136" cx="130.65" cy="4.41" r="36.7" gradientTransform="matrix(1, 0, 0, 1, 0, 0)" xlink:href="#radial-gradient-2"/><radialGradient id="radial-gradient-137" cx="130.65" cy="4.41" r="36.7" gradientTransform="matrix(1, 0, 0, 1, 0, 0)" xlink:href="#radial-gradient-2"/><radialGradient id="radial-gradient-138" cx="173.43" cy="20.88" r="25.61" xlink:href="#radial-gradient-72"/><radialGradient id="radial-gradient-139" cx="174.21" cy="20.34" r="25.49" gradientTransform="matrix(1, 0, 0, 1, 0, 0)" xlink:href="#radial-gradient-2"/><radialGradient id="radial-gradient-140" cx="174.69" cy="21" r="24.76" gradientTransform="matrix(1, 0, 0, 1, 0, 0)" xlink:href="#radial-gradient-2"/><radialGradient id="radial-gradient-141" cx="173.22" cy="20.34" r="23.72" gradientTransform="matrix(1, 0, 0, 1, 0, 0)" xlink:href="#radial-gradient-2"/><radialGradient id="radial-gradient-142" cx="174.75" cy="20.14" r="15.71" gradientTransform="matrix(1, 0, 0, 1, 0, 0)" xlink:href="#radial-gradient-2"/><radialGradient id="radial-gradient-143" cx="173.9" cy="27.35" r="36.64" gradientTransform="matrix(1, 0, 0, 1, 0, 0)" xlink:href="#radial-gradient-2"/><radialGradient id="radial-gradient-144" cx="173.9" cy="27.35" r="36.64" gradientTransform="matrix(1, 0, 0, 1, 0, 0)" xlink:href="#radial-gradient-2"/><radialGradient id="radial-gradient-145" cx="173.9" cy="27.35" r="36.64" gradientTransform="matrix(1, 0, 0, 1, 0, 0)" xlink:href="#radial-gradient-2"/><radialGradient id="radial-gradient-146" cx="173.9" cy="27.35" r="36.64" gradientTransform="matrix(1, 0, 0, 1, 0, 0)" xlink:href="#radial-gradient-2"/></defs><g class="cls-1"><g id="Слой_2" data-name="Слой 2"><g id="Слой_1-2" data-name="Слой 1"><circle class="cls-2" cx="153.02" cy="250.79" r="114.05"/><circle class="cls-3" cx="153.02" cy="250.79" r="102.11" transform="translate(-132.52 181.66) rotate(-45)"/><path class="cls-4" d="M74.26,237.86c-4.6-8.75-3.21-21.34-.41-29.83,5.91-18,21.33-30.9,37.36-39.84,50.09-27.94,105.14,6.65,109.83,28.66s-17.38,33.67-47.37,26.59-52.58,26.23-73.29,26.33c-7.9,0-16-1.27-22.16-6.78A18.06,18.06,0,0,1,74.26,237.86Z"/><g class="cls-5"><path class="cls-6" d="M91.74,202.46a202.67,202.67,0,0,1-5.91-21.66A96.58,96.58,0,0,0,67.64,295.35a96.66,96.66,0,0,1,24.1-92.89Z"/><path class="cls-7" d="M205.41,169.09a96.54,96.54,0,0,0-114.49,7.13,193.47,193.47,0,0,0,5.55,21.71,96.55,96.55,0,0,1,111.44-12.29A101,101,0,0,0,205.41,169.09Z"/><path class="cls-8" d="M232.08,204.83a100.21,100.21,0,0,0-.59-10.8,97.07,97.07,0,0,0-20.86-21.29,113.22,113.22,0,0,1,1.75,15.58A96.94,96.94,0,0,1,232.08,204.83Z"/><path class="cls-9" d="M236.31,209.79a96.36,96.36,0,0,1,9.82,15,95.44,95.44,0,0,0-9.78-23.23C236.44,204.27,236.42,207,236.31,209.79Z"/></g><path class="cls-10" d="M221.8,178.05A81.76,81.76,0,1,1,63.39,206.52c0-.18,0-.35,0-.52a100.3,100.3,0,1,0,158.4-27.95Z"/><path class="cls-11" d="M248.36,235.81v.43c0,55.16-43.39,99.88-96.93,99.88-49.54,0-90.4-38.31-96.21-87.75.24,54.95,43.54,99.42,96.92,99.42,53.53,0,96.93-44.72,96.93-99.88A105,105,0,0,0,248.36,235.81Z"/><ellipse class="cls-12" cx="158.52" cy="165.27" rx="24" ry="11.4"/><path class="cls-13" d="M136.65,170c3.77,3.95,12.14,6.7,21.87,6.7,10.78,0,19.9-3.38,22.93-8-3.77-3.95-12.14-6.7-21.87-6.7C148.8,161.94,139.68,165.32,136.65,170Z"/><ellipse class="cls-14" cx="238.83" cy="268.98" rx="24" ry="11.4" transform="translate(-71.56 450.76) rotate(-78.75)"/><path class="cls-15" d="M238.49,246.61c-4.62,2.93-9,10.6-10.85,20.15-2.1,10.57-.56,20.17,3.41,24.05,4.61-2.92,8.94-10.6,10.84-20.14C244,260.1,242.46,250.49,238.49,246.61Z"/><ellipse class="cls-16" cx="159.39" cy="320.47" rx="24" ry="11.4" transform="translate(-19.6 10.52) rotate(-3.56)"/><path class="cls-17" d="M180.92,314.42c-4-3.71-12.53-5.94-22.24-5.33-10.76.67-19.65,4.61-22.39,9.43,4,3.72,12.53,5.94,22.24,5.34C169.3,323.19,178.19,319.25,180.92,314.42Z"/><ellipse class="cls-18" cx="123.01" cy="278.18" rx="24.17" ry="28.78" transform="translate(-176.61 225.83) rotate(-56.23)"/><path class="cls-19" d="M136.45,258.08c-11.92-8-26.7-7.25-34.92,1.11-4.56,10.8.43,24.7,12.33,32.66s26.7,7.25,34.93-1.12C153.34,279.94,148.35,266,136.45,258.08Z"/><ellipse class="cls-20" cx="158.16" cy="202.38" rx="15.56" ry="18.52" transform="translate(-75.5 309.03) rotate(-76.52)"/><path class="cls-21" d="M154.53,217.51c9,2.15,17.74-1.58,20.84-8.46.34-7.54-5.77-14.81-14.74-17s-17.73,1.58-20.83,8.46C139.46,208.09,145.57,215.36,154.53,217.51Z"/><ellipse class="cls-22" cx="194.24" cy="276.14" rx="23.25" ry="19.53" transform="translate(-130.73 184.6) rotate(-39.15)"/><path class="cls-23" d="M181.91,261c-9,7.31-11.94,18.89-7.43,27.22,7.25,6.08,19.17,5.53,28.14-1.77s11.93-18.89,7.43-27.23C202.8,253.15,190.88,253.7,181.91,261Z"/><ellipse class="cls-24" cx="93.98" cy="202.07" rx="18.92" ry="8.99" transform="translate(-124.58 158.51) rotate(-53.79)"/><path class="cls-25" d="M86.78,218.17c4.27-.56,9.92-4.6,14.45-10.79,5-6.86,7.12-14.23,5.57-18.32-4.27.55-9.91,4.59-14.45,10.78C87.33,206.7,85.23,214.07,86.78,218.17Z"/><ellipse class="cls-26" cx="77.01" cy="295.85" rx="11.4" ry="24" transform="translate(-139.49 80.02) rotate(-30.5)"/><path class="cls-27" d="M92.16,312.3c1.49-5.25-.38-13.86-5.32-22.24-5.47-9.29-13-15.44-18.56-15.69-1.49,5.26.39,13.87,5.32,22.25C79.08,305.91,86.62,312.05,92.16,312.3Z"/><path class="cls-28" d="M211.81,181.11c-1.78,3.08-8.49,2.55-15-1.19s-10.33-9.29-8.55-12.38,8.49-2.55,15,1.19S213.59,178,211.81,181.11Z"/><path class="cls-29" d="M188,170.45c.74,3,4.06,6.72,8.84,9.47,5.28,3,10.71,4,13.51,2.54-.73-3-4.06-6.72-8.83-9.47C196.21,169.94,190.78,169,188,170.45Z"/><path class="cls-30" d="M168.31,341.66c-.87-3.46,4.33-7.74,11.61-9.57s13.88-.5,14.75,3-4.33,7.74-11.61,9.57S169.18,345.12,168.31,341.66Z"/><path class="cls-31" d="M192.85,332.77c-2.61-1.66-7.59-2-12.93-.68-5.92,1.49-10.46,4.6-11.49,7.57,2.62,1.65,7.59,2,12.93.67C187.28,338.85,191.83,335.74,192.85,332.77Z"/><path class="cls-32" d="M62.11,242.27c3.56-.17,6.75,5.76,7.12,13.25S67,269.23,63.45,269.41s-6.75-5.76-7.12-13.25S58.55,242.45,62.11,242.27Z"/><path class="cls-33" d="M66.05,268.07c2.13-2.24,3.45-7.05,3.18-12.55-.3-6.09-2.47-11.16-5.18-12.74-2.13,2.24-3.45,7.05-3.18,12.55C61.17,261.43,63.33,266.49,66.05,268.07Z"/><path class="cls-34" d="M120.76,337.8c.81-3.48,7.39-4.91,14.7-3.2S148,340.5,147.22,344s-7.39,4.91-14.69,3.2S120,341.27,120.76,337.8Z"/><path class="cls-35" d="M146.65,341.11c-1.57-2.67-5.83-5.26-11.19-6.51-5.94-1.39-11.4-.7-13.67,1.47,1.57,2.67,5.83,5.26,11.19,6.51C138.92,344,144.38,343.28,146.65,341.11Z"/><ellipse class="cls-36" cx="245.22" cy="232.62" rx="4.95" ry="10.43" transform="translate(-66.83 102.73) rotate(-20.89)"/><path class="cls-37" d="M239.93,224.47c-1,2.14-.84,6,.66,9.92,1.67,4.37,4.46,7.55,6.81,8.06,1-2.14.85-6-.66-9.91C245.07,228.16,242.28,225,239.93,224.47Z"/><path class="cls-38" d="M220.66,313.67c-2.11-1.74-.84-6.76,2.83-11.19s8.35-6.62,10.46-4.88.84,6.75-2.83,11.19S222.77,315.41,220.66,313.67Z"/><path class="cls-39" d="M231.79,297c-2.37.17-5.61,2.21-8.3,5.47-3,3.61-4.38,7.59-3.66,9.9,2.36-.17,5.6-2.21,8.3-5.47C231.11,303.3,232.5,299.31,231.79,297Z"/><ellipse class="cls-40" cx="78.35" cy="267.8" rx="3.38" ry="7.11" transform="translate(-79.13 37.46) rotate(-18.05)"/><path class="cls-41" d="M81.68,273.52c.76-1.42.77-4-.12-6.77-1-3-2.78-5.29-4.37-5.72-.76,1.43-.77,4,.12,6.77C78.3,270.84,80.09,273.1,81.68,273.52Z"/><path class="cls-42" d="M136.14,206.88c1.76,2.72.52,6.65-2.77,8.79s-7.39,1.66-9.15-1.06-.52-6.65,2.77-8.78S134.38,204.16,136.14,206.88Z"/><path class="cls-43" d="M126.06,216.3a7.3,7.3,0,0,0,7.31-.63c2.68-1.74,4-4.67,3.45-7.16a7.3,7.3,0,0,0-7.31.63C126.83,210.88,125.51,213.8,126.06,216.3Z"/><ellipse class="cls-44" cx="182.27" cy="182.46" rx="3.38" ry="7.11" transform="translate(-54.62 284.44) rotate(-68.32)"/><path class="cls-45" d="M175.74,181.36c.6,1.5,2.61,3.17,5.28,4.24,3,1.18,5.85,1.24,7.19.3-.6-1.5-2.61-3.18-5.28-4.24C180,180.48,177.08,180.41,175.74,181.36Z"/><path class="cls-46" d="M220.2,261.94c-2.32-.69-3.49-3.68-2.59-6.68s3.5-4.85,5.83-4.15,3.5,3.68,2.6,6.68S222.53,262.64,220.2,261.94Z"/><path class="cls-47" d="M221.56,251.07a5.89,5.89,0,0,0-3.95,4.19c-.73,2.44-.1,4.87,1.42,6.07a5.91,5.91,0,0,0,3.95-4.2A5.66,5.66,0,0,0,221.56,251.07Z"/><ellipse class="cls-48" cx="95.99" cy="176.82" rx="13.59" ry="6.46" transform="matrix(0.78, -0.62, 0.62, 0.78, -89.26, 98.33)"/><path class="cls-49" d="M88,186.61c3.06.42,7.74-1.31,12-4.74,4.77-3.81,7.62-8.52,7.32-11.65-3.07-.42-7.74,1.32-12,4.75C90.52,178.77,87.67,183.48,88,186.61Z"/><path class="cls-50" d="M201.44,314.64c.79,1.39-.55,3.63-3,5s-5,1.39-5.83,0,.55-3.62,3-5S200.65,313.26,201.44,314.64Z"/><path class="cls-51" d="M206.35,306.63c.47.84-.34,2.2-1.82,3.05s-3.07.84-3.55,0,.33-2.2,1.82-3.05S205.87,305.79,206.35,306.63Z"/><path class="cls-52" d="M94.35,293.17c-1.58.8-4-.82-5.41-3.61s-1.27-5.71.31-6.5,4,.82,5.42,3.61S95.93,292.38,94.35,293.17Z"/><path class="cls-53" d="M99.74,299.53c-.95.48-2.42-.5-3.27-2.19s-.76-3.45.2-3.93,2.42.5,3.27,2.19S100.7,299,99.74,299.53Z"/><path class="cls-54" d="M72.79,258.81c-.87.1-1.72-1.05-1.9-2.58s.37-2.86,1.24-3,1.71,1,1.9,2.58S73.66,258.7,72.79,258.81Z"/><path class="cls-55" d="M235.43,233.11c-1.26.16-2.5-1.53-2.76-3.75s.53-4.15,1.8-4.3,2.49,1.53,2.76,3.75S236.69,233,235.43,233.11Z"/><path class="cls-56" d="M234,240.87c-.83.1-1.64-1-1.81-2.46s.35-2.72,1.18-2.82,1.63,1,1.81,2.46S234.8,240.77,234,240.87Z"/><path class="cls-57" d="M109.53,330.1c-1,1.25-3.57.84-5.77-.91s-3.17-4.17-2.18-5.41,3.57-.84,5.77.91S110.52,328.86,109.53,330.1Z"/><path class="cls-58" d="M118.79,331.68c-.6.76-2.17.51-3.5-.55s-1.93-2.54-1.33-3.3,2.17-.51,3.51.56S119.4,330.92,118.79,331.68Z"/><path class="cls-59" d="M102.23,318.74c-.6.76-2.17.51-3.51-.55s-1.92-2.54-1.32-3.3,2.17-.51,3.5.56S102.83,318,102.23,318.74Z"/><path class="cls-60" d="M113.78,172.69c-.54-1.5,1.16-3.48,3.8-4.43s5.21-.51,5.75,1-1.16,3.47-3.8,4.42S114.31,174.18,113.78,172.69Zm-2.71,7.65c1.6-.57,2.64-1.78,2.31-2.69s-1.9-1.18-3.5-.6-2.64,1.78-2.31,2.69S109.46,180.92,111.07,180.34Zm19.71-7.29c1.6-.58,2.64-1.79,2.31-2.7s-1.89-1.18-3.5-.6-2.64,1.79-2.31,2.7S129.17,173.62,130.78,173.05Zm69.16,17.5c.45-1.53,3-2.12,5.69-1.32s4.5,2.68,4.05,4.2-3,2.12-5.69,1.32S199.49,192.07,199.94,190.55Zm13.48,10.35c1.64.49,3.19.13,3.46-.8s-.82-2.07-2.46-2.55-3.18-.13-3.46.8S211.79,200.42,213.42,200.9Z"/><path class="cls-61" d="M159.43,150.79c-10.76-1.38-36.83.56-44.38,13.9s30,7.25,43.12,9.52,29.46,18.12,47.08,7.55S186.87,154.32,159.43,150.79Z"/><path class="cls-62" d="M121.28,161.75,106.79,110a2.34,2.34,0,0,1-.94.33,3.61,3.61,0,0,1-2.16-.27l14.7,52.52a1.5,1.5,0,0,0,1.45,1.1,1.39,1.39,0,0,0,.4-.06A1.49,1.49,0,0,0,121.28,161.75Z"/><path class="cls-62" d="M102.39,95.64a.83.83,0,0,1,.29-.32L84.4,30a1.5,1.5,0,0,0-2.89.81l19.4,69.25A11.48,11.48,0,0,1,102.39,95.64Z"/><path class="cls-63" d="M101.59,97.34l-19.1-68.2a.41.41,0,0,1,0-.11,1.51,1.51,0,0,0-1,1.82l19.4,69.25A9.62,9.62,0,0,1,101.59,97.34Z"/><path class="cls-63" d="M121.3,161.86l-.08,0a1.37,1.37,0,0,1-.4.05,1.51,1.51,0,0,1-1.45-1.09l-14.14-50.5a3.13,3.13,0,0,1-1.54-.31l14.7,52.52a1.5,1.5,0,0,0,1.45,1.1,1.39,1.39,0,0,0,.4-.06A1.48,1.48,0,0,0,121.3,161.86Z"/><path class="cls-64" d="M85.13,32.05S79.77,44.18,56.91,44.18,13.76,43.48,0,68l12.36,47.35S23.09,92.46,42.45,92.23,87,96.43,98.19,79.63Z"/><circle class="cls-62" cx="46.61" cy="67.81" r="14.61" transform="translate(-30.94 95.3) rotate(-75.02)"/><path class="cls-65" d="M35.19,67.58a6,6,0,0,1-.67-4.22C35,60.7,36.91,58.55,39,57c6.53-5,15-1.2,16.14,1.82S53.37,63.9,49,63.51s-6.91,4.79-9.84,5.23a4.62,4.62,0,0,1-3.28-.51A2.72,2.72,0,0,1,35.19,67.58Z"/><g class="cls-5"><path class="cls-65" d="M36.94,62.21a28.55,28.55,0,0,1-1.28-3,13.82,13.82,0,0,0-.24,16.6,13.82,13.82,0,0,1,1.52-13.65Z"/><path class="cls-65" d="M52.36,55.17a13.79,13.79,0,0,0-16.07,3.34,26.37,26.37,0,0,0,1.23,3,13.8,13.8,0,0,1,15.53-4A13.47,13.47,0,0,0,52.36,55.17Z"/><path class="cls-65" d="M56.87,59.69c-.08-.51-.18-1-.31-1.52a14,14,0,0,0-3.38-2.59,17.25,17.25,0,0,1,.56,2.17A13.64,13.64,0,0,1,56.87,59.69Z"/><path class="cls-65" d="M57.57,60.3a12.91,12.91,0,0,1,1.69,1.92,13.54,13.54,0,0,0-1.85-3.09C57.47,59.52,57.53,59.91,57.57,60.3Z"/></g><path class="cls-66" d="M54.87,56.1A12,12,0,0,1,56.17,60,11.7,11.7,0,1,1,33,63.36a.17.17,0,0,1,0-.07A14.35,14.35,0,1,0,54.87,56.1Z"/><path class="cls-66" d="M59.8,63.74v.06A13.85,13.85,0,0,1,32.7,69.46a13.88,13.88,0,1,0,27.45-4A13.47,13.47,0,0,0,59.8,63.74Z"/><path class="cls-66" d="M49,55.09c.13.89-1.29,1.84-3.17,2.11s-3.5-.24-3.63-1.13,1.29-1.83,3.17-2.1S48.91,54.2,49,55.09Z"/><path class="cls-66" d="M42.64,56.69a4.57,4.57,0,0,0,3.23.51A4.14,4.14,0,0,0,49,55.59a4.6,4.6,0,0,0-3.24-.5C44.2,55.31,43,56,42.64,56.69Z"/><path class="cls-66" d="M59,72.06c-.9,0-1.55-1.62-1.45-3.51s.91-3.39,1.81-3.35,1.55,1.63,1.45,3.52S59.85,72.11,59,72.06Z"/><path class="cls-66" d="M58.63,65.47a4.59,4.59,0,0,0-1.13,3.08c-.08,1.54.33,2.87,1,3.33a4.54,4.54,0,0,0,1.13-3.07C59.68,67.27,59.27,65.94,58.63,65.47Z"/><path class="cls-66" d="M45.57,78.25c-.19-.89,1.17-1.92,3-2.3s3.51,0,3.69.9-1.17,1.91-3,2.29S45.75,79.13,45.57,78.25Z"/><path class="cls-66" d="M51.86,76.25A4.57,4.57,0,0,0,48.6,76a4.11,4.11,0,0,0-3,1.79,4.5,4.5,0,0,0,3.26.3A4.11,4.11,0,0,0,51.86,76.25Z"/><path class="cls-66" d="M39.2,70.52c.82-1.72,3.16-2.32,5.21-1.34s3,3.17,2.22,4.9-3.16,2.32-5.21,1.34S38.37,72.24,39.2,70.52Z"/><path class="cls-66" d="M44.41,69.18a4,4,0,0,0-4.93.87,4.3,4.3,0,0,0,7.34,3.5A4,4,0,0,0,44.41,69.18Z"/><path class="cls-66" d="M49,61.09a2.69,2.69,0,1,1-2.44-2.46A2.47,2.47,0,0,1,49,61.09Z"/><path class="cls-66" d="M46.14,63.06a2.55,2.55,0,0,0,2.78-1.62A2.77,2.77,0,0,0,43.71,61,2.55,2.55,0,0,0,46.14,63.06Z"/><path class="cls-66" d="M50.71,73a3.38,3.38,0,0,1,4.51-4.89A3.38,3.38,0,0,1,50.71,73Z"/><path class="cls-66" d="M50.91,68.66a3.2,3.2,0,0,0-.5,4,3.47,3.47,0,0,0,4.45-4.83A3.22,3.22,0,0,0,50.91,68.66Z"/><path class="cls-66" d="M38.52,59.72c.63.33.57,1.67-.13,3S36.6,64.83,36,64.5s-.57-1.68.13-3S37.89,59.38,38.52,59.72Z"/><path class="cls-66" d="M36.56,64.54a3.67,3.67,0,0,0,1.83-1.83A3.26,3.26,0,0,0,38.8,60,3.67,3.67,0,0,0,37,61.83,3.26,3.26,0,0,0,36.56,64.54Z"/><path class="cls-66" d="M34.61,73.06c.7-.57,2.24.18,3.42,1.66s1.58,3.14.88,3.7-2.24-.18-3.43-1.66S33.91,73.62,34.61,73.06Z"/><path class="cls-66" d="M39.24,77.76a4.59,4.59,0,0,0-1.21-3,4.14,4.14,0,0,0-3-1.85,4.61,4.61,0,0,0,1.21,3C37.26,77.12,38.45,77.84,39.24,77.76Z"/><path class="cls-66" d="M53.51,56.74c-.19.47-1.15.53-2.15.14s-1.65-1.11-1.46-1.58,1.15-.54,2.15-.14S53.7,56.26,53.51,56.74Z"/><path class="cls-66" d="M49.92,55.71a2.65,2.65,0,0,0,1.44,1.17,2.35,2.35,0,0,0,2,.08,2.56,2.56,0,0,0-1.44-1.16A2.32,2.32,0,0,0,49.92,55.71Z"/><path class="cls-66" d="M50.62,80.37c-.19-.48.46-1.19,1.45-1.6s2-.35,2.15.12-.45,1.19-1.45,1.59S50.82,80.84,50.62,80.37Z"/><path class="cls-66" d="M53.92,78.61a2.64,2.64,0,0,0-1.85.16,2.34,2.34,0,0,0-1.47,1.31,2.6,2.6,0,0,0,1.85-.17A2.36,2.36,0,0,0,53.92,78.61Z"/><path class="cls-66" d="M33.55,68.45c.51-.09,1.08.68,1.28,1.73s0,2-.53,2.09-1.07-.68-1.28-1.73S33.05,68.55,33.55,68.45Z"/><path class="cls-66" d="M34.64,72a2.59,2.59,0,0,0,.19-1.85,2.27,2.27,0,0,0-1-1.69,2.51,2.51,0,0,0-.19,1.84A2.3,2.3,0,0,0,34.64,72Z"/><path class="cls-66" d="M43.81,80.79c0-.51.95-.85,2-.75s1.9.58,1.85,1.08-.94.85-2,.76S43.77,81.3,43.81,80.79Z"/><path class="cls-66" d="M47.54,80.73A2.5,2.5,0,0,0,45.83,80a2.34,2.34,0,0,0-1.91.48,2.58,2.58,0,0,0,1.72.7A2.34,2.34,0,0,0,47.54,80.73Z"/><path class="cls-66" d="M60,64.66c-.34.19-.94-.24-1.34-1s-.45-1.46-.11-1.65.94.24,1.35,1S60.36,64.47,60,64.66Z"/><path class="cls-66" d="M58.38,62.31a2,2,0,0,0,.3,1.39c.32.58.78,1,1.12,1a2,2,0,0,0-.29-1.39A1.78,1.78,0,0,0,58.38,62.31Z"/><path class="cls-66" d="M57.47,75.33c-.34-.2-.26-.94.17-1.64s1-1.11,1.38-.9.26.94-.17,1.64S57.8,75.54,57.47,75.33Z"/><path class="cls-66" d="M58.7,72.75a2,2,0,0,0-1.06.94,1.83,1.83,0,0,0-.32,1.48,2,2,0,0,0,1.07-1A1.76,1.76,0,0,0,58.7,72.75Z"/><path class="cls-66" d="M35.93,70.83c.24-.12.63.19.88.69s.25,1,0,1.13-.64-.2-.89-.7S35.69,70.94,35.93,70.83Z"/><path class="cls-66" d="M37,72.48a1.36,1.36,0,0,0-.15-1,1.21,1.21,0,0,0-.74-.72,1.38,1.38,0,0,0,.16,1A1.22,1.22,0,0,0,37,72.48Z"/><path class="cls-66" d="M43.32,61.93A1,1,0,1,1,42,62,.94.94,0,0,1,43.32,61.93Z"/><path class="cls-66" d="M42.08,63.47a1.07,1.07,0,0,0,1-.24,1,1,0,0,0,.34-1.08,1.11,1.11,0,0,0-1.37,1.32Z"/><path class="cls-66" d="M50.35,57.77c-.07.26-.56.36-1.11.23s-.93-.45-.87-.71.55-.36,1.1-.23S50.41,57.51,50.35,57.77Z"/><path class="cls-66" d="M48.41,57.51a1.33,1.33,0,0,0,.83.49,1.23,1.23,0,0,0,1-.1,1.41,1.41,0,0,0-.84-.5A1.24,1.24,0,0,0,48.41,57.51Z"/><path class="cls-66" d="M56.35,68a.74.74,0,0,1-.5-.9c.06-.44.39-.76.74-.7a.84.84,0,0,1-.24,1.6Z"/><path class="cls-66" d="M56.32,66.45a.83.83,0,0,0-.47.67.8.8,0,0,0,.32.83.86.86,0,0,0,.48-.67A.82.82,0,0,0,56.32,66.45Z"/><path class="cls-66" d="M38.35,57.08c.37.35.08,1.26-.66,2s-1.63,1.14-2,.79-.08-1.27.66-2S38,56.73,38.35,57.08Z"/><path class="cls-66" d="M36.08,60a2.53,2.53,0,0,0,1.61-.92,2.3,2.3,0,0,0,.8-1.79,2.58,2.58,0,0,0-1.61.91A2.35,2.35,0,0,0,36.08,60Z"/><path class="cls-66" d="M54.77,75.86c.14.18,0,.53-.33.78s-.68.3-.82.12,0-.53.32-.77S54.63,75.68,54.77,75.86Z"/><path class="cls-66" d="M55.3,74.63c.08.11,0,.32-.2.47s-.42.18-.5.07,0-.32.19-.47S55.21,74.52,55.3,74.63Z"/><path class="cls-66" d="M39.16,75c-.21.14-.58,0-.84-.41s-.3-.78-.09-.92.59,0,.84.4S39.37,74.86,39.16,75Z"/><path class="cls-66" d="M40.05,75.8c-.12.08-.35,0-.5-.25s-.18-.47-.06-.56.36,0,.51.24S40.18,75.71,40.05,75.8Z"/><path class="cls-66" d="M35.41,70.58c-.13,0-.27-.12-.33-.33s0-.41.12-.44.26.11.32.32S35.53,70.54,35.41,70.58Z"/><path class="cls-66" d="M57.92,63.62c-.18.05-.39-.16-.47-.47s0-.6.17-.65.38.17.47.48S58.09,63.58,57.92,63.62Z"/><path class="cls-66" d="M57.87,64.75c-.12,0-.25-.11-.31-.31s0-.39.11-.42.25.11.31.31S58,64.72,57.87,64.75Z"/><path class="cls-66" d="M42.06,79.93c-.11.19-.49.19-.83,0s-.54-.53-.42-.73.49-.19.83,0S42.18,79.73,42.06,79.93Z"/><path class="cls-66" d="M43.41,80c-.07.12-.3.12-.51,0s-.33-.32-.26-.43.3-.12.51,0S43.48,79.84,43.41,80Z"/><path class="cls-66" d="M40.8,78.47c-.07.12-.3.11-.51,0S40,78.14,40,78s.3-.12.51,0S40.87,78.35,40.8,78.47Z"/><path class="cls-67" d="M39.46,57.54c-.11-.2.09-.51.44-.7s.73-.18.84,0-.1.52-.45.71S39.56,57.74,39.46,57.54Zm-.23,1.14c.21-.11.34-.3.27-.43s-.29-.12-.51,0-.34.31-.27.43S39,58.8,39.23,58.68Zm2.64-1.43c.22-.12.34-.31.27-.43s-.29-.13-.5,0-.34.3-.28.42S41.65,57.36,41.87,57.25ZM52,58.32c0-.23.39-.36.78-.31s.69.29.66.52-.38.36-.78.3S52,58.54,52,58.32Zm2.13,1.19c.24,0,.45,0,.47-.18s-.16-.28-.4-.32-.46.05-.48.19S53.9,59.47,54.15,59.51Z"/><path class="cls-68" d="M65,59.58c2.16-2.93,4.22-6.55,2.78-8.31s-5.93-.33-9.35,1.3l-.14.07c-1.48.71-3.06,1.57-4.69,2.55l.76.37c1.47-.87,2.89-1.64,4.24-2.28l.14-.07c4.37-2.09,7.55-2.65,8.49-1.5s-.24,4.07-3.1,7.84h0c-1.65,0-3.46,0-5.37.17a6.7,6.7,0,0,1,.51.68c1.52-.1,3-.14,4.3-.13A85.4,85.4,0,0,1,50.63,73l-1.51,1.19L48,74.39a85.68,85.68,0,0,1-18.23,2.16c.91-1.17,2-2.39,3.1-3.64,0-.15-.1-.31-.14-.46s-.07-.21-.1-.32C31.3,73.6,30.08,75,29,76.39l-.11.15c-4.7-.14-7.69-1.08-8-2.52s2.11-3.61,6.5-5.74c1.43-.69,3-1.37,4.74-2,0-.17.05-.33.08-.49s0-.22,0-.33c-1.89.7-3.63,1.43-5.19,2.19-3.42,1.66-7.4,4.14-6.88,6.54.48,2.23,4.55,2.91,8.18,3.06-2.08,2.87-3.95,6.3-2.56,8,1.53,1.87,5.93.32,9.35-1.31l.14-.07a81.69,81.69,0,0,0,14.09-9.06,83.57,83.57,0,0,0,17-5.62c3.43-1.67,7.4-4.15,6.88-6.54S68.65,59.73,65,59.58ZM34.89,83.3c-4.38,2.09-7.56,2.65-8.5,1.5s.19-3.91,2.88-7.53h.08a84.74,84.74,0,0,0,18.43-2.09A78.84,78.84,0,0,1,34.89,83.3ZM66.06,68.54a79.13,79.13,0,0,1-15.33,5.23l.35-.28A85.11,85.11,0,0,0,64.46,60.28c4.76.13,7.78,1.07,8.09,2.52S70.45,66.42,66.06,68.54Z"/><path class="cls-69" d="M38.1,44.61a74.78,74.78,0,0,0-7.62,1l1.94,48.89a25.5,25.5,0,0,1,7.85-2.12Z"/><path class="cls-70" d="M70.76,92.36a67.88,67.88,0,0,0,8-1L76.39,40.08a33,33,0,0,1-7.59,2.79Z"/><path class="cls-71" d="M13.35,113.43c1.92-3.42,6.6-10.8,13.76-15.89L25,46.92a39,39,0,0,0-14,7.4Z"/><path class="cls-72" d="M5.74,62.91s7.79-14.81,27.85-16c0,0-8.57,2.34-11.29,7.41s8.57,34.48,8.57,34.48l16,1.75s-20.45-2.14-29.22,14a28.4,28.4,0,0,1,9-14.61S21.71,60.18,15.48,59.6A12,12,0,0,0,5.74,62.91Z"/><path class="cls-73" d="M66.83,44.55s11.26-.61,16.89-7.44l12.06,41.4s-6.44,9-15.08,9.65c0,0,9.65-2.82,9.85-10.65s-5-30.15-9-32.36S79.3,46,66.83,44.55Z"/><path class="cls-74" d="M143,68.32s-2.51,16.22-13.71,22.16S111,94.82,111,94.82s-4.8-6.17-10.51-1.83-6.39,6.4-3.88,11.88,8.68,8,14.85,2.28c0,0,18.73,4.8,27-1.6s6.7-9.18,6.7-9.18l1.07,14.89s-16.22,5.49-20.79,14.39,11.42,32.67,11.42,32.67-10.51.23-13.48,5.25-1.59,5.48,5.72,5.71,19.87-2.05,23.07-5-9.26-19.76-7.44-26.38,10.41-8.11,17-9.26,11,13,14.85,20.1,9.17,15.89,9.17,15.89-11.07.54-13.58,8.08,24,3.67,28.16-2.95-7.43-10.5-10.28-58c-1.05-17.59-3.88-22.38-3.88-22.38s20.56-8.46,25.36-19.19S214,53.47,214,53.47s7.76-7.76,6.85-15.3-3,1.37-3,1.37.46-9.82-5.25-12.56-5.71,13-5.71,13-.69-4.34-3.2-3.89-.91,10.74,3,15.08c0,0-2.74,16.9-27.41,18,0,0-6.63-7.3-14.85-7.08S143,68.32,143,68.32Z"/><path class="cls-75" d="M185.61,70.18a15.55,15.55,0,0,0-.17,4.14,89.45,89.45,0,0,0,12.47-8.49C194.85,68.19,189.65,69.49,185.61,70.18Z"/><path class="cls-76" d="M183,70.58c-1.91.25-3.19.33-3.19.33-1.27,3.69,1.16,5.08,1.16,5.08a10,10,0,0,0,2.05-.57A18.67,18.67,0,0,1,183,70.58Z"/><path class="cls-77" d="M124.69,95S138,89.53,140.87,79.05c0,0-1.06,16-15.12,20.69A7.68,7.68,0,0,0,124.69,95Z"/><path class="cls-78" d="M152.58,75.25c-.49,10,1,19.79,3.24,29.5.87,3.76,6.65,2.17,5.79-1.59-2.13-9.22-3.5-18.42-3-27.91.19-3.86-5.81-3.85-6,0Z"/><path class="cls-79" d="M193.24,139a12.43,12.43,0,0,1-5.12,1.86l-.09-.28v0a8.26,8.26,0,0,0-2.43-3.47l-.25-.19a8.8,8.8,0,0,0-1.16-.79c-.31-.17-.61-.32-.93-.46a8.32,8.32,0,0,0-3.45-.7,6.77,6.77,0,0,0-1,.08,7.21,7.21,0,0,0-1.93.6,6.59,6.59,0,0,0-1.71,1.21,6.73,6.73,0,0,0-.74.84q-.34.45-.63.9a11,11,0,0,0-1.05,2.17c1.36,2.91,2.61,5.81,3.83,8,1,1.77,2,3.63,3.05,5.44a10.52,10.52,0,0,0,4.67,1.33,4.85,4.85,0,0,0,3.31-1.65l.07-.07c.13-.16.25-.33.37-.51a1.64,1.64,0,0,0,.14-.22,4.63,4.63,0,0,0,.29-.54c0-.09.09-.18.13-.28s.15-.38.22-.58.06-.21.1-.32.11-.41.16-.62l.06-.35c0-.21.08-.43.11-.65s0-.22,0-.34c0-.33.06-.66.07-1,1.83.08,4.07-1,5.56-1.86C194.33,144.26,193.77,141.75,193.24,139Z"/><path class="cls-62" d="M193,137.4c-2.11,2-7.07,2.38-7.07,2.38s-1.83,4,.86,6.57c1.93,1.84,5.77,0,7.81-1.28C194,142.78,193.46,140.23,193,137.4Z"/><path class="cls-80" d="M183.61,154.24a11.43,11.43,0,0,1-8.38-4.42c-3.64-4.5-5.18-8.5-1.49-13.43s11.58-2.72,13.62,2.88S189.77,153.62,183.61,154.24Z"/><path class="cls-81" d="M187.36,139.27c-2-5.6-9.93-7.81-13.62-2.88-.23.3-.43.6-.62.9,4-2.93,10.37-.64,12.17,4.31,1.35,3.71,2,8.79.43,12C189.63,151.35,189.12,144.13,187.36,139.27Z"/><path class="cls-82" d="M177.65,151.16a7.38,7.38,0,0,1-2.35-1.92,12,12,0,0,1-1.69-2.56,12.36,12.36,0,0,1-.83-3,7.23,7.23,0,0,1,.1-3c.08,0,0,1.52.34,3a15.54,15.54,0,0,0,2.42,5.32C176.52,150.16,177.7,151.09,177.65,151.16Zm3.71,1.6c-.39-.19-.76-.39-.76-.39s-.39-.14-.79-.31-.78-.37-.83-.3.25.4.61.68a5.75,5.75,0,0,0,.76.5,5.88,5.88,0,0,0,.87.24c.45.08.9.09.92,0S181.74,152.94,181.36,152.76Zm3.09-15.52a7.25,7.25,0,0,0-1.22-1.24,7.47,7.47,0,0,0-1.56-.76A3.34,3.34,0,0,0,180,135c0,.09.8.28,1.53.64a8.64,8.64,0,0,1,1.36.86,8.39,8.39,0,0,1,1.25,1c.59.57,1,1.28,1.1,1.24A3.36,3.36,0,0,0,184.45,137.24Zm3.2,7.14a10.32,10.32,0,0,0-.24-1.46,11.4,11.4,0,0,0-.58-1.37c-.34-.66-.78-1.25-.85-1.2a6.67,6.67,0,0,0,.44,1.38c.23.67.39,1.36.39,1.36s.23.67.41,1.36a6,6,0,0,0,.37,1.4A3.49,3.49,0,0,0,187.65,144.38Z"/><path class="cls-83" d="M161.61,103.16c-2.13-9.22-3.5-18.42-3-27.91a2.62,2.62,0,0,0-2.42-2.85,2.67,2.67,0,0,1,.72,2c-.47,9.48.9,18.69,3,27.91a3.08,3.08,0,0,1-3.39,3.72C158.27,108,162.35,106.36,161.61,103.16Z"/><path class="cls-62" d="M190,111.72a.86.86,0,0,0,0-.16c-.39,0-.84,0-1.36,0a24.47,24.47,0,0,0-6,1.21,27.6,27.6,0,0,0-5.59,2.6,25.54,25.54,0,0,0-2.34,1.6,25,25,0,0,0-2,2,27,27,0,0,0-3.66,5,24.46,24.46,0,0,0-2.37,5.63c-.09.33-.16.63-.22.91.2.19.39.39.58.6.16-.34.34-.73.56-1.17a32.27,32.27,0,0,1,2.94-5,29,29,0,0,1,3.8-4.3c1.15-1,2-1.66,2-1.66a24.06,24.06,0,0,1,2-1.61,28.92,28.92,0,0,1,5-2.88,33.3,33.3,0,0,1,5.49-1.89l1.26-.31C190.06,112.07,190,111.9,190,111.72Z"/><path class="cls-62" d="M159.53,126.41a43.14,43.14,0,0,1-3.9-3.3c-.52-.46-.9-.91-1.19-1.19l-.44-.45-.45-.45c-.29-.29-.73-.66-1.19-1.18a41.53,41.53,0,0,1-3.31-3.9c-1.09-1.51-2.1-3.1-2.81-4.33l-.18-.31-.84.31c0,.13.09.26.13.4a28.93,28.93,0,0,0,2.22,4.9,36.81,36.81,0,0,0,3.05,4.46c.45.59.88,1,1.16,1.36l.45.51.51.45c.33.28.77.71,1.36,1.16a37.36,37.36,0,0,0,4.47,3.05c.61.34,1.23.65,1.85.95l1.29-.23a4.3,4.3,0,0,1,1.07,0C161.77,128,160.63,127.21,159.53,126.41Z"/><path class="cls-84" d="M144.86,100.43a34.94,34.94,0,0,1-.76-5.68c-.25-2.86-.34-5.73-.34-5.73s0-2.87.17-5.73a34.23,34.23,0,0,1,.59-5.7c.13,0,.06,2.86.07,5.72s.11,5.7.11,5.7,0,2.85.06,5.7S145,100.42,144.86,100.43ZM144.57,96c-.27-1.62-.53-3.24-.53-3.24l-.72-3.2a16.09,16.09,0,0,0-.83-3.19,13.64,13.64,0,0,0,.18,3.3c.18,1.64.45,3.27.45,3.27s.36,1.61.8,3.21A13.17,13.17,0,0,0,145,99.28,16.21,16.21,0,0,0,144.57,96ZM174.5,82.54a12.34,12.34,0,0,1-.62-2.83,11.44,11.44,0,0,1,0-1.31,12.7,12.7,0,0,1,0-1.31,12.2,12.2,0,0,1,.6-2.83,21.83,21.83,0,0,1,2-3.82A8.46,8.46,0,0,0,173.85,74a12.39,12.39,0,0,0-.84,3,11,11,0,0,0-.12,1.41,12.61,12.61,0,0,0,.13,1.41,12.06,12.06,0,0,0,.86,3,8.44,8.44,0,0,0,2.61,3.56A21.78,21.78,0,0,1,174.5,82.54Zm8.72,6.27a15.36,15.36,0,0,1-1.46-.5s-.74-.18-1.47-.44-1.45-.59-1.53-.48.53.65,1.24,1.08a9.78,9.78,0,0,0,1.48.74,10.2,10.2,0,0,0,1.63.25c.82.06,1.63,0,1.63-.16S184,89,183.22,88.81Zm-14.29,32.46a19.49,19.49,0,0,0-1.17,2.1,19.38,19.38,0,0,0-.67,2.31,5.73,5.73,0,0,0-.2,2.39,12,12,0,0,0,.84-2.2c.4-1.09.89-2.13.89-2.13s.4-1.09.89-2.14a12.45,12.45,0,0,0,1-2.15C170.38,119.37,169.59,120.26,168.93,121.27Zm-9.23,3.83c-1.35-.88-2.59-1.88-2.59-1.88s-1.31-.91-2.54-2a29.12,29.12,0,0,0-2.45-2.11,9.89,9.89,0,0,0,2,2.6,26.74,26.74,0,0,0,2.43,2.22,27.15,27.15,0,0,0,2.81,1.7,10.08,10.08,0,0,0,3.06,1.19A27.89,27.89,0,0,0,159.7,125.1Zm-16.8,15.65a14.81,14.81,0,0,1,1-1.89,15.29,15.29,0,0,1,1.07-1.84,15.13,15.13,0,0,0,1.29-1.77c-.08-.1-1,.52-1.8,1.35a11.38,11.38,0,0,0-1.38,1.81,11.06,11.06,0,0,0-.78,2.13,4.7,4.7,0,0,0-.17,2.25A14.73,14.73,0,0,0,142.9,140.75Zm11.25-64.4c-1.39.05-2.77,0-2.77,0s-1.37.1-2.75.08a24.55,24.55,0,0,0-2.78-.08,7,7,0,0,0,2.73.74,23,23,0,0,0,2.83.2s1.41-.1,2.8-.32a10,10,0,0,0,2.75-.62A12.09,12.09,0,0,0,154.15,76.35Zm15.57-3.11c-1.09.51-2.22.89-2.22.89a22.26,22.26,0,0,1-2.25.84,15.57,15.57,0,0,0-2.34.72,6,6,0,0,0,2.5-.07,17.12,17.12,0,0,0,2.43-.61,17.43,17.43,0,0,0,2.2-1.19,5.93,5.93,0,0,0,1.89-1.63A14.19,14.19,0,0,0,169.72,73.24Zm-17.26,45.1A34,34,0,0,1,150,116a19.54,19.54,0,0,1-2.22-2.58,32.52,32.52,0,0,1-1.7-3,8.77,8.77,0,0,0,1.33,3.22,17.69,17.69,0,0,0,2.14,2.78,27.92,27.92,0,0,0,2.65,2.26,19.34,19.34,0,0,0,2.87,1.95A30.08,30.08,0,0,0,152.46,118.34Z"/><path class="cls-62" d="M211.91,69a12.72,12.72,0,0,1-3.67-.33,10.33,10.33,0,0,1-1.57-.49,12,12,0,0,1-1.55-.55A12.63,12.63,0,0,1,202,65.66a15,15,0,0,1-2.55-2.82c0-.08-.1-.14-.15-.21l-.74.58s0,0,0,.07a11.84,11.84,0,0,0,2.16,3.63,13.51,13.51,0,0,0,3.33,2.75,12,12,0,0,0,1.81.87,12.51,12.51,0,0,0,2,.39,13.08,13.08,0,0,0,3.3,0l.37-.74c.18-.41.33-.8.49-1.19Z"/><path class="cls-62" d="M188.29,81.2a10.4,10.4,0,0,1-1.09-1.63l-.29-.45a11.29,11.29,0,0,1-.68-1.27A15.84,15.84,0,0,1,185,73.56a26.76,26.76,0,0,1-.25-4.88l-1,.16a18.37,18.37,0,0,0-.53,4.87,16,16,0,0,0,.89,5,12.92,12.92,0,0,0,.67,1.59l.3.58s.13.2.38.54a13.79,13.79,0,0,0,3,2.9,14.84,14.84,0,0,0,2.38,1.35,11.9,11.9,0,0,0,1.76.62c.56-.29,1.14-.61,1.74-.94a14.43,14.43,0,0,1-2.69-1.25A12.81,12.81,0,0,1,188.29,81.2Z"/><path class="cls-62" d="M132,91.48A21.56,21.56,0,0,1,133.66,96c.13.64.25,1.16.29,1.54s.09.58.09.58l.12.58c.08.37.14.9.22,1.54a17.54,17.54,0,0,1-.14,4.74,15.15,15.15,0,0,1-.83,3c.62-.18,1.23-.38,1.81-.61a13.93,13.93,0,0,0,.75-2,17.84,17.84,0,0,0,.72-5.27c0-.73-.05-1.34-.1-1.76l-.08-.66s0-.24-.15-.66-.27-1-.49-1.69a20.52,20.52,0,0,0-2.32-4.73,18.33,18.33,0,0,0-1.48-1.94c-.38.3-.77.58-1.17.85A22.07,22.07,0,0,1,132,91.48Z"/><path class="cls-62" d="M122.59,102.59a15.28,15.28,0,0,1-.14,1.79,19.87,19.87,0,0,1-.9,3.91c0,.14-.1.28-.16.43l1.86.11a18.32,18.32,0,0,0,1.47-4,15.9,15.9,0,0,0,.37-2,16,16,0,0,0,0-2,18.31,18.31,0,0,0-.87-4.37,14.72,14.72,0,0,0-1.36-3.07c-.38.13-.77.27-1.14.38a20.32,20.32,0,0,1,.78,3.12,19.67,19.67,0,0,1,.29,4A17.09,17.09,0,0,1,122.59,102.59Z"/><path class="cls-85" d="M146.89,133.34c-.36-.44-.75-.87-1.16-1.29h0a11.92,11.92,0,0,0-3.92-2.82v0a9.12,9.12,0,0,0,.3-.88c0-.08,0-.15,0-.22.06-.25.12-.5.16-.75l0-.22a6.84,6.84,0,0,0,.08-.91c0-.06,0-.13,0-.2,0-.25,0-.5,0-.74a2,2,0,0,0,0-.25,8.67,8.67,0,0,0-.13-.89l0-.14c-.06-.25-.13-.5-.21-.74l-.09-.24a5.94,5.94,0,0,0-.35-.82h0a6.65,6.65,0,0,0-3.89-3.33,9.47,9.47,0,0,0-5.69-.34,21.64,21.64,0,0,0-6.62,7.12c-1.31,2.56-.93,6.32.28,10.4a4.91,4.91,0,0,0,1,.54,7.82,7.82,0,0,0,4.08.2,17.49,17.49,0,0,0,4.47-1.55c.58-.29,1.13-.6,1.68-.93a13.88,13.88,0,0,1,7.61,5.68,6.48,6.48,0,0,1,.16-2.11,8.62,8.62,0,0,1,2.55-4.12l-.29-.37Z"/><path class="cls-62" d="M139.46,127.39a5.13,5.13,0,0,0-5.39,5.06,13.46,13.46,0,0,1,10.47,6.3,4.79,4.79,0,0,1,.14-.87,8.88,8.88,0,0,1,3.14-4.62C145.93,130.69,142.81,127.33,139.46,127.39Z"/><path class="cls-63" d="M145.63,130.66a6,6,0,0,1-.67,3.53c-1.29,2.08-4.36-1.89-4.36-1.89,1.23-.74,1.85-2.49,2.16-3.94a6.38,6.38,0,0,0-3.3-1,5.13,5.13,0,0,0-5.39,5.06,13.46,13.46,0,0,1,10.47,6.3,4.79,4.79,0,0,1,.14-.87,8.88,8.88,0,0,1,3.14-4.62A24.59,24.59,0,0,0,145.63,130.66Z"/><path class="cls-86" d="M123.77,132.48a11.43,11.43,0,0,1,1.56-9.35c3.11-4.87,6.42-7.6,12.27-5.65s6.23,10.13,1.56,13.83S126.3,138.13,123.77,132.48Z"/><path class="cls-87" d="M141.49,120.81a8.68,8.68,0,0,1-3.18,7c-4.42,3.5-12,6.47-14.93,2a9.43,9.43,0,0,0,.39,2.66c2.53,5.65,10.71,2.53,15.39-1.17A8.7,8.7,0,0,0,141.49,120.81Z"/><g class="cls-88"><path class="cls-89" d="M130.18,119.4c0,.08-1.11.86-2,1.9a12.49,12.49,0,0,0-1.55,2.24,12.76,12.76,0,0,0-1.12,2.49c-.43,1.31-.5,2.7-.59,2.71a7,7,0,0,1,.16-2.83,9.31,9.31,0,0,1,2.78-4.92A6.8,6.8,0,0,1,130.18,119.4Z"/><path class="cls-90" d="M135.25,117.34c0,.09-.41.17-.8.29s-.76.27-.76.27-.39.09-.78.21-.78.29-.83.22.26-.38.63-.62a4.81,4.81,0,0,1,.79-.4,4.6,4.6,0,0,1,.88-.12C134.82,117.18,135.25,117.25,135.25,117.34Z"/><path class="cls-91" d="M137.43,130.22a9.38,9.38,0,0,1-2.36,1.86,17.11,17.11,0,0,1-2.73,1.31,15.25,15.25,0,0,1-3,.62,5.62,5.62,0,0,1-2.09-.11,1.72,1.72,0,0,1-.87-.4s.37.1.91.16a6.26,6.26,0,0,0,2-.09,17.41,17.41,0,0,0,2.82-.77,18.52,18.52,0,0,0,2.71-1.11C136.18,131,137.37,130.15,137.43,130.22Z"/><path class="cls-92" d="M141.51,124.67c.09,0,.17.6.06,1.21a4.8,4.8,0,0,1-.36,1.17,4.73,4.73,0,0,1-.77,1c-.45.43-1,.69-1,.62s.39-.46.71-.91a5.74,5.74,0,0,0,.55-.95,6.8,6.8,0,0,0,.49-1C141.34,125.25,141.42,124.67,141.51,124.67Z"/></g><path class="cls-93" d="M201,168.22c1.68-6-8.34-12.68-11-56.5-1.05-17.59-3.88-22.38-3.88-22.38s20.56-8.46,25.36-19.19a40.16,40.16,0,0,0,2.06-5.74L200.82,61.3c-.26.25-.54.5-.82.74,1.06,2.27,3.16,7.58,1.22,10.59-2.51,3.89-17.18,14.05-22.08,6.9-2.49-3.65-1.26-7.46.54-10.32l-.38,0A25.14,25.14,0,0,0,169,62.76c-10.08,4.2-26.39,11.59-20.09,13,8.91,2,23.71-5,23.71-5-1.88,3.64-2.13,8.28.38,13.3s6.9,14.92,4.64,21.19-12,18.19-23.33,11.17-9-42.53-9-42.53l-2.92-2.73c-.3,1.16-.72,2.59-1.3,4.17,2.69,2.87.93,16.92-3.69,23.9s-17.18,4.39-17.18,4.39a8.34,8.34,0,0,0-1,4.89c6.14.71,14.48.77,19.26-3,5.35-4.16,6.58-6.79,6.78-8.12l1,13.83a64,64,0,0,0-6.88,2.93c7.48.63,4.73,16.24,1.21,21.41-3.76,5.52-.63,9.91-4.27,12.42-1.82,1.26-4.37-.17-6.46-1.9a121.09,121.09,0,0,0,7,12.2s-10.51.23-13.48,5.25-1.59,5.48,5.72,5.71,19.87-2.05,23.07-5-9.26-19.76-7.44-26.38,10.41-8.11,17-9.26c2.33-.4,4.38,1.1,6.23,3.52,1.54-3.41,3.92-6.55,7.57-7.83,9.66-3.39,15.17,22.7,14.17,27.6-.73,3.58-6.25,3.93-9.14,3.86,2.76,4.8,5.19,8.84,5.19,8.84a22.71,22.71,0,0,0-7.84,2l5,2.69Z"/><path class="cls-94" d="M129.19,169.28c7.46.24,20.28-2.14,23.55-5.25,2.18-2.07-2.42-9.06-5.14-15.53-5.13,4.44-11.76,4.1-15.17,3.27a40.51,40.51,0,0,0,3.92,5.81s-9.95.49-13,5.74S121.73,169,129.19,169.28Z"/><path class="cls-95" d="M152.74,164c2.18-2.07-2.42-9.06-5.14-15.53-4.49,3.89-10.12,4.11-13.74,3.55a4.32,4.32,0,0,0-.91.61c.41.68.8,1.3,1.16,1.85,3.89,1.42,12.72-.5,10.9.89-1.33,1-6.41.83-9.9.57.75,1,1.24,1.61,1.24,1.61a25.26,25.26,0,0,0-2.52.29c1.94.5,4.91,1.38,4.85,2.11-.08,1.08-4.33,5.17-10.58,4.17-2.75-.44-3.26-1.66-3-2.88a7.89,7.89,0,0,0-1.77,2c-3,5.25-1.63,5.72,5.83,6S149.47,167.14,152.74,164Z"/><path class="cls-62" d="M129.19,169.28c-6.5-.21-8.4-.6-6.76-4.18,1,1.32,4,2.55,11.69,2A33.2,33.2,0,0,0,152.8,160c.62,1.85.75,3.3-.06,4.07C149.47,167.14,136.65,169.52,129.19,169.28ZM147.6,148.5c-5.13,4.44-11.76,4.1-15.17,3.27.53.93,1,1.76,1.51,2.49,2.82.36,9.69.72,14.7-3.42C148.28,150.06,147.92,149.28,147.6,148.5Z"/><path class="cls-96" d="M140,160.11c-.08,0-.4-.4-.79-.75a5.57,5.57,0,0,0-.83-.62,6.18,6.18,0,0,0-.86-.58c-.46-.26-1-.42-1-.5s.58-.08,1.14.09a4.64,4.64,0,0,1,1,.48,4.7,4.7,0,0,1,.8.83C139.91,159.53,140.1,160.07,140,160.11ZM140,157a6.15,6.15,0,0,0-1.33-.35,5.9,5.9,0,0,0-1.36.14c-.67.16-1.27.49-1.23.57a9.82,9.82,0,0,0,1.29-.13,6.81,6.81,0,0,1,1.25.05,6.47,6.47,0,0,1,1.25.14c.62.13,1.21.4,1.26.32A2.42,2.42,0,0,0,140,157Z"/><g class="cls-97"><path class="cls-62" d="M137.26,168.39s-.07-.86-.17-1.68l-.42.06c0,.81,0,1.65,0,1.65s0,.18,0,.45l.58-.07C137.25,168.56,137.26,168.39,137.26,168.39Z"/><path class="cls-62" d="M140.2,153s.37.59.7,1.22l.45-.08V154a13.44,13.44,0,0,0-.59-1.4s-.19-.3-.45-.68l-.56.09Z"/><path class="cls-62" d="M137.19,153.25s.25.59.55,1.21l.48,0v0c-.22-.68-.43-1.37-.43-1.37l-.32-.76h-.55C137.05,152.81,137.19,153.25,137.19,153.25Z"/><path class="cls-62" d="M144.24,151.45s.3.68.55,1.4c0,.08.05.15.08.22l.38-.16,0-.17a11.73,11.73,0,0,0-.4-1.52s-.12-.28-.31-.66l-.5.23C144.15,151.17,144.24,151.45,144.24,151.45Z"/><path class="cls-62" d="M129.65,169.29v0s-.08-.84-.1-1.7c0-.12,0-.24,0-.36h-.39c0,.12,0,.23,0,.35-.08.83-.08,1.65-.08,1.74h.63Z"/><path class="cls-62" d="M147,149l-.36.28a12.48,12.48,0,0,1,.66,1.27,7.49,7.49,0,0,1,.46,1l.43-.33a6.66,6.66,0,0,0-.32-.93A10.92,10.92,0,0,0,147,149Z"/><path class="cls-62" d="M134,153.26s.27.51.65,1.07l.61.06a13.3,13.3,0,0,1-.69-1.39s-.2-.39-.42-.91l-.57-.09A10.41,10.41,0,0,0,134,153.26Z"/><path class="cls-62" d="M133.1,168.19s0-.49-.11-1.06l-.49,0c0,.56,0,1.05,0,1.05s0,.47.1,1l.5,0C133.1,168.65,133.1,168.19,133.1,168.19Z"/><path class="cls-62" d="M123.54,166.56l.09-.5-.32-.18c-.07.18-.14.38-.2.59a9.29,9.29,0,0,0-.32,1.6s0,.16,0,.4a3.76,3.76,0,0,0,.57.23c0-.35,0-.59,0-.59A11.62,11.62,0,0,1,123.54,166.56Z"/><path class="cls-62" d="M126.18,168.78s0-.7-.05-1.4c0-.17,0-.35,0-.51l-.34-.07-.09.56c-.09.71-.13,1.42-.13,1.42s0,.12,0,.3l.59.06Z"/><path class="cls-62" d="M141.37,167.64s-.21-1-.41-1.74l-.35.09c0,.77.14,1.74.14,1.74l.12.51.55-.11Z"/><path class="cls-62" d="M153.29,162.67l0-.06a10.14,10.14,0,0,0-.78-1.64c-.1-.18-.22-.34-.33-.5l-.29.21c.08.16.16.33.23.5a12.44,12.44,0,0,1,.57,1.62s.15.4.3.94A2.21,2.21,0,0,0,153.29,162.67Z"/><path class="cls-62" d="M150.06,165.21a13.67,13.67,0,0,0-.85-2c-.1-.2-.21-.4-.32-.58l-.32.17.24.6a18.79,18.79,0,0,1,.65,2s.06.19.14.47l.55-.24C150.1,165.36,150.06,165.21,150.06,165.21Z"/><path class="cls-62" d="M146.29,165.86a10.44,10.44,0,0,0-.57-1.62l-.43.18a11.46,11.46,0,0,1,.38,1.57,11,11,0,0,1,.22,1.11l.51-.15A10.53,10.53,0,0,0,146.29,165.86Z"/></g><path class="cls-63" d="M129.19,169.28c7.46.24,20.28-2.14,23.55-5.25.81-.77.68-2.22.06-4.07a33.2,33.2,0,0,1-18.68,7.1c-7.73.59-10.66-.64-11.69-2-.09.19-.16.36-.22.52,1.45,1.22,3.78,2.15,11.57,1.93,9.78-.27,14.76-3.44,12.51-1.69s-8.61,3-16.76,2.69c-4.62-.15-6.7-.86-7.65-1.44C121.93,168.85,124.19,169.12,129.19,169.28Z"/><path class="cls-63" d="M132.87,152.51c4.13,1.22,11.82-1.39,10.16.34-1.45,1.5-7.56,1.07-9.4.9l.31.51c2.82.36,9.69.72,14.7-3.42-.36-.78-.72-1.56-1-2.34-5.13,4.44-11.76,4.1-15.17,3.27Z"/><g class="cls-88"><path class="cls-98" d="M132.08,159.51a12.17,12.17,0,0,1-1.9.87,18.74,18.74,0,0,0-1.83,1,12,12,0,0,0-1.74,1c-.84.59-1.52,1.38-1.6,1.32a4.79,4.79,0,0,1,1.32-1.66,10.69,10.69,0,0,1,1.72-1.26,14.81,14.81,0,0,1,2-.81A7,7,0,0,1,132.08,159.51Z"/><path class="cls-99" d="M135.12,158.54c0,.17-.85.58-.85.58s-1,.13-1,0,.86-.58.86-.58S135.07,158.37,135.12,158.54Z"/></g><path class="cls-100" d="M177.05,177.2c7.67.47,20.93-2,24.38-5.61,2.31-2.4-2.22-10.79-4.83-18.51a16.08,16.08,0,0,1-15.7,3.48,49.35,49.35,0,0,0,3.85,7s-10.25.33-13.52,6.46S169.38,176.72,177.05,177.2Z"/><path class="cls-101" d="M201.43,171.59c2.31-2.4-2.22-10.79-4.83-18.51a15.86,15.86,0,0,1-14.25,3.85,4.24,4.24,0,0,0-.94.69c.39.82.77,1.56,1.13,2.22,4,1.78,13.1-.26,11.19,1.33-1.4,1.16-6.62.82-10.2.42.74,1.25,1.22,1.94,1.22,1.94a24.77,24.77,0,0,0-2.6.28c2,.64,5,1.76,4.93,2.62-.11,1.28-4.61,6-11,4.66-2.81-.59-3.3-2-3-3.48a8.57,8.57,0,0,0-1.88,2.38c-3.28,6.13-1.85,6.73,5.82,7.21S198,175.18,201.43,171.59Z"/><path class="cls-62" d="M177.05,177.2c-6.69-.42-8.63-.93-6.84-5.12,1,1.59,4,3.12,12,2.61a31.89,31.89,0,0,0,19.44-7.92c.58,2.21.67,3.93-.19,4.82C198,175.18,184.72,177.67,177.05,177.2Zm19.55-24.12a16.08,16.08,0,0,1-15.7,3.48c.51,1.11,1,2.11,1.48,3,2.88.5,10,1.1,15.23-3.67C197.25,154.94,196.91,154,196.6,153.08Z"/><path class="cls-102" d="M188.46,166.62c-.08,0-.4-.48-.79-.91a5.92,5.92,0,0,0-.84-.75,6.36,6.36,0,0,0-.87-.71c-.46-.32-1-.52-1-.62s.6-.08,1.17.14a5,5,0,0,1,1.07.59,5.86,5.86,0,0,1,.8,1A2.34,2.34,0,0,1,188.46,166.62Zm0-3.65a5.63,5.63,0,0,0-1.36-.44,5.46,5.46,0,0,0-1.41.13,2.44,2.44,0,0,0-1.28.64c0,.1.69-.1,1.34-.12a6.25,6.25,0,0,1,1.28.09,6.06,6.06,0,0,1,1.28.2c.63.17,1.23.5,1.29.41S189.15,163.29,188.5,163Z"/><g class="cls-97"><path class="cls-62" d="M185.37,176.35s-.05-1-.12-2l-.44.06c-.05,1-.09,1.94-.09,1.94s0,.22,0,.54l.6-.07C185.36,176.54,185.37,176.35,185.37,176.35Z"/><path class="cls-62" d="M188.86,158.15s.36.71.68,1.46l.47-.08,0-.05a16,16,0,0,0-.56-1.67s-.18-.37-.44-.82l-.58.09Z"/><path class="cls-62" d="M185.75,158.43s.24.71.53,1.44h.5v0c-.21-.81-.41-1.63-.41-1.63s-.14-.4-.31-.91h-.56C185.62,157.91,185.75,158.43,185.75,158.43Z"/><path class="cls-62" d="M193.05,156.48s.3.82.53,1.68a2,2,0,0,1,.07.26l.4-.19c0-.07,0-.13,0-.2a17.33,17.33,0,0,0-.37-1.8s-.12-.34-.3-.79l-.53.26C193,156.15,193.05,156.48,193.05,156.48Z"/><path class="cls-62" d="M177.52,177.21v0s-.06-1-.06-2v-.43l-.4,0c0,.14,0,.28-.05.42-.11,1-.13,1.94-.14,2.05h.65Z"/><path class="cls-62" d="M196,153.64c-.12.11-.24.22-.37.32.37.76.65,1.53.65,1.53a9.81,9.81,0,0,1,.44,1.16l.45-.37a8.27,8.27,0,0,0-.31-1.11A11.23,11.23,0,0,0,196,153.64Z"/><path class="cls-62" d="M182.45,158.36a11.24,11.24,0,0,0,.64,1.29l.62.08a17.44,17.44,0,0,1-.67-1.67s-.2-.46-.41-1.08l-.58-.12A14.31,14.31,0,0,0,182.45,158.36Z"/><path class="cls-62" d="M181.1,176s0-.58-.08-1.25l-.5,0c0,.67-.06,1.24-.06,1.24s0,.56.08,1.21l.51,0C181.08,176.55,181.1,176,181.1,176Z"/><path class="cls-62" d="M171.31,173.84c0-.21.07-.41.11-.6-.12-.07-.22-.15-.32-.22-.08.21-.16.45-.23.69a12.1,12.1,0,0,0-.37,1.89s0,.19,0,.48a4.66,4.66,0,0,0,.59.28c0-.41.06-.7.06-.7A17.46,17.46,0,0,1,171.31,173.84Z"/><path class="cls-62" d="M174,176.53s0-.83,0-1.66v-.61l-.35-.09c0,.21-.07.44-.11.66-.12.84-.18,1.68-.18,1.68s0,.14,0,.36l.61.08Z"/><path class="cls-62" d="M189.63,175.56s-.19-1.18-.37-2.07l-.36.11c0,.91.09,2.06.09,2.06s0,.25.1.6l.57-.11C189.64,175.8,189.63,175.56,189.63,175.56Z"/><path class="cls-62" d="M202,170l0-.09a13.17,13.17,0,0,0-.75-1.95q-.17-.32-.33-.6l-.31.25c.08.18.16.38.23.58a16.1,16.1,0,0,1,.54,1.93s.14.49.28,1.13A2.82,2.82,0,0,0,202,170Z"/><path class="cls-62" d="M198.64,172.91a17.74,17.74,0,0,0-.82-2.36c-.1-.24-.2-.48-.31-.7l-.33.2c.07.23.15.47.22.71a22.27,22.27,0,0,1,.61,2.34s.06.22.14.56l.57-.27C198.68,173.09,198.64,172.91,198.64,172.91Z"/><path class="cls-62" d="M194.74,173.59a13,13,0,0,0-.54-1.93l-.45.2a14.5,14.5,0,0,1,.35,1.86s.11.58.19,1.32l.53-.16C194.81,174.15,194.74,173.59,194.74,173.59Z"/></g><path class="cls-63" d="M177.05,177.2c7.67.47,20.93-2,24.38-5.61.86-.89.77-2.61.19-4.82a31.89,31.89,0,0,1-19.44,7.92c-8,.51-11-1-12-2.61-.09.21-.17.41-.24.61,1.46,1.47,3.82,2.64,11.85,2.58,10.07-.07,15.29-3.69,12.92-1.68s-9,3.28-17.33,2.75c-4.74-.3-6.87-1.19-7.82-1.9C169.58,176.5,171.91,176.88,177.05,177.2Z"/><path class="cls-63" d="M181.32,157.44c4.21,1.56,12.2-1.34,10.45.66-1.54,1.75-7.81,1.08-9.7.84l.31.6c2.88.5,10,1.1,15.23-3.67-.36-.93-.7-1.86-1-2.79a16.08,16.08,0,0,1-15.7,3.48C181,156.87,181.18,157.15,181.32,157.44Z"/><g class="cls-88"><path class="cls-103" d="M180.31,165.71a13.75,13.75,0,0,1-2,1,21.09,21.09,0,0,0-1.91,1.07,13.7,13.7,0,0,0-1.83,1.2c-.88.68-1.61,1.59-1.68,1.53a5.58,5.58,0,0,1,1.4-1.94,11.59,11.59,0,0,1,1.82-1.45,15.86,15.86,0,0,1,2-.9A6.36,6.36,0,0,1,180.31,165.71Z"/><path class="cls-104" d="M183.47,164.64c0,.2-.9.66-.9.66s-1,.14-1-.06.89-.66.89-.66S183.42,164.44,183.47,164.64Z"/></g><path class="cls-105" d="M123.73,102.25a16.26,16.26,0,0,0-1.71-8.7c-6.9,2.19-11,1.27-11,1.27s-4.8-6.17-10.51-1.83-6.39,6.4-3.88,11.88,8.68,8,14.85,2.28a64.54,64.54,0,0,0,10.87,1.63A35.74,35.74,0,0,0,123.73,102.25Z"/><path class="cls-106" d="M220.87,38.17c-.91-7.54-3,1.37-3,1.37s.46-9.82-5.25-12.56-5.71,13-5.71,13-.69-4.34-3.2-3.89-.91,10.74,3,15.08a20.63,20.63,0,0,1-7.79,11.75c.64,1.41,2.3,4,6.44,6.11a10.63,10.63,0,0,0,6.26.83c4.63-10.56,2.4-16.41,2.4-16.41S221.78,45.71,220.87,38.17Z"/><path class="cls-107" d="M141.58,70.42s-3.73,5.86,10.51,5S175,67.84,177.35,64.57s-3-6.2-3-6.2Z"/><path class="cls-108" d="M141.58,70.42a2.84,2.84,0,0,0-.2.41c1,1.28,3.66,2.41,10.47,2C166.09,72,174.74,65.25,177.11,62a3.12,3.12,0,0,0,.38-.68,9.31,9.31,0,0,0-3.19-2.92Z"/><g class="cls-109"><path class="cls-110" d="M157.37,110.4c-9.81,0-12.8-4.29-12.94-4.5l.83-.55-.41.27.41-.27c0,.05,3.84,5.39,17,3.72,13.63-1.72,24.14-8.84,27.24-13.35l.83.57c-3.22,4.66-14,12-28,13.77A39.09,39.09,0,0,1,157.37,110.4Z"/></g><path class="cls-111" d="M195.5,148.76a19.69,19.69,0,0,1-15.95,5.3l.59,1c.51,0,1.07.08,1.68.08a21.22,21.22,0,0,0,14-5.35C195.69,149.47,195.59,149.12,195.5,148.76Z"/><path class="cls-112" d="M169.46,134.39c.19.31.37.62.55,1,2.91-4.25,10.24-13,21-12.13,0-.34-.07-.67-.1-1C180.07,121.46,172.63,129.88,169.46,134.39Z"/><path class="cls-113" d="M144.52,139c-9.68,4.61-14.88,3.23-17.07,2.05q.28.71.6,1.41a12.44,12.44,0,0,0,4.59.79c2.9,0,6.8-.77,11.89-3.15A8.12,8.12,0,0,1,144.52,139Z"/><path class="cls-114" d="M138.7,114.49l-1.23.64c3.45,1.26,9.06,5,13.49,16.26.31-.13.61-.26.93-.38C147.65,120.26,142.38,116.1,138.7,114.49Z"/><g class="cls-109"><path class="cls-115" d="M128.16,91c1.18,1.27,2.78,3.84,3.25,8.73a31.89,31.89,0,0,1-.25,8.67c.36-.07.71-.13,1.06-.21a33.37,33.37,0,0,0,.19-8.55c-.48-4.89-2-7.63-3.32-9.1Z"/><path class="cls-116" d="M187.07,68.23c-.33.08-.67.15-1,.21-.08,3,.21,9.2,3.75,12.46a16.51,16.51,0,0,0,6,3.57l1.19-.7a15.5,15.5,0,0,1-6.55-3.6C187.18,77.12,187,71,187.07,68.23Z"/></g><path class="cls-117" d="M99.79,108.87c3.07,2.24,7.36,2.27,11.67-1.72a64.54,64.54,0,0,0,10.87,1.63,35.74,35.74,0,0,0,1.4-6.53,16.26,16.26,0,0,0-1.71-8.7c-.57.19-1.12.34-1.66.48,1.63,3.75,2.19,10.67-2.19,9.57-2.71-.67-4-5-4.68-8.59a13.06,13.06,0,0,1-2.49-.19l0,0a5.93,5.93,0,0,1-.15,2.87c-1,3.39-3.73,1.64-3.73,1.64s.58,3.85-2.45,4.2-3.74-5.72-3.74-5.72c-3,7.47,5,9,4.2,11C104.66,109.82,102.06,109.44,99.79,108.87Z"/><path class="cls-118" d="M102.28,106.75a4.67,4.67,0,0,1-1.28.51,3.53,3.53,0,0,1-.63.1,3.64,3.64,0,0,1-.64,0,4.46,4.46,0,0,1-1.32-.4A2.89,2.89,0,0,1,97,105.6a10.44,10.44,0,0,0,1.62.9,4.44,4.44,0,0,0,1.76.23,4.32,4.32,0,0,0,1.74-.38,9.68,9.68,0,0,0,1.54-1A2.92,2.92,0,0,1,102.28,106.75Zm4.17-1.19a2.15,2.15,0,0,0-.53-.38,3.38,3.38,0,0,0,1.34-1,3.57,3.57,0,0,0,.72-1.48,3.82,3.82,0,0,0,0-1.33c0-.21-.06-.3-.08-.4s-.12-.25,0-.17a1.08,1.08,0,0,0,.77,0,1.15,1.15,0,0,0,.44-.28c.16-.19.15-.26.15-.26s0,0-.2.2a1.08,1.08,0,0,1-.42.23,1,1,0,0,1-1-.17c-.13-.06.1.58.08.86a4.23,4.23,0,0,1-.14,1.22,3.07,3.07,0,0,1-2,2.13,2.83,2.83,0,0,1-1.46.09,2.93,2.93,0,0,1-1.12-.54,4.1,4.1,0,0,1-.87-.87,3.58,3.58,0,0,1-.28-.37,5.64,5.64,0,0,1-.59-1.06,6.26,6.26,0,0,1-.43-3.66,6.57,6.57,0,0,1,1.74-3.3A17.49,17.49,0,0,1,104,93.93a1.71,1.71,0,0,0-.45.19,6.3,6.3,0,0,0-1.07.75,6.6,6.6,0,0,0-2,3.39,6.8,6.8,0,0,0,.33,4c0,.08.07.13.1.21a4.61,4.61,0,0,1-1.5.11,4.39,4.39,0,0,1-1.3-.34,3.17,3.17,0,0,1-.53-.28,4,4,0,0,1-.5-.33,4.39,4.39,0,0,1-.92-1,7.77,7.77,0,0,1-.78-1.87,3,3,0,0,0,.4,2.09,4.2,4.2,0,0,0,.93,1.2,4.39,4.39,0,0,0,.55.43,4.66,4.66,0,0,0,.64.28,4.49,4.49,0,0,0,1.5.24,3.71,3.71,0,0,0,1.6-.36,5.9,5.9,0,0,0,.44.79,3.8,3.8,0,0,0,.29.41,4.87,4.87,0,0,0,1,1,3.57,3.57,0,0,0,1.32.58s0,.07,0,.08.06,0,.14-.06a3.27,3.27,0,0,0,1.28,0,1.8,1.8,0,0,1,.69.52,1.06,1.06,0,0,1,.29.68,1.49,1.49,0,0,1-.26.63,3.37,3.37,0,0,1-.44.59,4.34,4.34,0,0,1-.51.54,4.23,4.23,0,0,1-1.43.81,6.24,6.24,0,0,1-2.45.14,3.38,3.38,0,0,0,2.57.29,4.33,4.33,0,0,0,1.67-.8,4,4,0,0,0,.63-.58,4,4,0,0,0,.47-.71,2,2,0,0,0,.27-.91A1.53,1.53,0,0,0,106.45,105.56Zm1.67,2.07a1.15,1.15,0,0,0-.77-.24c-.22,0-.34.11-.33.15s.53,0,.8.42a.77.77,0,0,1,.2.7,1,1,0,0,1-.06.23,1.22,1.22,0,0,1-.34.48c-.34.32-.82.56-.78.65a1.59,1.59,0,0,0,1-.3,1.57,1.57,0,0,0,.6-.57,1.31,1.31,0,0,0,.15-.38.92.92,0,0,0,0-.42A1.25,1.25,0,0,0,108.12,107.63Zm3.46-3.28c0-.07-.48.12-.92.17a3.94,3.94,0,0,1-.87,0,3.6,3.6,0,0,1-.86-.1c-.43-.1-.83-.34-.89-.27s.26.45.73.69a3.2,3.2,0,0,0,1,.3,3.33,3.33,0,0,0,1-.18C111.26,104.77,111.63,104.42,111.58,104.35Zm.47-6.42s.19.66.33,1.35a6.77,6.77,0,0,0,.3,1.38,3.19,3.19,0,0,0,.14-1.43,13.45,13.45,0,0,0-.15-1.44,12.22,12.22,0,0,0-.49-1.36,3.47,3.47,0,0,0-.74-1.23,5.91,5.91,0,0,0,.32,1.38C111.94,97.25,112.05,97.93,112.05,97.93Zm1.29-.76a12.79,12.79,0,0,0-.8-1.21c-.44-.57-1-1.07-1-1s.32.64.66,1.26.61,1.24.61,1.24.34.6.63,1.24A6.64,6.64,0,0,0,114,100a3.16,3.16,0,0,0-.2-1.43A10.92,10.92,0,0,0,113.34,97.17Zm-.21,7.48a6.15,6.15,0,0,1-.53.87,6.57,6.57,0,0,1-.56.84c-.32.41-.73.75-.68.82s.55-.14,1-.5a5.05,5.05,0,0,0,.78-.83,4.64,4.64,0,0,0,.41-1c.14-.55.13-1.11,0-1.11S113.36,104.19,113.13,104.65Zm98.35-61.72a3,3,0,0,0-.48-.63,5.09,5.09,0,0,0-1.34-1l-1.42-.74a2.57,2.57,0,0,0-.66-.33s.17.26.52.53.85.59,1.32.92a5.12,5.12,0,0,1,1.15,1,2.92,2.92,0,0,1,.36.55,3,3,0,0,1,.27.61,4.57,4.57,0,0,1,.21,1.49c0,1.13-.27,2.28-.17,2.3a6.14,6.14,0,0,0,.62-2.28,4.78,4.78,0,0,0-.11-1.68A3.3,3.3,0,0,0,211.48,42.93Zm.12-11.79a8.39,8.39,0,0,0-1.37-2.66c-.07,0,.58,1.37.94,2.79a17.1,17.1,0,0,1,.5,2.86,17.85,17.85,0,0,1,.11,2.9c-.07,1.46-.43,2.89-.34,2.92a8.46,8.46,0,0,0,.78-2.88,15.79,15.79,0,0,0,.07-3A16,16,0,0,0,211.6,31.14Zm3,5.19c0,.58,0,1.36-.06,2.13a9.57,9.57,0,0,1-.35,2.07,6.11,6.11,0,0,0-.29.92,2.17,2.17,0,0,0,.52-.84,8,8,0,0,0,.56-2.1c.12-.79.16-1.58.2-2.16l.06-1a21.19,21.19,0,0,0-.19-3.15,7.25,7.25,0,0,0-1-3,22.64,22.64,0,0,1,.53,3,24.92,24.92,0,0,1,0,3.09Zm4,1.62a5.13,5.13,0,0,0-.26,1.19c-.11.59-.27,1.16-.27,1.16s-.09.58-.24,1.16-.35,1.16-.27,1.2.43-.48.69-1a8.8,8.8,0,0,0,.43-1.17,7.68,7.68,0,0,0,.1-1.26C218.78,38.56,218.68,37.94,218.59,38ZM209,51.78s-.41-.1-.82-.25-.8-.35-.86-.28.26.41.66.68a4.21,4.21,0,0,0,.83.44,4.62,4.62,0,0,0,.94.13c.47,0,.93-.07.93-.16s-.45-.15-.87-.28A6.31,6.31,0,0,1,209,51.78Zm6.59-.71a5.49,5.49,0,0,1-.84.72,5,5,0,0,1-.9.64c-.48.28-1,.44-1,.53a2,2,0,0,0,1.21-.12,4.65,4.65,0,0,0,1.11-.56,4.41,4.41,0,0,0,.8-.94c.34-.53.49-1.12.41-1.15S216,50.66,215.59,51.07Z"/><path class="cls-119" d="M214,53.47a31.08,31.08,0,0,0,4.36-5.8c-2,.1-3.37-.47-2.16-2s2.36-6,3.09-10.13a17,17,0,0,0-1.41,4,23.34,23.34,0,0,0-.4-4.85c-.65,3.1-3.05,5.45-6.15,4.6-2-.55-3.07-3.94-3.65-7.07a44.48,44.48,0,0,0-.76,7.78s-.41-2.53-1.72-3.52a15.09,15.09,0,0,0,3.08,5.39c2.48,2.29,3.24,6,.09,7-1.6.49-3.59-2.13-5.16-4.83a18.15,18.15,0,0,0,3.48,7.19,9.29,9.29,0,0,1-.24,1,10,10,0,0,0,2.31.66c4.38.67,4.1,7.63,1.33,11.54s-10,.48-10,.48h0a15.47,15.47,0,0,0,5.27,4.19,10.63,10.63,0,0,0,6.26.83C216.25,59.32,214,53.47,214,53.47Z"/><path class="cls-120" d="M155.59,97.39a6.89,6.89,0,0,1-.36-1.35c-.19-.82-.4-1.92-.59-3-.38-2.21-.65-4.43-.65-4.43s-.21-2.23-.3-4.46c0-1.12-.07-2.24-.06-3.08a6.42,6.42,0,0,1,.07-1.4,6.52,6.52,0,0,1,.17,1.39c.07.83.17,1.95.26,3.06.21,2.22.48,4.42.48,4.42s.2,2.22.47,4.43c.14,1.11.28,2.21.39,3A5.94,5.94,0,0,1,155.59,97.39ZM157,103a14.68,14.68,0,0,1-.44-1.41s-.25-.69-.43-1.41a7.74,7.74,0,0,0-.36-1.46,3.33,3.33,0,0,0-.07,1.53,9.65,9.65,0,0,0,.26,1.53,10.58,10.58,0,0,0,.64,1.41c.37.68.85,1.28.92,1.23A7,7,0,0,0,157,103Zm.64-29.36a34.67,34.67,0,0,1-3.86.51,33.51,33.51,0,0,1-3.9.18c-2,0-3.9-.32-3.91-.24a15.71,15.71,0,0,0,3.89.68,29.19,29.19,0,0,0,4,0,30.46,30.46,0,0,0,3.91-.71,16.47,16.47,0,0,0,3.71-1.35C161.44,72.6,159.58,73.23,157.66,73.61ZM168,69.68c-.82.45-1.67.83-1.67.83s-.81.45-1.66.83a12.44,12.44,0,0,0-1.71.81,5.85,5.85,0,0,0,1.87-.39,17.86,17.86,0,0,0,1.78-.69,18.63,18.63,0,0,0,1.63-1,5.39,5.39,0,0,0,1.43-1.26A11.74,11.74,0,0,0,168,69.68Z"/><g class="cls-88"><path class="cls-121" d="M103.21,93.14c0,.09-1,.46-1.94,1a11,11,0,0,0-1.71,1.31A8.72,8.72,0,0,0,98.06,97a3.77,3.77,0,0,0-.65,1.3c-.11.38-.09.66-.14.67a1.09,1.09,0,0,1-.1-.71,3.52,3.52,0,0,1,.51-1.5A8.5,8.5,0,0,1,99.14,95a10.47,10.47,0,0,1,1.92-1.23A5.37,5.37,0,0,1,103.21,93.14Z"/><path class="cls-122" d="M103.86,101.86c-.06.06-.62-.42-1-1.07a5.31,5.31,0,0,1-.53-1.37,5.06,5.06,0,0,1,0-1.48,2.5,2.5,0,0,1,.56-1.33c.08,0-.11.7-.12,1.38a6.17,6.17,0,0,0,.14,1.32,6.23,6.23,0,0,0,.32,1.29C103.5,101.24,103.92,101.8,103.86,101.86Z"/><path class="cls-123" d="M100.15,105.7c0,.09-.57.19-1.16.07a4.32,4.32,0,0,1-1.11-.4,4,4,0,0,1-.85-.84c-.35-.47-.51-1-.43-1.07s.37.43.77.78a4.59,4.59,0,0,0,.84.6,4.15,4.15,0,0,0,.91.5C99.6,105.55,100.15,105.61,100.15,105.7Z"/><path class="cls-124" d="M120.64,95.73a3.43,3.43,0,0,1-1.41.64,10.45,10.45,0,0,1-1.53.29,9.22,9.22,0,0,1-1.55-.11,3.57,3.57,0,0,1-1.48-.46,9.56,9.56,0,0,1,1.52,0,53.88,53.88,0,0,0,3-.18A8.92,8.92,0,0,1,120.64,95.73Z"/><path class="cls-125" d="M206.34,54.84a6.65,6.65,0,0,1-.46,2.27,17.27,17.27,0,0,1-.91,2.14,15.68,15.68,0,0,1-1.36,1.9,7,7,0,0,1-1.69,1.58c-.06-.06.7-.92,1.34-1.85a18.17,18.17,0,0,0,1.16-1.94,18.48,18.48,0,0,0,1-2C205.93,55.91,206.26,54.82,206.34,54.84Z"/><path class="cls-126" d="M207,48.18a10.21,10.21,0,0,1-1.72-2,14.23,14.23,0,0,1-1.37-2.27,8.7,8.7,0,0,1-.61-2.62,4.43,4.43,0,0,1,.46-2.6,11.22,11.22,0,0,0,0,2.56,9.07,9.07,0,0,0,.75,2.41A16.11,16.11,0,0,0,205.61,46,22,22,0,0,1,207,48.18Z"/><path class="cls-127" d="M210.75,35.35c-.09,0-.23-.62-.39-1.23S210,32.9,210,32.9l-.22-1.25c-.11-.62-.25-1.25-.16-1.27s.36.55.59,1.15.4,1.23.4,1.23.11.64.16,1.29A3.22,3.22,0,0,1,210.75,35.35Z"/><path class="cls-128" d="M214.11,34.25a9.18,9.18,0,0,1-.32-1.52,15.25,15.25,0,0,0-.38-1.48s-.16-.75-.4-1.48a9,9,0,0,1-.47-1.49,3.73,3.73,0,0,1,.88,1.32,10.58,10.58,0,0,1,.59,1.49,10.33,10.33,0,0,1,.22,1.58A3.62,3.62,0,0,1,214.11,34.25Z"/><path class="cls-129" d="M218.7,44.9a16.23,16.23,0,0,1,.48-1.77,15.48,15.48,0,0,0,.34-1.78,15.25,15.25,0,0,0,.26-1.78,14.53,14.53,0,0,1,.12-1.84,4.8,4.8,0,0,1,.32,1.85,11.32,11.32,0,0,1-.08,1.88,12.59,12.59,0,0,1-.53,1.8A4.67,4.67,0,0,1,218.7,44.9Z"/></g><path class="cls-130" d="M149.21,107.39l.15,0a18.9,18.9,0,0,0,7.91.77C152.69,100.82,147,89.79,146,79.07c0,0-.42,16.5,2.25,25.42C148.59,105.55,148.9,106.51,149.21,107.39Z"/><path class="cls-131" d="M158.8,110.59a24.31,24.31,0,0,1-8.42-.23c1.74,4,3.06,5,3.06,5s5.41,3.09,9.91,1.59C163.35,117,161.4,114.55,158.8,110.59Z"/><ellipse class="cls-132" cx="151.18" cy="37.45" rx="37.89" ry="33.85" transform="matrix(0.96, -0.29, 0.29, 0.96, -4.37, 45.28)"/><path class="cls-133" d="M187.45,26.5c-3-9.89-10.61-17.24-20.22-20.83a31.76,31.76,0,0,1,15.4,18.62c5.4,17.9-6.46,37.31-26.49,43.36A40.56,40.56,0,0,1,130.31,67,39.89,39.89,0,0,0,161,69.86C181,63.81,192.85,44.4,187.45,26.5Z"/><path class="cls-134" d="M139.91,12.27a41,41,0,0,0-19.44,7.25c-6.2,8.36-8.59,18.85-5.56,28.87a31.9,31.9,0,0,0,16.87,19.38,42.41,42.41,0,0,0,14.32.83c19.33-2.12,33.61-16.45,31.9-32S159.24,10.14,139.91,12.27Z"/><path class="cls-135" d="M178,36.59a24.62,24.62,0,0,0-8.17-15.51c1.29,15.32-12.87,29.32-32,31.42-5,.54-10,.71-14.32-.83-3.75-1.35-6.8-4.08-9.5-6.89a28.63,28.63,0,0,0,.85,3.61,31.9,31.9,0,0,0,16.87,19.38,42.41,42.41,0,0,0,14.32.83C165.43,66.48,179.71,52.15,178,36.59Z"/><path class="cls-136" d="M161.78,30.8c1.56,8.41-8,10.53-20.18,12.78S119.34,47.36,117.78,39s7-17.05,19.18-19.3S160.23,22.4,161.78,30.8Z"/><path class="cls-136" d="M150.2,29.25c.92,5-4.77,6.26-12,7.59S125,39.08,124.07,34.09,128.24,24,135.46,22.63,149.27,24.26,150.2,29.25Z"/><path class="cls-136" d="M130.66,59.41c-1.38-5,6.65-2.8,15.59-5.26s15.41-8.68,16.79-3.67S158.29,61.55,149.35,64,132.05,64.42,130.66,59.41Z"/><path class="cls-136" d="M117.62,50.37c-3-10-.64-20.52,5.56-28.88a41.27,41.27,0,0,1,19.45-7.25,39.65,39.65,0,0,1,25.83,5.66c-7.12-5.78-17.46-8.85-28.55-7.63a41,41,0,0,0-19.44,7.25c-6.2,8.36-8.59,18.85-5.56,28.87A31.4,31.4,0,0,0,128,65.61,31,31,0,0,1,117.62,50.37Z"/><path class="cls-137" d="M178,36.59C176.29,21,159.24,10.14,139.91,12.27a41,41,0,0,0-19.44,7.25A36.64,36.64,0,0,0,116.21,27a33.67,33.67,0,0,1,3.08-4.86,39.31,39.31,0,0,1,18.28-6.65c18.17-2,34.21,8,35.81,22.29s-11.82,27.39-30,29.33a40.55,40.55,0,0,1-13.47-.76,33.73,33.73,0,0,1-4.84-2.84,34.58,34.58,0,0,0,6.7,4.29,42.41,42.41,0,0,0,14.32.83C165.43,66.48,179.71,52.15,178,36.59Z"/><path class="cls-138" d="M141.19,66.25a41.21,41.21,0,0,1-13.07-.71c-.34-.16-.65-.34-1-.51A32.63,32.63,0,0,0,130.23,67a42.49,42.49,0,0,0,13.6.72c18.76-2,32.63-15.47,31-30.09s-18.21-24.87-37-22.87a40.71,40.71,0,0,0-18.63,6.66,34.66,34.66,0,0,0-1.93,3.33c.18-.25.34-.5.53-.74a38.91,38.91,0,0,1,17.75-6.25c17.65-1.83,33.22,7.55,34.78,21S158.84,64.42,141.19,66.25Z"/><path class="cls-139" d="M153,4.16C141.3,4.08,133,10.08,130,13.62c0,0,6.21-4.21,18.11-2.72A22.21,22.21,0,0,1,153,4.16Z"/><path class="cls-140" d="M158.62,4.66c-1-.18-2-.3-3-.38a20.65,20.65,0,0,0-5.55,6.9,52.69,52.69,0,0,1,6.82,1.65c17.6,5.5,20.43,16.34,20.43,16.34S173.23,7.17,158.62,4.66Z"/><path class="cls-141" d="M141.4,5A41.32,41.32,0,0,0,125,14.4c-3,6.76,0,11.54,7.74,10.78,8.42-.83,10.61-3.8,11.28-7.28s-.93-12.36,12-14.59A41.83,41.83,0,0,0,141.4,5Z"/><path class="cls-142" d="M135.55,2.28A22.14,22.14,0,0,0,124.91,12c-4.28,7.46-1.58,13,6.35,12.22s10-3.65,10.64-7S141,5,154,3.07C154,3.07,151.58-3.28,135.55,2.28Z"/><path class="cls-143" d="M147.82,0c-8.89,2.93-7.7,10.29-8.27,13.25-.63,3.33-2.7,6.19-10.63,7a9.22,9.22,0,0,1-6-1.08c.39,3.45,3.31,5.49,8.32,5,7.94-.79,10-3.65,10.64-7S141,5,154,3.07C154,3.07,153,.38,147.82,0Z"/><path class="cls-144" d="M154,3.07s-1-2.69-6.14-3c-8.89,2.93-7.7,10.29-8.27,13.25a7.18,7.18,0,0,1-1.64,3.56,9,9,0,0,0,2.56,3.65,7.43,7.43,0,0,0,1.43-3.3C142.53,13.87,141,5,154,3.07Z"/><g class="cls-88"><path class="cls-145" d="M125,17.53a10.19,10.19,0,0,1,.62-3.72,18.13,18.13,0,0,1,1.6-3.44,24.23,24.23,0,0,1,2.34-3,15.24,15.24,0,0,1,2.83-2.48c.06.07-1.31,1.34-2.49,2.78a26,26,0,0,0-2.15,3A19.78,19.78,0,0,0,126.05,14,35.74,35.74,0,0,0,125,17.53Z"/><path class="cls-146" d="M136.78,21.06a5.89,5.89,0,0,1-1.85,1.09,13.83,13.83,0,0,1-2.05.66,13.31,13.31,0,0,1-2.15.14,5.51,5.51,0,0,1-2.11-.33c0-.08,1.06,0,2.1-.11a14.86,14.86,0,0,0,2-.32,14.94,14.94,0,0,0,2-.46C135.78,21.44,136.73,21,136.78,21.06Z"/><path class="cls-147" d="M137,16.21s.27-.25.55-.7a4.65,4.65,0,0,0,.65-1.81,17.16,17.16,0,0,0,.18-2l.05-.92a24.61,24.61,0,0,1,.46-2.9A7.6,7.6,0,0,1,140,5.17c.07,0-.43,1.39-.61,2.83s-.27,2.88-.27,2.88l-.1.9a15.24,15.24,0,0,1-.32,2,4.53,4.53,0,0,1-.89,1.87A1.49,1.49,0,0,1,137,16.21Z"/><path class="cls-148" d="M136.16,16.32c.07.05-.22.53-.63.94a5.41,5.41,0,0,1-.89.71,5.13,5.13,0,0,1-1.08.36,2,2,0,0,1-1.13,0c0-.09.52-.22,1-.44a7.16,7.16,0,0,0,.91-.49,8.22,8.22,0,0,0,.91-.51C135.69,16.63,136.09,16.26,136.16,16.32Z"/></g><path class="cls-149" d="M184.87,20.42c-.83,1.67-4.22,7.31-14.15,11,0,0-2.85,2.15-2,7.16s2.16,6.11,6.48,6.11c3.34,0,9.34-1,13.19-4.77a30.63,30.63,0,0,0-3.54-19.54Z"/><path class="cls-150" d="M170.72,30.3s-2.85,1.94-2,6.44,2.16,5.51,6.48,5.51,13.16-1.56,15.93-8-1.73-14-6.06-14.36C185.09,19.92,182.5,26.32,170.72,30.3Z"/><path class="cls-151" d="M187.08,20.59A11.57,11.57,0,0,1,188,31c-2.77,6.41-11.6,8-15.92,8a12.59,12.59,0,0,1-2.82-.25c.9,2.86,2.4,3.57,6,3.57,4.33,0,13.16-1.56,15.93-8C193.49,28.87,190.64,22.61,187.08,20.59Z"/><path class="cls-152" d="M171.35,37.92c-.86-4.5,2-6.44,2-6.44,11.77-4,14.37-10.39,14.37-10.39l.18,0a5.33,5.33,0,0,0-2.8-1.21s-2.59,6.4-14.37,10.38c0,0-2.85,1.94-2,6.44.7,3.64,1.68,5,4.31,5.38C172.23,41.28,171.75,40,171.35,37.92Z"/><path class="cls-153" d="M187.71,21.09l.18,0a5.33,5.33,0,0,0-2.8-1.21s-2.59,6.4-14.37,10.38l-.12.1,2.67,1.13.07-.05C185.11,27.5,187.71,21.09,187.71,21.09Z"/><g class="cls-88"><path class="cls-154" d="M174.23,33c.06.06-.49.76-.79,1.58a6.89,6.89,0,0,0-.4,1.66,7,7,0,0,0-.1,1.71c.06.87.38,1.7.3,1.74A3.32,3.32,0,0,1,172.5,38a6.73,6.73,0,0,1-.08-1.87,6.62,6.62,0,0,1,.62-1.76A3.29,3.29,0,0,1,174.23,33Z"/><path class="cls-155" d="M184.05,27.14a10.13,10.13,0,0,1-1.94,1.55c-1,.71-2.08,1.36-2.08,1.36s-1.09.58-2.22,1.09a10.36,10.36,0,0,1-2.32.88,15.18,15.18,0,0,1,2.12-1.27l2.11-1.25,2.15-1.18A15.76,15.76,0,0,1,184.05,27.14Z"/><path class="cls-156" d="M187.72,37.33c-.07-.07.87-1,1.63-2.07a7.46,7.46,0,0,0,.87-1.53,3.84,3.84,0,0,0,.25-.74,6.75,6.75,0,0,0,.19-.76,8.48,8.48,0,0,0,.12-1.76c0-1.31-.26-2.62-.16-2.64a9.51,9.51,0,0,1,.6,2.61,8.37,8.37,0,0,1,0,1.87,6.75,6.75,0,0,1-.15.85,5.73,5.73,0,0,1-.33.81,7.36,7.36,0,0,1-1.05,1.56A9.1,9.1,0,0,1,187.72,37.33Z"/><path class="cls-157" d="M186.17,38.15c.05.07-.33.45-.74.79s-.86.64-.86.64-.48.24-1,.43-1,.32-1.05.24.41-.35.85-.64l.87-.57.93-.47C185.65,38.33,186.12,38.08,186.17,38.15Z"/></g></g></g></g></svg>