<svg xmlns="http://www.w3.org/2000/svg" xmlns:xlink="http://www.w3.org/1999/xlink" viewBox="0 0 31.59 31.59"><defs><style>.cls-1{isolation:isolate;}.cls-11,.cls-12,.cls-13,.cls-14,.cls-15,.cls-2,.cls-3,.cls-5{mix-blend-mode:screen;}.cls-3{fill:url(#radial-gradient);}.cls-4,.cls-5{fill:url(#radial-gradient-2);}.cls-6{fill:url(#radial-gradient-4);}.cls-7{fill:url(#radial-gradient-5);}.cls-8{fill:url(#radial-gradient-6);}.cls-9{fill:url(#radial-gradient-7);}.cls-10{opacity:0.25;mix-blend-mode:multiply;fill:url(#radial-gradient-8);}.cls-11{opacity:0.34;fill:url(#radial-gradient-9);}.cls-12,.cls-14,.cls-15{opacity:0.45;}.cls-12{fill:url(#radial-gradient-10);}.cls-13{fill:url(#radial-gradient-11);}.cls-14{fill:url(#radial-gradient-12);}.cls-15{fill:url(#radial-gradient-13);}</style><radialGradient id="radial-gradient" cx="15.88" cy="15.8" r="15.54" gradientTransform="translate(4.86 -3.68) rotate(15.69)" gradientUnits="userSpaceOnUse"><stop offset="0.05" stop-color="#f5a605"/><stop offset="0.41" stop-color="#f5a506" stop-opacity="0.99"/><stop offset="0.54" stop-color="#f3a30a" stop-opacity="0.96"/><stop offset="0.63" stop-color="#f19e11" stop-opacity="0.92"/><stop offset="0.7" stop-color="#ed981b" stop-opacity="0.85"/><stop offset="0.77" stop-color="#e98f28" stop-opacity="0.76"/><stop offset="0.82" stop-color="#e38538" stop-opacity="0.65"/><stop offset="0.87" stop-color="#dc794b" stop-opacity="0.51"/><stop offset="0.92" stop-color="#d46a61" stop-opacity="0.36"/><stop offset="0.96" stop-color="#cc5b79" stop-opacity="0.19"/><stop offset="1" stop-color="#c24a94" stop-opacity="0.01"/><stop offset="1" stop-color="#c24995" stop-opacity="0"/></radialGradient><radialGradient id="radial-gradient-2" cx="4.58" cy="-595.72" r="39.67" gradientTransform="translate(-546.33 -137.85) rotate(104.63)" gradientUnits="userSpaceOnUse"><stop offset="0.05" stop-color="#f5a605"/><stop offset="1" stop-color="#c24995"/></radialGradient><radialGradient id="radial-gradient-4" cx="1.28" cy="-591.98" r="20.86" gradientTransform="translate(-566.93 10.86) rotate(89.83)" gradientUnits="userSpaceOnUse"><stop offset="0" stop-color="#e72d77"/><stop offset="0.15" stop-color="#e22e78"/><stop offset="0.32" stop-color="#d4327c"/><stop offset="0.51" stop-color="#bc3783"/><stop offset="0.71" stop-color="#9b3f8c"/><stop offset="0.9" stop-color="#734997"/></radialGradient><radialGradient id="radial-gradient-5" cx="1.28" cy="-591.98" r="20.88" xlink:href="#radial-gradient-4"/><radialGradient id="radial-gradient-6" cx="1.28" cy="-591.98" r="20.86" xlink:href="#radial-gradient-4"/><radialGradient id="radial-gradient-7" cx="1.28" cy="-591.98" r="20.86" xlink:href="#radial-gradient-4"/><radialGradient id="radial-gradient-8" cx="4.75" cy="-592.53" r="35.98" gradientTransform="translate(-566.93 10.86) rotate(89.83)" xlink:href="#radial-gradient-2"/><radialGradient id="radial-gradient-9" cx="5.15" cy="-588.02" r="29.49" gradientTransform="translate(-566.93 10.86) rotate(89.83)" xlink:href="#radial-gradient-2"/><radialGradient id="radial-gradient-10" cx="18.38" cy="14.77" r="11.75" gradientTransform="matrix(1, 0, 0, 1, 0, 0)" xlink:href="#radial-gradient-2"/><radialGradient id="radial-gradient-11" cx="3.8" cy="-594.08" r="25.4" gradientTransform="translate(-566.93 10.86) rotate(89.83)" xlink:href="#radial-gradient-2"/><radialGradient id="radial-gradient-12" cx="21.07" cy="8.19" r="2.55" gradientTransform="matrix(1, 0, 0, 1, 0, 0)" xlink:href="#radial-gradient-2"/><radialGradient id="radial-gradient-13" cx="25.09" cy="12.51" r="1.5" gradientTransform="matrix(1, 0, 0, 1, 0, 0)" xlink:href="#radial-gradient-2"/></defs><g class="cls-1"><g id="Слой_2" data-name="Слой 2"><g id="Слой_1-2" data-name="Слой 1"><g class="cls-2"><circle class="cls-3" cx="15.8" cy="15.8" r="15.8" transform="translate(-3.68 4.86) rotate(-15.69)"/><circle class="cls-4" cx="15.8" cy="15.8" r="13.53" transform="translate(-3.51 4.56) rotate(-14.8)"/><circle class="cls-5" cx="15.8" cy="15.8" r="13.53" transform="translate(-3.51 4.56) rotate(-14.8)"/><path class="cls-6" d="M10.62,21.54a.94.94,0,0,0,.6.18c.42,0,.61-.56.62-1A4.59,4.59,0,0,0,10.7,18a9.87,9.87,0,0,1-1.63-2.5,2.44,2.44,0,0,1,.55-2.74c.82-.65,2-.44,3-.88a.7.7,0,0,0,.33-.25c.18-.29,0-.66-.22-.94a12,12,0,0,1-2.24-5.32,6.91,6.91,0,0,1,.08-2.08A13.55,13.55,0,0,0,4.41,8.5a3.26,3.26,0,0,1,.44.15c1.54.72,1.8,2.74,1.93,4.43a17.15,17.15,0,0,0,.9,4.73A7.27,7.27,0,0,0,10.62,21.54Z"/><path class="cls-7" d="M14.21,29.23a4.83,4.83,0,0,0-.58-2.56,4.07,4.07,0,0,0-4-1.39,2.13,2.13,0,0,1-1.15,0,1.73,1.73,0,0,1-.55-.46c-1.47-1.71-2.25-3.9-3.39-5.85-.49-.85-1.24-1.75-2.21-1.75A13.54,13.54,0,0,0,14.21,29.23Z"/><path class="cls-8" d="M15.76,2.27h-.24a2.76,2.76,0,0,0-.38.72,5.39,5.39,0,0,1-.62,1.77c-.22.26-.53.44-.75.7a1.92,1.92,0,0,0,.17,2.36,5.89,5.89,0,0,0,2.11,1.41,5.24,5.24,0,0,1,2.06,1.49,2.66,2.66,0,0,1,.42,2,5.86,5.86,0,0,0-.38,1.82A1.81,1.81,0,0,0,19.91,16a3.88,3.88,0,0,0,2.26-.84,4.34,4.34,0,0,1,1-.62,3,3,0,0,1,2.93,1,11.79,11.79,0,0,0,2.39,2.19,1.87,1.87,0,0,0,.64.22,13.86,13.86,0,0,0,.17-2.15A13.54,13.54,0,0,0,15.76,2.27Z"/><path class="cls-9" d="M26,21.35a16,16,0,0,0-2.28,1.12,2.91,2.91,0,0,1-2.45.23c-.94-.44-1.32-1.55-1.75-2.49A9.76,9.76,0,0,0,18,17.87a3.06,3.06,0,0,0-2.65-1.33,2.91,2.91,0,0,0-2,2.33,2.86,2.86,0,0,0,.05,2c.56,1.16,2.2,1.48,2.76,2.64.45.93.05,2,0,3.06a5,5,0,0,0,.59,2.72,13.54,13.54,0,0,0,11.42-7.93A3.7,3.7,0,0,0,26,21.35Z"/><path class="cls-10" d="M26.09,24.54a13.08,13.08,0,0,1-3.27.41A13.52,13.52,0,0,1,12.51,2.62,13.53,13.53,0,1,0,26.09,24.54Z"/><path class="cls-11" d="M21.49,27a12.59,12.59,0,0,1-10-23A12.59,12.59,0,0,0,15.72,28.4,12.41,12.41,0,0,0,21.49,27Z"/><path class="cls-12" d="M14.56,3.11A13.52,13.52,0,0,1,23,27.27,13.53,13.53,0,1,0,7.44,5.16,13.47,13.47,0,0,1,14.56,3.11Z"/><path class="cls-13" d="M13,4.28c1.6-.41,4,.21,5.21.53a12.93,12.93,0,0,1,7,4.62c4.51,6,1.26,13-.74,14.79s-4.18-.31-4.13-3.63.08-6.6-1.61-8.5-6-1.72-6.88-4.25c-.3-.84-.59-2,0-2.84A2,2,0,0,1,13,4.28Z"/><path class="cls-14" d="M23.43,10.25c-.64.74-2.22.41-3.53-.73s-1.84-2.66-1.19-3.4,2.22-.4,3.52.74S24.07,9.52,23.43,10.25Z"/><path class="cls-15" d="M26,14.14c-.5.27-1.3-.24-1.78-1.14s-.46-1.85,0-2.11,1.3.24,1.78,1.14S26.46,13.87,26,14.14Z"/></g></g></g></g></svg>