<svg xmlns="http://www.w3.org/2000/svg" xmlns:xlink="http://www.w3.org/1999/xlink" viewBox="0 0 75.4 53.56"><defs><style>.cls-1{isolation:isolate;}.cls-2{fill:url(#radial-gradient);}.cls-26,.cls-27,.cls-3{fill:#f5a605;}.cls-25,.cls-3{opacity:0.45;}.cls-24,.cls-25,.cls-28,.cls-3{mix-blend-mode:screen;}.cls-10,.cls-11,.cls-12,.cls-13,.cls-14,.cls-15,.cls-16,.cls-17,.cls-18,.cls-19,.cls-20,.cls-21,.cls-22,.cls-23,.cls-4,.cls-5,.cls-6,.cls-7,.cls-8,.cls-9{opacity:0.5;}.cls-10,.cls-11,.cls-12,.cls-13,.cls-14,.cls-15,.cls-16,.cls-17,.cls-18,.cls-19,.cls-20,.cls-21,.cls-22,.cls-23,.cls-27,.cls-29,.cls-4,.cls-5,.cls-6,.cls-7,.cls-8,.cls-9{mix-blend-mode:multiply;}.cls-4{fill:url(#radial-gradient-2);}.cls-5{fill:url(#radial-gradient-3);}.cls-6{fill:url(#radial-gradient-4);}.cls-7{fill:url(#radial-gradient-5);}.cls-8{fill:url(#radial-gradient-6);}.cls-9{fill:url(#radial-gradient-7);}.cls-10{fill:url(#radial-gradient-8);}.cls-11{fill:url(#radial-gradient-9);}.cls-12{fill:url(#radial-gradient-10);}.cls-13{fill:url(#radial-gradient-11);}.cls-14{fill:url(#radial-gradient-12);}.cls-15{fill:url(#radial-gradient-13);}.cls-16{fill:url(#radial-gradient-14);}.cls-17{fill:url(#radial-gradient-15);}.cls-18{fill:url(#radial-gradient-16);}.cls-19{fill:url(#radial-gradient-17);}.cls-20{fill:url(#radial-gradient-18);}.cls-21{fill:url(#radial-gradient-19);}.cls-22{fill:url(#radial-gradient-20);}.cls-23{fill:url(#radial-gradient-21);}.cls-24{fill:url(#radial-gradient-22);}.cls-27,.cls-29{opacity:0.54;}</style><radialGradient id="radial-gradient" cx="174.69" cy="-41.45" r="48.18" gradientTransform="translate(-37.37 -142) rotate(73.79)" gradientUnits="userSpaceOnUse"><stop offset="0" stop-color="#e72d77"/><stop offset="0.15" stop-color="#e22e78"/><stop offset="0.32" stop-color="#d4327c"/><stop offset="0.51" stop-color="#bc3783"/><stop offset="0.71" stop-color="#9b3f8c"/><stop offset="0.9" stop-color="#734997"/></radialGradient><radialGradient id="radial-gradient-2" cx="174.69" cy="-37.38" r="45.11" gradientTransform="matrix(1, -0.06, 0.06, 1, -142.94, 62.94)" xlink:href="#radial-gradient"/><radialGradient id="radial-gradient-3" cx="175.99" cy="-30.85" r="37.9" gradientTransform="matrix(1, -0.06, 0.06, 1, -142.94, 62.94)" xlink:href="#radial-gradient"/><radialGradient id="radial-gradient-4" cx="177.53" cy="-62.8" r="29.71" gradientTransform="matrix(1, -0.06, 0.06, 1, -142.94, 62.94)" xlink:href="#radial-gradient"/><radialGradient id="radial-gradient-5" cx="179.48" cy="-43.22" r="9.99" gradientTransform="matrix(1, -0.06, 0.06, 1, -142.94, 62.94)" xlink:href="#radial-gradient"/><radialGradient id="radial-gradient-6" cx="183.75" cy="-56.86" r="20.71" gradientTransform="matrix(1, -0.06, 0.06, 1, -142.94, 62.94)" xlink:href="#radial-gradient"/><radialGradient id="radial-gradient-7" cx="218.02" cy="-89.83" r="13.49" gradientTransform="matrix(1, 0.01, -0.02, 1.62, -184.75, 166.19)" xlink:href="#radial-gradient"/><radialGradient id="radial-gradient-8" cx="178.99" cy="-22.12" r="14.18" gradientTransform="matrix(1, -0.06, 0.06, 1, -142.94, 62.94)" xlink:href="#radial-gradient"/><radialGradient id="radial-gradient-9" cx="165.76" cy="-357.81" r="28.96" gradientTransform="translate(320.13 310.35) rotate(-71.58)" xlink:href="#radial-gradient"/><radialGradient id="radial-gradient-10" cx="200.32" cy="-45.8" r="14.22" gradientTransform="matrix(1, -0.06, 0.06, 1, -142.94, 62.94)" xlink:href="#radial-gradient"/><radialGradient id="radial-gradient-11" cx="196.73" cy="-37.24" r="9.83" gradientTransform="matrix(1, -0.06, 0.06, 1, -142.94, 62.94)" xlink:href="#radial-gradient"/><radialGradient id="radial-gradient-12" cx="194.56" cy="-19.37" r="8.32" gradientTransform="matrix(1, -0.06, 0.06, 1, -142.94, 62.94)" xlink:href="#radial-gradient"/><radialGradient id="radial-gradient-13" cx="196.3" cy="-48.2" r="27.25" gradientTransform="matrix(1, -0.06, 0.06, 1, -142.94, 62.94)" xlink:href="#radial-gradient"/><radialGradient id="radial-gradient-14" cx="139.06" cy="-304.94" r="25.94" gradientTransform="translate(170.47 311.02) rotate(-54.04)" xlink:href="#radial-gradient"/><radialGradient id="radial-gradient-15" cx="163.01" cy="-40.52" r="9.63" gradientTransform="matrix(1, -0.06, 0.06, 1, -142.94, 62.94)" xlink:href="#radial-gradient"/><radialGradient id="radial-gradient-16" cx="165.21" cy="-61.3" r="24.16" gradientTransform="matrix(1, -0.06, 0.06, 1, -142.94, 62.94)" xlink:href="#radial-gradient"/><radialGradient id="radial-gradient-17" cx="175.92" cy="-49.85" r="7.04" gradientTransform="matrix(1, -0.06, 0.06, 1, -142.94, 62.94)" xlink:href="#radial-gradient"/><radialGradient id="radial-gradient-18" cx="343.34" cy="70.15" r="23.1" gradientTransform="matrix(0.77, 0.64, -0.67, 0.81, -189.74, -256.45)" xlink:href="#radial-gradient"/><radialGradient id="radial-gradient-19" cx="164.88" cy="-29.05" r="9.43" gradientTransform="matrix(1, -0.06, 0.06, 1, -142.94, 62.94)" xlink:href="#radial-gradient"/><radialGradient id="radial-gradient-20" cx="173.78" cy="-15.48" r="7.93" gradientTransform="matrix(1, -0.06, 0.06, 1, -142.94, 62.94)" xlink:href="#radial-gradient"/><radialGradient id="radial-gradient-21" cx="164.38" cy="-29.63" r="17.46" gradientTransform="matrix(1, -0.06, 0.06, 1, -142.94, 62.94)" xlink:href="#radial-gradient"/><radialGradient id="radial-gradient-22" cx="183.44" cy="-26.58" r="27.02" gradientTransform="translate(-109.16 -84.71) rotate(45.06)" gradientUnits="userSpaceOnUse"><stop offset="0.05" stop-color="#f5a605"/><stop offset="0.41" stop-color="#f5a506" stop-opacity="0.99"/><stop offset="0.54" stop-color="#f3a30a" stop-opacity="0.96"/><stop offset="0.63" stop-color="#f19e11" stop-opacity="0.92"/><stop offset="0.7" stop-color="#ed981b" stop-opacity="0.85"/><stop offset="0.77" stop-color="#e98f28" stop-opacity="0.76"/><stop offset="0.82" stop-color="#e38538" stop-opacity="0.65"/><stop offset="0.87" stop-color="#dc794b" stop-opacity="0.51"/><stop offset="0.92" stop-color="#d46a61" stop-opacity="0.36"/><stop offset="0.96" stop-color="#cc5b79" stop-opacity="0.19"/><stop offset="1" stop-color="#c24a94" stop-opacity="0.01"/><stop offset="1" stop-color="#c24995" stop-opacity="0"/></radialGradient></defs><g class="cls-1"><g id="Слой_2" data-name="Слой 2"><g id="Слой_1-2" data-name="Слой 1"><circle class="cls-2" cx="38.56" cy="26.78" r="21.91" transform="translate(3.82 58.35) rotate(-77.05)"/><path class="cls-3" d="M17.77,29.09A21.91,21.91,0,0,1,54.35,11.6,21.91,21.91,0,1,0,23.85,43,21.81,21.81,0,0,1,17.77,29.09Z"/><path class="cls-3" d="M26.33,39.34A19.41,19.41,0,0,1,58.4,23.52a19.43,19.43,0,1,0-31.63,19A19.12,19.12,0,0,1,26.33,39.34Z"/><path class="cls-4" d="M51.17,8.87A20,20,0,0,1,16.7,28.24,21.91,21.91,0,1,0,51.17,8.87Z"/><path class="cls-5" d="M56.34,16.39A20.66,20.66,0,0,1,19.5,34.86,20.66,20.66,0,1,0,56.34,16.39Z"/><path class="cls-6" d="M52.28,15.79c-.79,2.38-4.11,3.42-7.41,2.32s-5.35-3.91-4.56-6.29,4.11-3.41,7.41-2.32S53.07,13.42,52.28,15.79Zm-13.61.56c-1.52-.51-3.05,0-3.41,1.07s.57,2.38,2.09,2.89,3,0,3.41-1.07S40.19,16.85,38.67,16.35Z"/><path class="cls-7" d="M38.67,16.35c-1.52-.51-3.05,0-3.41,1.07a1.21,1.21,0,0,0-.07.5,2.93,2.93,0,0,1,3.09-.54,2.87,2.87,0,0,1,2.16,2.39,1.6,1.6,0,0,0,.32-.53C41.12,18.15,40.19,16.85,38.67,16.35Z"/><path class="cls-8" d="M47.72,9.5c-3.3-1.09-6.62-.06-7.41,2.32a3,3,0,0,0-.11.43c1.12-1.94,4.13-2.71,7.13-1.71S52.44,14.12,52,16.4a3.08,3.08,0,0,0,.28-.61C53.07,13.42,51,10.6,47.72,9.5Z"/><path class="cls-9" d="M46.51,40.15c0,2-2.26,3.52-5,3.48S36.62,42,36.65,40s2.26-3.52,5-3.48S46.54,38.19,46.51,40.15Z"/><path class="cls-10" d="M46,38.58c0,.1,0,.2,0,.3,0,2-2.26,3.52-5,3.48a5.35,5.35,0,0,1-4.39-2c.18,1.82,2.28,3.27,4.86,3.31s4.95-1.52,5-3.48A2.72,2.72,0,0,0,46,38.58Z"/><path class="cls-11" d="M57.36,24.54c1.47.49,1.77,3.56.67,6.87s-3.18,5.58-4.65,5.1-1.77-3.57-.67-6.87S55.89,24.05,57.36,24.54ZM52.27,39.4c-.9.89-1.31,1.94-.92,2.34s1.45,0,2.36-.88,1.31-1.94.92-2.34S53.18,38.51,52.27,39.4Zm2.74-19c.43,1.7,1.39,2.93,2.15,2.74s1-1.72.6-3.43S56.37,16.77,55.61,17,54.59,18.68,55,20.39ZM52.6,23.8c-.47,1.18-.42,2.3.1,2.51s1.33-.58,1.8-1.76.42-2.31-.11-2.51S53.07,22.62,52.6,23.8Z"/><path class="cls-12" d="M56.86,19.56c.4,1.58.19,3-.44,3.35a.88.88,0,0,0,.74.22c.75-.19,1-1.72.6-3.43S56.37,16.77,55.61,17a1,1,0,0,0-.15.07A4.64,4.64,0,0,1,56.86,19.56Z"/><path class="cls-13" d="M53.6,24.41A3.42,3.42,0,0,1,52.43,26a.59.59,0,0,0,.27.27c.53.21,1.33-.58,1.8-1.76s.42-2.31-.11-2.51a.67.67,0,0,0-.62.12A3,3,0,0,1,53.6,24.41Z"/><path class="cls-14" d="M53.77,38.44c.32.43-.09,1.43-1,2.28a3.89,3.89,0,0,1-1.5,1s0,0,0,.06c.4.4,1.45,0,2.36-.88s1.31-1.94.92-2.34A.86.86,0,0,0,53.77,38.44Z"/><path class="cls-15" d="M57.36,24.54a1.37,1.37,0,0,0-.67,0c1.27.72,1.49,3.64.44,6.77-.94,2.82-2.59,4.89-4,5.13l.22.11c1.47.48,3.55-1.8,4.65-5.1S58.83,25,57.36,24.54Z"/><path class="cls-16" d="M29.55,10c1.26.91.61,3.93-1.43,6.75s-4.72,4.37-6,3.46-.62-3.93,1.43-6.75S28.3,9.11,29.55,10Zm3-2c-1.14.56-1.85,1.43-1.6,1.93s1.37.46,2.51-.1,1.85-1.43,1.6-1.94S33.73,7.41,32.59,8ZM19,22.06c-.56,1.14-.6,2.26-.1,2.51s1.37-.48,1.93-1.62.6-2.26.09-2.51S19.57,20.92,19,22.06Z"/><path class="cls-17" d="M19.59,23c.48-1,1.19-1.66,1.7-1.66,0-.43-.11-.75-.35-.87-.5-.25-1.37.48-1.92,1.62s-.6,2.26-.1,2.51a.59.59,0,0,0,.23.05A3.92,3.92,0,0,1,19.59,23Z"/><path class="cls-18" d="M24.16,14.39c2-2.81,4.69-4.35,5.95-3.47a1.52,1.52,0,0,0-.56-.9c-1.25-.91-3.92.64-6,3.46s-2.69,5.84-1.43,6.75h0C21.83,18.89,22.57,16.58,24.16,14.39Z"/><path class="cls-19" d="M33.17,8.89a3.71,3.71,0,0,1,1.89-.45.65.65,0,0,0,0-.57c-.25-.5-1.37-.46-2.51.11S30.74,9.41,31,9.91a.75.75,0,0,0,.62.34A3.31,3.31,0,0,1,33.17,8.89Z"/><path class="cls-20" d="M29.09,42.93c-.78.94-3.06.34-5.08-1.34s-3-3.82-2.24-4.76,3.06-.34,5.08,1.35S29.88,42,29.09,42.93Zm4.3.51c-1.16-.61-2.33-.67-2.62-.13s.42,1.48,1.58,2.09,2.33.67,2.62.13S34.54,44.05,33.39,43.44ZM23.62,32.71c-.87-1-1.94-1.45-2.4-1s-.12,1.53.75,2.51,1.94,1.45,2.4,1S24.49,33.69,23.62,32.71Z"/><path class="cls-21" d="M24.37,35.22a.75.75,0,0,0,.2-.59,2.92,2.92,0,0,1-2.05-1.17,3.37,3.37,0,0,1-.94-1.92.6.6,0,0,0-.36.13c-.46.41-.12,1.53.75,2.51S23.91,35.63,24.37,35.22Z"/><path class="cls-22" d="M32.9,44.68A3,3,0,0,1,31.28,43a.7.7,0,0,0-.51.32c-.28.54.42,1.48,1.58,2.09s2.33.67,2.62.13a.6.6,0,0,0,0-.4A3.35,3.35,0,0,1,32.9,44.68Z"/><path class="cls-23" d="M24.56,40.86c-1.74-1.45-2.71-3.22-2.45-4.29a1.1,1.1,0,0,0-.34.26C21,37.77,22,39.9,24,41.59s4.3,2.28,5.08,1.34a1.09,1.09,0,0,0,.22-.46C28.33,43,26.35,42.35,24.56,40.86Z"/><circle class="cls-24" cx="38.56" cy="26.78" r="26.78" transform="matrix(0.67, -0.75, 0.75, 0.67, -7.09, 37.76)"/><g class="cls-25"><g class="cls-25"><path class="cls-26" d="M29.72,14.73c1.2.94.81,3.42-.85,5.54s-4,3.09-5.18,2.15-.82-3.42.85-5.54S28.52,13.79,29.72,14.73Z"/></g><g class="cls-25"><path class="cls-26" d="M35.56,10.47c.46.77-.27,2-1.63,2.88s-2.83.86-3.29.09.26-2,1.62-2.87S35.1,9.71,35.56,10.47Z"/></g></g><path class="cls-26" d="M75,4.85C72.9,1.34,63.11,3,50.47,8.46a13.88,13.88,0,0,1,2.11,1.66c8.09-3,14.08-3.6,15.53-1.16C70.59,13.11,59,24.59,42.18,34.61S9.76,49.38,7.29,45.23C5.72,42.6,9.82,37,17.31,30.72a9.5,9.5,0,0,1-.53-2.45C5.05,37.27-1.79,45.65.41,49.33c3,5.09,22.19-.74,42.79-13S78,10,75,4.85Z"/><path class="cls-27" d="M54.18,7.74a1.71,1.71,0,0,1,0-.78c-1.2.46-2.42,1-3.68,1.5a13.88,13.88,0,0,1,2.11,1.66c8.09-3,14.08-3.6,15.53-1.16C70.59,13.11,59,24.59,42.18,34.61S9.76,49.38,7.29,45.23C5.72,42.6,9.82,37,17.31,30.72a9.5,9.5,0,0,1-.53-2.45C10.32,33.23,5.35,38,2.55,41.89c3.43-3.57,9.38-9.56,9.63-8.45C12.54,35-1.29,44.35,8.11,47.5S40.67,36.43,49.57,30.79,69.11,15.45,71.11,9,55,10.59,54.18,7.74Z"/><g class="cls-28"><g class="cls-29"><path class="cls-26" d="M8.11,48.63c0,.09-.41.1-1,.2a15.73,15.73,0,0,1-2.18.3,3.44,3.44,0,0,1-2.41-.79A2.4,2.4,0,0,1,2,47.56a2.08,2.08,0,0,1-.13-.35,2.88,2.88,0,0,1-.05-.36A3.22,3.22,0,0,1,1.87,46a7.25,7.25,0,0,1,.93-2.14c.81-1.39,1.85-2.61,2-2.5s-.57,1.5-1.12,2.94a7.25,7.25,0,0,0-.56,1.9,1.68,1.68,0,0,0,.07.71,1.05,1.05,0,0,0,.25.56A2.5,2.5,0,0,0,5,48.15c.7.1,1.52.05,2.13.13S8.13,48.54,8.11,48.63Z"/></g><g class="cls-29"><path class="cls-26" d="M69.69,15.29c-.14-.13,1.39-2.19,2.6-4.42a10.16,10.16,0,0,0,1.29-3,3.15,3.15,0,0,0,0-1,2.07,2.07,0,0,0-.07-.34,2.06,2.06,0,0,0-.09-.33A1.75,1.75,0,0,0,73,5.47a2.51,2.51,0,0,0-1.17-.59,9.43,9.43,0,0,0-1.76-.26,13.13,13.13,0,0,0-3.39.28,6.4,6.4,0,0,1-1.58.32c0-.08.5-.47,1.42-.84a10.75,10.75,0,0,1,3.56-.74,10.1,10.1,0,0,1,2,.11,3.7,3.7,0,0,1,1.79.76,3.16,3.16,0,0,1,.85,1.19,2.94,2.94,0,0,1,.18.51,5,5,0,0,1,.07.52,4.67,4.67,0,0,1-.12,1.36,10.43,10.43,0,0,1-1.71,3.3C71.66,13.56,69.84,15.42,69.69,15.29Z"/></g></g></g></g></g></svg>