<svg xmlns="http://www.w3.org/2000/svg" xmlns:xlink="http://www.w3.org/1999/xlink" viewBox="0 0 62.72 43.27"><defs><style>.cls-1{isolation:isolate;}.cls-2,.cls-25,.cls-28,.cls-4{mix-blend-mode:screen;}.cls-2{fill:url(#radial-gradient);}.cls-3{fill:url(#radial-gradient-2);}.cls-26,.cls-27,.cls-4{fill:#f5a605;}.cls-25,.cls-4{opacity:0.45;}.cls-10,.cls-11,.cls-12,.cls-13,.cls-14,.cls-15,.cls-16,.cls-17,.cls-18,.cls-19,.cls-20,.cls-21,.cls-22,.cls-23,.cls-24,.cls-5,.cls-6,.cls-7,.cls-8,.cls-9{opacity:0.5;}.cls-10,.cls-11,.cls-12,.cls-13,.cls-14,.cls-15,.cls-16,.cls-17,.cls-18,.cls-19,.cls-20,.cls-21,.cls-22,.cls-23,.cls-24,.cls-27,.cls-29,.cls-5,.cls-6,.cls-7,.cls-8,.cls-9{mix-blend-mode:multiply;}.cls-5{fill:url(#radial-gradient-3);}.cls-6{fill:url(#radial-gradient-4);}.cls-7{fill:url(#radial-gradient-5);}.cls-8{fill:url(#radial-gradient-6);}.cls-9{fill:url(#radial-gradient-7);}.cls-10{fill:url(#radial-gradient-8);}.cls-11{fill:url(#radial-gradient-9);}.cls-12{fill:url(#radial-gradient-10);}.cls-13{fill:url(#radial-gradient-11);}.cls-14{fill:url(#radial-gradient-12);}.cls-15{fill:url(#radial-gradient-13);}.cls-16{fill:url(#radial-gradient-14);}.cls-17{fill:url(#radial-gradient-15);}.cls-18{fill:url(#radial-gradient-16);}.cls-19{fill:url(#radial-gradient-17);}.cls-20{fill:url(#radial-gradient-18);}.cls-21{fill:url(#radial-gradient-19);}.cls-22{fill:url(#radial-gradient-20);}.cls-23{fill:url(#radial-gradient-21);}.cls-24{fill:url(#radial-gradient-22);}.cls-27,.cls-29{opacity:0.54;}</style><radialGradient id="radial-gradient" cx="32.21" cy="21" r="21.83" gradientUnits="userSpaceOnUse"><stop offset="0.05" stop-color="#f5a605"/><stop offset="0.41" stop-color="#f5a506" stop-opacity="0.99"/><stop offset="0.54" stop-color="#f3a30a" stop-opacity="0.96"/><stop offset="0.63" stop-color="#f19e11" stop-opacity="0.92"/><stop offset="0.7" stop-color="#ed981b" stop-opacity="0.85"/><stop offset="0.77" stop-color="#e98f28" stop-opacity="0.76"/><stop offset="0.82" stop-color="#e38538" stop-opacity="0.65"/><stop offset="0.87" stop-color="#dc794b" stop-opacity="0.51"/><stop offset="0.92" stop-color="#d46a61" stop-opacity="0.36"/><stop offset="0.96" stop-color="#cc5b79" stop-opacity="0.19"/><stop offset="1" stop-color="#c24a94" stop-opacity="0.01"/><stop offset="1" stop-color="#c24995" stop-opacity="0"/></radialGradient><radialGradient id="radial-gradient-2" cx="25.14" cy="8.99" r="38.93" gradientUnits="userSpaceOnUse"><stop offset="0" stop-color="#e72d77"/><stop offset="0.15" stop-color="#e22e78"/><stop offset="0.32" stop-color="#d4327c"/><stop offset="0.51" stop-color="#bc3783"/><stop offset="0.71" stop-color="#9b3f8c"/><stop offset="0.9" stop-color="#734997"/></radialGradient><radialGradient id="radial-gradient-3" cx="25.14" cy="12.28" r="36.44" xlink:href="#radial-gradient-2"/><radialGradient id="radial-gradient-4" cx="26.19" cy="17.55" r="30.62" xlink:href="#radial-gradient-2"/><radialGradient id="radial-gradient-5" cx="27.44" cy="-8.26" r="24" xlink:href="#radial-gradient-2"/><radialGradient id="radial-gradient-6" cx="29.01" cy="7.56" r="8.07" xlink:href="#radial-gradient-2"/><radialGradient id="radial-gradient-7" cx="32.46" cy="-3.46" r="16.73" xlink:href="#radial-gradient-2"/><radialGradient id="radial-gradient-8" cx="41.76" cy="90.68" r="10.9" gradientTransform="matrix(1, 0.07, -0.11, 1.61, -1.74, -130.21)" xlink:href="#radial-gradient-2"/><radialGradient id="radial-gradient-9" cx="28.62" cy="24.6" r="11.46" xlink:href="#radial-gradient-2"/><radialGradient id="radial-gradient-10" cx="40.5" cy="-20.97" r="45.13" xlink:href="#radial-gradient-2"/><radialGradient id="radial-gradient-11" cx="45.85" cy="5.48" r="11.48" xlink:href="#radial-gradient-2"/><radialGradient id="radial-gradient-12" cx="42.95" cy="12.39" r="7.94" xlink:href="#radial-gradient-2"/><radialGradient id="radial-gradient-13" cx="41.19" cy="26.83" r="6.72" xlink:href="#radial-gradient-2"/><radialGradient id="radial-gradient-14" cx="42.6" cy="3.54" r="22.02" xlink:href="#radial-gradient-2"/><radialGradient id="radial-gradient-15" cx="13.77" cy="-17.38" r="32.19" xlink:href="#radial-gradient-2"/><radialGradient id="radial-gradient-16" cx="15.7" cy="9.74" r="7.78" xlink:href="#radial-gradient-2"/><radialGradient id="radial-gradient-17" cx="17.49" cy="-7.05" r="19.52" xlink:href="#radial-gradient-2"/><radialGradient id="radial-gradient-18" cx="26.13" cy="2.2" r="5.69" xlink:href="#radial-gradient-2"/><radialGradient id="radial-gradient-19" cx="15.91" cy="3.06" r="29.05" xlink:href="#radial-gradient-2"/><radialGradient id="radial-gradient-20" cx="17.22" cy="19.01" r="7.62" xlink:href="#radial-gradient-2"/><radialGradient id="radial-gradient-21" cx="24.4" cy="29.96" r="6.41" xlink:href="#radial-gradient-2"/><radialGradient id="radial-gradient-22" cx="16.82" cy="18.54" r="14.11" xlink:href="#radial-gradient-2"/></defs><g class="cls-1"><g id="Слой_2" data-name="Слой 2"><g id="Слой_1-2" data-name="Слой 1"><circle class="cls-2" cx="32.07" cy="21.63" r="21.63"/><circle class="cls-3" cx="32.07" cy="21.63" r="17.7"/><path class="cls-4" d="M15.19,22.54A17.71,17.71,0,0,1,45.5,10.11a17.7,17.7,0,1,0-26,24A17.63,17.63,0,0,1,15.19,22.54Z"/><path class="cls-4" d="M21.63,31.2A15.69,15.69,0,0,1,48.22,19.91,15.69,15.69,0,1,0,21.84,33.76,15.43,15.43,0,0,1,21.63,31.2Z"/><path class="cls-5" d="M43.06,7.77a15.94,15.94,0,0,1,.75,4.86,16.15,16.15,0,0,1-29.44,9.18,17.7,17.7,0,1,0,28.69-14Z"/><path class="cls-6" d="M46.88,14.07a16.48,16.48,0,0,1,.94,5.51,16.69,16.69,0,0,1-31.5,7.69,16.69,16.69,0,1,0,30.56-13.2Z"/><path class="cls-7" d="M43.64,13.4c-.74,1.89-3.47,2.57-6.09,1.53s-4.13-3.4-3.38-5.28,3.47-2.57,6.08-1.53S44.39,11.52,43.64,13.4Zm-11-.17c-1.2-.48-2.45-.17-2.8.7s.36,2,1.56,2.43,2.46.16,2.8-.71S33.84,13.7,32.63,13.23Z"/><path class="cls-8" d="M32.63,13.23c-1.2-.48-2.45-.17-2.8.7a1.35,1.35,0,0,0-.08.4A2.38,2.38,0,0,1,32.27,14a2.34,2.34,0,0,1,1.64,2,1.19,1.19,0,0,0,.28-.42C34.53,14.79,33.84,13.7,32.63,13.23Z"/><path class="cls-9" d="M40.25,8.12c-2.61-1-5.34-.35-6.08,1.53a1.93,1.93,0,0,0-.11.34c1-1.51,3.45-2,5.83-1.06s4,3.13,3.5,5a3.62,3.62,0,0,0,.25-.48C44.39,11.52,42.87,9.16,40.25,8.12Z"/><path class="cls-10" d="M37.87,32.78c-.11,1.58-2,2.74-4.18,2.58s-3.88-1.56-3.77-3.14,2-2.73,4.18-2.57S38,31.21,37.87,32.78Z"/><path class="cls-11" d="M37.55,31.5v.24c-.12,1.58-2,2.73-4.18,2.57a4.29,4.29,0,0,1-3.45-1.85c.07,1.48,1.69,2.75,3.77,2.9s4.07-1,4.18-2.58A2.23,2.23,0,0,0,37.55,31.5Z"/><path class="cls-12" d="M47.34,20.69c1.16.46,1.26,2.95.22,5.57s-2.83,4.36-4,3.9-1.26-3-.22-5.57S46.17,20.23,47.34,20.69ZM42.55,32.44c-.77.68-1.15,1.5-.85,1.85s1.17.07,1.94-.61,1.15-1.5.85-1.84S43.32,31.77,42.55,32.44Zm3.08-15.21c.27,1.4,1,2.43,1.61,2.32s.9-1.35.64-2.74-1-2.43-1.61-2.32S45.37,15.84,45.63,17.23Zm-2.1,2.64c-.43.93-.45,1.84,0,2s1.09-.4,1.53-1.33.44-1.84,0-2S44,18.94,43.53,19.87Z"/><path class="cls-13" d="M47.16,16.65c.25,1.29,0,2.43-.51,2.69a.75.75,0,0,0,.59.21c.62-.12.9-1.35.64-2.74s-1-2.43-1.61-2.32a.67.67,0,0,0-.12.06A3.75,3.75,0,0,1,47.16,16.65Z"/><path class="cls-14" d="M44.31,20.41a2.86,2.86,0,0,1-1,1.27.45.45,0,0,0,.21.22c.41.2,1.09-.4,1.53-1.33s.44-1.84,0-2a.54.54,0,0,0-.51.07A2.41,2.41,0,0,1,44.31,20.41Z"/><path class="cls-15" d="M43.8,31.74c.24.36-.14,1.14-.88,1.79a3.16,3.16,0,0,1-1.25.71l0,0c.3.34,1.17.07,1.94-.61s1.15-1.5.85-1.84A.68.68,0,0,0,43.8,31.74Z"/><path class="cls-16" d="M47.34,20.69a1.12,1.12,0,0,0-.55-.06c1,.63,1,3,.05,5.48-.89,2.23-2.32,3.83-3.44,4l.17.09c1.16.46,3-1.28,4-3.9S48.5,21.15,47.34,20.69Z"/><path class="cls-17" d="M25.57,7.7c1,.79.32,3.2-1.46,5.38s-4,3.31-5,2.52-.31-3.2,1.47-5.38S24.61,6.91,25.57,7.7Zm2.55-1.51c-.95.41-1.56,1.07-1.39,1.49s1.09.43,2,0,1.56-1.07,1.38-1.49S29.06,5.79,28.12,6.19ZM16.52,16.93c-.5.89-.58,1.8-.19,2s1.13-.32,1.63-1.21.59-1.8.19-2S17,16,16.52,16.93Z"/><path class="cls-18" d="M16.94,17.69c.44-.77,1-1.28,1.45-1.26,0-.35-.05-.61-.24-.72-.4-.22-1.13.32-1.63,1.22s-.58,1.8-.19,2a.61.61,0,0,0,.18.05A3.34,3.34,0,0,1,16.94,17.69Z"/><path class="cls-19" d="M21,11c1.77-2.17,4-3.3,5-2.53a1.24,1.24,0,0,0-.41-.75c-1-.79-3.19.34-5,2.52s-2.44,4.58-1.47,5.38h0C18.94,14.5,19.64,12.67,21,11Z"/><path class="cls-20" d="M28.54,7a3.13,3.13,0,0,1,1.55-.27.55.55,0,0,0,.06-.46c-.18-.41-1.09-.43-2,0s-1.56,1.07-1.39,1.49a.61.61,0,0,0,.49.3A2.76,2.76,0,0,1,28.54,7Z"/><path class="cls-21" d="M23.69,34.23c-.68.72-2.48.13-4-1.32S17.39,29.69,18.07,29s2.48-.13,4,1.32S24.37,33.5,23.69,34.23Zm3.44.6c-.91-.54-1.85-.64-2.1-.22s.27,1.21,1.18,1.76,1.85.64,2.1.22S28,35.38,27.13,34.83Zm-7.38-9.1c-.66-.83-1.5-1.25-1.89-.95s-.17,1.23.49,2.06,1.5,1.26,1.89.95S20.4,26.56,19.75,25.73Z"/><path class="cls-22" d="M20.24,27.79a.6.6,0,0,0,.18-.47,2.38,2.38,0,0,1-1.6-1,2.75,2.75,0,0,1-.67-1.59.48.48,0,0,0-.29.09c-.39.31-.17,1.23.49,2.06S19.85,28.1,20.24,27.79Z"/><path class="cls-23" d="M26.69,35.81a2.4,2.4,0,0,1-1.24-1.44.58.58,0,0,0-.42.24c-.26.42.27,1.21,1.18,1.76s1.85.64,2.1.22a.43.43,0,0,0,.05-.32A2.72,2.72,0,0,1,26.69,35.81Z"/><path class="cls-24" d="M20.13,32.35c-1.34-1.25-2-2.73-1.78-3.58a1,1,0,0,0-.28.2c-.68.72,0,2.49,1.58,3.94s3.36,2,4,1.32a1.1,1.1,0,0,0,.2-.37C23.07,34.24,21.5,33.64,20.13,32.35Z"/><g class="cls-25"><g class="cls-25"><path class="cls-26" d="M25.49,11.51c.92.81.5,2.79-.94,4.43s-3.36,2.31-4.28,1.49-.5-2.79.94-4.43S24.57,10.7,25.49,11.51Z"/></g><g class="cls-25"><path class="cls-26" d="M30.4,8.34C30.73,9,30.09,10,29,10.59s-2.32.56-2.66-.08.31-1.64,1.44-2.24S30.06,7.71,30.4,8.34Z"/></g></g><path class="cls-26" d="M62.46,5.62c-1.53-2.93-9.5-2-19.94,1.79a10.92,10.92,0,0,1,1.62,1.43c6.66-2,11.52-2.26,12.58-.22,1.81,3.46-8.08,12.19-22.09,19.5S7.8,38.54,6,35.08c-1.15-2.2,2.42-6.51,8.74-11.24a8.09,8.09,0,0,1-.31-2C4.56,28.56-1.34,35,.26,38.07c2.22,4.25,17.94.42,35.11-8.54S64.68,9.87,62.46,5.62Z"/><path class="cls-27" d="M45.54,7a1.39,1.39,0,0,1,0-.64q-1.47.48-3,1a10.92,10.92,0,0,1,1.62,1.43c6.66-2,11.52-2.26,12.58-.22,1.81,3.46-8.08,12.19-22.09,19.5S7.8,38.54,6,35.08c-1.15-2.2,2.42-6.51,8.74-11.24a8.09,8.09,0,0,1-.31-2C9,25.54,4.77,29.15,2.33,32.17c2.93-2.72,8-7.28,8.16-6.37C10.7,27.07-.88,34,6.56,37s26.77-7.44,34.2-11.58S57.23,13.9,59.14,8.8,46.07,9.33,45.54,7Z"/><g class="cls-28"><g class="cls-29"><path class="cls-26" d="M6.5,37.86c0,.07-.33.06-.79.11a13,13,0,0,1-1.78.15A2.79,2.79,0,0,1,2,37.37a2.11,2.11,0,0,1-.51-.94,1.79,1.79,0,0,1,0-.29,2.46,2.46,0,0,1,.09-.71,5.91,5.91,0,0,1,.85-1.68c.72-1.09,1.62-2,1.74-1.93a13,13,0,0,1-1,2.32,5.38,5.38,0,0,0-.53,1.51,1.14,1.14,0,0,0,0,.57.8.8,0,0,0,.17.46A2.07,2.07,0,0,0,4,37.33c.56.11,1.22.11,1.71.2S6.53,37.78,6.5,37.86Z"/></g><g class="cls-29"><path class="cls-26" d="M57.71,13.79c-.11-.1,1.22-1.69,2.29-3.44A8.24,8.24,0,0,0,61.19,8a2.49,2.49,0,0,0,.05-.78,1.33,1.33,0,0,0,0-.28,2.32,2.32,0,0,0-.05-.27,1.69,1.69,0,0,0-.32-.6,2.05,2.05,0,0,0-.92-.53,7.32,7.32,0,0,0-1.41-.29,10.27,10.27,0,0,0-2.75.07c-.75.12-1.25.26-1.28.18s.42-.35,1.18-.61a8.84,8.84,0,0,1,2.91-.43,8.61,8.61,0,0,1,1.6.17,3,3,0,0,1,1.4.71,2.52,2.52,0,0,1,.64,1,2.31,2.31,0,0,1,.11.42,3.23,3.23,0,0,1,0,.43,3.8,3.8,0,0,1-.16,1.09,8.69,8.69,0,0,1-1.53,2.58A12.07,12.07,0,0,1,57.71,13.79Z"/></g></g></g></g></g></svg>