<svg xmlns="http://www.w3.org/2000/svg" xmlns:xlink="http://www.w3.org/1999/xlink" viewBox="0 0 594.62 566.87"><defs><style>.cls-1{isolation:isolate;}.cls-2{fill:#fafbfd;}.cls-3{fill:url(#Degradado_sin_nombre_5);}.cls-4{fill:url(#Degradado_sin_nombre_3);}.cls-5{fill:url(#Degradado_sin_nombre_4);}.cls-6{fill:#1485a2;}.cls-7{fill:#5a9cd5;}.cls-15,.cls-8{fill:#dcdde0;}.cls-10,.cls-8,.cls-9{mix-blend-mode:multiply;}.cls-10{fill:#cbcbce;}.cls-11{fill:#271f4a;}.cls-12{fill:url(#Degradado_sin_nombre_31);}.cls-13{fill:url(#Degradado_sin_nombre_31-2);}.cls-14{fill:url(#Degradado_sin_nombre_31-3);}</style><linearGradient id="Degradado_sin_nombre_5" x1="336.85" y1="262" x2="454.5" y2="262" gradientUnits="userSpaceOnUse"><stop offset="0" stop-color="#fee627"/><stop offset="0.14" stop-color="#fcd828"/><stop offset="0.4" stop-color="#f7b42b"/><stop offset="0.75" stop-color="#ef7b30"/><stop offset="0.99" stop-color="#e94f33"/></linearGradient><linearGradient id="Degradado_sin_nombre_3" x1="380.64" y1="262" x2="454.1" y2="262" gradientUnits="userSpaceOnUse"><stop offset="0" stop-color="#f5e55c"/><stop offset="1" stop-color="#da9231"/></linearGradient><linearGradient id="Degradado_sin_nombre_4" x1="400.5" y1="262" x2="453.92" y2="262" gradientUnits="userSpaceOnUse"><stop offset="0" stop-color="#f5ea91"/><stop offset="1" stop-color="#da9231"/></linearGradient><linearGradient id="Degradado_sin_nombre_31" x1="-317.09" y1="-1571.94" x2="-317.09" y2="-1546.18" gradientTransform="translate(-1038.1 589.59) rotate(89.61)" gradientUnits="userSpaceOnUse"><stop offset="0" stop-color="#fff"/><stop offset="0.07" stop-color="#fff" stop-opacity="0.85"/><stop offset="0.21" stop-color="#fff" stop-opacity="0.6"/><stop offset="0.35" stop-color="#fff" stop-opacity="0.38"/><stop offset="0.47" stop-color="#fff" stop-opacity="0.22"/><stop offset="0.58" stop-color="#fff" stop-opacity="0.1"/><stop offset="0.68" stop-color="#fff" stop-opacity="0.03"/><stop offset="0.74" stop-color="#fff" stop-opacity="0"/></linearGradient><linearGradient id="Degradado_sin_nombre_31-2" x1="-316.28" y1="-1592.81" x2="-316.28" y2="-1578.47" xlink:href="#Degradado_sin_nombre_31"/><linearGradient id="Degradado_sin_nombre_31-3" x1="-318.05" y1="-1536.07" x2="-318.05" y2="-1521.72" xlink:href="#Degradado_sin_nombre_31"/></defs><g class="cls-1"><g id="Слой_2" data-name="Слой 2"><g id="Слой_1-2" data-name="Слой 1"><path class="cls-2" d="M401.06,255c-16.41,1-46.64-3-53.6-35.13-3.38-15.59-4.46-32.37-12.88-46A50,50,0,0,0,318.68,158c-39.84-25.3-82.62,20.7-132-6C113.3,112.31,142.06,24,0,0V566.87c39.83-25.3,13.34-75.49,53.18-100.79s66.32,24.89,106.16-.41,13.34-75.49,53.18-100.79,66.32,24.89,106.16-.41c14.34-9.1,21.37-23.85,24.87-41.09,3.16-15.61,4.17-26.22,14.67-38.05,17.16-19.33,43-17.73,43.75-18.5C403.06,265.72,403.4,254.86,401.06,255Z"/><path class="cls-3" d="M453.43,247.84c-22.13-3.14-44.68-35.67-89.77-6.35,11-3.25,25.33-4.55,36.19,2.78-6.4-.27-25.19-5-63,17.72h0c37.81,22.73,56.6,18,63,17.72-10.86,7.33-25.15,6-36.19,2.78,45.09,29.32,67.64-3.21,89.77-6.34Z"/><path class="cls-4" d="M380.64,261.25s28.67-20,72.79-13.41v28.32S413.49,284.08,380.64,261.25Z"/><path class="cls-5" d="M400.5,261.51s20.85-13.17,52.93-8.85v18.67S424.39,276.56,400.5,261.51Z"/><path class="cls-2" d="M594.53,261.23h0l-.74,0,.74,0h0A132.42,132.42,0,0,0,455.4,239.55l-8.31,3.58a35.71,35.71,0,0,0,.14,37.31l8.34,3.51A132.43,132.43,0,0,0,594.53,261.23Z"/><path class="cls-6" d="M457.39,238.74c-.66.27-1.33.53-2,.81l-8.31,3.58a35.71,35.71,0,0,0,.14,37.31l8.34,3.51c.67.28,1.33.53,2,.8a45.65,45.65,0,0,1-.18-46Z"/><path class="cls-7" d="M567.09,261.32a39.46,39.46,0,0,0,3.77,16.56,132.3,132.3,0,0,0,23.67-16.65l-.74,0,.74,0h0a132.42,132.42,0,0,0-23.8-16.47,39.55,39.55,0,0,0-3.64,16.42Z"/><path class="cls-8" d="M594.53,261.23l-.74,0,.74,0h0l-.34-.29-152.28.58c0,.1,0,.2,0,.3a35.86,35.86,0,0,0,5.33,18.64l8.34,3.51A132.43,132.43,0,0,0,594.53,261.23Z"/><g class="cls-9"><path class="cls-10" d="M594.62,261.17l-.74,0,.74,0h0l-.34-.29a191.66,191.66,0,0,1-147,19.52l8.34,3.51A132.41,132.41,0,0,0,594.62,261.17Z"/></g><path class="cls-11" d="M502.6,262.05a12.77,12.77,0,1,1,12.81,12.72A12.77,12.77,0,0,1,502.6,262.05Z"/><path class="cls-6" d="M526.61,262a11.25,11.25,0,1,1-11.29-11.21A11.24,11.24,0,0,1,526.61,262m3,0a14.29,14.29,0,1,0-14.23,14.34A14.3,14.3,0,0,0,529.65,262Z"/><path class="cls-12" d="M515.28,253.86a8.1,8.1,0,1,1-8,8.15A8.1,8.1,0,0,1,515.28,253.86Z"/><path class="cls-11" d="M536.29,262.63a7.11,7.11,0,1,1,7.14,7.08A7.12,7.12,0,0,1,536.29,262.63Z"/><path class="cls-6" d="M549.67,262.58a6.27,6.27,0,1,1-6.29-6.25,6.27,6.27,0,0,1,6.29,6.25m1.69,0a8,8,0,1,0-7.93,8,8,8,0,0,0,7.93-8Z"/><path class="cls-13" d="M543.35,258.06a4.51,4.51,0,1,1-4.48,4.54A4.5,4.5,0,0,1,543.35,258.06Z"/><path class="cls-11" d="M479.54,261.25a7.11,7.11,0,1,1,7.14,7.08A7.11,7.11,0,0,1,479.54,261.25Z"/><path class="cls-6" d="M492.92,261.19a6.27,6.27,0,1,1-6.29-6.24,6.26,6.26,0,0,1,6.29,6.24m1.69,0a8,8,0,1,0-7.93,8,8,8,0,0,0,7.93-8Z"/><path class="cls-14" d="M486.6,256.68a4.51,4.51,0,1,1-4.48,4.54A4.5,4.5,0,0,1,486.6,256.68Z"/><path class="cls-7" d="M460.34,237.53a160.87,160.87,0,0,1,38.27-8.46l-12.1-6.46a45.11,45.11,0,0,0-31.6-4.11l-21.36,5Z"/><g class="cls-9"><path class="cls-15" d="M461.75,236.84a137.1,137.1,0,0,1,32.69-7.22l-10.33-5.52a38.54,38.54,0,0,0-27-3.52l-18.24,4.3Z"/></g><path class="cls-7" d="M459.18,285.06a160.68,160.68,0,0,0,38.13,9.09l-12.21,6.26A45.12,45.12,0,0,1,453.44,304l-21.28-5.39Z"/><g class="cls-9"><path class="cls-15" d="M461.36,286.14a141.66,141.66,0,0,0,15.48,4.79,144.21,144.21,0,0,0,18.49,3.31l-10.88,5.58A40.15,40.15,0,0,1,456.24,303l-18.95-4.8Z"/></g></g></g></g></svg>