<svg xmlns="http://www.w3.org/2000/svg" xmlns:xlink="http://www.w3.org/1999/xlink" viewBox="0 0 257.78 88.08"><defs><linearGradient id="Degradado_sin_nombre_5" y1="44.7" x2="117.65" y2="44.7" gradientUnits="userSpaceOnUse"><stop offset="0" stop-color="#fee627"/><stop offset=".14" stop-color="#fcd828"/><stop offset=".4" stop-color="#f7b42b"/><stop offset=".75" stop-color="#ef7b30"/><stop offset=".99" stop-color="#e94f33"/></linearGradient><linearGradient id="Degradado_sin_nombre_3" x1="43.8" y1="44.71" x2="117.25" y2="44.71" gradientUnits="userSpaceOnUse"><stop offset="0" stop-color="#f5e55c"/><stop offset="1" stop-color="#da9231"/></linearGradient><linearGradient id="Degradado_sin_nombre_4" x1="63.65" y1="44.71" x2="117.07" y2="44.71" gradientUnits="userSpaceOnUse"><stop offset="0" stop-color="#f5ea91"/><stop offset="1" stop-color="#da9231"/></linearGradient><linearGradient id="Degradado_sin_nombre_31" x1="-467.52" y1="-645.36" x2="-467.52" y2="-619.61" gradientTransform="rotate(89.61 -483.689 32.957)" gradientUnits="userSpaceOnUse"><stop offset="0" stop-color="#fff"/><stop offset=".07" stop-color="#fff" stop-opacity=".85"/><stop offset=".21" stop-color="#fff" stop-opacity=".6"/><stop offset=".35" stop-color="#fff" stop-opacity=".38"/><stop offset=".47" stop-color="#fff" stop-opacity=".22"/><stop offset=".58" stop-color="#fff" stop-opacity=".1"/><stop offset=".68" stop-color="#fff" stop-opacity=".03"/><stop offset=".74" stop-color="#fff" stop-opacity="0"/></linearGradient><linearGradient id="Degradado_sin_nombre_31-2" x1="-466.71" y1="-666.24" x2="-466.71" y2="-651.89" xlink:href="#Degradado_sin_nombre_31"/><linearGradient id="Degradado_sin_nombre_31-3" x1="-468.48" y1="-609.49" x2="-468.48" y2="-595.15" xlink:href="#Degradado_sin_nombre_31"/><style>.cls-6{fill:#1485a2}.cls-7{fill:#5a9cd5}.cls-15{fill:#dcdde0}.cls-9{mix-blend-mode:multiply}.cls-11{fill:#271f4a}</style></defs><g style="isolation:isolate"><g id="Слой_2" data-name="Слой 2">
<g id="Слой_1-2" data-name="Слой 1">
<path d="" fill="url(#Degradado_sin_nombre_5)">
<animate attributeName="d" values="M116.59 30.54C94.45 27.4 71.91-5.12 26.82 24.2 37.86 21 52.15 19.65 63 27c-6.4-.3-25.19-5-63 17.7 37.81 22.73 56.6 18 63 17.72-10.85 7.33-25.14 6-36.18 2.79 45.09 29.32 67.63-3.21 89.77-6.35z; M 116.59 30.54 C 94.45 27.4 67.53 -3.53 40.81 21.71 C 51.75 22 52.15 19.65 63 27 C 56.6 26.7 57.4 22.41 19.59 45.11 C 57.4 67.84 56.6 62.7 63 62.42 C 52.15 69.75 50.44 68.42 40.83 67.7 C 69.45 92.34 94.45 62 116.59 58.86 Z" dur="0.5s" repeatCount="indefinite"/>
</path>
<path d="M43.8 44s28.67-20 72.79-13.42v28.28S76.64 66.79 43.8 44z" fill="url(#Degradado_sin_nombre_3)"/><path d="M63.65 44.22s20.85-13.17 52.94-8.85V54s-29.05 5.27-52.94-9.78z" fill="url(#Degradado_sin_nombre_4)"/><path d="M257.69 43.94h-.75.75a132.42 132.42 0 00-139.13-21.68l-8.32 3.58a35.68 35.68 0 00.15 37.31l8.34 3.51a132.43 132.43 0 00138.96-22.72z" fill="#fafbfd"/><path class="cls-6" d="M120.55 21.45c-.67.27-1.33.53-2 .81l-8.32 3.57a35.7 35.7 0 00.15 37.32l8.34 3.51c.66.28 1.33.53 2 .8a45.62 45.62 0 01-.17-46z"/><path class="cls-7" d="M230.25 44A39.32 39.32 0 00234 60.59a133.24 133.24 0 0023.68-16.65h-.75.75a132 132 0 00-23.81-16.47 39.33 39.33 0 00-3.63 16.42z"/><path d="M257.69 43.94h-.75.75l-.35-.29-152.28.58v.29a35.92 35.92 0 005.34 18.65l8.34 3.51a132.43 132.43 0 00138.95-22.74z" style="mix-blend-mode:multiply" fill="#dcdde0"/><path d="M257.78 43.88h-.75.75l-.34-.29a192.25 192.25 0 01-71.63 24.56 192.22 192.22 0 01-75.33-5l8.34 3.51a132.43 132.43 0 00138.96-22.78z" style="mix-blend-mode:multiply" fill="#cbcbce"/><path class="cls-11" d="M165.75 44.76a12.77 12.77 0 1112.82 12.72 12.79 12.79 0 01-12.82-12.72z"/><path class="cls-6" d="M189.77 44.67a11.25 11.25 0 11-11.29-11.21 11.25 11.25 0 0111.29 11.21m3 0A14.29 14.29 0 10178.57 59a14.31 14.31 0 0014.24-14.34z"/><path d="M178.43 36.56a8.1 8.1 0 11-8 8.16 8.1 8.1 0 018-8.16z" fill="url(#Degradado_sin_nombre_31)"/><path class="cls-11" d="M199.44 45.33a7.12 7.12 0 117.14 7.09 7.13 7.13 0 01-7.14-7.09z"/><path class="cls-6" d="M212.82 45.28a6.27 6.27 0 11-6.29-6.28 6.26 6.26 0 016.29 6.24m1.69 0a8 8 0 10-7.92 8 8 8 0 007.92-8z"/><path d="M206.51 40.77a4.51 4.51 0 11-4.51 4.54 4.51 4.51 0 014.51-4.54z" fill="url(#Degradado_sin_nombre_31-2)"/><path class="cls-11" d="M142.69 44a7.12 7.12 0 117.14 7 7.13 7.13 0 01-7.14-7z"/><path class="cls-6" d="M156.07 43.9a6.27 6.27 0 11-6.29-6.24 6.26 6.26 0 016.29 6.24m1.69 0a8 8 0 10-7.92 8 8 8 0 007.92-8z"/><path d="M149.76 39.39a4.51 4.51 0 11-4.48 4.54 4.51 4.51 0 014.48-4.54z" fill="url(#Degradado_sin_nombre_31-3)"/><path class="cls-7" d="M123.49 20.23A163.19 163.19 0 01141 15.15a161.1 161.1 0 0120.81-3.37l-12.1-6.46a45.16 45.16 0 00-31.6-4.12l-21.36 5z"/><g class="cls-9"><path class="cls-15" d="M124.91 19.54a138.11 138.11 0 0132.69-7.22L147.26 6.8a38.57 38.57 0 00-27-3.51L102 7.59z"/></g><path class="cls-7" d="M122.34 67.77a160.31 160.31 0 0017.37 5.36 159.84 159.84 0 0020.75 3.72l-12.21 6.26a45.06 45.06 0 01-31.66 3.59l-21.27-5.39z"/><g class="cls-9"><path class="cls-15" d="M124.51 68.85A144.68 144.68 0 00140 73.63 142.94 142.94 0 00158.48 77l-10.88 5.52a40.16 40.16 0 01-28.21 3.2l-19-4.8z"/></g></g></g></g></svg>