<svg xmlns="http://www.w3.org/2000/svg" viewBox="0 0 458.67 480.95"><defs><style>.cls-1{fill:#194071;}.cls-2{fill:#64c2a4;}.cls-3{fill:#24b68d;}.cls-4{fill:#00926a;}.cls-5{fill:#fff;}.cls-6{fill:#9fc3cf;}.cls-7{fill:#48c7f4;}.cls-8{fill:#ffd151;opacity:0.61;}.cls-9{fill:#98d5d1;}.cls-10{fill:#a2ddf8;}.cls-11{fill:#10325d;}.cls-12{fill:#00b1e1;}</style></defs><g id="Слой_2" data-name="Слой 2"><g id="OBJECTS"><path class="cls-1" d="M213.48,12.46c-.42-2.86-5.33-2.19-5,.68.37,3.81.9,7.59,1.21,11.4.29,3.51-.45,7.18.29,10.6.47,2.14,3.52,2.39,4.55.59C218.07,29.49,214.45,19.13,213.48,12.46Z"/><path class="cls-2" d="M107,105.81s6-65.33,96.33-81.67,133.34,43,134.34,62.34S107,105.81,107,105.81Z"/><path class="cls-3" d="M337.67,86.48C337.29,79.24,331,66.4,318.62,54l-.43.27q-3.88,2.28-7.95,4.24c-4.21,2.21-8.22,4.73-12.58,6.64a53.09,53.09,0,0,1-10,3c-2.43.55-4.77,1.35-7.23,1.78-2.8.49-5.63.92-8.45,1.33-3.06.46-6,1.41-9.06,1.78-2.56.31-5.05,1-7.62,1.12-3.17.18-6.3.52-9.48.5q-8.75,0-17.49,0a143.47,143.47,0,0,1-15.89-1.11c-3.38-.37-6.7-1-10-1.64-2.29-.42-4.45-1.23-6.71-1.64a73.85,73.85,0,0,1-8.6-1.57c-2.25-.69-4.36-1.7-6.6-2.42-4.52-1.46-9-2.56-13.21-4.87a32.74,32.74,0,0,1-12.12-11.94,51.66,51.66,0,0,1-3.46-6.58C110.47,68.16,107,105.81,107,105.81S338.67,105.81,337.67,86.48Z"/><path class="cls-4" d="M195,81.14l-.08.33c-.77,0,0-5.47.12-6.09,1.72-8.86,9.62-15.46,18.22-17.31l.63-.13a26.38,26.38,0,0,1,24.19,8.49,18.9,18.9,0,0,1,3.13,5.37,10.37,10.37,0,0,1,1.17,5.11c-.25,2.45-2.59,4.48-4.43,5.82-3.26,2.39-6.76,3.51-10.5,4.92a51,51,0,0,1-11.84,2.59,48.5,48.5,0,0,1-7.62.25,10.43,10.43,0,0,1-3.28-.48c-.91-.36-1.66-1.05-2.54-1.47-1.82-.87-3.79-1.41-5.55-2.4C194.3,84.84,195.75,83.54,195,81.14Z"/><path class="cls-4" d="M224.33,64.81c.69.2.92-1.06,1-1.38a28.66,28.66,0,0,1,2.38-4.56c.76-1.25,1.42-2.9,2.71-3.7.62-.39,1.6-.78,1.34-1.73-.2-.79-.94-1.29-1.48-1.91a4.23,4.23,0,0,1-.63-4.48c1.37-2.93,5.41-3,8-1.81a10.81,10.81,0,0,1,5.43,6.2,3.86,3.86,0,0,1-1.26,3.92,2.33,2.33,0,0,1-1.18.64,7.31,7.31,0,0,1-2.09-.06l-2.4-.51c-.56-.12-.84.12-1.24.5s-.78.87-1.24,1.23a20.45,20.45,0,0,0-2.59,2.42,21.22,21.22,0,0,0-2.81,3.85c-.65,1.14-1,3.1-2,4a8,8,0,0,1-1,.33C223.83,68,224.31,65.94,224.33,64.81Z"/><path class="cls-4" d="M204.89,69.73c-.62.34-1.12-.83-1.32-1.12a29.56,29.56,0,0,0-3.31-3.93c-1-1.05-2-2.52-3.45-3-.7-.25-1.73-.42-1.7-1.4a5.41,5.41,0,0,1,1-2.18,4.28,4.28,0,0,0-.36-4.52c-2-2.56-5.93-1.74-8.16,0a10.69,10.69,0,0,0-3.95,7.23,3.74,3.74,0,0,0,1.06,2.78,5.79,5.79,0,0,0,1.3,1,3,3,0,0,0,1.59.08,7.92,7.92,0,0,0,3.83-1.67,4.74,4.74,0,0,1,1.36.6c.22.13.43.28.65.42s.46.37.63.37a21.28,21.28,0,0,1,3.06,1.79,21.9,21.9,0,0,1,3.58,3.15c.89,1,1.69,2.8,2.84,3.46a6.65,6.65,0,0,0,1.06.1C206.07,72.72,205.17,70.83,204.89,69.73Z"/><path class="cls-5" d="M30.15,172.11s-6-70,179.27-93S403.6,104.28,406,117.48,30.15,172.11,30.15,172.11Z"/><path class="cls-6" d="M30.15,172.11s0-66.63,189.39-82.72C402,73.89,403.88,107.66,406,117.48Z"/><path class="cls-1" d="M238.67,200.81C100.09,219.65,46,215.48,31.33,179.48s104.67-76.67,196-83.34S396.67,85.48,406,117.48,405.33,178.14,238.67,200.81Z"/><path class="cls-7" d="M152.27,195.6s-16.5,2.88-23.87-17.79,31.43-39,95.48-46.34,101.32,1.91,105,13.28,0,28.08-38,33.41S176.38,197.79,152.27,195.6Z"/><path class="cls-5" d="M227.67,185.14c-77.6,5.22-84.5,7.5-89-9.5s30-27.5,82-37,96,0,102,11.5S287.17,181.14,227.67,185.14Z"/><path class="cls-8" d="M458.67,481H0s150.42-306.71,156.06-312.4,106.45-40.88,155.19-13.64Z"/><path class="cls-7" d="M62.67,169.14c4.76-4.45,11.46-6.45,17.5-8.43a19.05,19.05,0,0,1,6.56-1.08,17.54,17.54,0,0,1,4,.08c3.45.9,2.93,7.16,1.79,9.55-2.31,4.86-7.58,8.6-12.7,10a20.8,20.8,0,0,1-10.85.05c-2.83-.77-7.11-2.7-7.28-6.17a10.38,10.38,0,0,1,0-2C61.74,170.47,62.85,169.8,62.67,169.14Z"/><path class="cls-7" d="M127.83,135.15a6.1,6.1,0,0,1,2.49-4.4,27.16,27.16,0,0,1,5.14-3c1.75-.92,3.5-2,5.34-2.74a28.81,28.81,0,0,1,5.71-1.45,28.71,28.71,0,0,1,6.3-.93c2.47.12,4.32,2.83,4.77,5.13.63,3.25-2.08,7-4.56,8.92-4.14,3.19-9.3,4.44-14.44,4.65-2.17.09-5.14.43-7.19-.33a6,6,0,0,1-3.57-5.54A2.44,2.44,0,0,1,127.83,135.15Z"/><path class="cls-7" d="M114.28,189.15a25.71,25.71,0,0,0-5,1.09,10.89,10.89,0,0,0-3.78,1.58,2.64,2.64,0,0,0-1.07,1.92c-.06.66-.35,1,0,1.65a4.91,4.91,0,0,0,3.11,2.06,22.23,22.23,0,0,0,4.92.91,10.48,10.48,0,0,0,7.46-2,4.6,4.6,0,0,0,1.28-1.08c.11-.36.21-.72.3-1.09a5.47,5.47,0,0,0,.43-1c.23-1-.82-2-1.49-2.61a7.67,7.67,0,0,0-3.26-1.21A10.37,10.37,0,0,0,114.28,189.15Z"/><path class="cls-7" d="M221.77,110.54c-1.85.28-3.53.94-5.31,1.37a12.52,12.52,0,0,0-5.12,1.94c-1.76,1.39-2.83,4.46-1,6.21a7.27,7.27,0,0,0,3.3,1.53A53.79,53.79,0,0,0,229,123.24c1.16,0,2.34-.33,3.49-.26a14.15,14.15,0,0,0,3.44-.11c3.57-.61,8.88-3.4,7-7.85a2.65,2.65,0,0,0-1.38-1.45A32.35,32.35,0,0,0,221.77,110.54Z"/><path class="cls-7" d="M307.12,110.39H307c-2,.22-4.43.25-6.17,1.28a4.05,4.05,0,0,0-2.07,3.63c.21,1.54,1.65,3.26,2.68,4.34,3.5,3.67,8.56,4.37,13.37,4.81a29.8,29.8,0,0,0,9.61-.31,9.58,9.58,0,0,0,5-2.5c1.05-1.07,2.09-2.1,2-3.7,0-1.2-1.65-2-2.56-2.61a33,33,0,0,0-20.68-5C307.84,110.32,307.48,110.36,307.12,110.39Z"/><path class="cls-7" d="M362.17,131.14a21.14,21.14,0,0,1,7.91-.94c3.43.15,7.39.9,10.12,3.11,1,.81,2.65,2.24,2,3.67-1.21,2.71-4.48,3.93-7.17,4.63-3.32.85-7.31,1-10.47-.47a10.81,10.81,0,0,1-3.18-1.6,6.13,6.13,0,0,1-1.68-2.4c-.33-1-.84-1.91-.5-3A4.5,4.5,0,0,1,362.17,131.14Z"/><path class="cls-7" d="M362.51,157.8a4.63,4.63,0,0,0-.69-.55,3.67,3.67,0,0,0-1.95-.58,5.62,5.62,0,0,1-1.75-.39,16.72,16.72,0,0,0-4.32-.8,14,14,0,0,0-3,.12c-.74.13-1.48.11-2.22.26-1.24.23-3.39,1.22-3.68,2.62a12.65,12.65,0,0,0,0,2.13,2.59,2.59,0,0,0,.68,2.1c2.44,2.39,6.21,2.69,9.39,2.69a12.08,12.08,0,0,0,4-.5c.77-.27,1.5-.66,2.25-1,1.58-.72,3-2.45,2.44-4.26A4.49,4.49,0,0,0,362.51,157.8Z"/><path class="cls-3" d="M210.11,65.64a3.39,3.39,0,0,0-2.76.26,1.87,1.87,0,0,0-1,2.27c.13.29.53.16.62-.08.18-.49.26-.83.74-1.11a2.71,2.71,0,0,1,1.34-.3c.42,0,1,.27,1.3-.08A.61.61,0,0,0,210.11,65.64Z"/><path class="cls-3" d="M224.2,65a2.8,2.8,0,0,0-2.55-1.75,2.6,2.6,0,0,0-2.31,1.59c-.2.55.65.76.86.24a1.82,1.82,0,0,1,2-.78c.55.14,1,.92,1.45,1.26S224.39,65.37,224.2,65Z"/><path class="cls-3" d="M217.53,70.47c-.91.37-1.72,1-2.69.35-.36-.23-.79.31-.46.59,1,.81,2.91.92,3.64-.3C218.21,70.81,217.9,70.32,217.53,70.47Z"/><path class="cls-3" d="M185.93,57a5.89,5.89,0,0,0-1,4.27.37.37,0,0,0,.73,0,33.85,33.85,0,0,1,.9-4A.37.37,0,0,0,185.93,57Z"/><path class="cls-3" d="M187.27,55.39l-.2.12c-.48.3.18,1,.48.47l.12-.19A.29.29,0,0,0,187.27,55.39Z"/><path class="cls-3" d="M240.09,48.37a2.76,2.76,0,0,0-1.67-1c-.33,0-.37.4-.15.55a5,5,0,0,1,1.25,1.1,7.24,7.24,0,0,0,1,1.37.32.32,0,0,0,.54-.23A3.11,3.11,0,0,0,240.09,48.37Z"/><path class="cls-3" d="M241.63,51.17c-.24-.43-1-.13-.81.34a1.28,1.28,0,0,0,.25.4.38.38,0,0,0,.63-.17A.59.59,0,0,0,241.63,51.17Z"/><path class="cls-3" d="M203.7,64.52a14.42,14.42,0,0,0-6,9,.41.41,0,0,0,.79.22c1-3.53,3.29-6,5.74-8.55C204.55,64.85,204.12,64.26,203.7,64.52Z"/><path class="cls-3" d="M206.64,62.67a6.71,6.71,0,0,0-.87.49.46.46,0,0,0,.46.79,2.08,2.08,0,0,0,.86-.69A.4.4,0,0,0,206.64,62.67Z"/><path class="cls-8" d="M414.18,481a15.35,15.35,0,0,1-.74-1.78c-.69-2.08-1.91-3.38-2.83-5.28-.81-1.68-1.2-3.49-1.92-5.22-2.17-5.26-4.81-10.18-6.19-15.7-1.63-6.47-6.56-10.79-9.2-16.67q-4.89-10.89-9.64-21.84-9.51-21.9-18.48-44-17.91-44.26-33.63-89.38t-29.17-90.93c-1.47-5-2.48-9.82-5.36-14.16s-6.19-8.75-8.35-13.53a48,48,0,0,0-7.78-12.26,33.12,33.12,0,0,1-3.2-4.77c-31.12-3.08-67.82,4.49-92.75,11.92-3,7.56-6.18,15-9.32,22.51-1.32,3.13-2.77,6.08-4.28,9.08-1.59,3.15-1.9,7.35-2.68,10.78q-5.32,23.44-11.29,46.73Q145.45,293,131,338.86T99.48,429.7c-1.6,4.22-2.11,8.7-3.32,13.08-1.4,5.06-2.75,10.15-3.71,15.31C91,465.71,89.6,473.31,88.24,481Z"/><path class="cls-8" d="M337.71,462.07c-5.55-8.77-10.47-17.66-13.56-27.59-2.11-6.78-3.45-13.48-5.71-20.22q-3.87-11.53-7.61-23.11-7.5-23.14-14.51-46.45-14-46.6-26.08-93.76-4.74-18.51-9.17-37.1-2.25-9.41-4.42-18.84c-1.18-5.15-1.43-10.12-2.78-15.28-2.9-11-4.47-22.49-10.23-32.35a17.52,17.52,0,0,0-1.1-1.65A292.43,292.43,0,0,0,209.7,151c.07,5.52.29,11,.89,16.48.4,3.66-.72,7.8-1.18,11.44q-.79,6.2-1.57,12.4-3.12,24.78-6.25,49.57-6.27,49.58-12.52,99.15l-12.51,99.16c-1.09,13.05-3.67,26-4.92,39a14.93,14.93,0,0,0,0,2.75h173.2C343,474.4,341.32,467.78,337.71,462.07Z"/><path class="cls-9" d="M251.12,28a75.22,75.22,0,0,0-33.24-.88,1.08,1.08,0,0,0,0,2.08c4.72,1.24,9.75.35,14.58.49,6,.18,12.16,2.38,18.21,1.69C252.49,31.16,253.14,28.5,251.12,28Z"/><path class="cls-9" d="M269.16,33.65a10.49,10.49,0,0,0-4.11-1.92c-1.81-.5-3.67-1.08-5.51-1.43a1.4,1.4,0,0,0-1.08,2.55A23.06,23.06,0,0,0,263,34.59a25.62,25.62,0,0,0,5.22,1.46A1.41,1.41,0,0,0,269.16,33.65Z"/><path class="cls-10" d="M79.73,173.11a15.09,15.09,0,0,1-10.09,1.57,1.17,1.17,0,0,0-.62,2.26c4.15,1.65,9.51,1.68,12.35-2.19C82.14,173.69,80.7,172.64,79.73,173.11Z"/><path class="cls-10" d="M85.33,170.92a7.62,7.62,0,0,0-1,.16,4.88,4.88,0,0,0-1,.49A1.43,1.43,0,0,0,84.72,174l.68-.31a3.25,3.25,0,0,0,.8-.73C86.85,172.31,86.46,170.79,85.33,170.92Z"/><path class="cls-10" d="M116,193.75a10.4,10.4,0,0,1-2.16,0,14.14,14.14,0,0,0-2.51-.1,1.18,1.18,0,0,0-.59,2.18,5.39,5.39,0,0,0,5.79-.1C117.33,195.21,117.11,193.61,116,193.75Z"/><path class="cls-10" d="M146.33,134.32a10.34,10.34,0,0,0-3.74.71,18.55,18.55,0,0,1-4.26.67,1.11,1.11,0,0,0,0,2.22,19.51,19.51,0,0,0,4.39-.22,10.32,10.32,0,0,0,4.2-1.22A1.17,1.17,0,0,0,146.33,134.32Z"/><path class="cls-10" d="M228.67,119.26c-2.88.33-5.8-.31-8.67-.53-1.41-.11-1.35,2,0,2.16,3.11.37,5.83,1.12,8.9.1C229.79,120.69,229.7,119.14,228.67,119.26Z"/><path class="cls-10" d="M236.06,118.48a10.83,10.83,0,0,1-1.39.1,1.23,1.23,0,0,0,0,2.46,3.84,3.84,0,0,0,2.18-.67A1,1,0,0,0,236.06,118.48Z"/><path class="cls-10" d="M316.59,120.86c-3.13-1.18-6.39-1-9.45-2.53A.94.94,0,0,0,306,119.8c2.45,2.81,6.92,2.84,10.33,3C317.51,122.85,317.58,121.23,316.59,120.86Z"/><path class="cls-10" d="M322.74,120.19a1.3,1.3,0,0,1-.71,0,1.4,1.4,0,0,0-1.67,1,1.36,1.36,0,0,0,.95,1.68,2.31,2.31,0,0,0,1.63-.21,2.65,2.65,0,0,0,.91-.94A1,1,0,0,0,322.74,120.19Z"/><path class="cls-10" d="M371.33,138.22a32.5,32.5,0,0,1-7-1.5,1.13,1.13,0,0,0-.87,2.06,11.59,11.59,0,0,0,8.15,1.25C372.68,139.82,372.3,138.31,371.33,138.22Z"/><path class="cls-10" d="M355.06,162.15c-2,.28-4-.54-6-.22-.82.13-.83,1.29-.22,1.67a8,8,0,0,0,7,.43C357,163.53,356.1,162,355.06,162.15Z"/><path class="cls-11" d="M180.16,125.8a36.78,36.78,0,0,0-4-4.54,44.57,44.57,0,0,1-4.4-6.08c-.73-1.13-2.79-.41-2.27,1a26.51,26.51,0,0,0,3.83,6.38c1.42,1.89,2.94,3.93,5,5.12A1.35,1.35,0,0,0,180.16,125.8Z"/><path class="cls-11" d="M192.09,124.84c-2.11-3.69-1.37-8.31-1.42-12.36a1.34,1.34,0,0,0-2.67,0c-.36,4.23-1.84,11.29,2.36,14.09C191.45,127.3,192.7,125.89,192.09,124.84Z"/><path class="cls-11" d="M119.72,149.19c-2.56-5.27-10-8-15-10.22-1.57-.71-3,1.55-1.38,2.35,2.52,1.25,5,2.54,7.46,4a61.11,61.11,0,0,1,7,5.38A1.23,1.23,0,0,0,119.72,149.19Z"/><path class="cls-11" d="M108.33,152.36a71.58,71.58,0,0,0-8.66-.47,1.26,1.26,0,0,0,0,2.51c2.89.07,5.77.39,8.66.19A1.12,1.12,0,0,0,108.33,152.36Z"/><path class="cls-11" d="M100.33,177.6c-4.63.41-9,2.88-13,5.12-1.43.8-.17,2.92,1.28,2.18,3.91-2,8-3.31,12-4.93C101.81,179.51,101.8,177.47,100.33,177.6Z"/><path class="cls-11" d="M103.38,183.76a61.16,61.16,0,0,0-8.67,5A1.24,1.24,0,0,0,96,190.88c2.8-1.63,5.62-3.24,8.26-5.13C105.14,185.09,104.6,183.25,103.38,183.76Z"/><path class="cls-11" d="M131.67,198.15a28.6,28.6,0,0,0-4.41,6.36,1.25,1.25,0,0,0,2,1.51c1.89-1.73,3.2-4.09,4.67-6.17C134.8,198.55,132.68,196.91,131.67,198.15Z"/><path class="cls-11" d="M261,103.88a1.18,1.18,0,0,0-2,1.19c1.94,3.51,2.85,7.46,4.78,10.94a1.06,1.06,0,0,0,2-.53C265.61,111.36,263.17,107.27,261,103.88Z"/><path class="cls-11" d="M276.1,104.14a77.77,77.77,0,0,1-1.42,8.3c-.28,1.44,1.81,2.55,2.5,1.06a25.48,25.48,0,0,0,2.06-9.36C279.36,102.11,276.25,102.14,276.1,104.14Z"/><path class="cls-11" d="M345.53,116.81c-1.2,1.8-2.46,3.56-3.74,5.3s-2.92,3.56-3.68,5.7c-.45,1.29,1.24,2,2.12,1.23a22.74,22.74,0,0,0,3.62-4.8c1.36-2,2.69-4,3.95-6.1C348.69,116.68,346.47,115.42,345.53,116.81Z"/><path class="cls-11" d="M355.18,122.4c-4.15,2.75-8.17,5.35-11.7,8.89-1,1,.32,2.71,1.46,1.89,3.88-2.76,7.95-5.27,11.88-8C358.54,124,356.94,121.24,355.18,122.4Z"/><path class="cls-11" d="M369.85,147.93c-3.13-2.34-7.75-2.53-11.52-2.35a1.23,1.23,0,0,0,0,2.46c3.77,0,7.07,1.24,10.73,1.75A1,1,0,0,0,369.85,147.93Z"/><path class="cls-11" d="M362.24,151.59c-.89-.36-1.8-.69-2.68-1.08a1.11,1.11,0,1,0-.86,2,12.23,12.23,0,0,0,3.3.84.91.91,0,0,0,.88-.67A1,1,0,0,0,362.24,151.59Z"/><path class="cls-11" d="M343.91,172.94c-1.61-3.3-5.38-5.31-8.12-7.59-1.09-.9-2.67.62-1.58,1.58,1.3,1.14,2.67,2.2,4,3.31s2.71,2.64,4.05,4A1.06,1.06,0,0,0,343.91,172.94Z"/><path class="cls-11" d="M332.41,175.51c-.64-1.78-1.8-3.32-2.59-5-.71-1.57-3-.21-2.31,1.35a15.63,15.63,0,0,0,3,4.78C331.31,177.33,332.8,176.61,332.41,175.51Z"/><path class="cls-12" d="M134.86,168.57a8,8,0,0,0-4.19-1.51,1.09,1.09,0,0,0-.55,2,14.46,14.46,0,0,0,1.81.77,9.87,9.87,0,0,0,2.13.64A1,1,0,0,0,134.86,168.57Z"/><path class="cls-12" d="M135.29,175.75a6.87,6.87,0,0,0-3-.15,1.26,1.26,0,0,0,0,2.42,6.87,6.87,0,0,0,3-.15A1.11,1.11,0,0,0,135.29,175.75Z"/><path class="cls-12" d="M137,181.77a3,3,0,0,0-1.7.1,8.84,8.84,0,0,0-1.49.62,1.15,1.15,0,0,0-.52,1.29,1.16,1.16,0,0,0,1.4.79c.43-.06.85-.16,1.28-.26a3.45,3.45,0,0,0,1.51-.74A1.08,1.08,0,0,0,137,181.77Z"/><path class="cls-12" d="M141.8,187.22c-.35.27-.72.47-1.05.76a2.78,2.78,0,0,0-.35.19l-.39.13a1.22,1.22,0,0,0,.65,2.35,4.77,4.77,0,0,0,1.5-.6,2.72,2.72,0,0,0,1.2-1.62C143.64,187.59,142.55,186.65,141.8,187.22Z"/><path class="cls-12" d="M139.06,161.18a2,2,0,0,0-1.09-1.35,2.5,2.5,0,0,0-1.95-.17,1.21,1.21,0,0,0-.88,1.15A1.19,1.19,0,0,0,136,162a6,6,0,0,1,.81.21c-.19-.06.19.13.19.13a3.13,3.13,0,0,0,.69.24A1.11,1.11,0,0,0,139.06,161.18Z"/><path class="cls-12" d="M150.35,153.8a10,10,0,0,0-2.1-1.32,1.16,1.16,0,0,0-1.57,1.57,2.79,2.79,0,0,0,3.24,1.35C150.53,155.19,151,154.28,150.35,153.8Z"/><path class="cls-12" d="M161.47,149.34a2.29,2.29,0,0,0-1.33-1.05,3.83,3.83,0,0,0-1.47-.36.88.88,0,0,0-.76,1.32,3.29,3.29,0,0,0,3,1.45A.94.94,0,0,0,161.47,149.34Z"/><path class="cls-12" d="M175.56,145.29a2.38,2.38,0,0,0-.91-.95,3.9,3.9,0,0,1-.76-.76c-.88-1.13-2.83.38-2,1.53.67.92,1.76,2.12,3,1.69A1,1,0,0,0,175.56,145.29Z"/><path class="cls-12" d="M186.35,142.19c-.41-1.25-1.65-1.84-2.72-2.45s-2.62,1-1.51,1.95c.94.78,1.91,1.82,3.21,1.84A1.07,1.07,0,0,0,186.35,142.19Z"/><path class="cls-12" d="M201.72,138.4a8.34,8.34,0,0,1-.45-1.27,1.32,1.32,0,0,0-2.54.69,12.81,12.81,0,0,0,.37,1.48,3,3,0,0,0,1.2,1.55c.61.47,1.76.26,1.7-.71A4.89,4.89,0,0,0,201.72,138.4Z"/><path class="cls-5" d="M148.48,222,148,221a2.34,2.34,0,0,0-4,0c-.15.35-.31.7-.47,1.06a3,3,0,0,0,0,2.89,2.87,2.87,0,0,0,5,0A3,3,0,0,0,148.48,222Z"/><path class="cls-5" d="M175.33,187.74c-3.1,0-3.1,4.81,0,4.81S178.44,187.74,175.33,187.74Z"/><path class="cls-5" d="M150,273.39c-4.41,0-4.41,6.84,0,6.84S154.41,273.39,150,273.39Z"/><path class="cls-5" d="M138,282.93a2.07,2.07,0,0,0-4,0,2.34,2.34,0,0,0,.19,2.09,2.1,2.1,0,0,0,3.58,0A2.34,2.34,0,0,0,138,282.93Z"/><path class="cls-5" d="M84.67,343.8c-3.88,0-3.88,6,0,6S88.55,343.8,84.67,343.8Z"/><path class="cls-5" d="M94.67,357.25a1.56,1.56,0,0,0,0,3.12A1.56,1.56,0,0,0,94.67,357.25Z"/><path class="cls-5" d="M86.67,423c-4,0-4,6.24,0,6.24S90.69,423,86.67,423Z"/><path class="cls-5" d="M73.73,434.69a1.5,1.5,0,1,0,0,2.9c.68-.23,1.42-.62,1.42-1.45S74.41,434.92,73.73,434.69Z"/><path class="cls-5" d="M42.63,424.51a2.44,2.44,0,0,0-2.68,1.1l-.2.27a1.81,1.81,0,0,0,0,1.85l.2.28a2.43,2.43,0,0,0,2.68,1.09,2.38,2.38,0,0,0,0-4.59Z"/><path class="cls-5" d="M406.67,447.64a3.19,3.19,0,0,0-3.06,4,3.48,3.48,0,0,0,1.55,2.07,3,3,0,0,0,3,0,3.54,3.54,0,0,0,1.56-2.07A3.2,3.2,0,0,0,406.67,447.64Z"/><path class="cls-5" d="M424.87,459.81a3,3,0,0,0-1.61-1.16,2.15,2.15,0,0,0-1.73.22,2.27,2.27,0,0,0-1.11,1.94,2.22,2.22,0,0,0,.66,1.58,2.19,2.19,0,0,0,2.18.58,3,3,0,0,0,1.61-1.17A2,2,0,0,0,424.87,459.81Z"/><path class="cls-5" d="M366.39,370.47a2,2,0,0,0-3.13-.41,2.11,2.11,0,0,0-.52,1.95c0,.16.05.32.07.48.28,1.84,3.43,1.84,3.71,0,0-.16.05-.32.07-.48A2.11,2.11,0,0,0,366.39,370.47Z"/><path class="cls-5" d="M384,380.38a1.1,1.1,0,0,0,0,2.19A1.1,1.1,0,0,0,384,380.38Z"/><path class="cls-5" d="M364,322c-3.63,0-3.63,5.63,0,5.63S367.63,322,364,322Z"/><path class="cls-5" d="M347.38,312.64a2.53,2.53,0,0,0-1.85-.19,1.77,1.77,0,0,0,0,3.38,2.48,2.48,0,0,0,1.85-.19A1.76,1.76,0,0,0,347.38,312.64Z"/><path class="cls-5" d="M343.86,256.29c-1.32-1.32-4-.83-4.39,1.15a3.21,3.21,0,0,0,0,1.31,2.62,2.62,0,1,0,4.41-2.46Z"/><path class="cls-5" d="M315.33,240.81c-2.57,0-2.57,4,0,4A2,2,0,0,0,315.33,240.81Z"/><path class="cls-5" d="M303.61,203.43c-.05-.18-.11-.36-.17-.54a2.21,2.21,0,0,0-4.22,0c-.05.18-.11.36-.16.53a3.07,3.07,0,0,0,2.27,5.12,3.06,3.06,0,0,0,2.28-5.11Z"/><path class="cls-5" d="M307.33,178.31a1.83,1.83,0,0,0,0,3.66A1.83,1.83,0,0,0,307.33,178.31Z"/><path class="cls-5" d="M292.76,163.21a2.7,2.7,0,0,0-2.09-.81,2.41,2.41,0,1,0,0,4.81,2.66,2.66,0,0,0,2.09-.81A2.33,2.33,0,0,0,292.76,163.21Z"/><path class="cls-5" d="M163.21,176.47l-.18-.61a1.08,1.08,0,0,0-2.06,0l-.18.61a1.26,1.26,0,1,0,2.42,0Z"/><circle class="cls-7" cx="210" cy="6.81" r="6.81"/><path class="cls-10" d="M213.59,3.2a3,3,0,0,0-1.69-1.28,6,6,0,0,0-2.07-.21.93.93,0,0,0,0,1.86,4.11,4.11,0,0,1,1.24.31c.51.23,1,.41,1.53.61A.89.89,0,0,0,213.59,3.2Z"/><path class="cls-10" d="M215.69,6.34l-.17-.29c-.57-.93-2.31-.63-2.2.59,0,.11,0,.22,0,.33a1.25,1.25,0,1,0,2.33-.63Z"/><path class="cls-5" d="M200.67,216.73a1.92,1.92,0,0,0,0,3.83A1.92,1.92,0,0,0,200.67,216.73Z"/><path class="cls-5" d="M242.91,195.72a3.3,3.3,0,0,0-2.5-.32c-2.72.6-2.72,4.89,0,5.48a3.3,3.3,0,0,0,2.5-.32A2.82,2.82,0,0,0,242.91,195.72Z"/><path class="cls-5" d="M262.17,215.87c-2.93,0-2.93,4.54,0,4.54S265.09,215.87,262.17,215.87Z"/><path class="cls-5" d="M266.69,288.61a2.18,2.18,0,0,0-3.05,0,2.59,2.59,0,0,0-.78,2,1.85,1.85,0,0,0,1.81,1.81,2.55,2.55,0,0,0,2-.78A2.17,2.17,0,0,0,266.69,288.61Z"/><path class="cls-5" d="M203.17,290.65a2,2,0,0,0,0,4C205.74,294.64,205.74,290.65,203.17,290.65Z"/><path class="cls-5" d="M195.12,382.41a.85.85,0,0,0-.31-.09,2.61,2.61,0,0,0-1.86.24,2.4,2.4,0,0,0-.48,3.78,2.51,2.51,0,0,0,2.34.62.85.85,0,0,0,.31-.09,2.32,2.32,0,0,0,0-4.46Z"/><path class="cls-5" d="M147.93,440a2.35,2.35,0,0,0-4.29-.57,2.32,2.32,0,0,0,.36,2.85,2.22,2.22,0,0,0,3.33,0A2.29,2.29,0,0,0,147.93,440Z"/><path class="cls-5" d="M166.17,453.9c-2.9,0-2.9,4.48,0,4.48S169.06,453.9,166.17,453.9Z"/><path class="cls-5" d="M209.67,430.15a2,2,0,0,0,0,4C212.24,434.14,212.24,430.15,209.67,430.15Z"/><path class="cls-5" d="M292.67,425.91c-3.53,0-3.53,5.47,0,5.47S296.19,425.91,292.67,425.91Z"/><path class="cls-5" d="M347.48,447.79l-.45-.74a2.18,2.18,0,0,0-3.73,0l-.45.74a2.68,2.68,0,1,0,4.63,0Z"/><path class="cls-5" d="M315.4,375.69a3,3,0,0,0-1.62-1.26,1.5,1.5,0,0,0-.62-.08,2.46,2.46,0,0,0-1.23.1A2.89,2.89,0,0,0,310,376.4a2.77,2.77,0,0,0,1.28,3.15,3.43,3.43,0,0,0,1.54.44,3,3,0,0,0,2.09-.88A2.84,2.84,0,0,0,315.4,375.69Z"/><path class="cls-5" d="M255.17,372.47a1.67,1.67,0,0,0,0,3.34A1.67,1.67,0,0,0,255.17,372.47Z"/><path class="cls-5" d="M133.17,376.28a1.86,1.86,0,0,0,0,3.72A1.86,1.86,0,0,0,133.17,376.28Z"/><path class="cls-5" d="M68.11,186.85a10.68,10.68,0,0,0-.4,2.29,1,1,0,0,0,1.63.68,3.89,3.89,0,0,0,.92-2.68C70.36,185.92,68.3,185.63,68.11,186.85Z"/><path class="cls-5" d="M88.31,186a6.13,6.13,0,0,0-1.1-1.9,1.48,1.48,0,0,0-2.09,0,1.51,1.51,0,0,0,0,2.09l.08.09.09.13c0,.09.11.18.16.28s.09.19.06.09c.16.39.36.88.47,1.19a1.26,1.26,0,0,0,1.19.9,1.22,1.22,0,0,0,1.18-.9A3.47,3.47,0,0,0,88.31,186Z"/><path class="cls-5" d="M101.64,175.84a8,8,0,0,0-1.41-.62,4.82,4.82,0,0,0-1.56-.12,1,1,0,0,0,0,2.08,13.34,13.34,0,0,1,2.25.36A.94.94,0,0,0,101.64,175.84Z"/><path class="cls-5" d="M130.46,147.79a1.34,1.34,0,0,0-2.63.35v.09a2.68,2.68,0,0,1-.07.27.63.63,0,0,0,0,.13l-.18.41a6.81,6.81,0,0,1-.43,1,1.26,1.26,0,0,0,.2,1.49,1.27,1.27,0,0,0,1.49.19,3,3,0,0,0,1.54-1.49A3.65,3.65,0,0,0,130.46,147.79Z"/><path class="cls-5" d="M150.47,148.72a14.27,14.27,0,0,1-.72-1.88c-.44-1.36-2.58-.79-2.16.6s.87,3.15,2.12,4a.91.91,0,0,0,1.36-.78A4.89,4.89,0,0,0,150.47,148.72Z"/><path class="cls-5" d="M163.88,143.38a5.5,5.5,0,0,1-2.59-1.36c-.79-.82-2,.4-1.24,1.24a4.26,4.26,0,0,0,3.83,1.65C164.7,144.76,164.56,143.6,163.88,143.38Z"/><path class="cls-5" d="M211.25,128.6a9.16,9.16,0,0,0-1.4,3.54.82.82,0,0,0,1.4.58,25.85,25.85,0,0,0,1.84-3A1.07,1.07,0,0,0,211.25,128.6Z"/><path class="cls-5" d="M229.46,130.29a1.36,1.36,0,0,0-1.65-.94,1.39,1.39,0,0,0-.94,1.65l.22,1.56a2,2,0,0,0,1,1.64,1.25,1.25,0,0,0,1.68-.44C230.44,132.8,229.73,131.32,229.46,130.29Z"/><path class="cls-5" d="M248.12,129.74a4.08,4.08,0,0,0-1.07-2.37,15.69,15.69,0,0,0-1.86-1.48,2,2,0,0,0-2.45,3.18,12.45,12.45,0,0,1,1.35,1.27,5.29,5.29,0,0,0,1.82,1.1A1.52,1.52,0,0,0,248.12,129.74Z"/><path class="cls-5" d="M297.56,125.11a1.81,1.81,0,0,0-2.43.63,30.19,30.19,0,0,1-2,2.86,1.48,1.48,0,0,0,1.79,2.32,7.38,7.38,0,0,0,3.29-3.38A1.81,1.81,0,0,0,297.56,125.11Z"/><path class="cls-5" d="M311,130.14a1.37,1.37,0,0,0-2.73,0c-.07.63-.14,1.26-.19,1.89a5.17,5.17,0,0,0,.4,1.93,1.21,1.21,0,0,0,2.32,0,9.72,9.72,0,0,0,.39-1.93A9.32,9.32,0,0,0,311,130.14Z"/><path class="cls-5" d="M327.53,135.68a20.59,20.59,0,0,0-1.23-2.2c-.9-1.43-3.17-.11-2.27,1.32.4.64.77,1.29,1.11,2a12.05,12.05,0,0,0,1.2,1.86c.5.68,1.88.58,1.78-.48A6.77,6.77,0,0,0,327.53,135.68Z"/><path class="cls-5" d="M358.94,142.82a1.54,1.54,0,0,0-2.1.55c-.23.52-.52,1-.77,1.52s-.51,1.13-.87,1.69c-.66,1,.59,2,1.53,1.53a5,5,0,0,0,2.91-3.56A1.56,1.56,0,0,0,358.94,142.82Z"/><path class="cls-5" d="M370.38,151.31a5.32,5.32,0,0,1-.21-1.67,1.5,1.5,0,0,0-1.5-1.5,1.53,1.53,0,0,0-1.51,1.5,3.72,3.72,0,0,0,.29,1.72,5.64,5.64,0,0,0,.83,1.17A1.26,1.26,0,0,0,370.38,151.31Z"/><path class="cls-5" d="M378.44,149.11a2.05,2.05,0,1,0-3.54,2.07c.71,1.21,1.2,2.58,2.47,3.33a1.6,1.6,0,0,0,2.33-.95C380.11,151.93,379.24,150.47,378.44,149.11Z"/><path class="cls-5" d="M342.84,167.64a1.18,1.18,0,0,0-2.35,0,1.9,1.9,0,0,1-.09.82,3.84,3.84,0,0,0-.34.67,2.28,2.28,0,0,1-.15.57c-.28.63.19,1.57,1,1.29a2.43,2.43,0,0,0,1.61-1.3A4,4,0,0,0,342.84,167.64Z"/><path class="cls-5" d="M350.67,170.39a1.76,1.76,0,0,0-1.75,1.75,5,5,0,0,0,.28,1.8,1.71,1.71,0,0,0,1.47,1,1.73,1.73,0,0,0,1.47-1,5.22,5.22,0,0,0,.28-1.8A1.76,1.76,0,0,0,350.67,170.39Z"/><path class="cls-5" d="M363.54,170a3.75,3.75,0,0,0-1.89-1.1,1.8,1.8,0,0,0-1,3.48l.2.06,0,0s.08.11,0,0h0a1.89,1.89,0,0,0,.59.57,2.43,2.43,0,0,0,1.06.36,1.55,1.55,0,0,0,1.05-.45,2.14,2.14,0,0,0,.54-1.43A2.44,2.44,0,0,0,363.54,170Z"/></g></g></svg>