<svg xmlns="http://www.w3.org/2000/svg" xmlns:xlink="http://www.w3.org/1999/xlink" viewBox="0 0 310.8 388.67"><defs><style>.cls-1{isolation:isolate;}.cls-2{fill:#addcee;}.cls-15,.cls-3{mix-blend-mode:overlay;}.cls-4{fill:url(#Gradiente_sem_nome_124);}.cls-5{fill:#91a99c;}.cls-14,.cls-16,.cls-6{mix-blend-mode:soft-light;}.cls-7{fill:url(#Gradiente_sem_nome_124-4);}.cls-8{fill:#d1dbbf;}.cls-9{fill:url(#Gradiente_sem_nome_124-5);}.cls-10{fill:#406270;}.cls-11{fill:#f4e600;}.cls-12{opacity:0.5;fill:url(#Gradiente_sem_nome_128);}.cls-13{opacity:0;}.cls-14,.cls-15{fill:#fff;}.cls-16{fill:#010101;opacity:0.29;}</style><radialGradient id="Gradiente_sem_nome_124" cx="155.21" cy="52.5" r="52.5" gradientUnits="userSpaceOnUse"><stop offset="0" stop-color="#fff"/><stop offset="1" stop-color="#231f20"/></radialGradient><radialGradient id="Gradiente_sem_nome_124-4" cx="155.33" cy="70" r="101.6" xlink:href="#Gradiente_sem_nome_124"/><radialGradient id="Gradiente_sem_nome_124-5" cx="156.66" cy="77.33" r="110.71" gradientTransform="translate(0 48.96) scale(1 0.37)" xlink:href="#Gradiente_sem_nome_124"/><linearGradient id="Gradiente_sem_nome_128" x1="155.33" y1="63.6" x2="155.33" y2="452.09" gradientUnits="userSpaceOnUse"><stop offset="0" stop-color="#f4e600"/><stop offset="0.15" stop-color="#f4e600" stop-opacity="0.8"/><stop offset="0.49" stop-color="#f4e600" stop-opacity="0.37"/><stop offset="0.72" stop-color="#f4e600" stop-opacity="0.1"/><stop offset="0.83" stop-color="#f4e600" stop-opacity="0"/></linearGradient></defs><g class="cls-1">
<g id="ufo" data-name="Слой 2">
<g id="Слой_1-2" data-name="Слой 1"><circle class="cls-2" cx="155.21" cy="52.5" r="52.5"/><g class="cls-3"><circle class="cls-4" cx="155.21" cy="52.5" r="52.5"/></g><g class="cls-3"><circle class="cls-4" cx="155.21" cy="52.5" r="52.5"/></g><g class="cls-3"><circle class="cls-4" cx="155.21" cy="52.5" r="52.5"/></g><ellipse class="cls-5" cx="155.33" cy="70" rx="138" ry="40"/><g class="cls-6"><ellipse class="cls-7" cx="155.33" cy="70" rx="138" ry="40"/></g><ellipse class="cls-8" cx="155.33" cy="74" rx="138" ry="36"/><g class="cls-6"><ellipse class="cls-9" cx="155.33" cy="74" rx="138" ry="36"/></g><ellipse class="cls-10" cx="155.33" cy="83" rx="71.38" ry="18.62"/><ellipse class="cls-11" cx="155.33" cy="84" rx="63" ry="16.43"/>
<g id="light">
<polygon class="cls-12">
	<animate attributeName="points" dur="1s" fill="freeze" repeatCount="1" begin="3s"
             values = "218.33 84 155.33 84 92.33 84 92.33 84 92.33 84 92.33 84 218.33 84; 
						 218.33 84 155.33 84 92.33 84 36.08 336.54 155.33 333 274.58 336.54 218.33 84" /> 
</polygon>
</g>
<path class="cls-14" d="M113,30s8.5-23.5,37-28.17c0,0-17.67,4.67-24.5,27.34Z"/><path class="cls-14" d="M113,30s8.5-23.5,37-28.17c0,0-17.67,4.67-24.5,27.34Z"/><path class="cls-15" d="M201.21,30.86s-7.49-15.09-15.86-20.15c0,0,5,6.71,7.1,19Z"/><path class="cls-14" d="M137.54,7.75A42.59,42.59,0,0,0,125,28.42l-4.75.5S127.46,11.75,137.54,7.75Z"/><path class="cls-16" d="M84.49,104.34l1.88-5.44s-42-5.23-34.66-26.57,45.1-28,45.1-28S34.17,47.25,19.35,71.08C14.12,79.49,33,90.54,50.27,96.15A241.92,241.92,0,0,0,84.49,104.34Z"/><path class="cls-16" d="M225.06,104.34l-1.88-5.44s42-5.23,34.67-26.57-45.1-28-45.1-28,62.64,2.92,77.46,26.75c5.23,8.41-13.69,19.46-30.92,25.07A241.88,241.88,0,0,1,225.06,104.34Z"/></g></g></g></svg>