<svg xmlns="http://www.w3.org/2000/svg" viewBox="0 0 402.81 566.87"><defs><style>.cls-1{fill:#fafbfd;}</style></defs><g id="Слой_2" data-name="Слой 2"><g id="Слой_1-2" data-name="Слой 1"><path class="cls-1" d="M401.06,255c-16.41,1-46.64-3-53.6-35.13-3.38-15.59-4.46-32.37-12.88-46A50,50,0,0,0,318.68,158c-39.84-25.3-82.62,20.7-132-6C113.3,112.31,142.06,24,0,0V566.87c39.83-25.3,13.34-75.49,53.18-100.79s66.32,24.89,106.16-.41,13.34-75.49,53.18-100.79,66.32,24.89,106.16-.41c14.34-9.1,21.37-23.85,24.87-41.09,3.16-15.61,4.17-26.22,14.67-38.05,17.16-19.33,43-17.73,43.75-18.5C403.06,265.72,403.4,254.86,401.06,255Z"/></g></g></svg>